<?xml version="1.0" encoding="UTF-8" ?>
<!DOCTYPE svg PUBLIC "-//W3C//DTD SVG 1.1//EN" "http://www.w3.org/Graphics/SVG/1.1/DTD/svg11.dtd">
<svg width="64pt" height="64pt" viewBox="0 0 64 64" version="1.1" xmlns="http://www.w3.org/2000/svg">
<path fill="#922e10" d=" M 0.00 0.00 L 14.58 0.00 C 13.35 6.97 1.02 1.66 3.98 10.06 C 6.05 18.12 5.68 28.31 12.08 34.48 C 12.03 34.87 11.93 35.65 11.88 36.04 C 11.46 37.79 11.13 39.57 10.81 41.34 C 3.09 35.38 4.47 24.49 0.00 16.51 L 0.00 0.00 Z" />
<path fill="#b14214" d=" M 14.58 0.00 L 18.34 0.00 C 18.05 6.05 13.29 9.53 8.01 11.27 C 8.00 16.54 8.27 24.64 13.74 27.16 C 13.03 29.56 12.42 31.99 12.08 34.48 C 5.68 28.31 6.05 18.12 3.98 10.06 C 1.02 1.66 13.35 6.97 14.58 0.00 Z" />
<path fill="#c55f1c" d=" M 18.34 0.00 L 46.65 0.00 C 46.69 6.03 51.69 10.70 57.97 9.26 C 58.66 18.33 55.34 26.94 52.34 35.32 C 52.07 37.48 49.63 36.74 48.10 37.11 C 49.60 30.41 54.00 24.32 52.94 17.19 C 49.20 14.79 43.94 14.38 42.80 9.14 C 39.61 0.88 29.59 3.11 23.37 6.27 C 21.37 10.20 20.32 15.18 15.47 16.57 C 11.53 17.73 13.40 21.98 14.37 24.71 C 14.21 25.32 13.90 26.55 13.74 27.16 C 8.27 24.64 8.00 16.54 8.01 11.27 C 13.29 9.53 18.05 6.05 18.34 0.00 Z" />
<path fill="#b04315" d=" M 46.65 0.00 L 50.43 0.00 C 52.06 5.20 58.01 3.25 61.95 5.20 C 62.91 19.30 57.25 32.45 51.87 45.11 L 51.06 45.36 C 48.35 45.26 43.50 42.95 48.04 41.07 C 51.01 40.04 52.17 37.06 47.88 37.93 L 48.10 37.11 C 49.63 36.74 52.07 37.48 52.34 35.32 C 55.34 26.94 58.66 18.33 57.97 9.26 C 51.69 10.70 46.69 6.03 46.65 0.00 Z" />
<path fill="#98300f" d=" M 50.43 0.00 L 64.00 0.00 L 64.00 29.52 C 60.38 34.69 60.88 44.69 52.78 44.88 L 51.87 45.11 C 57.25 32.45 62.91 19.30 61.95 5.20 C 58.01 3.25 52.06 5.20 50.43 0.00 Z" />
<path fill="#ca7c23" d=" M 23.37 6.27 C 29.59 3.11 39.61 0.88 42.80 9.14 C 43.94 14.38 49.20 14.79 52.94 17.19 C 54.00 24.32 49.60 30.41 48.10 37.11 L 47.88 37.93 C 46.95 38.39 46.01 38.84 45.06 39.27 C 46.17 33.05 51.85 24.78 44.75 20.25 C 40.43 15.41 33.31 11.71 27.71 16.82 C 21.66 19.90 16.93 25.56 19.98 32.64 C 19.38 34.64 18.46 36.33 16.14 35.48 C 16.15 31.95 17.70 27.23 14.37 24.71 C 13.40 21.98 11.53 17.73 15.47 16.57 C 20.32 15.18 21.37 10.20 23.37 6.27 Z" />
<path fill="#c6962e" d=" M 27.71 16.82 C 33.31 11.71 40.43 15.41 44.75 20.25 C 51.85 24.78 46.17 33.05 45.06 39.27 C 41.47 41.59 37.20 35.65 40.82 32.95 C 35.49 28.87 42.84 28.89 40.24 23.08 C 42.03 23.11 42.34 22.64 41.17 21.69 C 37.48 18.50 32.57 16.88 27.71 16.82 Z" />
<path fill="#751f0b" d=" M 0.00 16.51 C 4.47 24.49 3.09 35.38 10.81 41.34 C 10.89 43.49 8.46 44.10 7.09 45.23 C 4.62 44.38 1.62 44.20 0.00 41.89 L 0.00 16.51 Z" />
<path fill="#cca22f" d=" M 19.98 32.64 C 16.93 25.56 21.66 19.90 27.71 16.82 C 28.68 18.16 29.68 19.48 30.74 20.75 C 28.57 26.20 35.40 29.75 31.10 35.20 C 30.90 40.61 27.88 31.25 28.60 31.05 C 25.28 30.04 24.62 33.67 24.91 36.14 C 24.21 35.17 24.15 33.48 22.82 33.14 C 22.11 33.02 20.69 32.76 19.98 32.64 Z" />
<path fill="#b1a689" d=" M 27.71 16.82 C 32.57 16.88 37.48 18.50 41.17 21.69 C 42.34 22.64 42.03 23.11 40.24 23.08 C 37.21 21.82 34.00 21.13 30.74 20.75 C 29.68 19.48 28.68 18.16 27.71 16.82 Z" />
<path fill="#37464f" d=" M 31.10 35.20 C 35.40 29.75 28.57 26.20 30.74 20.75 C 34.00 21.13 37.21 21.82 40.24 23.08 C 42.84 28.89 35.49 28.87 40.82 32.95 C 37.20 35.65 41.47 41.59 45.06 39.27 C 46.01 38.84 46.95 38.39 47.88 37.93 C 52.17 37.06 51.01 40.04 48.04 41.07 C 43.50 42.95 48.35 45.26 51.06 45.36 C 41.95 47.98 32.48 49.35 22.99 49.10 C 16.50 48.46 10.05 52.07 3.70 49.72 C 4.50 48.00 5.82 46.61 7.09 45.23 C 8.46 44.10 10.89 43.49 10.81 41.34 C 11.13 39.57 11.46 37.79 11.88 36.04 C 13.30 35.87 14.73 35.69 16.14 35.48 C 18.46 36.33 19.38 34.64 19.98 32.64 C 20.69 32.76 22.11 33.02 22.82 33.14 C 20.14 39.38 26.07 42.73 24.91 36.14 C 24.62 33.67 25.28 30.04 28.60 31.05 C 27.88 31.25 30.90 40.61 31.10 35.20 Z" />
<path fill="#312d21" d=" M 14.37 24.71 C 17.70 27.23 16.15 31.95 16.14 35.48 C 14.73 35.69 13.30 35.87 11.88 36.04 C 11.93 35.65 12.03 34.87 12.08 34.48 C 12.42 31.99 13.03 29.56 13.74 27.16 C 13.90 26.55 14.21 25.32 14.37 24.71 Z" />
<path fill="#6f200c" d=" M 52.78 44.88 C 60.88 44.69 60.38 34.69 64.00 29.52 L 64.00 49.66 C 62.57 50.11 61.15 50.57 59.74 51.07 C 60.32 45.78 58.89 43.38 52.78 44.88 Z" />
<path fill="#7e703b" d=" M 22.82 33.14 C 24.15 33.48 24.21 35.17 24.91 36.14 C 26.07 42.73 20.14 39.38 22.82 33.14 Z" />
<path fill="#3f150f" d=" M 0.00 41.89 C 1.62 44.20 4.62 44.38 7.09 45.23 C 5.82 46.61 4.50 48.00 3.70 49.72 C 3.10 54.14 -0.21 65.97 9.02 62.95 C 25.54 61.87 42.28 61.02 58.77 62.84 C 62.06 60.12 58.63 54.57 59.74 51.07 C 61.15 50.57 62.57 50.11 64.00 49.66 L 64.00 64.00 L 0.00 64.00 L 0.00 41.89 Z" />
<path fill="#15171b" d=" M 51.06 45.36 L 51.87 45.11 L 52.78 44.88 C 58.89 43.38 60.32 45.78 59.74 51.07 C 58.63 54.57 62.06 60.12 58.77 62.84 C 42.28 61.02 25.54 61.87 9.02 62.95 C -0.21 65.97 3.10 54.14 3.70 49.72 C 10.05 52.07 16.50 48.46 22.99 49.10 C 32.48 49.35 41.95 47.98 51.06 45.36 Z" />
</svg>
