<?xml version="1.0" encoding="UTF-8" standalone="no"?>
<!-- Created with Inkscape (http://www.inkscape.org/) -->

<svg
   xmlns:dc="http://purl.org/dc/elements/1.1/"
   xmlns:cc="http://creativecommons.org/ns#"
   xmlns:rdf="http://www.w3.org/1999/02/22-rdf-syntax-ns#"
   xmlns:svg="http://www.w3.org/2000/svg"
   xmlns="http://www.w3.org/2000/svg"
   xmlns:sodipodi="http://sodipodi.sourceforge.net/DTD/sodipodi-0.dtd"
   xmlns:inkscape="http://www.inkscape.org/namespaces/inkscape"
   version="1.1"
   width="360"
   height="447"
   id="svg4324"
   inkscape:version="0.48.1 "
   sodipodi:docname="spb2.svg">
  <sodipodi:namedview
     pagecolor="#ffffff"
     bordercolor="#666666"
     borderopacity="1"
     objecttolerance="10"
     gridtolerance="10"
     guidetolerance="10"
     inkscape:pageopacity="0"
     inkscape:pageshadow="2"
     inkscape:window-width="1280"
     inkscape:window-height="738"
     id="namedview126"
     showgrid="false"
     inkscape:zoom="0.89535413"
     inkscape:cx="479.30498"
     inkscape:cy="100.56528"
     inkscape:window-x="-8"
     inkscape:window-y="-8"
     inkscape:window-maximized="1"
     inkscape:current-layer="layer1" />
  <defs
     id="defs4326" />
  <metadata
     id="metadata4329">
    <rdf:RDF>
      <cc:Work
         rdf:about="">
        <dc:format>image/svg+xml</dc:format>
        <dc:type
           rdf:resource="http://purl.org/dc/dcmitype/StillImage" />
        <dc:title></dc:title>
      </cc:Work>
    </rdf:RDF>
  </metadata>
  <g
     id="layer1"
     transform="matrix(0.18837855,0,0,0.18837855,-0.06326492,-0.25262164)">
    <circle
       cx="897.83099"
       cy="1995.713"
       r="93.308998"
       transform="matrix(0.72000006,0,0,0.72000006,0.69583929,-327.02074)"
       id="circle11"
       style="fill:none;stroke:#7f7f7f;stroke-width:5"
       sodipodi:cx="897.83099"
       sodipodi:cy="1995.713"
       sodipodi:rx="93.308998"
       sodipodi:ry="93.308998"
       d="m 991.13999,1995.713 c 0,51.5331 -41.77586,93.309 -93.309,93.309 -51.53313,0 -93.30899,-41.7759 -93.30899,-93.309 0,-51.5331 41.77586,-93.309 93.30899,-93.309 51.53314,0 93.309,41.7759 93.309,93.309 z" />
    <circle
       cx="1585.009"
       cy="2063.3069"
       r="93.308998"
       transform="matrix(0.72000006,0,0,0.72000006,0.69583929,-327.02074)"
       id="circle13"
       style="fill:none;stroke:#7f7f7f;stroke-width:5"
       sodipodi:cx="1585.009"
       sodipodi:cy="2063.3069"
       sodipodi:rx="93.308998"
       sodipodi:ry="93.308998"
       d="m 1678.318,2063.3069 c 0,51.5331 -41.7758,93.309 -93.309,93.309 -51.5331,0 -93.309,-41.7759 -93.309,-93.309 0,-51.5332 41.7759,-93.309 93.309,-93.309 51.5332,0 93.309,41.7758 93.309,93.309 z" />
    <circle
       cx="898.58801"
       cy="2287.127"
       r="110.141"
       transform="matrix(0.72000006,0,0,0.72000006,0.69583929,-327.02074)"
       id="circle15"
       style="fill:none;stroke:#7f7f7f;stroke-width:5"
       sodipodi:cx="898.58801"
       sodipodi:cy="2287.127"
       sodipodi:rx="110.141"
       sodipodi:ry="110.141"
       d="m 1008.729,2287.127 c 0,60.8291 -49.31179,110.141 -110.14099,110.141 -60.82919,0 -110.141,-49.3119 -110.141,-110.141 0,-60.8292 49.31181,-110.141 110.141,-110.141 60.8292,0 110.14099,49.3118 110.14099,110.141 z" />
    <circle
       cx="869.883"
       cy="2660.2339"
       r="93.308998"
       transform="matrix(0.72000006,0,0,0.72000006,0.69583929,-327.02074)"
       id="circle17"
       style="fill:none;stroke:#7f7f7f;stroke-width:5"
       sodipodi:cx="869.883"
       sodipodi:cy="2660.2339"
       sodipodi:rx="93.308998"
       sodipodi:ry="93.308998"
       d="m 963.19199,2660.2339 c 0,51.5331 -41.77586,93.309 -93.30899,93.309 -51.53314,0 -93.309,-41.7759 -93.309,-93.309 0,-51.5331 41.77586,-93.309 93.309,-93.309 51.53313,0 93.30899,41.7759 93.30899,93.309 z" />
    <circle
       cx="1305.1331"
       cy="2335.333"
       r="93.308998"
       transform="matrix(0.72000006,0,0,0.72000006,0.69583929,-327.02074)"
       id="circle19"
       style="fill:none;stroke:#7f7f7f;stroke-width:5"
       sodipodi:cx="1305.1331"
       sodipodi:cy="2335.333"
       sodipodi:rx="93.308998"
       sodipodi:ry="93.308998"
       d="m 1398.4421,2335.333 c 0,51.5331 -41.7759,93.309 -93.309,93.309 -51.5332,0 -93.309,-41.7759 -93.309,-93.309 0,-51.5331 41.7758,-93.309 93.309,-93.309 51.5331,0 93.309,41.7759 93.309,93.309 z" />
    <circle
       cx="1146.634"
       cy="2494.4351"
       r="93.308998"
       transform="matrix(0.72000006,0,0,0.72000006,0.69583929,-327.02074)"
       id="circle21"
       style="fill:none;stroke:#7f7f7f;stroke-width:5"
       sodipodi:cx="1146.634"
       sodipodi:cy="2494.4351"
       sodipodi:rx="93.308998"
       sodipodi:ry="93.308998"
       d="m 1239.943,2494.4351 c 0,51.5331 -41.7758,93.309 -93.309,93.309 -51.5331,0 -93.309,-41.7759 -93.309,-93.309 0,-51.5332 41.7759,-93.309 93.309,-93.309 51.5332,0 93.309,41.7758 93.309,93.309 z" />
    <circle
       cx="1807.0601"
       cy="2327.325"
       r="93.309998"
       transform="matrix(0.72000006,0,0,0.72000006,0.69583929,-327.02074)"
       id="circle23"
       style="fill:none;stroke:#7f7f7f;stroke-width:5"
       sodipodi:cx="1807.0601"
       sodipodi:cy="2327.325"
       sodipodi:rx="93.309998"
       sodipodi:ry="93.309998"
       d="m 1900.3701,2327.325 c 0,51.5336 -41.7764,93.3099 -93.31,93.3099 -51.5337,0 -93.31,-41.7763 -93.31,-93.3099 0,-51.5337 41.7763,-93.31 93.31,-93.31 51.5336,0 93.31,41.7763 93.31,93.31 z" />
    <path
       d="m 0.69583929,650.92866 22.00680071,7.2713 20.833202,6.2194 20.424238,4.1803 17.375766,2.6597 20.248564,0.8834 25.47144,-2.3234 24.2388,-6.2079 28.17144,-8.573 21.38976,-5.0191 20.4372,-2.5913 15.9228,-0.2887 15.9156,1.4954 13.2444,2.1046 13.35816,3.6684 12.56184,3.5316 9.00001,2.88 6.12,2.88 3.6,3.24 1.08,6.12 -0.36,6.12 -2.00448,3.4704 -6.63552,6.6096 -7.85953,5.8305 -12.53304,10.7568 -12.70008,10.8627 -9.74736,7.8299 -7.2,9.72 -7.2,7.2001 -14.04,8.28 -19.8,5.76 -20.64528,3.5554 -28.26576,3.9751 -24.16896,3.9895 -24.41304,2.8426 -26.346964,3.2774 -22.954326,0.9914 -19.885678,-0.9914 -19.421281,-3.0557 -13.728242,-1.4141 -11.49047971,-2.2442 0,24.1733 21.92256071,3.4041 34.36056,4.032 37.028886,0.2679 35.997124,-2.4149 48.61368,-5.6419 25.1784,-4.5425 20.8188,-5.364 15.84,-7.2 8.64,-7.2 5.76,-10.08 18,-17.28 29.52001,-24.48 15.49584,-10.4026 26.26416,-12.6374 22.21128,-12.9413 19.54872,-12.2587 18.32544,-16.3095 19.83457,-15.3705 22.1292,-12.8132 22.5108,-6.6268 21.81526,-2.6338 22.3351,-1.1318 26.0496,1.2448 29.76485,5.9429 24.69885,10.3378 34.8689,20.6265 26.59535,21.8592 24.55345,32.3842 13.1112,27.09 18.6451,47.7598 13.1407,35.1994 9.3816,18.761 7.303,12.5813 17.9755,19.2909 15.8436,10.9677 22.9255,10.0289 11.5524,1.8511 5.76005,3.6 -3.6,5.04 -13.68005,2.88 -15.6427,0.2117 -47.2961,5.0883 -43.6946,6.1552 -44.8711,14.1293 -43.56075,24.5023 -39.7757,27.1887 -27.27935,23.3316 -14.5303,18.79204 -12.2998,15.4886 -16.9639,8.3664 -19.07928,3.5151 -35.69614,-0.065 -41.19121,-3.343 -31.55904,-5.8413 -31.8636,-10.1081 -24.2964,-12.9319 -25.28353,-17.02734 -48.42216,-32.94 -56.52432,-33.498 -56.27376,-32.0515 -40.296244,-22.7232 -52.717685,-20.8454 -27.92232171,-7.6731 0,48.9543 40.23000271,12.2781 59.471288,24.9358 89.80056,51.246 80.0316,51.44974 c 0,0 35.63929,22.9558 44.40385,27.9634 11.64744,6.6564 34.67736,15.4361 34.67736,15.4361 l 30.46392,7.8617 23.85288,3.4372 c 0,0 7.88472,1.3666 11.19744,2.7447 l 8.25049,5.2473 c 0,0 4.68,5.9221 5.44464,9.6365 l -1.81872,13.6044 -6.85801,10.8461 -43.44984,39.8707 -40.82904,35.7898 -44.55793,39.6461 -40.75488,38.9901 -21.15864,24.8969 -19.224,29.7943 -9.66672,20.0823 -9.49752,26.892 -11.4264,37.9583 -14.148,24.2928 -18.13608,20.4538 -48.155764,22.6447 -36.223926,2.4185 -30.422159,-2.0196 -31.49640171,-7.9208 0.04032,93.1356 41.44032271,-9.4838 41.865124,-6.5333 37.208884,-10.8518 43.99344,-21.4733 32.55048,-23.6729 28.00224,-45.2505 12.77208,-49.5576 19.18944,-43.0647 20.63448,-28.0021 26.73433,-29.5452 79.55064,-68.04 45.28009,-40.5598 42.32664,-49.0133 45.56228,-55.8497 31.69225,-36.0662 44.74515,-43.0013 36.79485,-25.89194 22.02265,-10.5128 39.14355,-13.3128 57.59995,-13.8643 53.06115,-8.9338 58.806,-9.5637 50.25025,-4.6908 27.42045,-2.5949 31.0644,-3.4452 44.00852,-3.0327 43.2,-2.16 43.2,-2.88 44.64,-7.2 39.4805,-10.35 42.5995,-8.3699 37.44,-5.76 40.32,-4.32 41.3086,5.3208 30.6914,10.5192 27.36,18.72 18,22.32 12.24,30.96 8.64,46.08004 4.32,33.12 -1.44,36 -12.96,84.96 -16.56,66.24 -8.9704,55.8821 -3.2696,47.7979 5.76,47.52 11.52,66.24 21.1205,77.5203 14.8795,57.8397 11.8556,65.1544 4.7707,65.1952 3.4905,99.0828 5.3028,92.2954 3.9514,22.572 9.509,31.5403 17.28,25.92 25.1604,16.1424 44.0885,13.3661 31.5511,15.1315 20.8952,22.3466 21.3451,36.3658 25.4023,52.6348 18.2268,37.9606 32.1754,61.8343 37.2772,55.3543 24.0725,21.5957 40.8377,20.8095 75.8534,29.6618 0,-61.8005 -59.5864,-24.3295 -29.9139,-15.9134 -25.7781,-29.9477 -21.2436,-34.9762 -22.7254,-42.431 -26.0186,-53.0251 -29.088,-66.0176 -16.591,-27.5385 -21.6979,-23.5699 -25.2936,-15.0963 -39.7887,-12.9924 -21.4819,-6.9185 -19.6661,-16.8076 -4.8513,-15.4829 -5.6945,-36.3543 -2.9642,-54.5234 -5.9256,-66.3387 -9.9368,-123.2999 -5.76,-43.2001 -7.2,-40.32 -7.2,-34.56 -8.64,-27.36 -10.08,-34.56 -12.96,-59.04 -10.08,-67.68 5.04,-57.6 10.8,-54.72 17.9093,-57.2825 11.7519,-49.4021 7.7788,-38.7554 4.32,-53.28 -7.6514,-52.27924 -11.0686,-42.7608 -19.1714,-37.8792 -28.3486,-34.1208 -33.5714,-23.4792 -36.9886,-15.4008 -37.8914,-7.6392 -51.3886,-2.4408 -56.16,8.64 -36,10.08 -36,14.4 -41.76,10.08 -41.76,5.76 -41.76,4.32 -43.55632,3.6346 -40.387,1.7366 -29.7619,0.4709 -28.18945,-1.7014 -27.48885,-3.4113 -26.04385,-4.0983 -16.776,-4.1349 -15.9689,-7.7249 -12.3487,-8.8128 -10.908,-10.1794 -13.70235,-16.6089 -10.2859,-15.9488 -19.20025,-40.8801 -12.0989,-32.292 -12.36525,-30.6641 -34.7371,-54.2276 -30.5604,-26.609 -39.2134,-21.1817 -36.22535,-11.2637 -29.6143,-5.0047 -26.0878,-1.2585 -25.27486,-0.7769 -18.40032,0.1814 -20.74246,-1.3269 -18.45864,-1.7208 -19.36369,-4.7571 -22.90464,-6.2237 -27.01512,-7.2158 -31.35384,-5.7953 -24.10848,-1.7719 -22.73617,1.4933 -33.42024,6.0732 -24.17688,-0.7373 -22.18104,-3.8578 -19.76256,-7.2626 -41.72544,-12.1255 -79.093444,-10.9037 -52.402326,-1.8022 -19.59984071,0.6596 0,132.9393 z m 288.92881071,-58.5209 -3.4488,8.2916 -8.28,9.36 -10.44,7.56 -13.32,5.5202 -9.8388,0.7963 -12.1212,-0.9165 -14.04,0 -15.82632,2.6251 -29.53368,5.2949 -33.84,3.6 -42.957364,-2.5164 -33.362646,-9.0036 -20.272318,-12.8909 -16.295041,-10.2823 -15.480002,-13.32 -3.9599998,-7.2 0.72,-7.92 4.6799998,-7.2 9.866881,-4.1429 14.460481,-3.2839 18.985679,-2.8714 32.264646,-3.0758 28.669684,1.2672 29.718,4.6886 28.602,6.1114 26.64432,9.4154 21.23568,6.4246 18.4428,3.3264 17.1972,-0.086 15.48,-1.8 7.2,0 3.86136,0.4708 2.64312,1.1132 1.9476,1.9476 0.90792,2.9484 -0.5112,5.7484 z m 121.19905,24.0308 -5.84784,4.7808 -10.44,5.76 -7.2,8.28 -11.52,8.64 -19.44,6.84 -19.44,1.8 -17.0388,-2.0657 -13.11912,-7.9013 -8.83441,-10.2881 -2.04768,-8.1849 0.30672,-9.0188 1.85328,-9.3412 3.41497,-9.0346 9.54504,-10.0454 11.75112,-5.3403 14.75568,-2.1722 15.90696,1.1873 12.97728,1.9353 12.64824,2.5906 15.48,4.68 12.96,6.48 4.32,3.24 2.16,4.68 -0.36,6.84 -2.79144,5.6585 z"
       id="path25"
       style="fill:#eefbff;stroke:#7f7f7f;stroke-width:0.72000003"
       inkscape:connector-curvature="0" />
    <g
       transform="translate(0.83583929,-459.76134)"
       id="g29">
      <line
         style="fill:none;stroke:#de0000;stroke-width:14.40000057"
         x1="1403.5576"
         y1="488.68625"
         x2="1403.5576"
         y2="632.35217"
         id="line31" />
      <line
         style="fill:none;stroke:#de0000;stroke-width:14.40000057"
         x1="1404.4008"
         y1="632.35217"
         x2="1220.4493"
         y2="817.28564"
         id="line33" />
      <line
         style="fill:none;stroke:#de0000;stroke-width:14.40000057"
         x1="1220.4493"
         y1="817.28564"
         x2="1220.4493"
         y2="928.29163"
         id="line35" />
      <line
         style="fill:none;stroke:#de0000;stroke-width:14.40000057"
         x1="1220.4493"
         y1="928.29163"
         x2="1118.588"
         y2="1030.153"
         id="line37" />
      <line
         style="fill:none;stroke:#de0000;stroke-width:14.40000057"
         x1="1118.588"
         y1="1030.153"
         x2="1118.588"
         y2="1596.4258"
         id="line39" />
      <line
         style="fill:none;stroke:#de0000;stroke-width:14.40000057"
         x1="1118.588"
         y1="1596.4258"
         x2="355.67969"
         y2="2359.3347"
         id="line41" />
      <line
         style="fill:none;stroke:#de0000;stroke-width:14.68669033"
         x1="355.67969"
         y1="2359.3347"
         x2="355.67969"
         y2="2653.3818"
         id="line43" />
    </g>
    <g
       transform="matrix(0.72000006,0,0,0.72000006,0.69583929,-327.02074)"
       id="g47">
      <line
         style="fill:none;stroke:#2778c9;stroke-width:20"
         x1="1146.9871"
         y1="492.26401"
         x2="901.98297"
         y2="737.26898"
         id="line49" />
      <line
         style="fill:none;stroke:#2778c9;stroke-width:20"
         x1="901.98297"
         y1="737.26898"
         x2="901.98297"
         y2="857.15198"
         id="line51" />
      <line
         style="fill:none;stroke:#2778c9;stroke-width:20"
         x1="901.98297"
         y1="857.15198"
         x2="758.27802"
         y2="1000.858"
         id="line53" />
      <line
         style="fill:none;stroke:#2778c9;stroke-width:20"
         x1="758.27802"
         y1="1000.858"
         x2="758.27802"
         y2="1482.063"
         id="line55" />
      <line
         style="fill:none;stroke:#2778c9;stroke-width:20"
         x1="745.37299"
         y1="1482.063"
         x2="898.15198"
         y2="1634.843"
         id="line57" />
      <line
         style="fill:none;stroke:#2778c9;stroke-width:20"
         x1="898.15198"
         y1="1634.843"
         x2="898.15198"
         y2="2248.271"
         id="line59" />
      <line
         style="fill:none;stroke:#2778c9;stroke-width:20"
         x1="898.15198"
         y1="2248.271"
         x2="838.82098"
         y2="2307.6021"
         id="line61" />
      <line
         style="fill:none;stroke:#2778c9;stroke-width:20"
         x1="838.82098"
         y1="2307.6021"
         x2="838.82098"
         y2="2627.1479"
         id="line63" />
      <line
         style="fill:none;stroke:#2778c9;stroke-width:20"
         x1="838.82098"
         y1="2627.1479"
         x2="896.94501"
         y2="2685.272"
         id="line65" />
      <line
         style="fill:none;stroke:#2778c9;stroke-width:20"
         x1="906.68103"
         y1="2699.2439"
         x2="906.68103"
         y2="3460.2129"
         id="line67" />
      <line
         style="fill:none;stroke:#2778c9;stroke-width:20"
         x1="906.68103"
         y1="3460.2129"
         x2="1141.87"
         y2="3695.4021"
         id="line69" />
    </g>
    <g
       transform="matrix(0.72000006,0,0,0.72000006,0.69583929,-327.02074)"
       id="g71">
      <line
         style="fill:none;stroke:#b840c9;stroke-width:20"
         x1="272.26801"
         y1="966.15997"
         x2="272.26801"
         y2="1429.917"
         id="line73" />
      <line
         style="fill:none;stroke:#b840c9;stroke-width:20"
         x1="272.26801"
         y1="1429.917"
         x2="455.30801"
         y2="1612.895"
         id="line75" />
      <line
         style="fill:none;stroke:#b840c9;stroke-width:20"
         x1="455.30801"
         y1="1612.895"
         x2="455.30801"
         y2="1803.0341"
         id="line77" />
      <line
         style="fill:none;stroke:#b840c9;stroke-width:20"
         x1="455.30801"
         y1="1803.0341"
         x2="1424.449"
         y2="2772.176"
         id="line79" />
      <line
         style="fill:none;stroke:#b840c9;stroke-width:20"
         x1="1424.449"
         y1="2772.176"
         x2="1424.449"
         y2="3009.8359"
         id="line81" />
    </g>
    <g
       transform="matrix(0.72000006,0,0,0.72000006,0.69583929,-327.02074)"
       id="g83">
      <line
         style="fill:none;stroke:#029302;stroke-width:20"
         x1="228.67999"
         y1="1934.293"
         x2="325.556"
         y2="2031.1689"
         id="line85" />
      <line
         style="fill:none;stroke:#029302;stroke-width:20"
         x1="325.556"
         y1="2031.1689"
         x2="1553.7889"
         y2="2031.1689"
         id="line87" />
      <line
         style="fill:none;stroke:#029302;stroke-width:20"
         x1="1553.7889"
         y1="2031.1689"
         x2="1807.588"
         y2="2284.968"
         id="line89" />
      <line
         style="fill:none;stroke:#029302;stroke-width:21.46278954"
         x1="1807.588"
         y1="2284.968"
         x2="1807.588"
         y2="3106.3406"
         id="line91" />
      <line
         style="fill:none;stroke:#029302;stroke-width:20"
         x1="1794.248"
         y1="3109.3618"
         x2="1955.7461"
         y2="3270.8599"
         id="line93" />
      <line
         style="fill:none;stroke:#029302;stroke-width:20"
         x1="1957.2283"
         y1="3270.8599"
         x2="1957.2283"
         y2="3458.9968"
         id="line95" />
    </g>
    <g
       transform="matrix(0.72000006,0,0,0.72000006,-6.4317975,-327.02074)"
       id="g97">
      <line
         style="fill:none;stroke:#ffb000;stroke-width:20"
         x1="961.20203"
         y1="2309.5291"
         x2="1276.967"
         y2="2309.5291"
         id="line99" />
      <line
         style="fill:none;stroke:#ffb000;stroke-width:20"
         x1="1276.967"
         y1="2305.5291"
         x2="1572.74"
         y2="2601.303"
         id="line101" />
      <line
         style="fill:none;stroke:#ffb000;stroke-width:20"
         x1="1572.74"
         y1="2608.303"
         x2="1803.743"
         y2="2377.3"
         id="line103" />
      <line
         style="fill:none;stroke:#ffb000;stroke-width:18.68108368"
         x1="1803.743"
         y1="2378.041"
         x2="2450.7898"
         y2="2378.041"
         id="line105" />
      <line
         style="fill:none;stroke:#ffb000;stroke-width:18.23719597"
         x1="2616.8782"
         y1="2539.3289"
         x2="2616.8782"
         y2="2989.1289"
         id="line109" />
      <line
         style="fill:none;stroke:#ffb000;stroke-width:14.68067074"
         x1="2619.1787"
         y1="2550.7095"
         x2="2454.0029"
         y2="2376.6404"
         id="line103-1" />
    </g>
    <circle
       cx="2128.2141"
       cy="2377.3"
       r="30.681"
       transform="matrix(0.72000006,0,0,0.72000006,228.15657,-327.02074)"
       id="circle133"
       style="fill:#ffffff;stroke:#ffb000;stroke-width:10"
       sodipodi:cx="2128.2141"
       sodipodi:cy="2377.3"
       sodipodi:rx="30.681"
       sodipodi:ry="30.681"
       d="m 2158.8951,2377.3 c 0,16.9447 -13.7363,30.681 -30.681,30.681 -16.9446,0 -30.681,-13.7363 -30.681,-30.681 0,-16.9446 13.7364,-30.681 30.681,-30.681 16.9447,0 30.681,13.7364 30.681,30.681 z" />
    <circle
       cx="1808.0601"
       cy="2375.762"
       r="35.456001"
       transform="matrix(0.72000006,0,0,0.72000006,0.69583929,-327.02074)"
       id="circle135"
       style="fill:#ffb000"
       sodipodi:cx="1808.0601"
       sodipodi:cy="2375.762"
       sodipodi:rx="35.456001"
       sodipodi:ry="35.456001"
       d="m 1843.5161,2375.762 c 0,19.5818 -15.8742,35.456 -35.456,35.456 -19.5819,0 -35.456,-15.8742 -35.456,-35.456 0,-19.5818 15.8741,-35.456 35.456,-35.456 19.5818,0 35.456,15.8742 35.456,35.456 z" />
    <circle
       cx="2265.1831"
       cy="2509.1189"
       r="30.681"
       transform="matrix(0.72000006,0,0,0.72000006,244.40942,-301.40794)"
       id="circle137"
       style="fill:#ffffff;stroke:#ffb000;stroke-width:10"
       sodipodi:cx="2265.1831"
       sodipodi:cy="2509.1189"
       sodipodi:rx="30.681"
       sodipodi:ry="30.681"
       d="m 2295.8641,2509.1189 c 0,16.9446 -13.7363,30.681 -30.681,30.681 -16.9446,0 -30.681,-13.7364 -30.681,-30.681 0,-16.9447 13.7364,-30.681 30.681,-30.681 16.9447,0 30.681,13.7363 30.681,30.681 z" />
    <circle
       cx="2264.8501"
       cy="2744.877"
       r="30.681"
       transform="matrix(0.72000006,0,0,0.72000006,246.54382,-305.67674)"
       id="circle139"
       style="fill:#ffffff;stroke:#ffb000;stroke-width:10"
       sodipodi:cx="2264.8501"
       sodipodi:cy="2744.877"
       sodipodi:rx="30.681"
       sodipodi:ry="30.681"
       d="m 2295.5311,2744.877 c 0,16.9446 -13.7364,30.681 -30.681,30.681 -16.9447,0 -30.681,-13.7364 -30.681,-30.681 0,-16.9447 13.7363,-30.681 30.681,-30.681 16.9446,0 30.681,13.7363 30.681,30.681 z" />
    <circle
       cx="2264.8501"
       cy="2967.48"
       r="30.681"
       transform="matrix(0.72000006,0,0,0.72000006,245.47662,-311.01274)"
       id="circle141"
       style="fill:#ffffff;stroke:#ffb000;stroke-width:10"
       sodipodi:cx="2264.8501"
       sodipodi:cy="2967.48"
       sodipodi:rx="30.681"
       sodipodi:ry="30.681"
       d="m 2295.5311,2967.48 c 0,16.9446 -13.7364,30.681 -30.681,30.681 -16.9447,0 -30.681,-13.7364 -30.681,-30.681 0,-16.9447 13.7363,-30.681 30.681,-30.681 16.9446,0 30.681,13.7363 30.681,30.681 z" />
    <circle
       cx="960.34998"
       cy="2308.5291"
       r="35.456001"
       transform="matrix(0.72000006,0,0,0.72000006,0.69583929,-327.02074)"
       id="circle143"
       style="fill:#ffb000"
       sodipodi:cx="960.34998"
       sodipodi:cy="2308.5291"
       sodipodi:rx="35.456001"
       sodipodi:ry="35.456001"
       d="m 995.80598,2308.5291 c 0,19.5818 -15.8742,35.456 -35.456,35.456 -19.58181,0 -35.45601,-15.8742 -35.45601,-35.456 0,-19.5819 15.8742,-35.456 35.45601,-35.456 19.5818,0 35.456,15.8741 35.456,35.456 z" />
    <circle
       cx="1334.541"
       cy="2362.781"
       r="35.456001"
       transform="matrix(0.72000006,0,0,0.72000006,0.69583929,-327.02074)"
       id="circle145"
       style="fill:#ffb000"
       sodipodi:cx="1334.541"
       sodipodi:cy="2362.781"
       sodipodi:rx="35.456001"
       sodipodi:ry="35.456001"
       d="m 1369.997,2362.781 c 0,19.5818 -15.8742,35.456 -35.456,35.456 -19.5818,0 -35.456,-15.8742 -35.456,-35.456 0,-19.5818 15.8742,-35.456 35.456,-35.456 19.5818,0 35.456,15.8742 35.456,35.456 z" />
    <circle
       cx="1572.537"
       cy="2597.8611"
       r="30.681"
       transform="matrix(0.72000006,0,0,0.72000006,0.69583929,-327.02074)"
       id="circle147"
       style="fill:#ffffff;stroke:#ffb000;stroke-width:10"
       sodipodi:cx="1572.537"
       sodipodi:cy="2597.8611"
       sodipodi:rx="30.681"
       sodipodi:ry="30.681"
       d="m 1603.218,2597.8611 c 0,16.9446 -13.7364,30.681 -30.681,30.681 -16.9447,0 -30.681,-13.7364 -30.681,-30.681 0,-16.9447 13.7363,-30.681 30.681,-30.681 16.9446,0 30.681,13.7363 30.681,30.681 z" />
    <circle
       cx="1552.74"
       cy="1857.198"
       r="30.681"
       transform="matrix(0.72000006,0,0,0.72000006,0.69583929,-327.02074)"
       id="circle149"
       style="fill:#ffffff;stroke:#de0000;stroke-width:10"
       sodipodi:cx="1552.74"
       sodipodi:cy="1857.198"
       sodipodi:rx="30.681"
       sodipodi:ry="30.681"
       d="m 1583.421,1857.198 c 0,16.9446 -13.7364,30.681 -30.681,30.681 -16.9447,0 -30.681,-13.7364 -30.681,-30.681 0,-16.9447 13.7363,-30.681 30.681,-30.681 16.9446,0 30.681,13.7363 30.681,30.681 z" />
    <circle
       cx="1552.74"
       cy="2032.39"
       r="35.456001"
       transform="matrix(0.72000006,0,0,0.72000006,0.69583929,-327.02074)"
       id="circle151"
       style="fill:#de0000"
       sodipodi:cx="1552.74"
       sodipodi:cy="2032.39"
       sodipodi:rx="35.456001"
       sodipodi:ry="35.456001"
       d="m 1588.196,2032.39 c 0,19.5818 -15.8742,35.456 -35.456,35.456 -19.5818,0 -35.456,-15.8742 -35.456,-35.456 0,-19.5818 15.8742,-35.456 35.456,-35.456 19.5818,0 35.456,15.8742 35.456,35.456 z" />
    <circle
       cx="1275.967"
       cy="2311.2561"
       r="35.456001"
       transform="matrix(0.72000006,0,0,0.72000006,0.69583929,-327.02074)"
       id="circle153"
       style="fill:#de0000"
       sodipodi:cx="1275.967"
       sodipodi:cy="2311.2561"
       sodipodi:rx="35.456001"
       sodipodi:ry="35.456001"
       d="m 1311.423,2311.2561 c 0,19.5818 -15.8742,35.456 -35.456,35.456 -19.5818,0 -35.456,-15.8742 -35.456,-35.456 0,-19.5818 15.8742,-35.456 35.456,-35.456 19.5818,0 35.456,15.8742 35.456,35.456 z" />
    <circle
       cx="1119.092"
       cy="2467.375"
       r="35.456001"
       transform="matrix(0.72000006,0,0,0.72000006,0.69583929,-327.02074)"
       id="circle155"
       style="fill:#de0000"
       sodipodi:cx="1119.092"
       sodipodi:cy="2467.375"
       sodipodi:rx="35.456001"
       sodipodi:ry="35.456001"
       d="m 1154.548,2467.375 c 0,19.5818 -15.8742,35.456 -35.456,35.456 -19.5818,0 -35.456,-15.8742 -35.456,-35.456 0,-19.5818 15.8742,-35.456 35.456,-35.456 19.5818,0 35.456,15.8742 35.456,35.456 z" />
    <circle
       cx="901.83002"
       cy="2689.259"
       r="35.456001"
       transform="matrix(0.72000006,0,0,0.72000006,0.69583929,-327.02074)"
       id="circle157"
       style="fill:#de0000"
       sodipodi:cx="901.83002"
       sodipodi:cy="2689.259"
       sodipodi:rx="35.456001"
       sodipodi:ry="35.456001"
       d="m 937.28602,2689.259 c 0,19.5818 -15.87419,35.456 -35.456,35.456 -19.58181,0 -35.456,-15.8742 -35.456,-35.456 0,-19.5818 15.87419,-35.456 35.456,-35.456 19.58181,0 35.456,15.8742 35.456,35.456 z" />
    <circle
       cx="1553.387"
       cy="1539.285"
       r="30.681"
       transform="matrix(0.72000006,0,0,0.72000006,0.69583929,-327.02074)"
       id="circle159"
       style="fill:#ffffff;stroke:#de0000;stroke-width:10"
       sodipodi:cx="1553.387"
       sodipodi:cy="1539.285"
       sodipodi:rx="30.681"
       sodipodi:ry="30.681"
       d="m 1584.068,1539.285 c 0,16.9447 -13.7364,30.681 -30.681,30.681 -16.9447,0 -30.681,-13.7363 -30.681,-30.681 0,-16.9446 13.7363,-30.681 30.681,-30.681 16.9446,0 30.681,13.7364 30.681,30.681 z" />
    <circle
       cx="1553.387"
       cy="1393.306"
       r="30.681"
       transform="matrix(0.72000006,0,0,0.72000006,0.69583929,-327.02074)"
       id="circle161"
       style="fill:#ffffff;stroke:#de0000;stroke-width:10"
       sodipodi:cx="1553.387"
       sodipodi:cy="1393.306"
       sodipodi:rx="30.681"
       sodipodi:ry="30.681"
       d="m 1584.068,1393.306 c 0,16.9447 -13.7364,30.681 -30.681,30.681 -16.9447,0 -30.681,-13.7363 -30.681,-30.681 0,-16.9446 13.7363,-30.681 30.681,-30.681 16.9446,0 30.681,13.7364 30.681,30.681 z" />
    <circle
       cx="1552.74"
       cy="1248.895"
       r="30.681"
       transform="matrix(0.72000006,0,0,0.72000006,0.69583929,-327.02074)"
       id="circle163"
       style="fill:#ffffff;stroke:#de0000;stroke-width:10"
       sodipodi:cx="1552.74"
       sodipodi:cy="1248.895"
       sodipodi:rx="30.681"
       sodipodi:ry="30.681"
       d="m 1583.421,1248.895 c 0,16.9447 -13.7364,30.681 -30.681,30.681 -16.9447,0 -30.681,-13.7363 -30.681,-30.681 0,-16.9446 13.7363,-30.681 30.681,-30.681 16.9446,0 30.681,13.7364 30.681,30.681 z" />
    <circle
       cx="1949.58"
       cy="498.37399"
       r="30.681"
       transform="matrix(0.72000006,0,0,0.72000006,0.69583929,-327.02074)"
       id="circle165"
       style="fill:#ffffff;stroke:#de0000;stroke-width:10"
       sodipodi:cx="1949.58"
       sodipodi:cy="498.37399"
       sodipodi:rx="30.681"
       sodipodi:ry="30.681"
       d="m 1980.261,498.37399 c 0,16.94465 -13.7364,30.681 -30.681,30.681 -16.9447,0 -30.681,-13.73635 -30.681,-30.681 0,-16.94465 13.7363,-30.681 30.681,-30.681 16.9446,0 30.681,13.73635 30.681,30.681 z" />
    <circle
       cx="1695.2629"
       cy="1103.115"
       r="30.681"
       transform="matrix(0.72000006,0,0,0.72000006,0.69583929,-327.02074)"
       id="circle167"
       style="fill:#ffffff;stroke:#de0000;stroke-width:10"
       sodipodi:cx="1695.2629"
       sodipodi:cy="1103.115"
       sodipodi:rx="30.681"
       sodipodi:ry="30.681"
       d="m 1725.9439,1103.115 c 0,16.9446 -13.7363,30.681 -30.681,30.681 -16.9446,0 -30.681,-13.7364 -30.681,-30.681 0,-16.9447 13.7364,-30.681 30.681,-30.681 16.9447,0 30.681,13.7363 30.681,30.681 z" />
    <circle
       cx="1695.431"
       cy="950.79602"
       r="30.681"
       transform="matrix(0.72000006,0,0,0.72000006,0.69583929,-327.02074)"
       id="circle169"
       style="fill:#ffffff;stroke:#de0000;stroke-width:10"
       sodipodi:cx="1695.431"
       sodipodi:cy="950.79602"
       sodipodi:rx="30.681"
       sodipodi:ry="30.681"
       d="m 1726.112,950.79602 c 0,16.94465 -13.7363,30.681 -30.681,30.681 -16.9446,0 -30.681,-13.73635 -30.681,-30.681 0,-16.94465 13.7364,-30.681 30.681,-30.681 16.9447,0 30.681,13.73635 30.681,30.681 z" />
    <circle
       cx="1825.825"
       cy="818.92603"
       r="30.681"
       transform="matrix(0.72000006,0,0,0.72000006,0.69583929,-327.02074)"
       id="circle171"
       style="fill:#ffffff;stroke:#de0000;stroke-width:10"
       sodipodi:cx="1825.825"
       sodipodi:cy="818.92603"
       sodipodi:rx="30.681"
       sodipodi:ry="30.681"
       d="m 1856.506,818.92603 c 0,16.94464 -13.7364,30.681 -30.681,30.681 -16.9447,0 -30.681,-13.73636 -30.681,-30.681 0,-16.94465 13.7363,-30.681 30.681,-30.681 16.9446,0 30.681,13.73635 30.681,30.681 z" />
    <circle
       cx="1949.771"
       cy="695.47699"
       r="30.681"
       transform="matrix(0.72000006,0,0,0.72000006,0.69583929,-327.02074)"
       id="circle173"
       style="fill:#ffffff;stroke:#de0000;stroke-width:10"
       sodipodi:cx="1949.771"
       sodipodi:cy="695.47699"
       sodipodi:rx="30.681"
       sodipodi:ry="30.681"
       d="m 1980.452,695.47699 c 0,16.94465 -13.7364,30.681 -30.681,30.681 -16.9447,0 -30.681,-13.73635 -30.681,-30.681 0,-16.94465 13.7363,-30.681 30.681,-30.681 16.9446,0 30.681,13.73635 30.681,30.681 z" />
    <circle
       cx="493.56"
       cy="3485.1021"
       r="30.681"
       transform="matrix(0.72000006,0,0,0.72000006,0.32304042,-408.70884)"
       id="circle177"
       style="fill:#ffffff;stroke:#de0000;stroke-width:10"
       sodipodi:cx="493.56"
       sodipodi:cy="3485.1021"
       sodipodi:rx="30.681"
       sodipodi:ry="30.681"
       d="m 524.241,3485.1021 c 0,16.9446 -13.73635,30.681 -30.681,30.681 -16.94465,0 -30.681,-13.7364 -30.681,-30.681 0,-16.9447 13.73635,-30.681 30.681,-30.681 16.94465,0 30.681,13.7363 30.681,30.681 z" />
    <circle
       cx="494.194"
       cy="3287.6599"
       r="30.681"
       transform="matrix(0.72000006,0,0,0.72000006,-1.3895956,-371.63844)"
       id="circle179"
       style="fill:#ffffff;stroke:#de0000;stroke-width:10"
       sodipodi:cx="494.194"
       sodipodi:cy="3287.6599"
       sodipodi:rx="30.681"
       sodipodi:ry="30.681"
       d="m 524.875,3287.6599 c 0,16.9447 -13.73635,30.681 -30.681,30.681 -16.94465,0 -30.681,-13.7363 -30.681,-30.681 0,-16.9446 13.73635,-30.681 30.681,-30.681 16.94465,0 30.681,13.7364 30.681,30.681 z" />
    <circle
       cx="753.12903"
       cy="2833.4319"
       r="30.681"
       transform="matrix(0.72000006,0,0,0.72000006,0.69583929,-327.02074)"
       id="circle181"
       style="fill:#ffffff;stroke:#de0000;stroke-width:10"
       sodipodi:cx="753.12903"
       sodipodi:cy="2833.4319"
       sodipodi:rx="30.681"
       sodipodi:ry="30.681"
       d="m 783.81003,2833.4319 c 0,16.9446 -13.73635,30.681 -30.681,30.681 -16.94465,0 -30.681,-13.7364 -30.681,-30.681 0,-16.9447 13.73635,-30.681 30.681,-30.681 16.94465,0 30.681,13.7363 30.681,30.681 z" />
    <circle
       cx="494.194"
       cy="3091.4919"
       r="30.681"
       transform="matrix(0.72000006,0,0,0.72000006,0.69583929,-327.02074)"
       id="circle183"
       style="fill:#ffffff;stroke:#de0000;stroke-width:10"
       sodipodi:cx="494.194"
       sodipodi:cy="3091.4919"
       sodipodi:rx="30.681"
       sodipodi:ry="30.681"
       d="m 524.875,3091.4919 c 0,16.9447 -13.73635,30.681 -30.681,30.681 -16.94465,0 -30.681,-13.7363 -30.681,-30.681 0,-16.9446 13.73635,-30.681 30.681,-30.681 16.94465,0 30.681,13.7364 30.681,30.681 z" />
    <circle
       cx="623.12"
       cy="2963.4409"
       r="30.681"
       transform="matrix(0.72000006,0,0,0.72000006,0.69583929,-327.02074)"
       id="circle185"
       style="fill:#ffffff;stroke:#de0000;stroke-width:10"
       sodipodi:cx="623.12"
       sodipodi:cy="2963.4409"
       sodipodi:rx="30.681"
       sodipodi:ry="30.681"
       d="m 653.80099,2963.4409 c 0,16.9447 -13.73635,30.681 -30.68099,30.681 -16.94465,0 -30.681,-13.7363 -30.681,-30.681 0,-16.9446 13.73635,-30.681 30.681,-30.681 16.94464,0 30.68099,13.7364 30.68099,30.681 z" />
    <circle
       cx="898.15198"
       cy="1636.501"
       r="30.681"
       transform="matrix(0.72000006,0,0,0.72000006,0.69583929,-327.02074)"
       id="circle187"
       style="fill:#ffffff;stroke:#2778c9;stroke-width:10"
       sodipodi:cx="898.15198"
       sodipodi:cy="1636.501"
       sodipodi:rx="30.681"
       sodipodi:ry="30.681"
       d="m 928.83298,1636.501 c 0,16.9446 -13.73635,30.681 -30.681,30.681 -16.94465,0 -30.681,-13.7364 -30.681,-30.681 0,-16.9447 13.73635,-30.681 30.681,-30.681 16.94465,0 30.681,13.7363 30.681,30.681 z" />
    <circle
       cx="898.15198"
       cy="1951.2791"
       r="35.456001"
       transform="matrix(0.72000006,0,0,0.72000006,0.69583929,-327.02074)"
       id="circle189"
       style="fill:#2778c9"
       sodipodi:cx="898.15198"
       sodipodi:cy="1951.2791"
       sodipodi:rx="35.456001"
       sodipodi:ry="35.456001"
       d="m 933.60798,1951.2791 c 0,19.5818 -15.87419,35.456 -35.456,35.456 -19.58181,0 -35.456,-15.8742 -35.456,-35.456 0,-19.5819 15.87419,-35.456 35.456,-35.456 19.58181,0 35.456,15.8741 35.456,35.456 z" />
    <circle
       cx="838.82098"
       cy="2307.2271"
       r="35.456001"
       transform="matrix(0.72000006,0,0,0.72000006,0.69583929,-327.02074)"
       id="circle191"
       style="fill:#2778c9"
       sodipodi:cx="838.82098"
       sodipodi:cy="2307.2271"
       sodipodi:rx="35.456001"
       sodipodi:ry="35.456001"
       d="m 874.27699,2307.2271 c 0,19.5818 -15.8742,35.456 -35.45601,35.456 -19.5818,0 -35.456,-15.8742 -35.456,-35.456 0,-19.5819 15.8742,-35.4561 35.456,-35.4561 19.58181,0 35.45601,15.8742 35.45601,35.4561 z" />
    <circle
       cx="839.15198"
       cy="2627.1479"
       r="35.456001"
       transform="matrix(0.72000006,0,0,0.72000006,0.69583929,-327.02074)"
       id="circle193"
       style="fill:#2778c9"
       sodipodi:cx="839.15198"
       sodipodi:cy="2627.1479"
       sodipodi:rx="35.456001"
       sodipodi:ry="35.456001"
       d="m 874.60798,2627.1479 c 0,19.5819 -15.87419,35.4561 -35.456,35.4561 -19.58181,0 -35.456,-15.8742 -35.456,-35.4561 0,-19.5818 15.87419,-35.456 35.456,-35.456 19.58181,0 35.456,15.8742 35.456,35.456 z" />
    <circle
       cx="758.27802"
       cy="1494.063"
       r="30.681"
       transform="matrix(0.72000006,0,0,0.72000006,0.69583929,-327.02074)"
       id="circle195"
       style="fill:#ffffff;stroke:#2778c9;stroke-width:10"
       sodipodi:cx="758.27802"
       sodipodi:cy="1494.063"
       sodipodi:rx="30.681"
       sodipodi:ry="30.681"
       d="m 788.95901,1494.063 c 0,16.9446 -13.73635,30.681 -30.68099,30.681 -16.94465,0 -30.681,-13.7364 -30.681,-30.681 0,-16.9447 13.73635,-30.681 30.681,-30.681 16.94464,0 30.68099,13.7363 30.68099,30.681 z" />
    <circle
       cx="758.27802"
       cy="1161.157"
       r="30.681"
       transform="matrix(0.72000006,0,0,0.72000006,0.69583929,-327.02074)"
       id="circle197"
       style="fill:#ffffff;stroke:#2778c9;stroke-width:10"
       sodipodi:cx="758.27802"
       sodipodi:cy="1161.157"
       sodipodi:rx="30.681"
       sodipodi:ry="30.681"
       d="m 788.95901,1161.157 c 0,16.9446 -13.73635,30.681 -30.68099,30.681 -16.94465,0 -30.681,-13.7364 -30.681,-30.681 0,-16.9447 13.73635,-30.681 30.681,-30.681 16.94464,0 30.68099,13.7363 30.68099,30.681 z" />
    <circle
       cx="758.27802"
       cy="1001.14"
       r="30.681"
       transform="matrix(0.72000006,0,0,0.72000006,0.69583929,-327.02074)"
       id="circle199"
       style="fill:#ffffff;stroke:#2778c9;stroke-width:10"
       sodipodi:cx="758.27802"
       sodipodi:cy="1001.14"
       sodipodi:rx="30.681"
       sodipodi:ry="30.681"
       d="m 788.95901,1001.14 c 0,16.9447 -13.73635,30.681 -30.68099,30.681 -16.94465,0 -30.681,-13.7363 -30.681,-30.681 0,-16.94463 13.73635,-30.68099 30.681,-30.68099 16.94464,0 30.68099,13.73636 30.68099,30.68099 z" />
    <circle
       cx="901.98297"
       cy="857.474"
       r="30.681"
       transform="matrix(0.72000006,0,0,0.72000006,0.69583929,-327.02074)"
       id="circle201"
       style="fill:#ffffff;stroke:#2778c9;stroke-width:10"
       sodipodi:cx="901.98297"
       sodipodi:cy="857.474"
       sodipodi:rx="30.681"
       sodipodi:ry="30.681"
       d="m 932.66397,857.474 c 0,16.94465 -13.73635,30.681 -30.681,30.681 -16.94465,0 -30.681,-13.73635 -30.681,-30.681 0,-16.94465 13.73635,-30.681 30.681,-30.681 16.94465,0 30.681,13.73635 30.681,30.681 z" />
    <circle
       cx="901.98297"
       cy="736.64398"
       r="30.681"
       transform="matrix(0.72000006,0,0,0.72000006,0.69583929,-327.02074)"
       id="circle203"
       style="fill:#ffffff;stroke:#2778c9;stroke-width:10"
       sodipodi:cx="901.98297"
       sodipodi:cy="736.64398"
       sodipodi:rx="30.681"
       sodipodi:ry="30.681"
       d="m 932.66397,736.64398 c 0,16.94465 -13.73635,30.681 -30.681,30.681 -16.94465,0 -30.681,-13.73635 -30.681,-30.681 0,-16.94465 13.73635,-30.681 30.681,-30.681 16.94465,0 30.681,13.73635 30.681,30.681 z" />
    <circle
       cx="1025.384"
       cy="612.76703"
       r="30.681"
       transform="matrix(0.72000006,0,0,0.72000006,0.69583929,-327.02074)"
       id="circle205"
       style="fill:#ffffff;stroke:#2778c9;stroke-width:10"
       sodipodi:cx="1025.384"
       sodipodi:cy="612.76703"
       sodipodi:rx="30.681"
       sodipodi:ry="30.681"
       d="m 1056.065,612.76703 c 0,16.94465 -13.7363,30.681 -30.681,30.681 -16.9446,0 -30.68097,-13.73635 -30.68097,-30.681 0,-16.94465 13.73637,-30.681 30.68097,-30.681 16.9447,0 30.681,13.73635 30.681,30.681 z" />
    <circle
       cx="1148.541"
       cy="489.26401"
       r="30.681"
       transform="matrix(0.72000006,0,0,0.72000006,0.69583929,-327.02074)"
       id="circle207"
       style="fill:#ffffff;stroke:#2778c9;stroke-width:10"
       sodipodi:cx="1148.541"
       sodipodi:cy="489.26401"
       sodipodi:rx="30.681"
       sodipodi:ry="30.681"
       d="m 1179.222,489.26401 c 0,16.94465 -13.7363,30.681 -30.681,30.681 -16.9446,0 -30.681,-13.73635 -30.681,-30.681 0,-16.94465 13.7364,-30.681 30.681,-30.681 16.9447,0 30.681,13.73635 30.681,30.681 z" />
    <circle
       cx="905.83002"
       cy="2867.6479"
       r="30.681"
       transform="matrix(0.72000006,0,0,0.72000006,0.69583929,-327.02074)"
       id="circle209"
       style="fill:#ffffff;stroke:#2778c9;stroke-width:10"
       sodipodi:cx="905.83002"
       sodipodi:cy="2867.6479"
       sodipodi:rx="30.681"
       sodipodi:ry="30.681"
       d="m 936.51102,2867.6479 c 0,16.9447 -13.73635,30.681 -30.681,30.681 -16.94465,0 -30.681,-13.7363 -30.681,-30.681 0,-16.9446 13.73635,-30.681 30.681,-30.681 16.94465,0 30.681,13.7364 30.681,30.681 z" />
    <circle
       cx="905.83002"
       cy="3012.021"
       r="30.681"
       transform="matrix(0.72000006,0,0,0.72000006,0.69583929,-327.02074)"
       id="circle211"
       style="fill:#ffffff;stroke:#2778c9;stroke-width:10"
       sodipodi:cx="905.83002"
       sodipodi:cy="3012.021"
       sodipodi:rx="30.681"
       sodipodi:ry="30.681"
       d="m 936.51102,3012.021 c 0,16.9446 -13.73635,30.681 -30.681,30.681 -16.94465,0 -30.681,-13.7364 -30.681,-30.681 0,-16.9447 13.73635,-30.681 30.681,-30.681 16.94465,0 30.681,13.7363 30.681,30.681 z" />
    <circle
       cx="906.68103"
       cy="3157.3049"
       r="30.681"
       transform="matrix(0.72000006,0,0,0.72000006,0.69583929,-327.02074)"
       id="circle213"
       style="fill:#ffffff;stroke:#2778c9;stroke-width:10"
       sodipodi:cx="906.68103"
       sodipodi:cy="3157.3049"
       sodipodi:rx="30.681"
       sodipodi:ry="30.681"
       d="m 937.36203,3157.3049 c 0,16.9447 -13.73635,30.681 -30.681,30.681 -16.94465,0 -30.681,-13.7363 -30.681,-30.681 0,-16.9446 13.73635,-30.681 30.681,-30.681 16.94465,0 30.681,13.7364 30.681,30.681 z" />
    <circle
       cx="905.68103"
       cy="3299.5081"
       r="30.681"
       transform="matrix(0.72000006,0,0,0.72000006,0.69583929,-327.02074)"
       id="circle215"
       style="fill:#ffffff;stroke:#2778c9;stroke-width:10"
       sodipodi:cx="905.68103"
       sodipodi:cy="3299.5081"
       sodipodi:rx="30.681"
       sodipodi:ry="30.681"
       d="m 936.36203,3299.5081 c 0,16.9446 -13.73635,30.681 -30.681,30.681 -16.94465,0 -30.681,-13.7364 -30.681,-30.681 0,-16.9447 13.73635,-30.681 30.681,-30.681 16.94465,0 30.681,13.7363 30.681,30.681 z" />
    <circle
       cx="905.68103"
       cy="3459.4221"
       r="30.681"
       transform="matrix(0.72000006,0,0,0.72000006,0.69583929,-327.02074)"
       id="circle217"
       style="fill:#ffffff;stroke:#2778c9;stroke-width:10"
       sodipodi:cx="905.68103"
       sodipodi:cy="3459.4221"
       sodipodi:rx="30.681"
       sodipodi:ry="30.681"
       d="m 936.36203,3459.4221 c 0,16.9447 -13.73635,30.681 -30.681,30.681 -16.94465,0 -30.681,-13.7363 -30.681,-30.681 0,-16.9446 13.73635,-30.681 30.681,-30.681 16.94465,0 30.681,13.7364 30.681,30.681 z" />
    <circle
       cx="1016.822"
       cy="3570.9751"
       r="30.681"
       transform="matrix(0.72000006,0,0,0.72000006,0.69583929,-327.02074)"
       id="circle219"
       style="fill:#ffffff;stroke:#2778c9;stroke-width:10"
       sodipodi:cx="1016.822"
       sodipodi:cy="3570.9751"
       sodipodi:rx="30.681"
       sodipodi:ry="30.681"
       d="m 1047.503,3570.9751 c 0,16.9446 -13.7363,30.681 -30.681,30.681 -16.94463,0 -30.68098,-13.7364 -30.68098,-30.681 0,-16.9447 13.73635,-30.681 30.68098,-30.681 16.9447,0 30.681,13.7363 30.681,30.681 z" />
    <circle
       cx="1141.351"
       cy="3695.8401"
       r="30.681"
       transform="matrix(0.72000006,0,0,0.72000006,0.69583929,-327.02074)"
       id="circle221"
       style="fill:#ffffff;stroke:#2778c9;stroke-width:10"
       sodipodi:cx="1141.351"
       sodipodi:cy="3695.8401"
       sodipodi:rx="30.681"
       sodipodi:ry="30.681"
       d="m 1172.032,3695.8401 c 0,16.9446 -13.7364,30.681 -30.681,30.681 -16.9447,0 -30.681,-13.7364 -30.681,-30.681 0,-16.9447 13.7363,-30.681 30.681,-30.681 16.9446,0 30.681,13.7363 30.681,30.681 z" />
    <circle
       cx="455.15799"
       cy="1802.0291"
       r="30.681"
       transform="matrix(0.72000006,0,0,0.72000006,0.69583929,-327.02074)"
       id="circle223"
       style="fill:#ffffff;stroke:#b840c9;stroke-width:10"
       sodipodi:cx="455.15799"
       sodipodi:cy="1802.0291"
       sodipodi:rx="30.681"
       sodipodi:ry="30.681"
       d="m 485.83899,1802.0291 c 0,16.9446 -13.73635,30.681 -30.681,30.681 -16.94465,0 -30.681,-13.7364 -30.681,-30.681 0,-16.9447 13.73635,-30.681 30.681,-30.681 16.94465,0 30.681,13.7363 30.681,30.681 z" />
    <circle
       cx="897.83002"
       cy="2245.5271"
       r="35.456001"
       transform="matrix(0.72000006,0,0,0.72000006,0.69583929,-327.02074)"
       id="circle225"
       style="fill:#b840c9"
       sodipodi:cx="897.83002"
       sodipodi:cy="2245.5271"
       sodipodi:rx="35.456001"
       sodipodi:ry="35.456001"
       d="m 933.28602,2245.5271 c 0,19.5818 -15.87419,35.456 -35.456,35.456 -19.58181,0 -35.456,-15.8742 -35.456,-35.456 0,-19.5818 15.87419,-35.456 35.456,-35.456 19.58181,0 35.456,15.8742 35.456,35.456 z" />
    <circle
       cx="1172.766"
       cy="2520.5879"
       r="35.456001"
       transform="matrix(0.72000006,0,0,0.72000006,0.69583929,-327.02074)"
       id="circle227"
       style="fill:#b840c9"
       sodipodi:cx="1172.766"
       sodipodi:cy="2520.5879"
       sodipodi:rx="35.456001"
       sodipodi:ry="35.456001"
       d="m 1208.222,2520.5879 c 0,19.5818 -15.8742,35.456 -35.456,35.456 -19.5818,0 -35.456,-15.8742 -35.456,-35.456 0,-19.5818 15.8742,-35.456 35.456,-35.456 19.5818,0 35.456,15.8742 35.456,35.456 z" />
    <circle
       cx="1424.05"
       cy="2771.7529"
       r="30.681"
       transform="matrix(0.72000006,0,0,0.72000006,0.69583929,-327.02074)"
       id="circle229"
       style="fill:#ffffff;stroke:#b840c9;stroke-width:10"
       sodipodi:cx="1424.05"
       sodipodi:cy="2771.7529"
       sodipodi:rx="30.681"
       sodipodi:ry="30.681"
       d="m 1454.731,2771.7529 c 0,16.9447 -13.7363,30.681 -30.681,30.681 -16.9446,0 -30.681,-13.7363 -30.681,-30.681 0,-16.9446 13.7364,-30.681 30.681,-30.681 16.9447,0 30.681,13.7364 30.681,30.681 z" />
    <circle
       cx="1424.627"
       cy="2998.9709"
       r="30.68"
       transform="matrix(0.72000006,0,0,0.72000006,0.69583929,-327.02074)"
       id="circle231"
       style="fill:#ffffff;stroke:#b840c9;stroke-width:10"
       sodipodi:cx="1424.627"
       sodipodi:cy="2998.9709"
       sodipodi:rx="30.68"
       sodipodi:ry="30.68"
       d="m 1455.307,2998.9709 c 0,16.9441 -13.736,30.68 -30.68,30.68 -16.9441,0 -30.68,-13.7359 -30.68,-30.68 0,-16.944 13.7359,-30.68 30.68,-30.68 16.944,0 30.68,13.736 30.68,30.68 z" />
    <circle
       cx="455.29501"
       cy="1613.6121"
       r="30.68"
       transform="matrix(0.72000006,0,0,0.72000006,0.69583929,-327.02074)"
       id="circle233"
       style="fill:#ffffff;stroke:#b840c9;stroke-width:10"
       sodipodi:cx="455.29501"
       sodipodi:cy="1613.6121"
       sodipodi:rx="30.68"
       sodipodi:ry="30.68"
       d="m 485.97501,1613.6121 c 0,16.9441 -13.7359,30.68 -30.68,30.68 -16.94409,0 -30.68,-13.7359 -30.68,-30.68 0,-16.9441 13.73591,-30.68 30.68,-30.68 16.9441,0 30.68,13.7359 30.68,30.68 z" />
    <circle
       cx="271.655"
       cy="1429.683"
       r="30.68"
       transform="matrix(0.72000006,0,0,0.72000006,0.69583929,-327.02074)"
       id="circle235"
       style="fill:#ffffff;stroke:#b840c9;stroke-width:10"
       sodipodi:cx="271.655"
       sodipodi:cy="1429.683"
       sodipodi:rx="30.68"
       sodipodi:ry="30.68"
       d="m 302.335,1429.683 c 0,16.9441 -13.7359,30.68 -30.68,30.68 -16.9441,0 -30.68,-13.7359 -30.68,-30.68 0,-16.9441 13.7359,-30.68 30.68,-30.68 16.9441,0 30.68,13.7359 30.68,30.68 z" />
    <circle
       cx="271.655"
       cy="1131.995"
       r="30.68"
       transform="matrix(0.72000006,0,0,0.72000006,0.69583929,-327.02074)"
       id="circle237"
       style="fill:#ffffff;stroke:#b840c9;stroke-width:10"
       sodipodi:cx="271.655"
       sodipodi:cy="1131.995"
       sodipodi:rx="30.68"
       sodipodi:ry="30.68"
       d="m 302.335,1131.995 c 0,16.9441 -13.7359,30.68 -30.68,30.68 -16.9441,0 -30.68,-13.7359 -30.68,-30.68 0,-16.9441 13.7359,-30.68 30.68,-30.68 16.9441,0 30.68,13.7359 30.68,30.68 z" />
    <circle
       cx="272.11801"
       cy="958.55701"
       r="30.68"
       transform="matrix(0.72000006,0,0,0.72000006,0.69583929,-327.02074)"
       id="circle239"
       style="fill:#ffffff;stroke:#b840c9;stroke-width:10"
       sodipodi:cx="272.11801"
       sodipodi:cy="958.55701"
       sodipodi:rx="30.68"
       sodipodi:ry="30.68"
       d="m 302.79801,958.55701 c 0,16.94409 -13.7359,30.68 -30.68,30.68 -16.94409,0 -30.68,-13.73591 -30.68,-30.68 0,-16.9441 13.73591,-30.68 30.68,-30.68 16.9441,0 30.68,13.7359 30.68,30.68 z" />
    <circle
       cx="324.85101"
       cy="2031.1689"
       r="30.681"
       transform="matrix(0.72000006,0,0,0.72000006,0.69583929,-327.02074)"
       id="circle241"
       style="fill:#ffffff;stroke:#029302;stroke-width:10"
       sodipodi:cx="324.85101"
       sodipodi:cy="2031.1689"
       sodipodi:rx="30.681"
       sodipodi:ry="30.681"
       d="m 355.53201,2031.1689 c 0,16.9447 -13.73635,30.681 -30.681,30.681 -16.94465,0 -30.681,-13.7363 -30.681,-30.681 0,-16.9446 13.73635,-30.681 30.681,-30.681 16.94465,0 30.681,13.7364 30.681,30.681 z" />
    <circle
       cx="1616.8101"
       cy="2093.7629"
       r="35.456001"
       transform="matrix(0.72000006,0,0,0.72000006,0.69583929,-327.02074)"
       id="circle243"
       style="fill:#029302"
       sodipodi:cx="1616.8101"
       sodipodi:cy="2093.7629"
       sodipodi:rx="35.456001"
       sodipodi:ry="35.456001"
       d="m 1652.2661,2093.7629 c 0,19.5818 -15.8742,35.456 -35.456,35.456 -19.5819,0 -35.456,-15.8742 -35.456,-35.456 0,-19.5818 15.8741,-35.456 35.456,-35.456 19.5818,0 35.456,15.8742 35.456,35.456 z" />
    <circle
       cx="1806.588"
       cy="2284.384"
       r="35.456001"
       transform="matrix(0.72000006,0,0,0.72000006,0.69583929,-327.02074)"
       id="circle245"
       style="fill:#029302"
       sodipodi:cx="1806.588"
       sodipodi:cy="2284.384"
       sodipodi:rx="35.456001"
       sodipodi:ry="35.456001"
       d="m 1842.044,2284.384 c 0,19.5818 -15.8742,35.456 -35.456,35.456 -19.5818,0 -35.456,-15.8742 -35.456,-35.456 0,-19.5818 15.8742,-35.456 35.456,-35.456 19.5818,0 35.456,15.8742 35.456,35.456 z" />
    <circle
       cx="897.83002"
       cy="2031.1689"
       r="35.456001"
       transform="matrix(0.72000006,0,0,0.72000006,0.69583929,-327.02074)"
       id="circle247"
       style="fill:#029302"
       sodipodi:cx="897.83002"
       sodipodi:cy="2031.1689"
       sodipodi:rx="35.456001"
       sodipodi:ry="35.456001"
       d="m 933.28602,2031.1689 c 0,19.5819 -15.87419,35.456 -35.456,35.456 -19.58181,0 -35.456,-15.8741 -35.456,-35.456 0,-19.5818 15.87419,-35.456 35.456,-35.456 19.58181,0 35.456,15.8742 35.456,35.456 z" />
    <circle
       cx="228.83099"
       cy="1935.736"
       r="30.681"
       transform="matrix(0.72000006,0,0,0.72000006,0.69583929,-327.02074)"
       id="circle249"
       style="fill:#ffffff;stroke:#029302;stroke-width:10"
       sodipodi:cx="228.83099"
       sodipodi:cy="1935.736"
       sodipodi:rx="30.681"
       sodipodi:ry="30.681"
       d="m 259.51199,1935.736 c 0,16.9446 -13.73635,30.681 -30.681,30.681 -16.94464,0 -30.681,-13.7364 -30.681,-30.681 0,-16.9447 13.73636,-30.681 30.681,-30.681 16.94465,0 30.681,13.7363 30.681,30.681 z" />
    <circle
       cx="1807.0601"
       cy="2607.178"
       r="30.681"
       transform="matrix(0.72000006,0,0,0.72000006,0.69583929,-280.06394)"
       id="circle251"
       style="fill:#ffffff;stroke:#029302;stroke-width:10"
       sodipodi:cx="1807.0601"
       sodipodi:cy="2607.178"
       sodipodi:rx="30.681"
       sodipodi:ry="30.681"
       d="m 1837.7411,2607.178 c 0,16.9446 -13.7364,30.681 -30.681,30.681 -16.9447,0 -30.681,-13.7364 -30.681,-30.681 0,-16.9447 13.7363,-30.681 30.681,-30.681 16.9446,0 30.681,13.7363 30.681,30.681 z" />
    <circle
       cx="1807.0601"
       cy="2803.1809"
       r="30.681"
       transform="matrix(0.72000006,0,0,0.72000006,0.69583929,-271.52624)"
       id="circle253"
       style="fill:#ffffff;stroke:#029302;stroke-width:10"
       sodipodi:cx="1807.0601"
       sodipodi:cy="2803.1809"
       sodipodi:rx="30.681"
       sodipodi:ry="30.681"
       d="m 1837.7411,2803.1809 c 0,16.9447 -13.7364,30.681 -30.681,30.681 -16.9447,0 -30.681,-13.7363 -30.681,-30.681 0,-16.9446 13.7363,-30.681 30.681,-30.681 16.9446,0 30.681,13.7364 30.681,30.681 z" />
    <circle
       cx="1969.0861"
       cy="3159.356"
       r="30.681"
       transform="matrix(0.72000006,0,0,0.72000006,-7.8417685,-246.98064)"
       id="circle255"
       style="fill:#ffffff;stroke:#029302;stroke-width:10"
       sodipodi:cx="1969.0861"
       sodipodi:cy="3159.356"
       sodipodi:rx="30.681"
       sodipodi:ry="30.681"
       d="m 1999.7671,3159.356 c 0,16.9446 -13.7364,30.681 -30.681,30.681 -16.9447,0 -30.681,-13.7364 -30.681,-30.681 0,-16.9447 13.7363,-30.681 30.681,-30.681 16.9446,0 30.681,13.7363 30.681,30.681 z" />
    <circle
       cx="1969.0861"
       cy="3346.0681"
       r="30.681"
       transform="matrix(0.72000006,0,0,0.72000006,-8.90897,-243.77904)"
       id="circle257"
       style="fill:#ffffff;stroke:#029302;stroke-width:10"
       sodipodi:cx="1969.0861"
       sodipodi:cy="3346.0681"
       sodipodi:rx="30.681"
       sodipodi:ry="30.681"
       d="m 1999.7671,3346.0681 c 0,16.9447 -13.7364,30.681 -30.681,30.681 -16.9447,0 -30.681,-13.7363 -30.681,-30.681 0,-16.9446 13.7363,-30.681 30.681,-30.681 16.9446,0 30.681,13.7364 30.681,30.681 z" />
    <circle
       cx="1807.0601"
       cy="2998.4819"
       r="30.681"
       transform="matrix(0.72000006,0,0,0.72000006,0.69583929,-236.30864)"
       id="circle259"
       style="fill:#ffffff;stroke:#029302;stroke-width:10"
       sodipodi:cx="1807.0601"
       sodipodi:cy="2998.4819"
       sodipodi:rx="30.681"
       sodipodi:ry="30.681"
       d="m 1837.7411,2998.4819 c 0,16.9447 -13.7364,30.681 -30.681,30.681 -16.9447,0 -30.681,-13.7363 -30.681,-30.681 0,-16.9446 13.7363,-30.681 30.681,-30.681 16.9446,0 30.681,13.7364 30.681,30.681 z" />
    <circle
       cx="493.56"
       cy="3485.1021"
       r="30.681"
       transform="matrix(0.72000006,0,0,0.72000006,1.4177713,-306.87014)"
       id="circle177-1"
       style="fill:#ffffff;stroke:#de0000;stroke-width:10"
       sodipodi:cx="493.56"
       sodipodi:cy="3485.1021"
       sodipodi:rx="30.681"
       sodipodi:ry="30.681"
       d="m 524.241,3485.1021 c 0,16.9446 -13.73635,30.681 -30.681,30.681 -16.94465,0 -30.681,-13.7364 -30.681,-30.681 0,-16.9447 13.73635,-30.681 30.681,-30.681 16.94465,0 30.681,13.7363 30.681,30.681 z" />
  </g>
</svg>
