<?xml version="1.0" encoding="UTF-8" standalone="no"?>
<!-- Created with Inkscape (http://www.inkscape.org/) -->

<svg
   xmlns:dc="http://purl.org/dc/elements/1.1/"
   xmlns:cc="http://creativecommons.org/ns#"
   xmlns:rdf="http://www.w3.org/1999/02/22-rdf-syntax-ns#"
   xmlns:svg="http://www.w3.org/2000/svg"
   xmlns="http://www.w3.org/2000/svg"
   xmlns:sodipodi="http://sodipodi.sourceforge.net/DTD/sodipodi-0.dtd"
   xmlns:inkscape="http://www.inkscape.org/namespaces/inkscape"
   version="1.1"
   width="540"
   height="671"
   id="svg4324"
   inkscape:version="0.48.1 "
   sodipodi:docname="spb0.svg">
  <sodipodi:namedview
     pagecolor="#ffffff"
     bordercolor="#666666"
     borderopacity="1"
     objecttolerance="10"
     gridtolerance="10"
     guidetolerance="10"
     inkscape:pageopacity="0"
     inkscape:pageshadow="2"
     inkscape:window-width="1280"
     inkscape:window-height="738"
     id="namedview126"
     showgrid="false"
     inkscape:zoom="0.89535413"
     inkscape:cx="479.30498"
     inkscape:cy="182.82927"
     inkscape:window-x="-8"
     inkscape:window-y="-8"
     inkscape:window-maximized="1"
     inkscape:current-layer="layer1" />
  <defs
     id="defs4326" />
  <metadata
     id="metadata4329">
    <rdf:RDF>
      <cc:Work
         rdf:about="">
        <dc:format>image/svg+xml</dc:format>
        <dc:type
           rdf:resource="http://purl.org/dc/dcmitype/StillImage" />
        <dc:title></dc:title>
      </cc:Work>
    </rdf:RDF>
  </metadata>
  <g
     id="layer1"
     transform="matrix(0.18837855,0,0,0.18837855,-0.06326492,-0.25262164)">
    <circle
       cx="897.83099"
       cy="1995.713"
       r="93.308998"
       transform="matrix(1.0800001,0,0,1.0800001,0.87583931,-488.5476)"
       id="circle11"
       style="fill:none;stroke:#7f7f7f;stroke-width:5"
       sodipodi:cx="897.83099"
       sodipodi:cy="1995.713"
       sodipodi:rx="93.308998"
       sodipodi:ry="93.308998"
       d="m 991.13999,1995.713 c 0,51.5331 -41.77586,93.309 -93.309,93.309 -51.53313,0 -93.30899,-41.7759 -93.30899,-93.309 0,-51.5331 41.77586,-93.309 93.30899,-93.309 51.53314,0 93.309,41.7759 93.309,93.309 z" />
    <circle
       cx="1585.009"
       cy="2063.3069"
       r="93.308998"
       transform="matrix(1.0800001,0,0,1.0800001,0.87583931,-488.5476)"
       id="circle13"
       style="fill:none;stroke:#7f7f7f;stroke-width:5"
       sodipodi:cx="1585.009"
       sodipodi:cy="2063.3069"
       sodipodi:rx="93.308998"
       sodipodi:ry="93.308998"
       d="m 1678.318,2063.3069 c 0,51.5331 -41.7758,93.309 -93.309,93.309 -51.5331,0 -93.309,-41.7759 -93.309,-93.309 0,-51.5332 41.7759,-93.309 93.309,-93.309 51.5332,0 93.309,41.7758 93.309,93.309 z" />
    <circle
       cx="898.58801"
       cy="2287.127"
       r="110.141"
       transform="matrix(1.0800001,0,0,1.0800001,0.87583931,-488.5476)"
       id="circle15"
       style="fill:none;stroke:#7f7f7f;stroke-width:5"
       sodipodi:cx="898.58801"
       sodipodi:cy="2287.127"
       sodipodi:rx="110.141"
       sodipodi:ry="110.141"
       d="m 1008.729,2287.127 c 0,60.8291 -49.31179,110.141 -110.14099,110.141 -60.82919,0 -110.141,-49.3119 -110.141,-110.141 0,-60.8292 49.31181,-110.141 110.141,-110.141 60.8292,0 110.14099,49.3118 110.14099,110.141 z" />
    <circle
       cx="869.883"
       cy="2660.2339"
       r="93.308998"
       transform="matrix(1.0800001,0,0,1.0800001,0.87583931,-488.5476)"
       id="circle17"
       style="fill:none;stroke:#7f7f7f;stroke-width:5"
       sodipodi:cx="869.883"
       sodipodi:cy="2660.2339"
       sodipodi:rx="93.308998"
       sodipodi:ry="93.308998"
       d="m 963.19199,2660.2339 c 0,51.5331 -41.77586,93.309 -93.30899,93.309 -51.53314,0 -93.309,-41.7759 -93.309,-93.309 0,-51.5331 41.77586,-93.309 93.309,-93.309 51.53313,0 93.30899,41.7759 93.30899,93.309 z" />
    <circle
       cx="1305.1331"
       cy="2335.333"
       r="93.308998"
       transform="matrix(1.0800001,0,0,1.0800001,0.87583931,-488.5476)"
       id="circle19"
       style="fill:none;stroke:#7f7f7f;stroke-width:5"
       sodipodi:cx="1305.1331"
       sodipodi:cy="2335.333"
       sodipodi:rx="93.308998"
       sodipodi:ry="93.308998"
       d="m 1398.4421,2335.333 c 0,51.5331 -41.7759,93.309 -93.309,93.309 -51.5332,0 -93.309,-41.7759 -93.309,-93.309 0,-51.5331 41.7758,-93.309 93.309,-93.309 51.5331,0 93.309,41.7759 93.309,93.309 z" />
    <circle
       cx="1146.634"
       cy="2494.4351"
       r="93.308998"
       transform="matrix(1.0800001,0,0,1.0800001,0.87583931,-488.5476)"
       id="circle21"
       style="fill:none;stroke:#7f7f7f;stroke-width:5"
       sodipodi:cx="1146.634"
       sodipodi:cy="2494.4351"
       sodipodi:rx="93.308998"
       sodipodi:ry="93.308998"
       d="m 1239.943,2494.4351 c 0,51.5331 -41.7758,93.309 -93.309,93.309 -51.5331,0 -93.309,-41.7759 -93.309,-93.309 0,-51.5332 41.7759,-93.309 93.309,-93.309 51.5332,0 93.309,41.7758 93.309,93.309 z" />
    <circle
       cx="1807.0601"
       cy="2327.325"
       r="93.309998"
       transform="matrix(1.0800001,0,0,1.0800001,0.87583931,-488.5476)"
       id="circle23"
       style="fill:none;stroke:#7f7f7f;stroke-width:5"
       sodipodi:cx="1807.0601"
       sodipodi:cy="2327.325"
       sodipodi:rx="93.309998"
       sodipodi:ry="93.309998"
       d="m 1900.3701,2327.325 c 0,51.5336 -41.7764,93.3099 -93.31,93.3099 -51.5337,0 -93.31,-41.7763 -93.31,-93.3099 0,-51.5337 41.7763,-93.31 93.31,-93.31 51.5336,0 93.31,41.7763 93.31,93.31 z" />
    <path
       d="m 0.87583931,978.37658 33.01020169,10.90695 31.249804,9.3291 30.636358,6.27047 26.063647,3.9895 30.37285,1.3251 38.20716,-3.4851 36.3582,-9.31182 42.25716,-12.8595 32.08464,-7.52865 30.6558,-3.88695 23.8842,-0.43305 23.8734,2.2431 19.8666,3.1569 20.03725,5.5026 18.84276,5.2974 13.50001,4.32 9.18,4.32 5.4,4.85997 1.62,9.18 -0.54,9.18 -3.00672,5.2056 -9.95328,9.9144 -11.78929,8.7458 -18.79956,16.1352 -19.05013,16.294 -14.62104,11.7449 -10.8,14.58 -10.8,10.8001 -21.06,12.42 -29.7,8.64 -30.96792,5.3331 -42.39864,5.9627 -36.25344,5.9842 -36.61956,4.2639 -39.52045,4.9161 -34.431487,1.4871 -29.828518,-1.4871 -29.131922,-4.5835 -20.592364,-2.1212 -17.23571969,-3.3663 0,36.26 32.88384169,5.1061 51.540841,6.048 55.543328,0.4019 53.99569,-3.6224 72.92052,-8.4628 37.7676,-6.8138 31.2282,-8.046 23.76,-10.8 12.96,-10.8 8.64,-15.12 27,-25.92 44.28002,-36.72 23.24376,-15.6039 39.39624,-18.9561 33.31692,-19.4119 29.32308,-18.3881 27.48816,-24.46422 29.75186,-23.05575 33.1938,-19.2198 33.7662,-9.9402 32.72289,-3.9507 33.50265,-1.6977 39.0744,1.8672 44.64728,8.91435 37.04828,15.5067 52.30335,30.93975 39.89302,32.78877 36.83013,48.5763 19.6668,40.635 27.9677,71.6397 19.7111,52.7991 14.0724,28.1415 10.9545,18.872 26.9632,28.9363 23.7654,16.4516 34.3883,15.0433 17.3286,2.7767 8.64,5.4 -5.4,7.56 -20.52,4.32 -23.4641,0.3175 -70.9441,7.6325 -65.542,9.2328 -67.3066,21.1939 -65.34113,36.7535 -59.66355,40.783 -40.91903,34.9974 -21.79545,28.1881 -18.4497,23.2329 -25.44585,12.5496 -28.61892,5.2727 -53.54421,-0.098 -61.78682,-5.0145 -47.33856,-8.762 -47.7954,-15.1621 -36.4446,-19.3979 -37.92529,-25.541 -72.63325,-49.41 -84.78648,-50.247 -84.41064,-48.0773 -60.44437,-34.0848 -79.076527,-31.2681 -41.88348369,-11.5096 0,73.4314 60.34500569,18.4172 89.206935,37.4037 134.70084,76.869 120.0474,77.1746 c 0,0 53.45894,34.4337 66.60578,41.9451 17.47116,9.9846 52.01604,23.1542 52.01604,23.1542 l 45.69588,11.7925 35.77932,5.1558 c 0,0 11.82708,2.0499 16.79616,4.1171 l 12.37574,7.8709 c 0,0 7.02,8.8832 8.16696,14.4548 l -2.72808,20.4066 -10.28702,16.2691 -65.17476,59.8061 -61.24356,53.6847 -66.83689,59.4691 -61.13233,58.4852 -31.73796,37.3453 -28.836,44.6915 -14.50008,30.1234 -14.24628,40.338 -17.1396,56.9375 -21.222,36.4392 -27.20412,30.6807 -72.23365,33.967 -54.335887,3.6278 -45.63324,-3.0294 -47.24460369,-11.8812 0.06048,139.7034 62.16048569,-14.2257 62.797685,-9.8 55.81333,-16.2777 65.99016,-32.2099 48.82572,-35.5094 42.00336,-67.8757 19.15812,-74.3364 28.78416,-64.5971 30.95172,-42.0031 40.1015,-44.3178 119.32596,-102.06 67.92014,-60.8397 63.48996,-73.52 68.34342,-83.7745 47.53838,-54.0993 67.11773,-64.502 55.19227,-38.8379 33.03398,-15.7692 58.7153,-19.9692 86.4,-20.7965 79.5917,-13.4007 88.209,-14.3455 75.3754,-7.0362 41.1306,-3.8924 46.5966,-5.1678 66.0128,-4.549 64.8,-3.24 64.8,-4.32 66.96,-10.8 59.2208,-15.525 63.8992,-12.5549 56.16,-8.64 60.48,-6.48 61.9629,7.9812 46.0371,15.7788 41.04,28.08 27,33.48 18.36,46.44 12.96,69.1201 6.48,49.68 -2.16,54 -19.44,127.44 -24.84,99.36 -13.4556,83.8232 -4.9044,71.6968 8.64,71.28 17.28,99.36 31.6808,116.2805 22.3192,86.7595 17.7834,97.7316 7.1561,97.7928 5.2357,148.6242 7.9542,138.4431 5.9271,33.858 14.2635,47.3105 25.92,38.88 37.7406,24.2136 66.1328,20.0491 47.3266,22.6973 31.3428,33.5199 32.0177,54.5487 38.1034,78.9522 27.3402,56.9409 48.2631,92.7514 55.9158,83.0315 36.1088,32.3935 61.2565,31.2143 113.7801,44.4927 0,-92.7008 -89.3796,-36.4942 -44.8708,-23.8701 -38.6672,-44.9216 -31.8654,-52.4643 -34.0881,-63.6465 -39.0279,-79.5376 -43.632,-99.0264 -24.8865,-41.3078 -32.5468,-35.3548 -37.9404,-22.6445 -59.6831,-19.4886 -32.2228,-10.3777 -29.4992,-25.2114 -7.2769,-23.2244 -8.5418,-54.5314 -4.4463,-81.7851 -8.8884,-99.5081 -14.9052,-184.9498 -8.64,-64.8002 -10.8,-60.48 -10.8,-51.84 -12.96,-41.04 -15.12,-51.84 -19.44,-88.56 -15.12,-101.52 7.56,-86.4 16.2,-82.08 26.864,-85.9237 17.6278,-74.1032 11.6682,-58.1331 6.48,-79.92 -11.4771,-78.4189 -16.6029,-64.1412 -28.7571,-56.8188 -42.5229,-51.1812 -50.3571,-35.2188 -55.4829,-23.1012 -56.8371,-11.4588 -77.0829,-3.6612 -84.24,12.96 -54,15.12 -54,21.6 -62.64,15.12 -62.64,8.64 -62.64,6.48 -65.3345,5.4519 -60.5805,2.6049 -44.6428,0.7064 -42.2842,-2.5521 -41.2333,-5.117 -39.0657,-6.1474 -25.164,-6.2024 -23.9534,-11.5873 -18.523,-13.2192 -16.362,-15.2691 -20.5536,-24.9134 -15.4288,-23.9232 -28.8004,-61.3201 -18.1483,-48.438 -18.5479,-45.9962 -52.1057,-81.34137 -45.84058,-39.9135 -58.8201,-31.77255 -54.33802,-16.89555 -44.42146,-7.50705 -39.1317,-1.88775 -37.91229,-1.16535 -27.60048,0.2721 -31.11369,-1.99035 -27.68796,-2.5812 -29.04554,-7.13565 -34.35696,-9.33555 -40.52268,-10.8237 -47.03076,-8.69295 -36.16272,-2.65785 -34.10425,2.23995 -50.13037,9.1098 -36.26532,-1.10595 -33.27156,-5.7867 -29.64384,-10.8939 -62.58816,-18.18825 -118.64017,-16.35555 -78.603489,-2.7033 -29.39976169,0.9894 0,199.40895 z M 434.26907,890.59523 l -5.1732,12.4374 -12.42001,14.04 -15.66,11.34 -19.98,8.2803 -14.7582,1.19445 -18.1818,-1.37475 -21.06,0 -23.73948,3.93765 -44.30052,7.94235 -50.76,5.4 -64.43605,-3.7746 -50.043967,-13.5054 -30.408478,-19.33635 -24.442562,-15.42345 -23.220004,-19.98 -5.9399996,-10.8 1.0799996,-11.88 7.02,-10.8 14.800322,-6.21435 21.690722,-4.92585 28.478519,-4.3071 48.396968,-4.6137 43.00453,1.9008 44.577,7.0329 42.903,9.1671 39.96648,14.1231 31.85352,9.6369 27.6642,4.9896 25.7958,-0.129 23.22,-2.7 10.80001,0 5.79204,0.7062 3.96468,1.6698 2.9214,2.9214 1.36188,4.4226 -0.7668,8.6226 z m 181.79857,36.0462 -8.77176,7.1712 -15.66,8.64 -10.8,12.42 -17.28,12.96 -29.16,10.26 -29.16,2.7 -25.5582,-3.09855 -19.67868,-11.85195 -13.25161,-15.43215 -3.07152,-12.27735 0.46008,-13.5282 2.77992,-14.0118 5.12245,-13.5519 14.31756,-15.0681 17.62668,-8.01045 22.13352,-3.2583 23.86044,1.78095 19.46592,2.90295 18.97236,3.8859 23.22,7.02 19.44,9.72 6.48,4.86 3.24,7.02 -0.54,10.26 -4.18716,8.48775 z"
       id="path25"
       style="fill:#eefbff;stroke:#7f7f7f;stroke-width:1.08000004"
       inkscape:connector-curvature="0" />
    <g
       transform="matrix(1.5,0,0,1.5,1.0858393,-687.6585)"
       id="g29">
      <line
         style="fill:none;stroke:#de0000;stroke-width:14.40000057"
         x1="1403.5576"
         y1="488.68625"
         x2="1403.5576"
         y2="632.35217"
         id="line31" />
      <line
         style="fill:none;stroke:#de0000;stroke-width:14.40000057"
         x1="1404.4008"
         y1="632.35217"
         x2="1220.4493"
         y2="817.28564"
         id="line33" />
      <line
         style="fill:none;stroke:#de0000;stroke-width:14.40000057"
         x1="1220.4493"
         y1="817.28564"
         x2="1220.4493"
         y2="928.29163"
         id="line35" />
      <line
         style="fill:none;stroke:#de0000;stroke-width:14.40000057"
         x1="1220.4493"
         y1="928.29163"
         x2="1118.588"
         y2="1030.153"
         id="line37" />
      <line
         style="fill:none;stroke:#de0000;stroke-width:14.40000057"
         x1="1118.588"
         y1="1030.153"
         x2="1118.588"
         y2="1596.4258"
         id="line39" />
      <line
         style="fill:none;stroke:#de0000;stroke-width:14.40000057"
         x1="1118.588"
         y1="1596.4258"
         x2="355.67969"
         y2="2359.3347"
         id="line41" />
      <line
         style="fill:none;stroke:#de0000;stroke-width:14.68669033"
         x1="355.67969"
         y1="2359.3347"
         x2="355.67969"
         y2="2653.3818"
         id="line43" />
    </g>
    <g
       transform="matrix(1.0800001,0,0,1.0800001,0.87583931,-488.5476)"
       id="g47">
      <line
         style="fill:none;stroke:#2778c9;stroke-width:20"
         x1="1146.9871"
         y1="492.26401"
         x2="901.98297"
         y2="737.26898"
         id="line49" />
      <line
         style="fill:none;stroke:#2778c9;stroke-width:20"
         x1="901.98297"
         y1="737.26898"
         x2="901.98297"
         y2="857.15198"
         id="line51" />
      <line
         style="fill:none;stroke:#2778c9;stroke-width:20"
         x1="901.98297"
         y1="857.15198"
         x2="758.27802"
         y2="1000.858"
         id="line53" />
      <line
         style="fill:none;stroke:#2778c9;stroke-width:20"
         x1="758.27802"
         y1="1000.858"
         x2="758.27802"
         y2="1482.063"
         id="line55" />
      <line
         style="fill:none;stroke:#2778c9;stroke-width:20"
         x1="745.37299"
         y1="1482.063"
         x2="898.15198"
         y2="1634.843"
         id="line57" />
      <line
         style="fill:none;stroke:#2778c9;stroke-width:20"
         x1="898.15198"
         y1="1634.843"
         x2="898.15198"
         y2="2248.271"
         id="line59" />
      <line
         style="fill:none;stroke:#2778c9;stroke-width:20"
         x1="898.15198"
         y1="2248.271"
         x2="838.82098"
         y2="2307.6021"
         id="line61" />
      <line
         style="fill:none;stroke:#2778c9;stroke-width:20"
         x1="838.82098"
         y1="2307.6021"
         x2="838.82098"
         y2="2627.1479"
         id="line63" />
      <line
         style="fill:none;stroke:#2778c9;stroke-width:20"
         x1="838.82098"
         y1="2627.1479"
         x2="896.94501"
         y2="2685.272"
         id="line65" />
      <line
         style="fill:none;stroke:#2778c9;stroke-width:20"
         x1="906.68103"
         y1="2699.2439"
         x2="906.68103"
         y2="3460.2129"
         id="line67" />
      <line
         style="fill:none;stroke:#2778c9;stroke-width:20"
         x1="906.68103"
         y1="3460.2129"
         x2="1141.87"
         y2="3695.4021"
         id="line69" />
    </g>
    <g
       transform="matrix(1.0800001,0,0,1.0800001,0.87583931,-488.5476)"
       id="g71">
      <line
         style="fill:none;stroke:#b840c9;stroke-width:20"
         x1="272.26801"
         y1="966.15997"
         x2="272.26801"
         y2="1429.917"
         id="line73" />
      <line
         style="fill:none;stroke:#b840c9;stroke-width:20"
         x1="272.26801"
         y1="1429.917"
         x2="455.30801"
         y2="1612.895"
         id="line75" />
      <line
         style="fill:none;stroke:#b840c9;stroke-width:20"
         x1="455.30801"
         y1="1612.895"
         x2="455.30801"
         y2="1803.0341"
         id="line77" />
      <line
         style="fill:none;stroke:#b840c9;stroke-width:20"
         x1="455.30801"
         y1="1803.0341"
         x2="1424.449"
         y2="2772.176"
         id="line79" />
      <line
         style="fill:none;stroke:#b840c9;stroke-width:20"
         x1="1424.449"
         y1="2772.176"
         x2="1424.449"
         y2="3009.8359"
         id="line81" />
    </g>
    <g
       transform="matrix(1.0800001,0,0,1.0800001,0.87583931,-488.5476)"
       id="g83">
      <line
         style="fill:none;stroke:#029302;stroke-width:20"
         x1="228.67999"
         y1="1934.293"
         x2="325.556"
         y2="2031.1689"
         id="line85" />
      <line
         style="fill:none;stroke:#029302;stroke-width:20"
         x1="325.556"
         y1="2031.1689"
         x2="1553.7889"
         y2="2031.1689"
         id="line87" />
      <line
         style="fill:none;stroke:#029302;stroke-width:20"
         x1="1553.7889"
         y1="2031.1689"
         x2="1807.588"
         y2="2284.968"
         id="line89" />
      <line
         style="fill:none;stroke:#029302;stroke-width:21.46278954"
         x1="1807.588"
         y1="2284.968"
         x2="1807.588"
         y2="3106.3406"
         id="line91" />
      <line
         style="fill:none;stroke:#029302;stroke-width:20"
         x1="1794.248"
         y1="3109.3618"
         x2="1955.7461"
         y2="3270.8599"
         id="line93" />
      <line
         style="fill:none;stroke:#029302;stroke-width:20"
         x1="1957.2283"
         y1="3270.8599"
         x2="1957.2283"
         y2="3458.9968"
         id="line95" />
    </g>
    <g
       transform="matrix(1.0800001,0,0,1.0800001,-9.8156161,-488.5476)"
       id="g97">
      <line
         style="fill:none;stroke:#ffb000;stroke-width:20"
         x1="961.20203"
         y1="2309.5291"
         x2="1276.967"
         y2="2309.5291"
         id="line99" />
      <line
         style="fill:none;stroke:#ffb000;stroke-width:20"
         x1="1276.967"
         y1="2305.5291"
         x2="1572.74"
         y2="2601.303"
         id="line101" />
      <line
         style="fill:none;stroke:#ffb000;stroke-width:20"
         x1="1572.74"
         y1="2608.303"
         x2="1803.743"
         y2="2377.3"
         id="line103" />
      <line
         style="fill:none;stroke:#ffb000;stroke-width:18.68108368"
         x1="1803.743"
         y1="2378.041"
         x2="2450.7898"
         y2="2378.041"
         id="line105" />
      <line
         style="fill:none;stroke:#ffb000;stroke-width:18.23719597"
         x1="2616.8782"
         y1="2539.3289"
         x2="2616.8782"
         y2="2989.1289"
         id="line109" />
      <line
         style="fill:none;stroke:#ffb000;stroke-width:14.68067074"
         x1="2619.1787"
         y1="2550.7095"
         x2="2454.0029"
         y2="2376.6404"
         id="line103-1" />
    </g>
    <circle
       cx="2128.2141"
       cy="2377.3"
       r="30.681"
       transform="matrix(1.0800001,0,0,1.0800001,342.06694,-488.5476)"
       id="circle133"
       style="fill:#ffffff;stroke:#ffb000;stroke-width:10"
       sodipodi:cx="2128.2141"
       sodipodi:cy="2377.3"
       sodipodi:rx="30.681"
       sodipodi:ry="30.681"
       d="m 2158.8951,2377.3 c 0,16.9447 -13.7363,30.681 -30.681,30.681 -16.9446,0 -30.681,-13.7363 -30.681,-30.681 0,-16.9446 13.7364,-30.681 30.681,-30.681 16.9447,0 30.681,13.7364 30.681,30.681 z" />
    <circle
       cx="1808.0601"
       cy="2375.762"
       r="35.456001"
       transform="matrix(1.0800001,0,0,1.0800001,0.87583931,-488.5476)"
       id="circle135"
       style="fill:#ffb000"
       sodipodi:cx="1808.0601"
       sodipodi:cy="2375.762"
       sodipodi:rx="35.456001"
       sodipodi:ry="35.456001"
       d="m 1843.5161,2375.762 c 0,19.5818 -15.8742,35.456 -35.456,35.456 -19.5819,0 -35.456,-15.8742 -35.456,-35.456 0,-19.5818 15.8741,-35.456 35.456,-35.456 19.5818,0 35.456,15.8742 35.456,35.456 z" />
    <circle
       cx="2265.1831"
       cy="2509.1189"
       r="30.681"
       transform="matrix(1.0800001,0,0,1.0800001,366.44622,-450.1284)"
       id="circle137"
       style="fill:#ffffff;stroke:#ffb000;stroke-width:10"
       sodipodi:cx="2265.1831"
       sodipodi:cy="2509.1189"
       sodipodi:rx="30.681"
       sodipodi:ry="30.681"
       d="m 2295.8641,2509.1189 c 0,16.9446 -13.7363,30.681 -30.681,30.681 -16.9446,0 -30.681,-13.7364 -30.681,-30.681 0,-16.9447 13.7364,-30.681 30.681,-30.681 16.9447,0 30.681,13.7363 30.681,30.681 z" />
    <circle
       cx="2264.8501"
       cy="2744.877"
       r="30.681"
       transform="matrix(1.0800001,0,0,1.0800001,369.64782,-456.5316)"
       id="circle139"
       style="fill:#ffffff;stroke:#ffb000;stroke-width:10"
       sodipodi:cx="2264.8501"
       sodipodi:cy="2744.877"
       sodipodi:rx="30.681"
       sodipodi:ry="30.681"
       d="m 2295.5311,2744.877 c 0,16.9446 -13.7364,30.681 -30.681,30.681 -16.9447,0 -30.681,-13.7364 -30.681,-30.681 0,-16.9447 13.7363,-30.681 30.681,-30.681 16.9446,0 30.681,13.7363 30.681,30.681 z" />
    <circle
       cx="2264.8501"
       cy="2967.48"
       r="30.681"
       transform="matrix(1.0800001,0,0,1.0800001,368.04702,-464.5356)"
       id="circle141"
       style="fill:#ffffff;stroke:#ffb000;stroke-width:10"
       sodipodi:cx="2264.8501"
       sodipodi:cy="2967.48"
       sodipodi:rx="30.681"
       sodipodi:ry="30.681"
       d="m 2295.5311,2967.48 c 0,16.9446 -13.7364,30.681 -30.681,30.681 -16.9447,0 -30.681,-13.7364 -30.681,-30.681 0,-16.9447 13.7363,-30.681 30.681,-30.681 16.9446,0 30.681,13.7363 30.681,30.681 z" />
    <circle
       cx="960.34998"
       cy="2308.5291"
       r="35.456001"
       transform="matrix(1.0800001,0,0,1.0800001,0.87583931,-488.5476)"
       id="circle143"
       style="fill:#ffb000"
       sodipodi:cx="960.34998"
       sodipodi:cy="2308.5291"
       sodipodi:rx="35.456001"
       sodipodi:ry="35.456001"
       d="m 995.80598,2308.5291 c 0,19.5818 -15.8742,35.456 -35.456,35.456 -19.58181,0 -35.45601,-15.8742 -35.45601,-35.456 0,-19.5819 15.8742,-35.456 35.45601,-35.456 19.5818,0 35.456,15.8741 35.456,35.456 z" />
    <circle
       cx="1334.541"
       cy="2362.781"
       r="35.456001"
       transform="matrix(1.0800001,0,0,1.0800001,0.87583931,-488.5476)"
       id="circle145"
       style="fill:#ffb000"
       sodipodi:cx="1334.541"
       sodipodi:cy="2362.781"
       sodipodi:rx="35.456001"
       sodipodi:ry="35.456001"
       d="m 1369.997,2362.781 c 0,19.5818 -15.8742,35.456 -35.456,35.456 -19.5818,0 -35.456,-15.8742 -35.456,-35.456 0,-19.5818 15.8742,-35.456 35.456,-35.456 19.5818,0 35.456,15.8742 35.456,35.456 z" />
    <circle
       cx="1572.537"
       cy="2597.8611"
       r="30.681"
       transform="matrix(1.0800001,0,0,1.0800001,0.87583931,-488.5476)"
       id="circle147"
       style="fill:#ffffff;stroke:#ffb000;stroke-width:10"
       sodipodi:cx="1572.537"
       sodipodi:cy="2597.8611"
       sodipodi:rx="30.681"
       sodipodi:ry="30.681"
       d="m 1603.218,2597.8611 c 0,16.9446 -13.7364,30.681 -30.681,30.681 -16.9447,0 -30.681,-13.7364 -30.681,-30.681 0,-16.9447 13.7363,-30.681 30.681,-30.681 16.9446,0 30.681,13.7363 30.681,30.681 z" />
    <circle
       cx="1552.74"
       cy="1857.198"
       r="30.681"
       transform="matrix(1.0800001,0,0,1.0800001,0.87583931,-488.5476)"
       id="circle149"
       style="fill:#ffffff;stroke:#de0000;stroke-width:10"
       sodipodi:cx="1552.74"
       sodipodi:cy="1857.198"
       sodipodi:rx="30.681"
       sodipodi:ry="30.681"
       d="m 1583.421,1857.198 c 0,16.9446 -13.7364,30.681 -30.681,30.681 -16.9447,0 -30.681,-13.7364 -30.681,-30.681 0,-16.9447 13.7363,-30.681 30.681,-30.681 16.9446,0 30.681,13.7363 30.681,30.681 z" />
    <circle
       cx="1552.74"
       cy="2032.39"
       r="35.456001"
       transform="matrix(1.0800001,0,0,1.0800001,0.87583931,-488.5476)"
       id="circle151"
       style="fill:#de0000"
       sodipodi:cx="1552.74"
       sodipodi:cy="2032.39"
       sodipodi:rx="35.456001"
       sodipodi:ry="35.456001"
       d="m 1588.196,2032.39 c 0,19.5818 -15.8742,35.456 -35.456,35.456 -19.5818,0 -35.456,-15.8742 -35.456,-35.456 0,-19.5818 15.8742,-35.456 35.456,-35.456 19.5818,0 35.456,15.8742 35.456,35.456 z" />
    <circle
       cx="1275.967"
       cy="2311.2561"
       r="35.456001"
       transform="matrix(1.0800001,0,0,1.0800001,0.87583931,-488.5476)"
       id="circle153"
       style="fill:#de0000"
       sodipodi:cx="1275.967"
       sodipodi:cy="2311.2561"
       sodipodi:rx="35.456001"
       sodipodi:ry="35.456001"
       d="m 1311.423,2311.2561 c 0,19.5818 -15.8742,35.456 -35.456,35.456 -19.5818,0 -35.456,-15.8742 -35.456,-35.456 0,-19.5818 15.8742,-35.456 35.456,-35.456 19.5818,0 35.456,15.8742 35.456,35.456 z" />
    <circle
       cx="1119.092"
       cy="2467.375"
       r="35.456001"
       transform="matrix(1.0800001,0,0,1.0800001,0.87583931,-488.5476)"
       id="circle155"
       style="fill:#de0000"
       sodipodi:cx="1119.092"
       sodipodi:cy="2467.375"
       sodipodi:rx="35.456001"
       sodipodi:ry="35.456001"
       d="m 1154.548,2467.375 c 0,19.5818 -15.8742,35.456 -35.456,35.456 -19.5818,0 -35.456,-15.8742 -35.456,-35.456 0,-19.5818 15.8742,-35.456 35.456,-35.456 19.5818,0 35.456,15.8742 35.456,35.456 z" />
    <circle
       cx="901.83002"
       cy="2689.259"
       r="35.456001"
       transform="matrix(1.0800001,0,0,1.0800001,0.87583931,-488.5476)"
       id="circle157"
       style="fill:#de0000"
       sodipodi:cx="901.83002"
       sodipodi:cy="2689.259"
       sodipodi:rx="35.456001"
       sodipodi:ry="35.456001"
       d="m 937.28602,2689.259 c 0,19.5818 -15.87419,35.456 -35.456,35.456 -19.58181,0 -35.456,-15.8742 -35.456,-35.456 0,-19.5818 15.87419,-35.456 35.456,-35.456 19.58181,0 35.456,15.8742 35.456,35.456 z" />
    <circle
       cx="1553.387"
       cy="1539.285"
       r="30.681"
       transform="matrix(1.0800001,0,0,1.0800001,0.87583931,-488.5476)"
       id="circle159"
       style="fill:#ffffff;stroke:#de0000;stroke-width:10"
       sodipodi:cx="1553.387"
       sodipodi:cy="1539.285"
       sodipodi:rx="30.681"
       sodipodi:ry="30.681"
       d="m 1584.068,1539.285 c 0,16.9447 -13.7364,30.681 -30.681,30.681 -16.9447,0 -30.681,-13.7363 -30.681,-30.681 0,-16.9446 13.7363,-30.681 30.681,-30.681 16.9446,0 30.681,13.7364 30.681,30.681 z" />
    <circle
       cx="1553.387"
       cy="1393.306"
       r="30.681"
       transform="matrix(1.0800001,0,0,1.0800001,0.87583931,-488.5476)"
       id="circle161"
       style="fill:#ffffff;stroke:#de0000;stroke-width:10"
       sodipodi:cx="1553.387"
       sodipodi:cy="1393.306"
       sodipodi:rx="30.681"
       sodipodi:ry="30.681"
       d="m 1584.068,1393.306 c 0,16.9447 -13.7364,30.681 -30.681,30.681 -16.9447,0 -30.681,-13.7363 -30.681,-30.681 0,-16.9446 13.7363,-30.681 30.681,-30.681 16.9446,0 30.681,13.7364 30.681,30.681 z" />
    <circle
       cx="1552.74"
       cy="1248.895"
       r="30.681"
       transform="matrix(1.0800001,0,0,1.0800001,0.87583931,-488.5476)"
       id="circle163"
       style="fill:#ffffff;stroke:#de0000;stroke-width:10"
       sodipodi:cx="1552.74"
       sodipodi:cy="1248.895"
       sodipodi:rx="30.681"
       sodipodi:ry="30.681"
       d="m 1583.421,1248.895 c 0,16.9447 -13.7364,30.681 -30.681,30.681 -16.9447,0 -30.681,-13.7363 -30.681,-30.681 0,-16.9446 13.7363,-30.681 30.681,-30.681 16.9446,0 30.681,13.7364 30.681,30.681 z" />
    <circle
       cx="1949.58"
       cy="498.37399"
       r="30.681"
       transform="matrix(1.0800001,0,0,1.0800001,0.87583931,-488.5476)"
       id="circle165"
       style="fill:#ffffff;stroke:#de0000;stroke-width:10"
       sodipodi:cx="1949.58"
       sodipodi:cy="498.37399"
       sodipodi:rx="30.681"
       sodipodi:ry="30.681"
       d="m 1980.261,498.37399 c 0,16.94465 -13.7364,30.681 -30.681,30.681 -16.9447,0 -30.681,-13.73635 -30.681,-30.681 0,-16.94465 13.7363,-30.681 30.681,-30.681 16.9446,0 30.681,13.73635 30.681,30.681 z" />
    <circle
       cx="1695.2629"
       cy="1103.115"
       r="30.681"
       transform="matrix(1.0800001,0,0,1.0800001,0.87583931,-488.5476)"
       id="circle167"
       style="fill:#ffffff;stroke:#de0000;stroke-width:10"
       sodipodi:cx="1695.2629"
       sodipodi:cy="1103.115"
       sodipodi:rx="30.681"
       sodipodi:ry="30.681"
       d="m 1725.9439,1103.115 c 0,16.9446 -13.7363,30.681 -30.681,30.681 -16.9446,0 -30.681,-13.7364 -30.681,-30.681 0,-16.9447 13.7364,-30.681 30.681,-30.681 16.9447,0 30.681,13.7363 30.681,30.681 z" />
    <circle
       cx="1695.431"
       cy="950.79602"
       r="30.681"
       transform="matrix(1.0800001,0,0,1.0800001,0.87583931,-488.5476)"
       id="circle169"
       style="fill:#ffffff;stroke:#de0000;stroke-width:10"
       sodipodi:cx="1695.431"
       sodipodi:cy="950.79602"
       sodipodi:rx="30.681"
       sodipodi:ry="30.681"
       d="m 1726.112,950.79602 c 0,16.94465 -13.7363,30.681 -30.681,30.681 -16.9446,0 -30.681,-13.73635 -30.681,-30.681 0,-16.94465 13.7364,-30.681 30.681,-30.681 16.9447,0 30.681,13.73635 30.681,30.681 z" />
    <circle
       cx="1825.825"
       cy="818.92603"
       r="30.681"
       transform="matrix(1.0800001,0,0,1.0800001,0.87583931,-488.5476)"
       id="circle171"
       style="fill:#ffffff;stroke:#de0000;stroke-width:10"
       sodipodi:cx="1825.825"
       sodipodi:cy="818.92603"
       sodipodi:rx="30.681"
       sodipodi:ry="30.681"
       d="m 1856.506,818.92603 c 0,16.94464 -13.7364,30.681 -30.681,30.681 -16.9447,0 -30.681,-13.73636 -30.681,-30.681 0,-16.94465 13.7363,-30.681 30.681,-30.681 16.9446,0 30.681,13.73635 30.681,30.681 z" />
    <circle
       cx="1949.771"
       cy="695.47699"
       r="30.681"
       transform="matrix(1.0800001,0,0,1.0800001,0.87583931,-488.5476)"
       id="circle173"
       style="fill:#ffffff;stroke:#de0000;stroke-width:10"
       sodipodi:cx="1949.771"
       sodipodi:cy="695.47699"
       sodipodi:rx="30.681"
       sodipodi:ry="30.681"
       d="m 1980.452,695.47699 c 0,16.94465 -13.7364,30.681 -30.681,30.681 -16.9447,0 -30.681,-13.73635 -30.681,-30.681 0,-16.94465 13.7363,-30.681 30.681,-30.681 16.9446,0 30.681,13.73635 30.681,30.681 z" />
    <circle
       cx="493.56"
       cy="3485.1021"
       r="30.681"
       transform="matrix(1.0800001,0,0,1.0800001,0.31664099,-611.0797)"
       id="circle177"
       style="fill:#ffffff;stroke:#de0000;stroke-width:10"
       sodipodi:cx="493.56"
       sodipodi:cy="3485.1021"
       sodipodi:rx="30.681"
       sodipodi:ry="30.681"
       d="m 524.241,3485.1021 c 0,16.9446 -13.73635,30.681 -30.681,30.681 -16.94465,0 -30.681,-13.7364 -30.681,-30.681 0,-16.9447 13.73635,-30.681 30.681,-30.681 16.94465,0 30.681,13.7363 30.681,30.681 z" />
    <circle
       cx="494.194"
       cy="3287.6599"
       r="30.681"
       transform="matrix(1.0800001,0,0,1.0800001,-2.2523131,-555.4741)"
       id="circle179"
       style="fill:#ffffff;stroke:#de0000;stroke-width:10"
       sodipodi:cx="494.194"
       sodipodi:cy="3287.6599"
       sodipodi:rx="30.681"
       sodipodi:ry="30.681"
       d="m 524.875,3287.6599 c 0,16.9447 -13.73635,30.681 -30.681,30.681 -16.94465,0 -30.681,-13.7363 -30.681,-30.681 0,-16.9446 13.73635,-30.681 30.681,-30.681 16.94465,0 30.681,13.7364 30.681,30.681 z" />
    <circle
       cx="753.12903"
       cy="2833.4319"
       r="30.681"
       transform="matrix(1.0800001,0,0,1.0800001,0.87583931,-488.5476)"
       id="circle181"
       style="fill:#ffffff;stroke:#de0000;stroke-width:10"
       sodipodi:cx="753.12903"
       sodipodi:cy="2833.4319"
       sodipodi:rx="30.681"
       sodipodi:ry="30.681"
       d="m 783.81003,2833.4319 c 0,16.9446 -13.73635,30.681 -30.681,30.681 -16.94465,0 -30.681,-13.7364 -30.681,-30.681 0,-16.9447 13.73635,-30.681 30.681,-30.681 16.94465,0 30.681,13.7363 30.681,30.681 z" />
    <circle
       cx="494.194"
       cy="3091.4919"
       r="30.681"
       transform="matrix(1.0800001,0,0,1.0800001,0.87583931,-488.5476)"
       id="circle183"
       style="fill:#ffffff;stroke:#de0000;stroke-width:10"
       sodipodi:cx="494.194"
       sodipodi:cy="3091.4919"
       sodipodi:rx="30.681"
       sodipodi:ry="30.681"
       d="m 524.875,3091.4919 c 0,16.9447 -13.73635,30.681 -30.681,30.681 -16.94465,0 -30.681,-13.7363 -30.681,-30.681 0,-16.9446 13.73635,-30.681 30.681,-30.681 16.94465,0 30.681,13.7364 30.681,30.681 z" />
    <circle
       cx="623.12"
       cy="2963.4409"
       r="30.681"
       transform="matrix(1.0800001,0,0,1.0800001,0.87583931,-488.5476)"
       id="circle185"
       style="fill:#ffffff;stroke:#de0000;stroke-width:10"
       sodipodi:cx="623.12"
       sodipodi:cy="2963.4409"
       sodipodi:rx="30.681"
       sodipodi:ry="30.681"
       d="m 653.80099,2963.4409 c 0,16.9447 -13.73635,30.681 -30.68099,30.681 -16.94465,0 -30.681,-13.7363 -30.681,-30.681 0,-16.9446 13.73635,-30.681 30.681,-30.681 16.94464,0 30.68099,13.7364 30.68099,30.681 z" />
    <circle
       cx="898.15198"
       cy="1636.501"
       r="30.681"
       transform="matrix(1.0800001,0,0,1.0800001,0.87583931,-488.5476)"
       id="circle187"
       style="fill:#ffffff;stroke:#2778c9;stroke-width:10"
       sodipodi:cx="898.15198"
       sodipodi:cy="1636.501"
       sodipodi:rx="30.681"
       sodipodi:ry="30.681"
       d="m 928.83298,1636.501 c 0,16.9446 -13.73635,30.681 -30.681,30.681 -16.94465,0 -30.681,-13.7364 -30.681,-30.681 0,-16.9447 13.73635,-30.681 30.681,-30.681 16.94465,0 30.681,13.7363 30.681,30.681 z" />
    <circle
       cx="898.15198"
       cy="1951.2791"
       r="35.456001"
       transform="matrix(1.0800001,0,0,1.0800001,0.87583931,-488.5476)"
       id="circle189"
       style="fill:#2778c9"
       sodipodi:cx="898.15198"
       sodipodi:cy="1951.2791"
       sodipodi:rx="35.456001"
       sodipodi:ry="35.456001"
       d="m 933.60798,1951.2791 c 0,19.5818 -15.87419,35.456 -35.456,35.456 -19.58181,0 -35.456,-15.8742 -35.456,-35.456 0,-19.5819 15.87419,-35.456 35.456,-35.456 19.58181,0 35.456,15.8741 35.456,35.456 z" />
    <circle
       cx="838.82098"
       cy="2307.2271"
       r="35.456001"
       transform="matrix(1.0800001,0,0,1.0800001,0.87583931,-488.5476)"
       id="circle191"
       style="fill:#2778c9"
       sodipodi:cx="838.82098"
       sodipodi:cy="2307.2271"
       sodipodi:rx="35.456001"
       sodipodi:ry="35.456001"
       d="m 874.27699,2307.2271 c 0,19.5818 -15.8742,35.456 -35.45601,35.456 -19.5818,0 -35.456,-15.8742 -35.456,-35.456 0,-19.5819 15.8742,-35.4561 35.456,-35.4561 19.58181,0 35.45601,15.8742 35.45601,35.4561 z" />
    <circle
       cx="839.15198"
       cy="2627.1479"
       r="35.456001"
       transform="matrix(1.0800001,0,0,1.0800001,0.87583931,-488.5476)"
       id="circle193"
       style="fill:#2778c9"
       sodipodi:cx="839.15198"
       sodipodi:cy="2627.1479"
       sodipodi:rx="35.456001"
       sodipodi:ry="35.456001"
       d="m 874.60798,2627.1479 c 0,19.5819 -15.87419,35.4561 -35.456,35.4561 -19.58181,0 -35.456,-15.8742 -35.456,-35.4561 0,-19.5818 15.87419,-35.456 35.456,-35.456 19.58181,0 35.456,15.8742 35.456,35.456 z" />
    <circle
       cx="758.27802"
       cy="1494.063"
       r="30.681"
       transform="matrix(1.0800001,0,0,1.0800001,0.87583931,-488.5476)"
       id="circle195"
       style="fill:#ffffff;stroke:#2778c9;stroke-width:10"
       sodipodi:cx="758.27802"
       sodipodi:cy="1494.063"
       sodipodi:rx="30.681"
       sodipodi:ry="30.681"
       d="m 788.95901,1494.063 c 0,16.9446 -13.73635,30.681 -30.68099,30.681 -16.94465,0 -30.681,-13.7364 -30.681,-30.681 0,-16.9447 13.73635,-30.681 30.681,-30.681 16.94464,0 30.68099,13.7363 30.68099,30.681 z" />
    <circle
       cx="758.27802"
       cy="1161.157"
       r="30.681"
       transform="matrix(1.0800001,0,0,1.0800001,0.87583931,-488.5476)"
       id="circle197"
       style="fill:#ffffff;stroke:#2778c9;stroke-width:10"
       sodipodi:cx="758.27802"
       sodipodi:cy="1161.157"
       sodipodi:rx="30.681"
       sodipodi:ry="30.681"
       d="m 788.95901,1161.157 c 0,16.9446 -13.73635,30.681 -30.68099,30.681 -16.94465,0 -30.681,-13.7364 -30.681,-30.681 0,-16.9447 13.73635,-30.681 30.681,-30.681 16.94464,0 30.68099,13.7363 30.68099,30.681 z" />
    <circle
       cx="758.27802"
       cy="1001.14"
       r="30.681"
       transform="matrix(1.0800001,0,0,1.0800001,0.87583931,-488.5476)"
       id="circle199"
       style="fill:#ffffff;stroke:#2778c9;stroke-width:10"
       sodipodi:cx="758.27802"
       sodipodi:cy="1001.14"
       sodipodi:rx="30.681"
       sodipodi:ry="30.681"
       d="m 788.95901,1001.14 c 0,16.9447 -13.73635,30.681 -30.68099,30.681 -16.94465,0 -30.681,-13.7363 -30.681,-30.681 0,-16.94463 13.73635,-30.68099 30.681,-30.68099 16.94464,0 30.68099,13.73636 30.68099,30.68099 z" />
    <circle
       cx="901.98297"
       cy="857.474"
       r="30.681"
       transform="matrix(1.0800001,0,0,1.0800001,0.87583931,-488.5476)"
       id="circle201"
       style="fill:#ffffff;stroke:#2778c9;stroke-width:10"
       sodipodi:cx="901.98297"
       sodipodi:cy="857.474"
       sodipodi:rx="30.681"
       sodipodi:ry="30.681"
       d="m 932.66397,857.474 c 0,16.94465 -13.73635,30.681 -30.681,30.681 -16.94465,0 -30.681,-13.73635 -30.681,-30.681 0,-16.94465 13.73635,-30.681 30.681,-30.681 16.94465,0 30.681,13.73635 30.681,30.681 z" />
    <circle
       cx="901.98297"
       cy="736.64398"
       r="30.681"
       transform="matrix(1.0800001,0,0,1.0800001,0.87583931,-488.5476)"
       id="circle203"
       style="fill:#ffffff;stroke:#2778c9;stroke-width:10"
       sodipodi:cx="901.98297"
       sodipodi:cy="736.64398"
       sodipodi:rx="30.681"
       sodipodi:ry="30.681"
       d="m 932.66397,736.64398 c 0,16.94465 -13.73635,30.681 -30.681,30.681 -16.94465,0 -30.681,-13.73635 -30.681,-30.681 0,-16.94465 13.73635,-30.681 30.681,-30.681 16.94465,0 30.681,13.73635 30.681,30.681 z" />
    <circle
       cx="1025.384"
       cy="612.76703"
       r="30.681"
       transform="matrix(1.0800001,0,0,1.0800001,0.87583931,-488.5476)"
       id="circle205"
       style="fill:#ffffff;stroke:#2778c9;stroke-width:10"
       sodipodi:cx="1025.384"
       sodipodi:cy="612.76703"
       sodipodi:rx="30.681"
       sodipodi:ry="30.681"
       d="m 1056.065,612.76703 c 0,16.94465 -13.7363,30.681 -30.681,30.681 -16.9446,0 -30.68097,-13.73635 -30.68097,-30.681 0,-16.94465 13.73637,-30.681 30.68097,-30.681 16.9447,0 30.681,13.73635 30.681,30.681 z" />
    <circle
       cx="1148.541"
       cy="489.26401"
       r="30.681"
       transform="matrix(1.0800001,0,0,1.0800001,0.87583931,-488.5476)"
       id="circle207"
       style="fill:#ffffff;stroke:#2778c9;stroke-width:10"
       sodipodi:cx="1148.541"
       sodipodi:cy="489.26401"
       sodipodi:rx="30.681"
       sodipodi:ry="30.681"
       d="m 1179.222,489.26401 c 0,16.94465 -13.7363,30.681 -30.681,30.681 -16.9446,0 -30.681,-13.73635 -30.681,-30.681 0,-16.94465 13.7364,-30.681 30.681,-30.681 16.9447,0 30.681,13.73635 30.681,30.681 z" />
    <circle
       cx="905.83002"
       cy="2867.6479"
       r="30.681"
       transform="matrix(1.0800001,0,0,1.0800001,0.87583931,-488.5476)"
       id="circle209"
       style="fill:#ffffff;stroke:#2778c9;stroke-width:10"
       sodipodi:cx="905.83002"
       sodipodi:cy="2867.6479"
       sodipodi:rx="30.681"
       sodipodi:ry="30.681"
       d="m 936.51102,2867.6479 c 0,16.9447 -13.73635,30.681 -30.681,30.681 -16.94465,0 -30.681,-13.7363 -30.681,-30.681 0,-16.9446 13.73635,-30.681 30.681,-30.681 16.94465,0 30.681,13.7364 30.681,30.681 z" />
    <circle
       cx="905.83002"
       cy="3012.021"
       r="30.681"
       transform="matrix(1.0800001,0,0,1.0800001,0.87583931,-488.5476)"
       id="circle211"
       style="fill:#ffffff;stroke:#2778c9;stroke-width:10"
       sodipodi:cx="905.83002"
       sodipodi:cy="3012.021"
       sodipodi:rx="30.681"
       sodipodi:ry="30.681"
       d="m 936.51102,3012.021 c 0,16.9446 -13.73635,30.681 -30.681,30.681 -16.94465,0 -30.681,-13.7364 -30.681,-30.681 0,-16.9447 13.73635,-30.681 30.681,-30.681 16.94465,0 30.681,13.7363 30.681,30.681 z" />
    <circle
       cx="906.68103"
       cy="3157.3049"
       r="30.681"
       transform="matrix(1.0800001,0,0,1.0800001,0.87583931,-488.5476)"
       id="circle213"
       style="fill:#ffffff;stroke:#2778c9;stroke-width:10"
       sodipodi:cx="906.68103"
       sodipodi:cy="3157.3049"
       sodipodi:rx="30.681"
       sodipodi:ry="30.681"
       d="m 937.36203,3157.3049 c 0,16.9447 -13.73635,30.681 -30.681,30.681 -16.94465,0 -30.681,-13.7363 -30.681,-30.681 0,-16.9446 13.73635,-30.681 30.681,-30.681 16.94465,0 30.681,13.7364 30.681,30.681 z" />
    <circle
       cx="905.68103"
       cy="3299.5081"
       r="30.681"
       transform="matrix(1.0800001,0,0,1.0800001,0.87583931,-488.5476)"
       id="circle215"
       style="fill:#ffffff;stroke:#2778c9;stroke-width:10"
       sodipodi:cx="905.68103"
       sodipodi:cy="3299.5081"
       sodipodi:rx="30.681"
       sodipodi:ry="30.681"
       d="m 936.36203,3299.5081 c 0,16.9446 -13.73635,30.681 -30.681,30.681 -16.94465,0 -30.681,-13.7364 -30.681,-30.681 0,-16.9447 13.73635,-30.681 30.681,-30.681 16.94465,0 30.681,13.7363 30.681,30.681 z" />
    <circle
       cx="905.68103"
       cy="3459.4221"
       r="30.681"
       transform="matrix(1.0800001,0,0,1.0800001,0.87583931,-488.5476)"
       id="circle217"
       style="fill:#ffffff;stroke:#2778c9;stroke-width:10"
       sodipodi:cx="905.68103"
       sodipodi:cy="3459.4221"
       sodipodi:rx="30.681"
       sodipodi:ry="30.681"
       d="m 936.36203,3459.4221 c 0,16.9447 -13.73635,30.681 -30.681,30.681 -16.94465,0 -30.681,-13.7363 -30.681,-30.681 0,-16.9446 13.73635,-30.681 30.681,-30.681 16.94465,0 30.681,13.7364 30.681,30.681 z" />
    <circle
       cx="1016.822"
       cy="3570.9751"
       r="30.681"
       transform="matrix(1.0800001,0,0,1.0800001,0.87583931,-488.5476)"
       id="circle219"
       style="fill:#ffffff;stroke:#2778c9;stroke-width:10"
       sodipodi:cx="1016.822"
       sodipodi:cy="3570.9751"
       sodipodi:rx="30.681"
       sodipodi:ry="30.681"
       d="m 1047.503,3570.9751 c 0,16.9446 -13.7363,30.681 -30.681,30.681 -16.94463,0 -30.68098,-13.7364 -30.68098,-30.681 0,-16.9447 13.73635,-30.681 30.68098,-30.681 16.9447,0 30.681,13.7363 30.681,30.681 z" />
    <circle
       cx="1141.351"
       cy="3695.8401"
       r="30.681"
       transform="matrix(1.0800001,0,0,1.0800001,0.87583931,-488.5476)"
       id="circle221"
       style="fill:#ffffff;stroke:#2778c9;stroke-width:10"
       sodipodi:cx="1141.351"
       sodipodi:cy="3695.8401"
       sodipodi:rx="30.681"
       sodipodi:ry="30.681"
       d="m 1172.032,3695.8401 c 0,16.9446 -13.7364,30.681 -30.681,30.681 -16.9447,0 -30.681,-13.7364 -30.681,-30.681 0,-16.9447 13.7363,-30.681 30.681,-30.681 16.9446,0 30.681,13.7363 30.681,30.681 z" />
    <circle
       cx="455.15799"
       cy="1802.0291"
       r="30.681"
       transform="matrix(1.0800001,0,0,1.0800001,0.87583931,-488.5476)"
       id="circle223"
       style="fill:#ffffff;stroke:#b840c9;stroke-width:10"
       sodipodi:cx="455.15799"
       sodipodi:cy="1802.0291"
       sodipodi:rx="30.681"
       sodipodi:ry="30.681"
       d="m 485.83899,1802.0291 c 0,16.9446 -13.73635,30.681 -30.681,30.681 -16.94465,0 -30.681,-13.7364 -30.681,-30.681 0,-16.9447 13.73635,-30.681 30.681,-30.681 16.94465,0 30.681,13.7363 30.681,30.681 z" />
    <circle
       cx="897.83002"
       cy="2245.5271"
       r="35.456001"
       transform="matrix(1.0800001,0,0,1.0800001,0.87583931,-488.5476)"
       id="circle225"
       style="fill:#b840c9"
       sodipodi:cx="897.83002"
       sodipodi:cy="2245.5271"
       sodipodi:rx="35.456001"
       sodipodi:ry="35.456001"
       d="m 933.28602,2245.5271 c 0,19.5818 -15.87419,35.456 -35.456,35.456 -19.58181,0 -35.456,-15.8742 -35.456,-35.456 0,-19.5818 15.87419,-35.456 35.456,-35.456 19.58181,0 35.456,15.8742 35.456,35.456 z" />
    <circle
       cx="1172.766"
       cy="2520.5879"
       r="35.456001"
       transform="matrix(1.0800001,0,0,1.0800001,0.87583931,-488.5476)"
       id="circle227"
       style="fill:#b840c9"
       sodipodi:cx="1172.766"
       sodipodi:cy="2520.5879"
       sodipodi:rx="35.456001"
       sodipodi:ry="35.456001"
       d="m 1208.222,2520.5879 c 0,19.5818 -15.8742,35.456 -35.456,35.456 -19.5818,0 -35.456,-15.8742 -35.456,-35.456 0,-19.5818 15.8742,-35.456 35.456,-35.456 19.5818,0 35.456,15.8742 35.456,35.456 z" />
    <circle
       cx="1424.05"
       cy="2771.7529"
       r="30.681"
       transform="matrix(1.0800001,0,0,1.0800001,0.87583931,-488.5476)"
       id="circle229"
       style="fill:#ffffff;stroke:#b840c9;stroke-width:10"
       sodipodi:cx="1424.05"
       sodipodi:cy="2771.7529"
       sodipodi:rx="30.681"
       sodipodi:ry="30.681"
       d="m 1454.731,2771.7529 c 0,16.9447 -13.7363,30.681 -30.681,30.681 -16.9446,0 -30.681,-13.7363 -30.681,-30.681 0,-16.9446 13.7364,-30.681 30.681,-30.681 16.9447,0 30.681,13.7364 30.681,30.681 z" />
    <circle
       cx="1424.627"
       cy="2998.9709"
       r="30.68"
       transform="matrix(1.0800001,0,0,1.0800001,0.87583931,-488.5476)"
       id="circle231"
       style="fill:#ffffff;stroke:#b840c9;stroke-width:10"
       sodipodi:cx="1424.627"
       sodipodi:cy="2998.9709"
       sodipodi:rx="30.68"
       sodipodi:ry="30.68"
       d="m 1455.307,2998.9709 c 0,16.9441 -13.736,30.68 -30.68,30.68 -16.9441,0 -30.68,-13.7359 -30.68,-30.68 0,-16.944 13.7359,-30.68 30.68,-30.68 16.944,0 30.68,13.736 30.68,30.68 z" />
    <circle
       cx="455.29501"
       cy="1613.6121"
       r="30.68"
       transform="matrix(1.0800001,0,0,1.0800001,0.87583931,-488.5476)"
       id="circle233"
       style="fill:#ffffff;stroke:#b840c9;stroke-width:10"
       sodipodi:cx="455.29501"
       sodipodi:cy="1613.6121"
       sodipodi:rx="30.68"
       sodipodi:ry="30.68"
       d="m 485.97501,1613.6121 c 0,16.9441 -13.7359,30.68 -30.68,30.68 -16.94409,0 -30.68,-13.7359 -30.68,-30.68 0,-16.9441 13.73591,-30.68 30.68,-30.68 16.9441,0 30.68,13.7359 30.68,30.68 z" />
    <circle
       cx="271.655"
       cy="1429.683"
       r="30.68"
       transform="matrix(1.0800001,0,0,1.0800001,0.87583931,-488.5476)"
       id="circle235"
       style="fill:#ffffff;stroke:#b840c9;stroke-width:10"
       sodipodi:cx="271.655"
       sodipodi:cy="1429.683"
       sodipodi:rx="30.68"
       sodipodi:ry="30.68"
       d="m 302.335,1429.683 c 0,16.9441 -13.7359,30.68 -30.68,30.68 -16.9441,0 -30.68,-13.7359 -30.68,-30.68 0,-16.9441 13.7359,-30.68 30.68,-30.68 16.9441,0 30.68,13.7359 30.68,30.68 z" />
    <circle
       cx="271.655"
       cy="1131.995"
       r="30.68"
       transform="matrix(1.0800001,0,0,1.0800001,0.87583931,-488.5476)"
       id="circle237"
       style="fill:#ffffff;stroke:#b840c9;stroke-width:10"
       sodipodi:cx="271.655"
       sodipodi:cy="1131.995"
       sodipodi:rx="30.68"
       sodipodi:ry="30.68"
       d="m 302.335,1131.995 c 0,16.9441 -13.7359,30.68 -30.68,30.68 -16.9441,0 -30.68,-13.7359 -30.68,-30.68 0,-16.9441 13.7359,-30.68 30.68,-30.68 16.9441,0 30.68,13.7359 30.68,30.68 z" />
    <circle
       cx="272.11801"
       cy="958.55701"
       r="30.68"
       transform="matrix(1.0800001,0,0,1.0800001,0.87583931,-488.5476)"
       id="circle239"
       style="fill:#ffffff;stroke:#b840c9;stroke-width:10"
       sodipodi:cx="272.11801"
       sodipodi:cy="958.55701"
       sodipodi:rx="30.68"
       sodipodi:ry="30.68"
       d="m 302.79801,958.55701 c 0,16.94409 -13.7359,30.68 -30.68,30.68 -16.94409,0 -30.68,-13.73591 -30.68,-30.68 0,-16.9441 13.73591,-30.68 30.68,-30.68 16.9441,0 30.68,13.7359 30.68,30.68 z" />
    <circle
       cx="324.85101"
       cy="2031.1689"
       r="30.681"
       transform="matrix(1.0800001,0,0,1.0800001,0.87583931,-488.5476)"
       id="circle241"
       style="fill:#ffffff;stroke:#029302;stroke-width:10"
       sodipodi:cx="324.85101"
       sodipodi:cy="2031.1689"
       sodipodi:rx="30.681"
       sodipodi:ry="30.681"
       d="m 355.53201,2031.1689 c 0,16.9447 -13.73635,30.681 -30.681,30.681 -16.94465,0 -30.681,-13.7363 -30.681,-30.681 0,-16.9446 13.73635,-30.681 30.681,-30.681 16.94465,0 30.681,13.7364 30.681,30.681 z" />
    <circle
       cx="1616.8101"
       cy="2093.7629"
       r="35.456001"
       transform="matrix(1.0800001,0,0,1.0800001,0.87583931,-488.5476)"
       id="circle243"
       style="fill:#029302"
       sodipodi:cx="1616.8101"
       sodipodi:cy="2093.7629"
       sodipodi:rx="35.456001"
       sodipodi:ry="35.456001"
       d="m 1652.2661,2093.7629 c 0,19.5818 -15.8742,35.456 -35.456,35.456 -19.5819,0 -35.456,-15.8742 -35.456,-35.456 0,-19.5818 15.8741,-35.456 35.456,-35.456 19.5818,0 35.456,15.8742 35.456,35.456 z" />
    <circle
       cx="1806.588"
       cy="2284.384"
       r="35.456001"
       transform="matrix(1.0800001,0,0,1.0800001,0.87583931,-488.5476)"
       id="circle245"
       style="fill:#029302"
       sodipodi:cx="1806.588"
       sodipodi:cy="2284.384"
       sodipodi:rx="35.456001"
       sodipodi:ry="35.456001"
       d="m 1842.044,2284.384 c 0,19.5818 -15.8742,35.456 -35.456,35.456 -19.5818,0 -35.456,-15.8742 -35.456,-35.456 0,-19.5818 15.8742,-35.456 35.456,-35.456 19.5818,0 35.456,15.8742 35.456,35.456 z" />
    <circle
       cx="897.83002"
       cy="2031.1689"
       r="35.456001"
       transform="matrix(1.0800001,0,0,1.0800001,0.87583931,-488.5476)"
       id="circle247"
       style="fill:#029302"
       sodipodi:cx="897.83002"
       sodipodi:cy="2031.1689"
       sodipodi:rx="35.456001"
       sodipodi:ry="35.456001"
       d="m 933.28602,2031.1689 c 0,19.5819 -15.87419,35.456 -35.456,35.456 -19.58181,0 -35.456,-15.8741 -35.456,-35.456 0,-19.5818 15.87419,-35.456 35.456,-35.456 19.58181,0 35.456,15.8742 35.456,35.456 z" />
    <circle
       cx="228.83099"
       cy="1935.736"
       r="30.681"
       transform="matrix(1.0800001,0,0,1.0800001,0.87583931,-488.5476)"
       id="circle249"
       style="fill:#ffffff;stroke:#029302;stroke-width:10"
       sodipodi:cx="228.83099"
       sodipodi:cy="1935.736"
       sodipodi:rx="30.681"
       sodipodi:ry="30.681"
       d="m 259.51199,1935.736 c 0,16.9446 -13.73635,30.681 -30.681,30.681 -16.94464,0 -30.681,-13.7364 -30.681,-30.681 0,-16.9447 13.73636,-30.681 30.681,-30.681 16.94465,0 30.681,13.7363 30.681,30.681 z" />
    <circle
       cx="1807.0601"
       cy="2607.178"
       r="30.681"
       transform="matrix(1.0800001,0,0,1.0800001,0.87583931,-418.1124)"
       id="circle251"
       style="fill:#ffffff;stroke:#029302;stroke-width:10"
       sodipodi:cx="1807.0601"
       sodipodi:cy="2607.178"
       sodipodi:rx="30.681"
       sodipodi:ry="30.681"
       d="m 1837.7411,2607.178 c 0,16.9446 -13.7364,30.681 -30.681,30.681 -16.9447,0 -30.681,-13.7364 -30.681,-30.681 0,-16.9447 13.7363,-30.681 30.681,-30.681 16.9446,0 30.681,13.7363 30.681,30.681 z" />
    <circle
       cx="1807.0601"
       cy="2803.1809"
       r="30.681"
       transform="matrix(1.0800001,0,0,1.0800001,0.87583931,-405.3058)"
       id="circle253"
       style="fill:#ffffff;stroke:#029302;stroke-width:10"
       sodipodi:cx="1807.0601"
       sodipodi:cy="2803.1809"
       sodipodi:rx="30.681"
       sodipodi:ry="30.681"
       d="m 1837.7411,2803.1809 c 0,16.9447 -13.7364,30.681 -30.681,30.681 -16.9447,0 -30.681,-13.7363 -30.681,-30.681 0,-16.9446 13.7363,-30.681 30.681,-30.681 16.9446,0 30.681,13.7364 30.681,30.681 z" />
    <circle
       cx="1969.0861"
       cy="3159.356"
       r="30.681"
       transform="matrix(1.0800001,0,0,1.0800001,-11.930573,-368.4874)"
       id="circle255"
       style="fill:#ffffff;stroke:#029302;stroke-width:10"
       sodipodi:cx="1969.0861"
       sodipodi:cy="3159.356"
       sodipodi:rx="30.681"
       sodipodi:ry="30.681"
       d="m 1999.7671,3159.356 c 0,16.9446 -13.7364,30.681 -30.681,30.681 -16.9447,0 -30.681,-13.7364 -30.681,-30.681 0,-16.9447 13.7363,-30.681 30.681,-30.681 16.9446,0 30.681,13.7363 30.681,30.681 z" />
    <circle
       cx="1969.0861"
       cy="3346.0681"
       r="30.681"
       transform="matrix(1.0800001,0,0,1.0800001,-13.531375,-363.685)"
       id="circle257"
       style="fill:#ffffff;stroke:#029302;stroke-width:10"
       sodipodi:cx="1969.0861"
       sodipodi:cy="3346.0681"
       sodipodi:rx="30.681"
       sodipodi:ry="30.681"
       d="m 1999.7671,3346.0681 c 0,16.9447 -13.7364,30.681 -30.681,30.681 -16.9447,0 -30.681,-13.7363 -30.681,-30.681 0,-16.9446 13.7363,-30.681 30.681,-30.681 16.9446,0 30.681,13.7364 30.681,30.681 z" />
    <circle
       cx="1807.0601"
       cy="2998.4819"
       r="30.681"
       transform="matrix(1.0800001,0,0,1.0800001,0.87583931,-352.4794)"
       id="circle259"
       style="fill:#ffffff;stroke:#029302;stroke-width:10"
       sodipodi:cx="1807.0601"
       sodipodi:cy="2998.4819"
       sodipodi:rx="30.681"
       sodipodi:ry="30.681"
       d="m 1837.7411,2998.4819 c 0,16.9447 -13.7364,30.681 -30.681,30.681 -16.9447,0 -30.681,-13.7363 -30.681,-30.681 0,-16.9446 13.7363,-30.681 30.681,-30.681 16.9446,0 30.681,13.7364 30.681,30.681 z" />
    <circle
       cx="493.56"
       cy="3485.1021"
       r="30.681"
       transform="matrix(1.0800001,0,0,1.0800001,1.9587373,-458.3217)"
       id="circle177-1"
       style="fill:#ffffff;stroke:#de0000;stroke-width:10"
       sodipodi:cx="493.56"
       sodipodi:cy="3485.1021"
       sodipodi:rx="30.681"
       sodipodi:ry="30.681"
       d="m 524.241,3485.1021 c 0,16.9446 -13.73635,30.681 -30.681,30.681 -16.94465,0 -30.681,-13.7364 -30.681,-30.681 0,-16.9447 13.73635,-30.681 30.681,-30.681 16.94465,0 30.681,13.7363 30.681,30.681 z" />
  </g>
</svg>
