<?xml version="1.0" encoding="UTF-8" standalone="no"?>
<!-- Created with Inkscape (http://www.inkscape.org/) -->

<svg
   xmlns:dc="http://purl.org/dc/elements/1.1/"
   xmlns:cc="http://creativecommons.org/ns#"
   xmlns:rdf="http://www.w3.org/1999/02/22-rdf-syntax-ns#"
   xmlns:svg="http://www.w3.org/2000/svg"
   xmlns="http://www.w3.org/2000/svg"
   xmlns:sodipodi="http://sodipodi.sourceforge.net/DTD/sodipodi-0.dtd"
   xmlns:inkscape="http://www.inkscape.org/namespaces/inkscape"
   version="1.1"
   width="720"
   height="894"
   id="svg4324"
   inkscape:version="0.48.1 "
   sodipodi:docname="spb.svg">
  <sodipodi:namedview
     pagecolor="#ffffff"
     bordercolor="#666666"
     borderopacity="1"
     objecttolerance="10"
     gridtolerance="10"
     guidetolerance="10"
     inkscape:pageopacity="0"
     inkscape:pageshadow="2"
     inkscape:window-width="1280"
     inkscape:window-height="738"
     id="namedview126"
     showgrid="false"
     inkscape:zoom="0.89535413"
     inkscape:cx="479.30498"
     inkscape:cy="808.74504"
     inkscape:window-x="-8"
     inkscape:window-y="-8"
     inkscape:window-maximized="1"
     inkscape:current-layer="layer1" />
  <defs
     id="defs4326" />
  <metadata
     id="metadata4329">
    <rdf:RDF>
      <cc:Work
         rdf:about="">
        <dc:format>image/svg+xml</dc:format>
        <dc:type
           rdf:resource="http://purl.org/dc/dcmitype/StillImage" />
        <dc:title></dc:title>
      </cc:Work>
    </rdf:RDF>
  </metadata>
  <g
     id="layer1"
     transform="matrix(0.18837855,0,0,0.18837855,-0.06326492,-0.25262164)">
    <circle
       cx="897.83099"
       cy="1995.713"
       r="93.308998"
       transform="matrix(1.4400001,0,0,1.4400001,1.0558393,-655.38252)"
       id="circle11"
       style="fill:none;stroke:#7f7f7f;stroke-width:5"
       sodipodi:cx="897.83099"
       sodipodi:cy="1995.713"
       sodipodi:rx="93.308998"
       sodipodi:ry="93.308998"
       d="m 991.13999,1995.713 c 0,51.5331 -41.77586,93.309 -93.309,93.309 -51.53313,0 -93.30899,-41.7759 -93.30899,-93.309 0,-51.5331 41.77586,-93.309 93.30899,-93.309 51.53314,0 93.309,41.7759 93.309,93.309 z" />
    <circle
       cx="1585.009"
       cy="2063.3069"
       r="93.308998"
       transform="matrix(1.4400001,0,0,1.4400001,1.0558393,-655.38252)"
       id="circle13"
       style="fill:none;stroke:#7f7f7f;stroke-width:5"
       sodipodi:cx="1585.009"
       sodipodi:cy="2063.3069"
       sodipodi:rx="93.308998"
       sodipodi:ry="93.308998"
       d="m 1678.318,2063.3069 c 0,51.5331 -41.7758,93.309 -93.309,93.309 -51.5331,0 -93.309,-41.7759 -93.309,-93.309 0,-51.5332 41.7759,-93.309 93.309,-93.309 51.5332,0 93.309,41.7758 93.309,93.309 z" />
    <circle
       cx="898.58801"
       cy="2287.127"
       r="110.141"
       transform="matrix(1.4400001,0,0,1.4400001,1.0558393,-655.38252)"
       id="circle15"
       style="fill:none;stroke:#7f7f7f;stroke-width:5"
       sodipodi:cx="898.58801"
       sodipodi:cy="2287.127"
       sodipodi:rx="110.141"
       sodipodi:ry="110.141"
       d="m 1008.729,2287.127 c 0,60.8291 -49.31179,110.141 -110.14099,110.141 -60.82919,0 -110.141,-49.3119 -110.141,-110.141 0,-60.8292 49.31181,-110.141 110.141,-110.141 60.8292,0 110.14099,49.3118 110.14099,110.141 z" />
    <circle
       cx="869.883"
       cy="2660.2339"
       r="93.308998"
       transform="matrix(1.4400001,0,0,1.4400001,1.0558393,-655.38252)"
       id="circle17"
       style="fill:none;stroke:#7f7f7f;stroke-width:5"
       sodipodi:cx="869.883"
       sodipodi:cy="2660.2339"
       sodipodi:rx="93.308998"
       sodipodi:ry="93.308998"
       d="m 963.19199,2660.2339 c 0,51.5331 -41.77586,93.309 -93.30899,93.309 -51.53314,0 -93.309,-41.7759 -93.309,-93.309 0,-51.5331 41.77586,-93.309 93.309,-93.309 51.53313,0 93.30899,41.7759 93.30899,93.309 z" />
    <circle
       cx="1305.1331"
       cy="2335.333"
       r="93.308998"
       transform="matrix(1.4400001,0,0,1.4400001,1.0558393,-655.38252)"
       id="circle19"
       style="fill:none;stroke:#7f7f7f;stroke-width:5"
       sodipodi:cx="1305.1331"
       sodipodi:cy="2335.333"
       sodipodi:rx="93.308998"
       sodipodi:ry="93.308998"
       d="m 1398.4421,2335.333 c 0,51.5331 -41.7759,93.309 -93.309,93.309 -51.5332,0 -93.309,-41.7759 -93.309,-93.309 0,-51.5331 41.7758,-93.309 93.309,-93.309 51.5331,0 93.309,41.7759 93.309,93.309 z" />
    <circle
       cx="1146.634"
       cy="2494.4351"
       r="93.308998"
       transform="matrix(1.4400001,0,0,1.4400001,1.0558393,-655.38252)"
       id="circle21"
       style="fill:none;stroke:#7f7f7f;stroke-width:5"
       sodipodi:cx="1146.634"
       sodipodi:cy="2494.4351"
       sodipodi:rx="93.308998"
       sodipodi:ry="93.308998"
       d="m 1239.943,2494.4351 c 0,51.5331 -41.7758,93.309 -93.309,93.309 -51.5331,0 -93.309,-41.7759 -93.309,-93.309 0,-51.5332 41.7759,-93.309 93.309,-93.309 51.5332,0 93.309,41.7758 93.309,93.309 z" />
    <circle
       cx="1807.0601"
       cy="2327.325"
       r="93.309998"
       transform="matrix(1.4400001,0,0,1.4400001,1.0558393,-655.38252)"
       id="circle23"
       style="fill:none;stroke:#7f7f7f;stroke-width:5"
       sodipodi:cx="1807.0601"
       sodipodi:cy="2327.325"
       sodipodi:rx="93.309998"
       sodipodi:ry="93.309998"
       d="m 1900.3701,2327.325 c 0,51.5336 -41.7764,93.3099 -93.31,93.3099 -51.5337,0 -93.31,-41.7763 -93.31,-93.3099 0,-51.5337 41.7763,-93.31 93.31,-93.31 51.5336,0 93.31,41.7763 93.31,93.31 z" />
    <path
       d="m 1.0558393,1300.5163 44.0136007,14.5426 41.666403,12.4388 40.848477,8.3606 34.75153,5.3194 40.49712,1.7668 50.94288,-4.6468 48.4776,-12.4158 56.34288,-17.146 42.77952,-10.0382 40.8744,-5.1826 31.8456,-0.5774 31.8312,2.9908 26.4888,4.2092 26.71632,7.3368 25.12368,7.0632 18.00002,5.76 12.24,5.76 7.20001,6.48 2.16,12.24 -0.72,12.24 -4.00897,6.9408 -13.27104,13.2192 -15.71906,11.661 -25.06608,21.5136 -25.40016,21.7254 -19.49472,15.6598 -14.4,19.44 -14.4,14.4002 -28.08,16.56 -39.6,11.52 -41.29056,7.1108 -56.53152,7.9502 -48.33792,7.979 -48.82608,5.6852 -52.69392,6.5548 -45.90865,1.9828 -39.771357,-1.9828 -38.842561,-6.1114 -27.456483,-2.8282 -22.9809597,-4.4884 0,48.3466 43.8451207,6.8082 68.72112,8.064 74.05777,0.5358 71.99424,-4.8298 97.22736,-11.2838 50.3568,-9.085 41.6376,-10.728 31.68,-14.4 17.28,-14.4 11.52,-20.16 36,-34.56 59.04002,-48.96 30.99169,-20.8052 52.52832,-25.2748 44.42256,-25.8826 39.09744,-24.5174 36.65088,-32.619 39.66912,-30.741 44.2584,-25.6264 45.0216,-13.2536 43.63052,-5.2676 44.6702,-2.2636 52.0992,2.4896 59.5297,11.8858 49.3977,20.6756 69.7378,41.253 53.1907,43.7184 49.1069,64.7684 26.2224,54.18 37.2902,95.5196 26.2814,70.3988 18.7632,37.522 14.606,25.1626 35.951,38.5818 31.6872,21.9354 45.851,20.0578 23.1048,3.7022 11.5201,7.2 -7.2,10.08 -27.3601,5.76 -31.2854,0.4234 -94.5922,10.1766 -87.3892,12.3104 -89.7422,28.2586 -87.1215,49.0046 -79.5514,54.3774 -54.5587,46.6633 -29.0606,37.584 -24.5996,30.9772 -33.9278,16.7328 -38.15856,7.0302 -71.39228,-0.13 -82.3824,-6.686 -63.11808,-11.6826 -63.7272,-20.2162 -48.59281,-25.8638 -50.56706,-34.0546 -96.84432,-65.8801 -113.04864,-66.996 -112.54752,-64.103 -80.59248,-45.4464 -105.435368,-41.6908 -55.8446427,-15.3462 0,97.9086 80.4600037,24.5562 118.942567,49.8716 179.60112,102.492 160.0632,102.8995 c 0,0 71.27858,45.9116 88.80771,55.9268 23.29488,13.3128 69.35472,30.8722 69.35472,30.8722 l 60.92784,15.7234 47.70576,6.8744 c 0,0 15.76944,2.7332 22.39488,5.4894 l 16.50096,10.4946 c 0,0 9.36,11.8442 10.88928,19.273 l -3.63744,27.2088 -13.716,21.6922 -86.89968,79.7414 -81.65808,71.5796 -89.11587,79.2922 -81.50976,77.9802 -42.31728,49.7938 -38.448,59.5886 -19.33344,40.1646 -18.99504,53.784 -22.8528,75.9166 -28.296,48.5856 -36.27216,40.9076 -96.31152,45.2894 -72.44785,4.837 -60.844318,-4.0392 -62.9928027,-15.8416 0.08064,186.2712 82.8806437,-18.9676 83.730247,-13.0666 74.41776,-21.7036 87.98688,-42.9466 65.10096,-47.3458 56.00448,-90.501 25.54416,-99.1152 38.37888,-86.1294 41.26896,-56.0042 53.46866,-59.0904 159.10129,-136.08 90.56016,-81.1196 84.65328,-98.0266 91.12456,-111.6994 63.3845,-72.1324 89.4903,-86.0026 73.5897,-51.7839 44.0453,-21.0256 78.2871,-26.6256 115.1999,-27.7286 106.1223,-17.8676 117.612,-19.1274 100.5005,-9.3816 54.8409,-5.1898 62.1288,-6.8904 88.0171,-6.0654 86.4,-4.32 86.4,-5.76 89.28,-14.4 78.961,-20.7 85.199,-16.7398 74.88,-11.52 80.64,-8.64 82.6172,10.6416 61.3828,21.0384 54.72,37.44 36,44.64 24.48,61.92 17.28,92.1601 8.64,66.24 -2.88,72 -25.92,169.92 -33.12,132.48 -17.9408,111.7642 -6.5392,95.5958 11.52,95.04 23.04,132.48 42.241,155.0406 29.759,115.6794 23.7112,130.3087 9.5414,130.3904 6.981,198.1656 10.6056,184.5908 7.9028,45.144 19.018,63.0806 34.56,51.84 50.3208,32.2848 88.177,26.7322 63.1022,30.263 41.7904,44.6932 42.6902,72.7316 50.8046,105.2696 36.4536,75.9212 64.3508,123.6686 74.5544,110.7086 48.145,43.1914 81.6754,41.619 151.7068,59.3236 0,-123.601 -119.1728,-48.659 -59.8278,-31.8268 -51.5562,-59.8954 -42.4872,-69.9524 -45.4508,-84.862 -52.0372,-106.0502 -58.176,-132.0352 -33.182,-55.077 -43.3958,-47.1398 -50.5872,-30.1926 -79.5774,-25.9848 -42.9638,-13.837 -39.3322,-33.6152 -9.7026,-30.9658 -11.389,-72.7086 -5.9284,-109.0468 -11.8512,-132.6774 -19.8736,-246.5998 -11.52,-86.4001 -14.4,-80.64 -14.4,-69.12 -17.28,-54.72 -20.16,-69.12 -25.92,-118.08 -20.16,-135.36 10.08,-115.2 21.6,-109.44 35.8186,-114.565 23.5038,-98.8042 15.5576,-77.5108 8.64,-106.56 -15.3028,-104.5585 -22.1372,-85.5216 -38.3428,-75.7584 -56.6972,-68.2416 -67.1428,-46.9584 -73.9772,-30.8016 -75.7828,-15.2784 -102.7772,-4.8816 -112.32,17.28 -72,20.16 -72,28.8 -83.52,20.16 -83.52,11.52 -83.52,8.64 -87.1127,7.2692 -80.774,3.4732 -59.5238,0.9418 -56.3789,-3.4028 -54.9777,-6.8226 -52.0877,-8.1966 -33.552,-8.2698 -31.9378,-15.4498 -24.6974,-17.6256 -21.816,-20.3588 -27.4047,-33.2178 -20.5718,-31.8976 -38.4005,-81.7602 -24.1978,-64.584 -24.7305,-61.3282 -69.4742,-108.4552 -61.1208,-53.218 -78.4268,-42.3634 -72.4507,-22.5274 -59.2286,-10.0094 -52.1756,-2.517 -50.54972,-1.5538 -36.80064,0.3628 -41.48492,-2.6538 -36.91728,-3.4416 -38.72736,-9.5142 -45.80928,-12.4474 -54.03024,-14.4316 -62.70768,-11.5906 -48.21696,-3.5438 -45.47235,2.9866 -66.84048,12.1464 -48.35376,-1.4746 -44.36208,-7.7156 -39.52512,-14.5252 -83.45088,-24.251 -158.18688,-21.8074 -104.80465,-3.6044 -39.1996807,1.3192 0,265.8786 z m 577.8576107,-117.0418 -6.8976,16.5832 -16.56,18.72 -20.88,15.12 -26.64,11.0404 -19.6776,1.5926 -24.2424,-1.833 -28.08,0 -31.65264,5.2502 -59.06736,10.5898 -67.68,7.2 -85.91472,-5.0328 -66.72529,-18.0072 -40.544637,-25.7818 -32.590081,-20.5646 -30.960003,-26.64 -7.92,-14.4 1.44,-15.84 9.36,-14.4 19.733761,-8.2858 28.920962,-6.5678 37.971358,-5.7428 64.52929,-6.1516 57.33936,2.5344 59.436,9.3772 57.204,12.2228 53.28864,18.8308 42.47136,12.8492 36.8856,6.6528 34.3944,-0.172 30.96,-3.6 14.4,0 7.72272,0.9416 5.28624,2.2264 3.8952,3.8952 1.81584,5.8968 -1.0224,11.4968 z m 242.39811,48.0616 -11.69568,9.5616 -20.88,11.52 -14.4,16.56 -23.04,17.28 -38.88,13.68 -38.88,3.6 -34.0776,-4.1314 -26.23825,-15.8026 -17.66882,-20.5762 -4.09536,-16.3698 0.61344,-18.0376 3.70656,-18.6824 6.82994,-18.0692 19.09009,-20.0908 23.50224,-10.6806 29.51136,-4.3444 31.81392,2.3746 25.95456,3.8706 25.29648,5.1812 30.96,9.36 25.92,12.96 8.64,6.48 4.32,9.36 -0.72,13.68 -5.58288,11.317 z"
       id="path25"
       style="fill:#eefbff;stroke:#7f7f7f;stroke-width:1.44000006"
       inkscape:connector-curvature="0" />
    <g
       transform="matrix(2,0,0,2,1.3358393,-920.86362)"
       id="g29">
      <line
         style="fill:none;stroke:#de0000;stroke-width:14.40000057"
         x1="1403.5576"
         y1="488.68625"
         x2="1403.5576"
         y2="632.35217"
         id="line31" />
      <line
         style="fill:none;stroke:#de0000;stroke-width:14.40000057"
         x1="1404.4008"
         y1="632.35217"
         x2="1220.4493"
         y2="817.28564"
         id="line33" />
      <line
         style="fill:none;stroke:#de0000;stroke-width:14.40000057"
         x1="1220.4493"
         y1="817.28564"
         x2="1220.4493"
         y2="928.29163"
         id="line35" />
      <line
         style="fill:none;stroke:#de0000;stroke-width:14.40000057"
         x1="1220.4493"
         y1="928.29163"
         x2="1118.588"
         y2="1030.153"
         id="line37" />
      <line
         style="fill:none;stroke:#de0000;stroke-width:14.40000057"
         x1="1118.588"
         y1="1030.153"
         x2="1118.588"
         y2="1596.4258"
         id="line39" />
      <line
         style="fill:none;stroke:#de0000;stroke-width:14.40000057"
         x1="1118.588"
         y1="1596.4258"
         x2="355.67969"
         y2="2359.3347"
         id="line41" />
      <line
         style="fill:none;stroke:#de0000;stroke-width:14.68669033"
         x1="355.67969"
         y1="2359.3347"
         x2="355.67969"
         y2="2653.3818"
         id="line43" />
    </g>
    <g
       transform="matrix(1.4400001,0,0,1.4400001,1.0558393,-655.38252)"
       id="g47">
      <line
         style="fill:none;stroke:#2778c9;stroke-width:20"
         x1="1146.9871"
         y1="492.26401"
         x2="901.98297"
         y2="737.26898"
         id="line49" />
      <line
         style="fill:none;stroke:#2778c9;stroke-width:20"
         x1="901.98297"
         y1="737.26898"
         x2="901.98297"
         y2="857.15198"
         id="line51" />
      <line
         style="fill:none;stroke:#2778c9;stroke-width:20"
         x1="901.98297"
         y1="857.15198"
         x2="758.27802"
         y2="1000.858"
         id="line53" />
      <line
         style="fill:none;stroke:#2778c9;stroke-width:20"
         x1="758.27802"
         y1="1000.858"
         x2="758.27802"
         y2="1482.063"
         id="line55" />
      <line
         style="fill:none;stroke:#2778c9;stroke-width:20"
         x1="745.37299"
         y1="1482.063"
         x2="898.15198"
         y2="1634.843"
         id="line57" />
      <line
         style="fill:none;stroke:#2778c9;stroke-width:20"
         x1="898.15198"
         y1="1634.843"
         x2="898.15198"
         y2="2248.271"
         id="line59" />
      <line
         style="fill:none;stroke:#2778c9;stroke-width:20"
         x1="898.15198"
         y1="2248.271"
         x2="838.82098"
         y2="2307.6021"
         id="line61" />
      <line
         style="fill:none;stroke:#2778c9;stroke-width:20"
         x1="838.82098"
         y1="2307.6021"
         x2="838.82098"
         y2="2627.1479"
         id="line63" />
      <line
         style="fill:none;stroke:#2778c9;stroke-width:20"
         x1="838.82098"
         y1="2627.1479"
         x2="896.94501"
         y2="2685.272"
         id="line65" />
      <line
         style="fill:none;stroke:#2778c9;stroke-width:20"
         x1="906.68103"
         y1="2699.2439"
         x2="906.68103"
         y2="3460.2129"
         id="line67" />
      <line
         style="fill:none;stroke:#2778c9;stroke-width:20"
         x1="906.68103"
         y1="3460.2129"
         x2="1141.87"
         y2="3695.4021"
         id="line69" />
    </g>
    <g
       transform="matrix(1.4400001,0,0,1.4400001,1.0558393,-655.38252)"
       id="g71">
      <line
         style="fill:none;stroke:#b840c9;stroke-width:20"
         x1="272.26801"
         y1="966.15997"
         x2="272.26801"
         y2="1429.917"
         id="line73" />
      <line
         style="fill:none;stroke:#b840c9;stroke-width:20"
         x1="272.26801"
         y1="1429.917"
         x2="455.30801"
         y2="1612.895"
         id="line75" />
      <line
         style="fill:none;stroke:#b840c9;stroke-width:20"
         x1="455.30801"
         y1="1612.895"
         x2="455.30801"
         y2="1803.0341"
         id="line77" />
      <line
         style="fill:none;stroke:#b840c9;stroke-width:20"
         x1="455.30801"
         y1="1803.0341"
         x2="1424.449"
         y2="2772.176"
         id="line79" />
      <line
         style="fill:none;stroke:#b840c9;stroke-width:20"
         x1="1424.449"
         y1="2772.176"
         x2="1424.449"
         y2="3009.8359"
         id="line81" />
    </g>
    <g
       transform="matrix(1.4400001,0,0,1.4400001,1.0558393,-655.38252)"
       id="g83">
      <line
         style="fill:none;stroke:#029302;stroke-width:20"
         x1="228.67999"
         y1="1934.293"
         x2="325.556"
         y2="2031.1689"
         id="line85" />
      <line
         style="fill:none;stroke:#029302;stroke-width:20"
         x1="325.556"
         y1="2031.1689"
         x2="1553.7889"
         y2="2031.1689"
         id="line87" />
      <line
         style="fill:none;stroke:#029302;stroke-width:20"
         x1="1553.7889"
         y1="2031.1689"
         x2="1807.588"
         y2="2284.968"
         id="line89" />
      <line
         style="fill:none;stroke:#029302;stroke-width:21.46278954"
         x1="1807.588"
         y1="2284.968"
         x2="1807.588"
         y2="3106.3406"
         id="line91" />
      <line
         style="fill:none;stroke:#029302;stroke-width:20"
         x1="1794.248"
         y1="3109.3618"
         x2="1955.7461"
         y2="3270.8599"
         id="line93" />
      <line
         style="fill:none;stroke:#029302;stroke-width:20"
         x1="1957.2283"
         y1="3270.8599"
         x2="1957.2283"
         y2="3458.9968"
         id="line95" />
    </g>
    <g
       transform="matrix(1.4400001,0,0,1.4400001,-13.199434,-655.38252)"
       id="g97">
      <line
         style="fill:none;stroke:#ffb000;stroke-width:20"
         x1="961.20203"
         y1="2309.5291"
         x2="1276.967"
         y2="2309.5291"
         id="line99" />
      <line
         style="fill:none;stroke:#ffb000;stroke-width:20"
         x1="1276.967"
         y1="2305.5291"
         x2="1572.74"
         y2="2601.303"
         id="line101" />
      <line
         style="fill:none;stroke:#ffb000;stroke-width:20"
         x1="1572.74"
         y1="2608.303"
         x2="1803.743"
         y2="2377.3"
         id="line103" />
      <line
         style="fill:none;stroke:#ffb000;stroke-width:18.68108368"
         x1="1803.743"
         y1="2378.041"
         x2="2450.7898"
         y2="2378.041"
         id="line105" />
      <line
         style="fill:none;stroke:#ffb000;stroke-width:18.23719597"
         x1="2616.8782"
         y1="2539.3289"
         x2="2616.8782"
         y2="2989.1289"
         id="line109" />
      <line
         style="fill:none;stroke:#ffb000;stroke-width:14.68067074"
         x1="2619.1787"
         y1="2550.7095"
         x2="2454.0029"
         y2="2376.6404"
         id="line103-1" />
    </g>
    <circle
       cx="2128.2141"
       cy="2377.3"
       r="30.681"
       transform="matrix(1.4400001,0,0,1.4400001,455.97729,-655.38252)"
       id="circle133"
       style="fill:#ffffff;stroke:#ffb000;stroke-width:10"
       sodipodi:cx="2128.2141"
       sodipodi:cy="2377.3"
       sodipodi:rx="30.681"
       sodipodi:ry="30.681"
       d="m 2158.8951,2377.3 c 0,16.9447 -13.7363,30.681 -30.681,30.681 -16.9446,0 -30.681,-13.7363 -30.681,-30.681 0,-16.9446 13.7364,-30.681 30.681,-30.681 16.9447,0 30.681,13.7364 30.681,30.681 z" />
    <circle
       cx="1808.0601"
       cy="2375.762"
       r="35.456001"
       transform="matrix(1.4400001,0,0,1.4400001,1.0558393,-655.38252)"
       id="circle135"
       style="fill:#ffb000"
       sodipodi:cx="1808.0601"
       sodipodi:cy="2375.762"
       sodipodi:rx="35.456001"
       sodipodi:ry="35.456001"
       d="m 1843.5161,2375.762 c 0,19.5818 -15.8742,35.456 -35.456,35.456 -19.5819,0 -35.456,-15.8742 -35.456,-35.456 0,-19.5818 15.8741,-35.456 35.456,-35.456 19.5818,0 35.456,15.8742 35.456,35.456 z" />
    <circle
       cx="2265.1831"
       cy="2509.1189"
       r="30.681"
       transform="matrix(1.4400001,0,0,1.4400001,488.48299,-604.15682)"
       id="circle137"
       style="fill:#ffffff;stroke:#ffb000;stroke-width:10"
       sodipodi:cx="2265.1831"
       sodipodi:cy="2509.1189"
       sodipodi:rx="30.681"
       sodipodi:ry="30.681"
       d="m 2295.8641,2509.1189 c 0,16.9446 -13.7363,30.681 -30.681,30.681 -16.9446,0 -30.681,-13.7364 -30.681,-30.681 0,-16.9447 13.7364,-30.681 30.681,-30.681 16.9447,0 30.681,13.7363 30.681,30.681 z" />
    <circle
       cx="2264.8501"
       cy="2744.877"
       r="30.681"
       transform="matrix(1.4400001,0,0,1.4400001,492.75179,-612.69442)"
       id="circle139"
       style="fill:#ffffff;stroke:#ffb000;stroke-width:10"
       sodipodi:cx="2264.8501"
       sodipodi:cy="2744.877"
       sodipodi:rx="30.681"
       sodipodi:ry="30.681"
       d="m 2295.5311,2744.877 c 0,16.9446 -13.7364,30.681 -30.681,30.681 -16.9447,0 -30.681,-13.7364 -30.681,-30.681 0,-16.9447 13.7363,-30.681 30.681,-30.681 16.9446,0 30.681,13.7363 30.681,30.681 z" />
    <circle
       cx="2264.8501"
       cy="2967.48"
       r="30.681"
       transform="matrix(1.4400001,0,0,1.4400001,490.61739,-623.36642)"
       id="circle141"
       style="fill:#ffffff;stroke:#ffb000;stroke-width:10"
       sodipodi:cx="2264.8501"
       sodipodi:cy="2967.48"
       sodipodi:rx="30.681"
       sodipodi:ry="30.681"
       d="m 2295.5311,2967.48 c 0,16.9446 -13.7364,30.681 -30.681,30.681 -16.9447,0 -30.681,-13.7364 -30.681,-30.681 0,-16.9447 13.7363,-30.681 30.681,-30.681 16.9446,0 30.681,13.7363 30.681,30.681 z" />
    <circle
       cx="960.34998"
       cy="2308.5291"
       r="35.456001"
       transform="matrix(1.4400001,0,0,1.4400001,1.0558393,-655.38252)"
       id="circle143"
       style="fill:#ffb000"
       sodipodi:cx="960.34998"
       sodipodi:cy="2308.5291"
       sodipodi:rx="35.456001"
       sodipodi:ry="35.456001"
       d="m 995.80598,2308.5291 c 0,19.5818 -15.8742,35.456 -35.456,35.456 -19.58181,0 -35.45601,-15.8742 -35.45601,-35.456 0,-19.5819 15.8742,-35.456 35.45601,-35.456 19.5818,0 35.456,15.8741 35.456,35.456 z" />
    <circle
       cx="1334.541"
       cy="2362.781"
       r="35.456001"
       transform="matrix(1.4400001,0,0,1.4400001,1.0558393,-655.38252)"
       id="circle145"
       style="fill:#ffb000"
       sodipodi:cx="1334.541"
       sodipodi:cy="2362.781"
       sodipodi:rx="35.456001"
       sodipodi:ry="35.456001"
       d="m 1369.997,2362.781 c 0,19.5818 -15.8742,35.456 -35.456,35.456 -19.5818,0 -35.456,-15.8742 -35.456,-35.456 0,-19.5818 15.8742,-35.456 35.456,-35.456 19.5818,0 35.456,15.8742 35.456,35.456 z" />
    <circle
       cx="1572.537"
       cy="2597.8611"
       r="30.681"
       transform="matrix(1.4400001,0,0,1.4400001,1.0558393,-655.38252)"
       id="circle147"
       style="fill:#ffffff;stroke:#ffb000;stroke-width:10"
       sodipodi:cx="1572.537"
       sodipodi:cy="2597.8611"
       sodipodi:rx="30.681"
       sodipodi:ry="30.681"
       d="m 1603.218,2597.8611 c 0,16.9446 -13.7364,30.681 -30.681,30.681 -16.9447,0 -30.681,-13.7364 -30.681,-30.681 0,-16.9447 13.7363,-30.681 30.681,-30.681 16.9446,0 30.681,13.7363 30.681,30.681 z" />
    <circle
       cx="1552.74"
       cy="1857.198"
       r="30.681"
       transform="matrix(1.4400001,0,0,1.4400001,1.0558393,-655.38252)"
       id="circle149"
       style="fill:#ffffff;stroke:#de0000;stroke-width:10"
       sodipodi:cx="1552.74"
       sodipodi:cy="1857.198"
       sodipodi:rx="30.681"
       sodipodi:ry="30.681"
       d="m 1583.421,1857.198 c 0,16.9446 -13.7364,30.681 -30.681,30.681 -16.9447,0 -30.681,-13.7364 -30.681,-30.681 0,-16.9447 13.7363,-30.681 30.681,-30.681 16.9446,0 30.681,13.7363 30.681,30.681 z" />
    <circle
       cx="1552.74"
       cy="2032.39"
       r="35.456001"
       transform="matrix(1.4400001,0,0,1.4400001,1.0558393,-655.38252)"
       id="circle151"
       style="fill:#de0000"
       sodipodi:cx="1552.74"
       sodipodi:cy="2032.39"
       sodipodi:rx="35.456001"
       sodipodi:ry="35.456001"
       d="m 1588.196,2032.39 c 0,19.5818 -15.8742,35.456 -35.456,35.456 -19.5818,0 -35.456,-15.8742 -35.456,-35.456 0,-19.5818 15.8742,-35.456 35.456,-35.456 19.5818,0 35.456,15.8742 35.456,35.456 z" />
    <circle
       cx="1275.967"
       cy="2311.2561"
       r="35.456001"
       transform="matrix(1.4400001,0,0,1.4400001,1.0558393,-655.38252)"
       id="circle153"
       style="fill:#de0000"
       sodipodi:cx="1275.967"
       sodipodi:cy="2311.2561"
       sodipodi:rx="35.456001"
       sodipodi:ry="35.456001"
       d="m 1311.423,2311.2561 c 0,19.5818 -15.8742,35.456 -35.456,35.456 -19.5818,0 -35.456,-15.8742 -35.456,-35.456 0,-19.5818 15.8742,-35.456 35.456,-35.456 19.5818,0 35.456,15.8742 35.456,35.456 z" />
    <circle
       cx="1119.092"
       cy="2467.375"
       r="35.456001"
       transform="matrix(1.4400001,0,0,1.4400001,1.0558393,-655.38252)"
       id="circle155"
       style="fill:#de0000"
       sodipodi:cx="1119.092"
       sodipodi:cy="2467.375"
       sodipodi:rx="35.456001"
       sodipodi:ry="35.456001"
       d="m 1154.548,2467.375 c 0,19.5818 -15.8742,35.456 -35.456,35.456 -19.5818,0 -35.456,-15.8742 -35.456,-35.456 0,-19.5818 15.8742,-35.456 35.456,-35.456 19.5818,0 35.456,15.8742 35.456,35.456 z" />
    <circle
       cx="901.83002"
       cy="2689.259"
       r="35.456001"
       transform="matrix(1.4400001,0,0,1.4400001,1.0558393,-655.38252)"
       id="circle157"
       style="fill:#de0000"
       sodipodi:cx="901.83002"
       sodipodi:cy="2689.259"
       sodipodi:rx="35.456001"
       sodipodi:ry="35.456001"
       d="m 937.28602,2689.259 c 0,19.5818 -15.87419,35.456 -35.456,35.456 -19.58181,0 -35.456,-15.8742 -35.456,-35.456 0,-19.5818 15.87419,-35.456 35.456,-35.456 19.58181,0 35.456,15.8742 35.456,35.456 z" />
    <circle
       cx="1553.387"
       cy="1539.285"
       r="30.681"
       transform="matrix(1.4400001,0,0,1.4400001,1.0558393,-655.38252)"
       id="circle159"
       style="fill:#ffffff;stroke:#de0000;stroke-width:10"
       sodipodi:cx="1553.387"
       sodipodi:cy="1539.285"
       sodipodi:rx="30.681"
       sodipodi:ry="30.681"
       d="m 1584.068,1539.285 c 0,16.9447 -13.7364,30.681 -30.681,30.681 -16.9447,0 -30.681,-13.7363 -30.681,-30.681 0,-16.9446 13.7363,-30.681 30.681,-30.681 16.9446,0 30.681,13.7364 30.681,30.681 z" />
    <circle
       cx="1553.387"
       cy="1393.306"
       r="30.681"
       transform="matrix(1.4400001,0,0,1.4400001,1.0558393,-655.38252)"
       id="circle161"
       style="fill:#ffffff;stroke:#de0000;stroke-width:10"
       sodipodi:cx="1553.387"
       sodipodi:cy="1393.306"
       sodipodi:rx="30.681"
       sodipodi:ry="30.681"
       d="m 1584.068,1393.306 c 0,16.9447 -13.7364,30.681 -30.681,30.681 -16.9447,0 -30.681,-13.7363 -30.681,-30.681 0,-16.9446 13.7363,-30.681 30.681,-30.681 16.9446,0 30.681,13.7364 30.681,30.681 z" />
    <circle
       cx="1552.74"
       cy="1248.895"
       r="30.681"
       transform="matrix(1.4400001,0,0,1.4400001,1.0558393,-655.38252)"
       id="circle163"
       style="fill:#ffffff;stroke:#de0000;stroke-width:10"
       sodipodi:cx="1552.74"
       sodipodi:cy="1248.895"
       sodipodi:rx="30.681"
       sodipodi:ry="30.681"
       d="m 1583.421,1248.895 c 0,16.9447 -13.7364,30.681 -30.681,30.681 -16.9447,0 -30.681,-13.7363 -30.681,-30.681 0,-16.9446 13.7363,-30.681 30.681,-30.681 16.9446,0 30.681,13.7364 30.681,30.681 z" />
    <circle
       cx="1949.58"
       cy="498.37399"
       r="30.681"
       transform="matrix(1.4400001,0,0,1.4400001,1.0558393,-655.38252)"
       id="circle165"
       style="fill:#ffffff;stroke:#de0000;stroke-width:10"
       sodipodi:cx="1949.58"
       sodipodi:cy="498.37399"
       sodipodi:rx="30.681"
       sodipodi:ry="30.681"
       d="m 1980.261,498.37399 c 0,16.94465 -13.7364,30.681 -30.681,30.681 -16.9447,0 -30.681,-13.73635 -30.681,-30.681 0,-16.94465 13.7363,-30.681 30.681,-30.681 16.9446,0 30.681,13.73635 30.681,30.681 z" />
    <circle
       cx="1695.2629"
       cy="1103.115"
       r="30.681"
       transform="matrix(1.4400001,0,0,1.4400001,1.0558393,-655.38252)"
       id="circle167"
       style="fill:#ffffff;stroke:#de0000;stroke-width:10"
       sodipodi:cx="1695.2629"
       sodipodi:cy="1103.115"
       sodipodi:rx="30.681"
       sodipodi:ry="30.681"
       d="m 1725.9439,1103.115 c 0,16.9446 -13.7363,30.681 -30.681,30.681 -16.9446,0 -30.681,-13.7364 -30.681,-30.681 0,-16.9447 13.7364,-30.681 30.681,-30.681 16.9447,0 30.681,13.7363 30.681,30.681 z" />
    <circle
       cx="1695.431"
       cy="950.79602"
       r="30.681"
       transform="matrix(1.4400001,0,0,1.4400001,1.0558393,-655.38252)"
       id="circle169"
       style="fill:#ffffff;stroke:#de0000;stroke-width:10"
       sodipodi:cx="1695.431"
       sodipodi:cy="950.79602"
       sodipodi:rx="30.681"
       sodipodi:ry="30.681"
       d="m 1726.112,950.79602 c 0,16.94465 -13.7363,30.681 -30.681,30.681 -16.9446,0 -30.681,-13.73635 -30.681,-30.681 0,-16.94465 13.7364,-30.681 30.681,-30.681 16.9447,0 30.681,13.73635 30.681,30.681 z" />
    <circle
       cx="1825.825"
       cy="818.92603"
       r="30.681"
       transform="matrix(1.4400001,0,0,1.4400001,1.0558393,-655.38252)"
       id="circle171"
       style="fill:#ffffff;stroke:#de0000;stroke-width:10"
       sodipodi:cx="1825.825"
       sodipodi:cy="818.92603"
       sodipodi:rx="30.681"
       sodipodi:ry="30.681"
       d="m 1856.506,818.92603 c 0,16.94464 -13.7364,30.681 -30.681,30.681 -16.9447,0 -30.681,-13.73636 -30.681,-30.681 0,-16.94465 13.7363,-30.681 30.681,-30.681 16.9446,0 30.681,13.73635 30.681,30.681 z" />
    <circle
       cx="1949.771"
       cy="695.47699"
       r="30.681"
       transform="matrix(1.4400001,0,0,1.4400001,1.0558393,-655.38252)"
       id="circle173"
       style="fill:#ffffff;stroke:#de0000;stroke-width:10"
       sodipodi:cx="1949.771"
       sodipodi:cy="695.47699"
       sodipodi:rx="30.681"
       sodipodi:ry="30.681"
       d="m 1980.452,695.47699 c 0,16.94465 -13.7364,30.681 -30.681,30.681 -16.9447,0 -30.681,-13.73635 -30.681,-30.681 0,-16.94465 13.7363,-30.681 30.681,-30.681 16.9446,0 30.681,13.73635 30.681,30.681 z" />
    <circle
       cx="493.56"
       cy="3485.1021"
       r="30.681"
       transform="matrix(1.4400001,0,0,1.4400001,0.31024156,-818.75872)"
       id="circle177"
       style="fill:#ffffff;stroke:#de0000;stroke-width:10"
       sodipodi:cx="493.56"
       sodipodi:cy="3485.1021"
       sodipodi:rx="30.681"
       sodipodi:ry="30.681"
       d="m 524.241,3485.1021 c 0,16.9446 -13.73635,30.681 -30.681,30.681 -16.94465,0 -30.681,-13.7364 -30.681,-30.681 0,-16.9447 13.73635,-30.681 30.681,-30.681 16.94465,0 30.681,13.7363 30.681,30.681 z" />
    <circle
       cx="494.194"
       cy="3287.6599"
       r="30.681"
       transform="matrix(1.4400001,0,0,1.4400001,-3.1150304,-744.61782)"
       id="circle179"
       style="fill:#ffffff;stroke:#de0000;stroke-width:10"
       sodipodi:cx="494.194"
       sodipodi:cy="3287.6599"
       sodipodi:rx="30.681"
       sodipodi:ry="30.681"
       d="m 524.875,3287.6599 c 0,16.9447 -13.73635,30.681 -30.681,30.681 -16.94465,0 -30.681,-13.7363 -30.681,-30.681 0,-16.9446 13.73635,-30.681 30.681,-30.681 16.94465,0 30.681,13.7364 30.681,30.681 z" />
    <circle
       cx="753.12903"
       cy="2833.4319"
       r="30.681"
       transform="matrix(1.4400001,0,0,1.4400001,1.0558393,-655.38252)"
       id="circle181"
       style="fill:#ffffff;stroke:#de0000;stroke-width:10"
       sodipodi:cx="753.12903"
       sodipodi:cy="2833.4319"
       sodipodi:rx="30.681"
       sodipodi:ry="30.681"
       d="m 783.81003,2833.4319 c 0,16.9446 -13.73635,30.681 -30.681,30.681 -16.94465,0 -30.681,-13.7364 -30.681,-30.681 0,-16.9447 13.73635,-30.681 30.681,-30.681 16.94465,0 30.681,13.7363 30.681,30.681 z" />
    <circle
       cx="494.194"
       cy="3091.4919"
       r="30.681"
       transform="matrix(1.4400001,0,0,1.4400001,1.0558393,-655.38252)"
       id="circle183"
       style="fill:#ffffff;stroke:#de0000;stroke-width:10"
       sodipodi:cx="494.194"
       sodipodi:cy="3091.4919"
       sodipodi:rx="30.681"
       sodipodi:ry="30.681"
       d="m 524.875,3091.4919 c 0,16.9447 -13.73635,30.681 -30.681,30.681 -16.94465,0 -30.681,-13.7363 -30.681,-30.681 0,-16.9446 13.73635,-30.681 30.681,-30.681 16.94465,0 30.681,13.7364 30.681,30.681 z" />
    <circle
       cx="623.12"
       cy="2963.4409"
       r="30.681"
       transform="matrix(1.4400001,0,0,1.4400001,1.0558393,-655.38252)"
       id="circle185"
       style="fill:#ffffff;stroke:#de0000;stroke-width:10"
       sodipodi:cx="623.12"
       sodipodi:cy="2963.4409"
       sodipodi:rx="30.681"
       sodipodi:ry="30.681"
       d="m 653.80099,2963.4409 c 0,16.9447 -13.73635,30.681 -30.68099,30.681 -16.94465,0 -30.681,-13.7363 -30.681,-30.681 0,-16.9446 13.73635,-30.681 30.681,-30.681 16.94464,0 30.68099,13.7364 30.68099,30.681 z" />
    <circle
       cx="898.15198"
       cy="1636.501"
       r="30.681"
       transform="matrix(1.4400001,0,0,1.4400001,1.0558393,-655.38252)"
       id="circle187"
       style="fill:#ffffff;stroke:#2778c9;stroke-width:10"
       sodipodi:cx="898.15198"
       sodipodi:cy="1636.501"
       sodipodi:rx="30.681"
       sodipodi:ry="30.681"
       d="m 928.83298,1636.501 c 0,16.9446 -13.73635,30.681 -30.681,30.681 -16.94465,0 -30.681,-13.7364 -30.681,-30.681 0,-16.9447 13.73635,-30.681 30.681,-30.681 16.94465,0 30.681,13.7363 30.681,30.681 z" />
    <circle
       cx="898.15198"
       cy="1951.2791"
       r="35.456001"
       transform="matrix(1.4400001,0,0,1.4400001,1.0558393,-655.38252)"
       id="circle189"
       style="fill:#2778c9"
       sodipodi:cx="898.15198"
       sodipodi:cy="1951.2791"
       sodipodi:rx="35.456001"
       sodipodi:ry="35.456001"
       d="m 933.60798,1951.2791 c 0,19.5818 -15.87419,35.456 -35.456,35.456 -19.58181,0 -35.456,-15.8742 -35.456,-35.456 0,-19.5819 15.87419,-35.456 35.456,-35.456 19.58181,0 35.456,15.8741 35.456,35.456 z" />
    <circle
       cx="838.82098"
       cy="2307.2271"
       r="35.456001"
       transform="matrix(1.4400001,0,0,1.4400001,1.0558393,-655.38252)"
       id="circle191"
       style="fill:#2778c9"
       sodipodi:cx="838.82098"
       sodipodi:cy="2307.2271"
       sodipodi:rx="35.456001"
       sodipodi:ry="35.456001"
       d="m 874.27699,2307.2271 c 0,19.5818 -15.8742,35.456 -35.45601,35.456 -19.5818,0 -35.456,-15.8742 -35.456,-35.456 0,-19.5819 15.8742,-35.4561 35.456,-35.4561 19.58181,0 35.45601,15.8742 35.45601,35.4561 z" />
    <circle
       cx="839.15198"
       cy="2627.1479"
       r="35.456001"
       transform="matrix(1.4400001,0,0,1.4400001,1.0558393,-655.38252)"
       id="circle193"
       style="fill:#2778c9"
       sodipodi:cx="839.15198"
       sodipodi:cy="2627.1479"
       sodipodi:rx="35.456001"
       sodipodi:ry="35.456001"
       d="m 874.60798,2627.1479 c 0,19.5819 -15.87419,35.4561 -35.456,35.4561 -19.58181,0 -35.456,-15.8742 -35.456,-35.4561 0,-19.5818 15.87419,-35.456 35.456,-35.456 19.58181,0 35.456,15.8742 35.456,35.456 z" />
    <circle
       cx="758.27802"
       cy="1494.063"
       r="30.681"
       transform="matrix(1.4400001,0,0,1.4400001,1.0558393,-655.38252)"
       id="circle195"
       style="fill:#ffffff;stroke:#2778c9;stroke-width:10"
       sodipodi:cx="758.27802"
       sodipodi:cy="1494.063"
       sodipodi:rx="30.681"
       sodipodi:ry="30.681"
       d="m 788.95901,1494.063 c 0,16.9446 -13.73635,30.681 -30.68099,30.681 -16.94465,0 -30.681,-13.7364 -30.681,-30.681 0,-16.9447 13.73635,-30.681 30.681,-30.681 16.94464,0 30.68099,13.7363 30.68099,30.681 z" />
    <circle
       cx="758.27802"
       cy="1161.157"
       r="30.681"
       transform="matrix(1.4400001,0,0,1.4400001,1.0558393,-655.38252)"
       id="circle197"
       style="fill:#ffffff;stroke:#2778c9;stroke-width:10"
       sodipodi:cx="758.27802"
       sodipodi:cy="1161.157"
       sodipodi:rx="30.681"
       sodipodi:ry="30.681"
       d="m 788.95901,1161.157 c 0,16.9446 -13.73635,30.681 -30.68099,30.681 -16.94465,0 -30.681,-13.7364 -30.681,-30.681 0,-16.9447 13.73635,-30.681 30.681,-30.681 16.94464,0 30.68099,13.7363 30.68099,30.681 z" />
    <circle
       cx="758.27802"
       cy="1001.14"
       r="30.681"
       transform="matrix(1.4400001,0,0,1.4400001,1.0558393,-655.38252)"
       id="circle199"
       style="fill:#ffffff;stroke:#2778c9;stroke-width:10"
       sodipodi:cx="758.27802"
       sodipodi:cy="1001.14"
       sodipodi:rx="30.681"
       sodipodi:ry="30.681"
       d="m 788.95901,1001.14 c 0,16.9447 -13.73635,30.681 -30.68099,30.681 -16.94465,0 -30.681,-13.7363 -30.681,-30.681 0,-16.94463 13.73635,-30.68099 30.681,-30.68099 16.94464,0 30.68099,13.73636 30.68099,30.68099 z" />
    <circle
       cx="901.98297"
       cy="857.474"
       r="30.681"
       transform="matrix(1.4400001,0,0,1.4400001,1.0558393,-655.38252)"
       id="circle201"
       style="fill:#ffffff;stroke:#2778c9;stroke-width:10"
       sodipodi:cx="901.98297"
       sodipodi:cy="857.474"
       sodipodi:rx="30.681"
       sodipodi:ry="30.681"
       d="m 932.66397,857.474 c 0,16.94465 -13.73635,30.681 -30.681,30.681 -16.94465,0 -30.681,-13.73635 -30.681,-30.681 0,-16.94465 13.73635,-30.681 30.681,-30.681 16.94465,0 30.681,13.73635 30.681,30.681 z" />
    <circle
       cx="901.98297"
       cy="736.64398"
       r="30.681"
       transform="matrix(1.4400001,0,0,1.4400001,1.0558393,-655.38252)"
       id="circle203"
       style="fill:#ffffff;stroke:#2778c9;stroke-width:10"
       sodipodi:cx="901.98297"
       sodipodi:cy="736.64398"
       sodipodi:rx="30.681"
       sodipodi:ry="30.681"
       d="m 932.66397,736.64398 c 0,16.94465 -13.73635,30.681 -30.681,30.681 -16.94465,0 -30.681,-13.73635 -30.681,-30.681 0,-16.94465 13.73635,-30.681 30.681,-30.681 16.94465,0 30.681,13.73635 30.681,30.681 z" />
    <circle
       cx="1025.384"
       cy="612.76703"
       r="30.681"
       transform="matrix(1.4400001,0,0,1.4400001,1.0558393,-655.38252)"
       id="circle205"
       style="fill:#ffffff;stroke:#2778c9;stroke-width:10"
       sodipodi:cx="1025.384"
       sodipodi:cy="612.76703"
       sodipodi:rx="30.681"
       sodipodi:ry="30.681"
       d="m 1056.065,612.76703 c 0,16.94465 -13.7363,30.681 -30.681,30.681 -16.9446,0 -30.68097,-13.73635 -30.68097,-30.681 0,-16.94465 13.73637,-30.681 30.68097,-30.681 16.9447,0 30.681,13.73635 30.681,30.681 z" />
    <circle
       cx="1148.541"
       cy="489.26401"
       r="30.681"
       transform="matrix(1.4400001,0,0,1.4400001,1.0558393,-655.38252)"
       id="circle207"
       style="fill:#ffffff;stroke:#2778c9;stroke-width:10"
       sodipodi:cx="1148.541"
       sodipodi:cy="489.26401"
       sodipodi:rx="30.681"
       sodipodi:ry="30.681"
       d="m 1179.222,489.26401 c 0,16.94465 -13.7363,30.681 -30.681,30.681 -16.9446,0 -30.681,-13.73635 -30.681,-30.681 0,-16.94465 13.7364,-30.681 30.681,-30.681 16.9447,0 30.681,13.73635 30.681,30.681 z" />
    <circle
       cx="905.83002"
       cy="2867.6479"
       r="30.681"
       transform="matrix(1.4400001,0,0,1.4400001,1.0558393,-655.38252)"
       id="circle209"
       style="fill:#ffffff;stroke:#2778c9;stroke-width:10"
       sodipodi:cx="905.83002"
       sodipodi:cy="2867.6479"
       sodipodi:rx="30.681"
       sodipodi:ry="30.681"
       d="m 936.51102,2867.6479 c 0,16.9447 -13.73635,30.681 -30.681,30.681 -16.94465,0 -30.681,-13.7363 -30.681,-30.681 0,-16.9446 13.73635,-30.681 30.681,-30.681 16.94465,0 30.681,13.7364 30.681,30.681 z" />
    <circle
       cx="905.83002"
       cy="3012.021"
       r="30.681"
       transform="matrix(1.4400001,0,0,1.4400001,1.0558393,-655.38252)"
       id="circle211"
       style="fill:#ffffff;stroke:#2778c9;stroke-width:10"
       sodipodi:cx="905.83002"
       sodipodi:cy="3012.021"
       sodipodi:rx="30.681"
       sodipodi:ry="30.681"
       d="m 936.51102,3012.021 c 0,16.9446 -13.73635,30.681 -30.681,30.681 -16.94465,0 -30.681,-13.7364 -30.681,-30.681 0,-16.9447 13.73635,-30.681 30.681,-30.681 16.94465,0 30.681,13.7363 30.681,30.681 z" />
    <circle
       cx="906.68103"
       cy="3157.3049"
       r="30.681"
       transform="matrix(1.4400001,0,0,1.4400001,1.0558393,-655.38252)"
       id="circle213"
       style="fill:#ffffff;stroke:#2778c9;stroke-width:10"
       sodipodi:cx="906.68103"
       sodipodi:cy="3157.3049"
       sodipodi:rx="30.681"
       sodipodi:ry="30.681"
       d="m 937.36203,3157.3049 c 0,16.9447 -13.73635,30.681 -30.681,30.681 -16.94465,0 -30.681,-13.7363 -30.681,-30.681 0,-16.9446 13.73635,-30.681 30.681,-30.681 16.94465,0 30.681,13.7364 30.681,30.681 z" />
    <circle
       cx="905.68103"
       cy="3299.5081"
       r="30.681"
       transform="matrix(1.4400001,0,0,1.4400001,1.0558393,-655.38252)"
       id="circle215"
       style="fill:#ffffff;stroke:#2778c9;stroke-width:10"
       sodipodi:cx="905.68103"
       sodipodi:cy="3299.5081"
       sodipodi:rx="30.681"
       sodipodi:ry="30.681"
       d="m 936.36203,3299.5081 c 0,16.9446 -13.73635,30.681 -30.681,30.681 -16.94465,0 -30.681,-13.7364 -30.681,-30.681 0,-16.9447 13.73635,-30.681 30.681,-30.681 16.94465,0 30.681,13.7363 30.681,30.681 z" />
    <circle
       cx="905.68103"
       cy="3459.4221"
       r="30.681"
       transform="matrix(1.4400001,0,0,1.4400001,1.0558393,-655.38252)"
       id="circle217"
       style="fill:#ffffff;stroke:#2778c9;stroke-width:10"
       sodipodi:cx="905.68103"
       sodipodi:cy="3459.4221"
       sodipodi:rx="30.681"
       sodipodi:ry="30.681"
       d="m 936.36203,3459.4221 c 0,16.9447 -13.73635,30.681 -30.681,30.681 -16.94465,0 -30.681,-13.7363 -30.681,-30.681 0,-16.9446 13.73635,-30.681 30.681,-30.681 16.94465,0 30.681,13.7364 30.681,30.681 z" />
    <circle
       cx="1016.822"
       cy="3570.9751"
       r="30.681"
       transform="matrix(1.4400001,0,0,1.4400001,1.0558393,-655.38252)"
       id="circle219"
       style="fill:#ffffff;stroke:#2778c9;stroke-width:10"
       sodipodi:cx="1016.822"
       sodipodi:cy="3570.9751"
       sodipodi:rx="30.681"
       sodipodi:ry="30.681"
       d="m 1047.503,3570.9751 c 0,16.9446 -13.7363,30.681 -30.681,30.681 -16.94463,0 -30.68098,-13.7364 -30.68098,-30.681 0,-16.9447 13.73635,-30.681 30.68098,-30.681 16.9447,0 30.681,13.7363 30.681,30.681 z" />
    <circle
       cx="1141.351"
       cy="3695.8401"
       r="30.681"
       transform="matrix(1.4400001,0,0,1.4400001,1.0558393,-655.38252)"
       id="circle221"
       style="fill:#ffffff;stroke:#2778c9;stroke-width:10"
       sodipodi:cx="1141.351"
       sodipodi:cy="3695.8401"
       sodipodi:rx="30.681"
       sodipodi:ry="30.681"
       d="m 1172.032,3695.8401 c 0,16.9446 -13.7364,30.681 -30.681,30.681 -16.9447,0 -30.681,-13.7364 -30.681,-30.681 0,-16.9447 13.7363,-30.681 30.681,-30.681 16.9446,0 30.681,13.7363 30.681,30.681 z" />
    <circle
       cx="455.15799"
       cy="1802.0291"
       r="30.681"
       transform="matrix(1.4400001,0,0,1.4400001,1.0558393,-655.38252)"
       id="circle223"
       style="fill:#ffffff;stroke:#b840c9;stroke-width:10"
       sodipodi:cx="455.15799"
       sodipodi:cy="1802.0291"
       sodipodi:rx="30.681"
       sodipodi:ry="30.681"
       d="m 485.83899,1802.0291 c 0,16.9446 -13.73635,30.681 -30.681,30.681 -16.94465,0 -30.681,-13.7364 -30.681,-30.681 0,-16.9447 13.73635,-30.681 30.681,-30.681 16.94465,0 30.681,13.7363 30.681,30.681 z" />
    <circle
       cx="897.83002"
       cy="2245.5271"
       r="35.456001"
       transform="matrix(1.4400001,0,0,1.4400001,1.0558393,-655.38252)"
       id="circle225"
       style="fill:#b840c9"
       sodipodi:cx="897.83002"
       sodipodi:cy="2245.5271"
       sodipodi:rx="35.456001"
       sodipodi:ry="35.456001"
       d="m 933.28602,2245.5271 c 0,19.5818 -15.87419,35.456 -35.456,35.456 -19.58181,0 -35.456,-15.8742 -35.456,-35.456 0,-19.5818 15.87419,-35.456 35.456,-35.456 19.58181,0 35.456,15.8742 35.456,35.456 z" />
    <circle
       cx="1172.766"
       cy="2520.5879"
       r="35.456001"
       transform="matrix(1.4400001,0,0,1.4400001,1.0558393,-655.38252)"
       id="circle227"
       style="fill:#b840c9"
       sodipodi:cx="1172.766"
       sodipodi:cy="2520.5879"
       sodipodi:rx="35.456001"
       sodipodi:ry="35.456001"
       d="m 1208.222,2520.5879 c 0,19.5818 -15.8742,35.456 -35.456,35.456 -19.5818,0 -35.456,-15.8742 -35.456,-35.456 0,-19.5818 15.8742,-35.456 35.456,-35.456 19.5818,0 35.456,15.8742 35.456,35.456 z" />
    <circle
       cx="1424.05"
       cy="2771.7529"
       r="30.681"
       transform="matrix(1.4400001,0,0,1.4400001,1.0558393,-655.38252)"
       id="circle229"
       style="fill:#ffffff;stroke:#b840c9;stroke-width:10"
       sodipodi:cx="1424.05"
       sodipodi:cy="2771.7529"
       sodipodi:rx="30.681"
       sodipodi:ry="30.681"
       d="m 1454.731,2771.7529 c 0,16.9447 -13.7363,30.681 -30.681,30.681 -16.9446,0 -30.681,-13.7363 -30.681,-30.681 0,-16.9446 13.7364,-30.681 30.681,-30.681 16.9447,0 30.681,13.7364 30.681,30.681 z" />
    <circle
       cx="1424.627"
       cy="2998.9709"
       r="30.68"
       transform="matrix(1.4400001,0,0,1.4400001,1.0558393,-655.38252)"
       id="circle231"
       style="fill:#ffffff;stroke:#b840c9;stroke-width:10"
       sodipodi:cx="1424.627"
       sodipodi:cy="2998.9709"
       sodipodi:rx="30.68"
       sodipodi:ry="30.68"
       d="m 1455.307,2998.9709 c 0,16.9441 -13.736,30.68 -30.68,30.68 -16.9441,0 -30.68,-13.7359 -30.68,-30.68 0,-16.944 13.7359,-30.68 30.68,-30.68 16.944,0 30.68,13.736 30.68,30.68 z" />
    <circle
       cx="455.29501"
       cy="1613.6121"
       r="30.68"
       transform="matrix(1.4400001,0,0,1.4400001,1.0558393,-655.38252)"
       id="circle233"
       style="fill:#ffffff;stroke:#b840c9;stroke-width:10"
       sodipodi:cx="455.29501"
       sodipodi:cy="1613.6121"
       sodipodi:rx="30.68"
       sodipodi:ry="30.68"
       d="m 485.97501,1613.6121 c 0,16.9441 -13.7359,30.68 -30.68,30.68 -16.94409,0 -30.68,-13.7359 -30.68,-30.68 0,-16.9441 13.73591,-30.68 30.68,-30.68 16.9441,0 30.68,13.7359 30.68,30.68 z" />
    <circle
       cx="271.655"
       cy="1429.683"
       r="30.68"
       transform="matrix(1.4400001,0,0,1.4400001,1.0558393,-655.38252)"
       id="circle235"
       style="fill:#ffffff;stroke:#b840c9;stroke-width:10"
       sodipodi:cx="271.655"
       sodipodi:cy="1429.683"
       sodipodi:rx="30.68"
       sodipodi:ry="30.68"
       d="m 302.335,1429.683 c 0,16.9441 -13.7359,30.68 -30.68,30.68 -16.9441,0 -30.68,-13.7359 -30.68,-30.68 0,-16.9441 13.7359,-30.68 30.68,-30.68 16.9441,0 30.68,13.7359 30.68,30.68 z" />
    <circle
       cx="271.655"
       cy="1131.995"
       r="30.68"
       transform="matrix(1.4400001,0,0,1.4400001,1.0558393,-655.38252)"
       id="circle237"
       style="fill:#ffffff;stroke:#b840c9;stroke-width:10"
       sodipodi:cx="271.655"
       sodipodi:cy="1131.995"
       sodipodi:rx="30.68"
       sodipodi:ry="30.68"
       d="m 302.335,1131.995 c 0,16.9441 -13.7359,30.68 -30.68,30.68 -16.9441,0 -30.68,-13.7359 -30.68,-30.68 0,-16.9441 13.7359,-30.68 30.68,-30.68 16.9441,0 30.68,13.7359 30.68,30.68 z" />
    <circle
       cx="272.11801"
       cy="958.55701"
       r="30.68"
       transform="matrix(1.4400001,0,0,1.4400001,1.0558393,-655.38252)"
       id="circle239"
       style="fill:#ffffff;stroke:#b840c9;stroke-width:10"
       sodipodi:cx="272.11801"
       sodipodi:cy="958.55701"
       sodipodi:rx="30.68"
       sodipodi:ry="30.68"
       d="m 302.79801,958.55701 c 0,16.94409 -13.7359,30.68 -30.68,30.68 -16.94409,0 -30.68,-13.73591 -30.68,-30.68 0,-16.9441 13.73591,-30.68 30.68,-30.68 16.9441,0 30.68,13.7359 30.68,30.68 z" />
    <circle
       cx="324.85101"
       cy="2031.1689"
       r="30.681"
       transform="matrix(1.4400001,0,0,1.4400001,1.0558393,-655.38252)"
       id="circle241"
       style="fill:#ffffff;stroke:#029302;stroke-width:10"
       sodipodi:cx="324.85101"
       sodipodi:cy="2031.1689"
       sodipodi:rx="30.681"
       sodipodi:ry="30.681"
       d="m 355.53201,2031.1689 c 0,16.9447 -13.73635,30.681 -30.681,30.681 -16.94465,0 -30.681,-13.7363 -30.681,-30.681 0,-16.9446 13.73635,-30.681 30.681,-30.681 16.94465,0 30.681,13.7364 30.681,30.681 z" />
    <circle
       cx="1616.8101"
       cy="2093.7629"
       r="35.456001"
       transform="matrix(1.4400001,0,0,1.4400001,1.0558393,-655.38252)"
       id="circle243"
       style="fill:#029302"
       sodipodi:cx="1616.8101"
       sodipodi:cy="2093.7629"
       sodipodi:rx="35.456001"
       sodipodi:ry="35.456001"
       d="m 1652.2661,2093.7629 c 0,19.5818 -15.8742,35.456 -35.456,35.456 -19.5819,0 -35.456,-15.8742 -35.456,-35.456 0,-19.5818 15.8741,-35.456 35.456,-35.456 19.5818,0 35.456,15.8742 35.456,35.456 z" />
    <circle
       cx="1806.588"
       cy="2284.384"
       r="35.456001"
       transform="matrix(1.4400001,0,0,1.4400001,1.0558393,-655.38252)"
       id="circle245"
       style="fill:#029302"
       sodipodi:cx="1806.588"
       sodipodi:cy="2284.384"
       sodipodi:rx="35.456001"
       sodipodi:ry="35.456001"
       d="m 1842.044,2284.384 c 0,19.5818 -15.8742,35.456 -35.456,35.456 -19.5818,0 -35.456,-15.8742 -35.456,-35.456 0,-19.5818 15.8742,-35.456 35.456,-35.456 19.5818,0 35.456,15.8742 35.456,35.456 z" />
    <circle
       cx="897.83002"
       cy="2031.1689"
       r="35.456001"
       transform="matrix(1.4400001,0,0,1.4400001,1.0558393,-655.38252)"
       id="circle247"
       style="fill:#029302"
       sodipodi:cx="897.83002"
       sodipodi:cy="2031.1689"
       sodipodi:rx="35.456001"
       sodipodi:ry="35.456001"
       d="m 933.28602,2031.1689 c 0,19.5819 -15.87419,35.456 -35.456,35.456 -19.58181,0 -35.456,-15.8741 -35.456,-35.456 0,-19.5818 15.87419,-35.456 35.456,-35.456 19.58181,0 35.456,15.8742 35.456,35.456 z" />
    <circle
       cx="228.83099"
       cy="1935.736"
       r="30.681"
       transform="matrix(1.4400001,0,0,1.4400001,1.0558393,-655.38252)"
       id="circle249"
       style="fill:#ffffff;stroke:#029302;stroke-width:10"
       sodipodi:cx="228.83099"
       sodipodi:cy="1935.736"
       sodipodi:rx="30.681"
       sodipodi:ry="30.681"
       d="m 259.51199,1935.736 c 0,16.9446 -13.73635,30.681 -30.681,30.681 -16.94464,0 -30.681,-13.7364 -30.681,-30.681 0,-16.9447 13.73636,-30.681 30.681,-30.681 16.94465,0 30.681,13.7363 30.681,30.681 z" />
    <circle
       cx="1807.0601"
       cy="2607.178"
       r="30.681"
       transform="matrix(1.4400001,0,0,1.4400001,1.0558393,-561.46882)"
       id="circle251"
       style="fill:#ffffff;stroke:#029302;stroke-width:10"
       sodipodi:cx="1807.0601"
       sodipodi:cy="2607.178"
       sodipodi:rx="30.681"
       sodipodi:ry="30.681"
       d="m 1837.7411,2607.178 c 0,16.9446 -13.7364,30.681 -30.681,30.681 -16.9447,0 -30.681,-13.7364 -30.681,-30.681 0,-16.9447 13.7363,-30.681 30.681,-30.681 16.9446,0 30.681,13.7363 30.681,30.681 z" />
    <circle
       cx="1807.0601"
       cy="2803.1809"
       r="30.681"
       transform="matrix(1.4400001,0,0,1.4400001,1.0558393,-544.39352)"
       id="circle253"
       style="fill:#ffffff;stroke:#029302;stroke-width:10"
       sodipodi:cx="1807.0601"
       sodipodi:cy="2803.1809"
       sodipodi:rx="30.681"
       sodipodi:ry="30.681"
       d="m 1837.7411,2803.1809 c 0,16.9447 -13.7364,30.681 -30.681,30.681 -16.9447,0 -30.681,-13.7363 -30.681,-30.681 0,-16.9446 13.7363,-30.681 30.681,-30.681 16.9446,0 30.681,13.7364 30.681,30.681 z" />
    <circle
       cx="1969.0861"
       cy="3159.356"
       r="30.681"
       transform="matrix(1.4400001,0,0,1.4400001,-16.019376,-495.30232)"
       id="circle255"
       style="fill:#ffffff;stroke:#029302;stroke-width:10"
       sodipodi:cx="1969.0861"
       sodipodi:cy="3159.356"
       sodipodi:rx="30.681"
       sodipodi:ry="30.681"
       d="m 1999.7671,3159.356 c 0,16.9446 -13.7364,30.681 -30.681,30.681 -16.9447,0 -30.681,-13.7364 -30.681,-30.681 0,-16.9447 13.7363,-30.681 30.681,-30.681 16.9446,0 30.681,13.7363 30.681,30.681 z" />
    <circle
       cx="1969.0861"
       cy="3346.0681"
       r="30.681"
       transform="matrix(1.4400001,0,0,1.4400001,-18.153779,-488.89912)"
       id="circle257"
       style="fill:#ffffff;stroke:#029302;stroke-width:10"
       sodipodi:cx="1969.0861"
       sodipodi:cy="3346.0681"
       sodipodi:rx="30.681"
       sodipodi:ry="30.681"
       d="m 1999.7671,3346.0681 c 0,16.9447 -13.7364,30.681 -30.681,30.681 -16.9447,0 -30.681,-13.7363 -30.681,-30.681 0,-16.9446 13.7363,-30.681 30.681,-30.681 16.9446,0 30.681,13.7364 30.681,30.681 z" />
    <circle
       cx="1807.0601"
       cy="2998.4819"
       r="30.681"
       transform="matrix(1.4400001,0,0,1.4400001,1.0558393,-473.95832)"
       id="circle259"
       style="fill:#ffffff;stroke:#029302;stroke-width:10"
       sodipodi:cx="1807.0601"
       sodipodi:cy="2998.4819"
       sodipodi:rx="30.681"
       sodipodi:ry="30.681"
       d="m 1837.7411,2998.4819 c 0,16.9447 -13.7364,30.681 -30.681,30.681 -16.9447,0 -30.681,-13.7363 -30.681,-30.681 0,-16.9446 13.7363,-30.681 30.681,-30.681 16.9446,0 30.681,13.7364 30.681,30.681 z" />
    <circle
       cx="493.56"
       cy="3485.1021"
       r="30.681"
       transform="matrix(1.4400001,0,0,1.4400001,2.4997034,-615.08132)"
       id="circle177-1"
       style="fill:#ffffff;stroke:#de0000;stroke-width:10"
       sodipodi:cx="493.56"
       sodipodi:cy="3485.1021"
       sodipodi:rx="30.681"
       sodipodi:ry="30.681"
       d="m 524.241,3485.1021 c 0,16.9446 -13.73635,30.681 -30.681,30.681 -16.94465,0 -30.681,-13.7364 -30.681,-30.681 0,-16.9447 13.73635,-30.681 30.681,-30.681 16.94465,0 30.681,13.7363 30.681,30.681 z" />
  </g>
</svg>
