<?xml version="1.0" encoding="UTF-8" standalone="no"?>
<!-- Created with Inkscape (http://www.inkscape.org/) -->

<svg
   xmlns:dc="http://purl.org/dc/elements/1.1/"
   xmlns:cc="http://creativecommons.org/ns#"
   xmlns:rdf="http://www.w3.org/1999/02/22-rdf-syntax-ns#"
   xmlns:svg="http://www.w3.org/2000/svg"
   xmlns="http://www.w3.org/2000/svg"
   xmlns:sodipodi="http://sodipodi.sourceforge.net/DTD/sodipodi-0.dtd"
   xmlns:inkscape="http://www.inkscape.org/namespaces/inkscape"
   version="1.1"
   width="900"
   height="1118"
   id="svg4324"
   inkscape:version="0.48.1 "
   sodipodi:docname="spb1.svg">
  <sodipodi:namedview
     pagecolor="#ffffff"
     bordercolor="#666666"
     borderopacity="1"
     objecttolerance="10"
     gridtolerance="10"
     guidetolerance="10"
     inkscape:pageopacity="0"
     inkscape:pageshadow="2"
     inkscape:window-width="1280"
     inkscape:window-height="738"
     id="namedview126"
     showgrid="false"
     inkscape:zoom="0.89535413"
     inkscape:cx="479.30498"
     inkscape:cy="-130.05013"
     inkscape:window-x="-8"
     inkscape:window-y="-8"
     inkscape:window-maximized="1"
     inkscape:current-layer="layer1" />
  <defs
     id="defs4326" />
  <metadata
     id="metadata4329">
    <rdf:RDF>
      <cc:Work
         rdf:about="">
        <dc:format>image/svg+xml</dc:format>
        <dc:type
           rdf:resource="http://purl.org/dc/dcmitype/StillImage" />
        <dc:title></dc:title>
      </cc:Work>
    </rdf:RDF>
  </metadata>
  <g
     id="layer1"
     transform="matrix(0.18837855,0,0,0.18837855,-0.06326492,-0.25262164)">
    <circle
       cx="897.83099"
       cy="1995.713"
       r="93.308998"
       transform="matrix(1.8000002,0,0,1.8000002,1.2358393,-816.90877)"
       id="circle11"
       style="fill:none;stroke:#7f7f7f;stroke-width:5"
       sodipodi:cx="897.83099"
       sodipodi:cy="1995.713"
       sodipodi:rx="93.308998"
       sodipodi:ry="93.308998"
       d="m 991.13999,1995.713 c 0,51.5331 -41.77586,93.309 -93.309,93.309 -51.53313,0 -93.30899,-41.7759 -93.30899,-93.309 0,-51.5331 41.77586,-93.309 93.30899,-93.309 51.53314,0 93.309,41.7759 93.309,93.309 z" />
    <circle
       cx="1585.009"
       cy="2063.3069"
       r="93.308998"
       transform="matrix(1.8000002,0,0,1.8000002,1.2358393,-816.90877)"
       id="circle13"
       style="fill:none;stroke:#7f7f7f;stroke-width:5"
       sodipodi:cx="1585.009"
       sodipodi:cy="2063.3069"
       sodipodi:rx="93.308998"
       sodipodi:ry="93.308998"
       d="m 1678.318,2063.3069 c 0,51.5331 -41.7758,93.309 -93.309,93.309 -51.5331,0 -93.309,-41.7759 -93.309,-93.309 0,-51.5332 41.7759,-93.309 93.309,-93.309 51.5332,0 93.309,41.7758 93.309,93.309 z" />
    <circle
       cx="898.58801"
       cy="2287.127"
       r="110.141"
       transform="matrix(1.8000002,0,0,1.8000002,1.2358393,-816.90877)"
       id="circle15"
       style="fill:none;stroke:#7f7f7f;stroke-width:5"
       sodipodi:cx="898.58801"
       sodipodi:cy="2287.127"
       sodipodi:rx="110.141"
       sodipodi:ry="110.141"
       d="m 1008.729,2287.127 c 0,60.8291 -49.31179,110.141 -110.14099,110.141 -60.82919,0 -110.141,-49.3119 -110.141,-110.141 0,-60.8292 49.31181,-110.141 110.141,-110.141 60.8292,0 110.14099,49.3118 110.14099,110.141 z" />
    <circle
       cx="869.883"
       cy="2660.2339"
       r="93.308998"
       transform="matrix(1.8000002,0,0,1.8000002,1.2358393,-816.90877)"
       id="circle17"
       style="fill:none;stroke:#7f7f7f;stroke-width:5"
       sodipodi:cx="869.883"
       sodipodi:cy="2660.2339"
       sodipodi:rx="93.308998"
       sodipodi:ry="93.308998"
       d="m 963.19199,2660.2339 c 0,51.5331 -41.77586,93.309 -93.30899,93.309 -51.53314,0 -93.309,-41.7759 -93.309,-93.309 0,-51.5331 41.77586,-93.309 93.309,-93.309 51.53313,0 93.30899,41.7759 93.30899,93.309 z" />
    <circle
       cx="1305.1331"
       cy="2335.333"
       r="93.308998"
       transform="matrix(1.8000002,0,0,1.8000002,1.2358393,-816.90877)"
       id="circle19"
       style="fill:none;stroke:#7f7f7f;stroke-width:5"
       sodipodi:cx="1305.1331"
       sodipodi:cy="2335.333"
       sodipodi:rx="93.308998"
       sodipodi:ry="93.308998"
       d="m 1398.4421,2335.333 c 0,51.5331 -41.7759,93.309 -93.309,93.309 -51.5332,0 -93.309,-41.7759 -93.309,-93.309 0,-51.5331 41.7758,-93.309 93.309,-93.309 51.5331,0 93.309,41.7759 93.309,93.309 z" />
    <circle
       cx="1146.634"
       cy="2494.4351"
       r="93.308998"
       transform="matrix(1.8000002,0,0,1.8000002,1.2358393,-816.90877)"
       id="circle21"
       style="fill:none;stroke:#7f7f7f;stroke-width:5"
       sodipodi:cx="1146.634"
       sodipodi:cy="2494.4351"
       sodipodi:rx="93.308998"
       sodipodi:ry="93.308998"
       d="m 1239.943,2494.4351 c 0,51.5331 -41.7758,93.309 -93.309,93.309 -51.5331,0 -93.309,-41.7759 -93.309,-93.309 0,-51.5332 41.7759,-93.309 93.309,-93.309 51.5332,0 93.309,41.7758 93.309,93.309 z" />
    <circle
       cx="1807.0601"
       cy="2327.325"
       r="93.309998"
       transform="matrix(1.8000002,0,0,1.8000002,1.2358393,-816.90877)"
       id="circle23"
       style="fill:none;stroke:#7f7f7f;stroke-width:5"
       sodipodi:cx="1807.0601"
       sodipodi:cy="2327.325"
       sodipodi:rx="93.309998"
       sodipodi:ry="93.309998"
       d="m 1900.3701,2327.325 c 0,51.5336 -41.7764,93.3099 -93.31,93.3099 -51.5337,0 -93.31,-41.7763 -93.31,-93.3099 0,-51.5337 41.7763,-93.31 93.31,-93.31 51.5336,0 93.31,41.7763 93.31,93.31 z" />
    <path
       d="m 1.2358393,1627.9649 55.0170037,18.1782 52.083007,15.5485 51.0606,10.4508 43.43941,6.6492 50.62142,2.2085 63.6786,-5.8085 60.597,-15.5197 70.4286,-21.4325 53.4744,-12.5478 51.093,-6.4782 39.807,-0.7218 39.789,3.7385 33.111,5.2615 33.39542,9.171 31.4046,8.829 22.50002,7.2 15.3,7.2 9,8.1 2.7,15.3 -0.9,15.3 -5.0112,8.676 -16.5888,16.524 -19.64882,14.5763 -31.3326,26.892 -31.75022,27.1567 -24.3684,19.5748 -18,24.3 -18,18.0002 -35.1,20.7 -49.5,14.4 -51.6132,8.8885 -70.6644,9.9378 -60.4224,9.9737 -61.0326,7.1065 -65.86742,8.1935 -57.38581,2.4785 -49.7142,-2.4785 -48.553203,-7.6392 -34.320608,-3.5353 -28.7261997,-5.6105 0,60.4333 54.8064037,8.5102 85.901407,10.08 92.57221,0.6698 89.99282,-6.0373 121.5342,-14.1047 62.946,-11.3563 52.047,-13.41 39.6,-18 21.6,-18 14.4,-25.2 45,-43.2 73.80004,-61.2 38.7396,-26.0065 65.6604,-31.5935 55.5282,-32.3532 48.8718,-30.6468 45.81358,-40.7737 49.5865,-38.4263 55.323,-32.033 56.277,-16.567 54.5381,-6.5845 55.8378,-2.8295 65.124,3.112 74.4121,14.8573 61.7471,25.8445 87.1723,51.5662 66.4884,54.648 61.3835,80.9605 32.778,67.725 46.6128,119.3995 32.8519,87.9985 23.454,46.9025 18.2575,31.4533 44.9386,48.2272 39.609,27.4193 57.3139,25.0722 28.881,4.6278 14.4,9 -9,12.6 -34.2,7.2 -39.1069,0.5292 -118.2401,12.7208 -109.2367,15.388 -112.1777,35.3232 -108.9019,61.2558 -99.4392,67.9717 -68.1984,58.329 -36.3257,46.9802 -30.7495,38.7215 -42.4098,20.916 -47.6982,8.7878 -89.2403,-0.1633 -102.97808,-8.3575 -78.8976,-14.6034 -79.659,-25.2701 -60.741,-32.3299 -63.20882,-42.5683 -121.05542,-82.35 -141.3108,-83.745 -140.6844,-80.1288 -100.74062,-56.808 -131.794213,-52.1135 -69.8058077,-19.1827 0,122.3857 100.5750107,30.6953 148.67823,62.3395 224.5014,128.115 200.079,128.6243 c 0,0 89.09824,57.3895 111.00964,69.9085 29.1186,16.641 86.6934,38.5904 86.6934,38.5904 l 76.1598,19.6541 59.63218,8.593 c 0,0 19.7118,3.4165 27.9936,6.8619 l 20.6263,13.1181 c 0,0 11.7,14.8054 13.6116,24.0914 l -4.5468,34.011 -17.1451,27.1151 -108.62458,99.6769 -102.0726,89.4745 -111.39482,99.1151 -101.88722,97.4754 -52.8966,62.2421 -48.06,74.4859 -24.1668,50.2056 -23.7438,67.23 -28.566,94.8959 -35.37,60.732 -45.3402,51.1345 -120.38942,56.6116 -90.55981,6.0464 -76.055403,-5.049 -78.7410077,-19.802 0.1008,232.839 103.6008107,-23.7095 104.66281,-16.3334 93.02222,-27.1295 109.9836,-53.6831 81.3762,-59.1824 70.0056,-113.1261 31.9302,-123.894 47.9736,-107.6619 51.58621,-70.0051 66.83583,-73.863 198.8766,-170.1 113.20028,-101.3995 105.8166,-122.5334 113.9057,-139.6241 79.2306,-90.1655 111.8629,-107.5034 91.9871,-64.7298 55.0566,-26.282 97.8589,-33.282 144,-34.6608 132.6528,-22.3345 147.015,-23.9092 125.6257,-11.727 68.551,-6.4873 77.661,-8.613 110.0213,-7.5817 108,-5.4 108,-7.2 111.6,-18 98.7014,-25.875 106.4986,-20.9248 93.6,-14.4 100.8,-10.8 103.2715,13.302 76.7285,26.298 68.4,46.8 45,55.8 30.6,77.4 21.6,115.2001 10.8,82.8 -3.6,90 -32.4,212.4 -41.4,165.6 -22.426,139.7054 -8.174,119.4946 14.4,118.8 28.8,165.6 52.8014,193.8009 37.1986,144.5991 29.639,162.886 11.9269,162.988 8.7261,247.707 13.257,230.7385 9.8785,56.43 23.7725,78.8509 43.2,64.8 62.901,40.356 110.2214,33.4152 78.8776,37.8288 52.238,55.8665 53.3629,90.9145 63.5056,131.587 45.567,94.9015 80.4385,154.5857 93.193,138.3858 60.1814,53.9892 102.0941,52.0238 189.6336,74.1545 0,-154.5013 -148.9661,-60.8237 -74.7846,-39.7835 -64.4454,-74.8693 -53.109,-87.4405 -56.8135,-106.0775 -65.0465,-132.5627 -72.72,-165.044 -41.4775,-68.8463 -54.2446,-58.9247 -63.234,-37.7408 -99.4719,-32.481 -53.7046,-17.2962 -49.1654,-42.019 -12.1281,-38.7074 -14.2364,-90.8856 -7.4105,-136.3085 -14.814,-165.8469 -24.842,-308.2496 -14.4,-108.0004 -18,-100.8 -18,-86.4 -21.6,-68.4 -25.2,-86.4 -32.4,-147.6 -25.2,-169.2 12.6,-144 27,-136.8 44.7734,-143.2061 29.3796,-123.5054 19.447,-96.8885 10.8,-133.2 -19.1285,-130.6981 -27.6715,-106.902 -47.9285,-94.698 -70.8715,-85.302 -83.9285,-58.698 -92.4715,-38.502 -94.7285,-19.098 -128.4715,-6.102 -140.4,21.6 -90,25.2 -90,36 -104.4,25.2 -104.4,14.4 -104.4,10.8 -108.8908,9.0865 -100.9675,4.3415 -74.4047,1.1773 -70.4737,-4.2535 -68.7221,-8.5283 -65.1095,-10.2457 -41.94,-10.3373 -39.9224,-19.3122 -30.8716,-22.032 -27.27,-25.4485 -34.256,-41.5223 -25.7147,-39.872 -48.0007,-102.2002 -30.2471,-80.73 -30.9132,-76.6603 -86.8428,-135.569 -76.401,-66.5225 -98.0335,-52.9542 -90.5634,-28.1593 -74.0357,-12.5117 -65.2195,-3.1463 -63.1872,-1.9422 -46.0008,0.4535 -51.8561,-3.3173 -46.1466,-4.302 -48.4093,-11.8927 -57.26158,-15.5593 -67.5378,-18.0395 -78.3846,-14.4883 -60.2712,-4.4297 -56.84042,3.7332 -83.55062,15.1831 -60.4422,-1.8433 -55.4526,-9.6445 -49.4064,-18.1565 -104.3136,-30.3138 -197.73362,-27.2592 -131.005817,-4.5055 -48.9996037,1.649 0,332.3483 z M 723.5579,1481.6626 l -8.622,20.729 -20.70001,23.4 -26.10001,18.9 -33.3,13.8005 -24.597,1.9908 -30.303,-2.2913 -35.1,0 -39.5658,6.5628 -73.8342,13.2372 -84.6,9 -107.39342,-6.291 -83.40661,-22.509 -50.6808,-32.2272 -40.737603,-25.7058 -38.700008,-33.3 -9.899999,-18 1.799999,-19.8 11.7,-18 24.667204,-10.3572 36.151204,-8.2098 47.464203,-7.1785 80.66161,-7.6895 71.67422,3.168 74.295,11.7215 71.505,15.2785 66.6108,23.5385 53.0892,16.0615 46.107,8.316 42.993,-0.215 38.7,-4.5 18.00002,0 9.6534,1.177 6.6078,2.783 4.869,4.869 2.2698,7.371 -1.278,14.371 z m 302.9976,60.077 -14.6196,11.952 -26.09998,14.4 -18,20.7 -28.8,21.6 -48.6,17.1 -48.6,4.5 -42.597,-5.1642 -32.7978,-19.7533 -22.08602,-25.7202 -5.1192,-20.4623 0.7668,-22.547 4.6332,-23.353 8.53742,-22.5865 23.8626,-25.1135 29.3778,-13.3507 36.8892,-5.4305 39.7674,2.9682 32.4432,4.8383 31.6206,6.4765 38.7,11.7 32.39998,16.2 10.8,8.1 5.4,11.7 -0.9,17.1 -6.9786,14.1462 z"
       id="path25"
       style="fill:#eefbff;stroke:#7f7f7f;stroke-width:1.80000007"
       inkscape:connector-curvature="0" />
    <g
       transform="matrix(2.5,0,0,2.5,1.5858393,-1148.7603)"
       id="g29">
      <line
         style="fill:none;stroke:#de0000;stroke-width:14.40000057"
         x1="1403.5576"
         y1="488.68625"
         x2="1403.5576"
         y2="632.35217"
         id="line31" />
      <line
         style="fill:none;stroke:#de0000;stroke-width:14.40000057"
         x1="1404.4008"
         y1="632.35217"
         x2="1220.4493"
         y2="817.28564"
         id="line33" />
      <line
         style="fill:none;stroke:#de0000;stroke-width:14.40000057"
         x1="1220.4493"
         y1="817.28564"
         x2="1220.4493"
         y2="928.29163"
         id="line35" />
      <line
         style="fill:none;stroke:#de0000;stroke-width:14.40000057"
         x1="1220.4493"
         y1="928.29163"
         x2="1118.588"
         y2="1030.153"
         id="line37" />
      <line
         style="fill:none;stroke:#de0000;stroke-width:14.40000057"
         x1="1118.588"
         y1="1030.153"
         x2="1118.588"
         y2="1596.4258"
         id="line39" />
      <line
         style="fill:none;stroke:#de0000;stroke-width:14.40000057"
         x1="1118.588"
         y1="1596.4258"
         x2="355.67969"
         y2="2359.3347"
         id="line41" />
      <line
         style="fill:none;stroke:#de0000;stroke-width:14.68669033"
         x1="355.67969"
         y1="2359.3347"
         x2="355.67969"
         y2="2653.3818"
         id="line43" />
    </g>
    <g
       transform="matrix(1.8000002,0,0,1.8000002,1.2358393,-816.90877)"
       id="g47">
      <line
         style="fill:none;stroke:#2778c9;stroke-width:20"
         x1="1146.9871"
         y1="492.26401"
         x2="901.98297"
         y2="737.26898"
         id="line49" />
      <line
         style="fill:none;stroke:#2778c9;stroke-width:20"
         x1="901.98297"
         y1="737.26898"
         x2="901.98297"
         y2="857.15198"
         id="line51" />
      <line
         style="fill:none;stroke:#2778c9;stroke-width:20"
         x1="901.98297"
         y1="857.15198"
         x2="758.27802"
         y2="1000.858"
         id="line53" />
      <line
         style="fill:none;stroke:#2778c9;stroke-width:20"
         x1="758.27802"
         y1="1000.858"
         x2="758.27802"
         y2="1482.063"
         id="line55" />
      <line
         style="fill:none;stroke:#2778c9;stroke-width:20"
         x1="745.37299"
         y1="1482.063"
         x2="898.15198"
         y2="1634.843"
         id="line57" />
      <line
         style="fill:none;stroke:#2778c9;stroke-width:20"
         x1="898.15198"
         y1="1634.843"
         x2="898.15198"
         y2="2248.271"
         id="line59" />
      <line
         style="fill:none;stroke:#2778c9;stroke-width:20"
         x1="898.15198"
         y1="2248.271"
         x2="838.82098"
         y2="2307.6021"
         id="line61" />
      <line
         style="fill:none;stroke:#2778c9;stroke-width:20"
         x1="838.82098"
         y1="2307.6021"
         x2="838.82098"
         y2="2627.1479"
         id="line63" />
      <line
         style="fill:none;stroke:#2778c9;stroke-width:20"
         x1="838.82098"
         y1="2627.1479"
         x2="896.94501"
         y2="2685.272"
         id="line65" />
      <line
         style="fill:none;stroke:#2778c9;stroke-width:20"
         x1="906.68103"
         y1="2699.2439"
         x2="906.68103"
         y2="3460.2129"
         id="line67" />
      <line
         style="fill:none;stroke:#2778c9;stroke-width:20"
         x1="906.68103"
         y1="3460.2129"
         x2="1141.87"
         y2="3695.4021"
         id="line69" />
    </g>
    <g
       transform="matrix(1.8000002,0,0,1.8000002,1.2358393,-816.90877)"
       id="g71">
      <line
         style="fill:none;stroke:#b840c9;stroke-width:20"
         x1="272.26801"
         y1="966.15997"
         x2="272.26801"
         y2="1429.917"
         id="line73" />
      <line
         style="fill:none;stroke:#b840c9;stroke-width:20"
         x1="272.26801"
         y1="1429.917"
         x2="455.30801"
         y2="1612.895"
         id="line75" />
      <line
         style="fill:none;stroke:#b840c9;stroke-width:20"
         x1="455.30801"
         y1="1612.895"
         x2="455.30801"
         y2="1803.0341"
         id="line77" />
      <line
         style="fill:none;stroke:#b840c9;stroke-width:20"
         x1="455.30801"
         y1="1803.0341"
         x2="1424.449"
         y2="2772.176"
         id="line79" />
      <line
         style="fill:none;stroke:#b840c9;stroke-width:20"
         x1="1424.449"
         y1="2772.176"
         x2="1424.449"
         y2="3009.8359"
         id="line81" />
    </g>
    <g
       transform="matrix(1.8000002,0,0,1.8000002,1.2358393,-816.90877)"
       id="g83">
      <line
         style="fill:none;stroke:#029302;stroke-width:20"
         x1="228.67999"
         y1="1934.293"
         x2="325.556"
         y2="2031.1689"
         id="line85" />
      <line
         style="fill:none;stroke:#029302;stroke-width:20"
         x1="325.556"
         y1="2031.1689"
         x2="1553.7889"
         y2="2031.1689"
         id="line87" />
      <line
         style="fill:none;stroke:#029302;stroke-width:20"
         x1="1553.7889"
         y1="2031.1689"
         x2="1807.588"
         y2="2284.968"
         id="line89" />
      <line
         style="fill:none;stroke:#029302;stroke-width:21.46278954"
         x1="1807.588"
         y1="2284.968"
         x2="1807.588"
         y2="3106.3406"
         id="line91" />
      <line
         style="fill:none;stroke:#029302;stroke-width:20"
         x1="1794.248"
         y1="3109.3618"
         x2="1955.7461"
         y2="3270.8599"
         id="line93" />
      <line
         style="fill:none;stroke:#029302;stroke-width:20"
         x1="1957.2283"
         y1="3270.8599"
         x2="1957.2283"
         y2="3458.9968"
         id="line95" />
    </g>
    <g
       transform="matrix(1.8000002,0,0,1.8000002,-16.583253,-816.90877)"
       id="g97">
      <line
         style="fill:none;stroke:#ffb000;stroke-width:20"
         x1="961.20203"
         y1="2309.5291"
         x2="1276.967"
         y2="2309.5291"
         id="line99" />
      <line
         style="fill:none;stroke:#ffb000;stroke-width:20"
         x1="1276.967"
         y1="2305.5291"
         x2="1572.74"
         y2="2601.303"
         id="line101" />
      <line
         style="fill:none;stroke:#ffb000;stroke-width:20"
         x1="1572.74"
         y1="2608.303"
         x2="1803.743"
         y2="2377.3"
         id="line103" />
      <line
         style="fill:none;stroke:#ffb000;stroke-width:18.68108368"
         x1="1803.743"
         y1="2378.041"
         x2="2450.7898"
         y2="2378.041"
         id="line105" />
      <line
         style="fill:none;stroke:#ffb000;stroke-width:18.23719597"
         x1="2616.8782"
         y1="2539.3289"
         x2="2616.8782"
         y2="2989.1289"
         id="line109" />
      <line
         style="fill:none;stroke:#ffb000;stroke-width:14.68067074"
         x1="2619.1787"
         y1="2550.7095"
         x2="2454.0029"
         y2="2376.6404"
         id="line103-1" />
    </g>
    <circle
       cx="2128.2141"
       cy="2377.3"
       r="30.681"
       transform="matrix(1.8000002,0,0,1.8000002,569.88768,-816.90877)"
       id="circle133"
       style="fill:#ffffff;stroke:#ffb000;stroke-width:10"
       sodipodi:cx="2128.2141"
       sodipodi:cy="2377.3"
       sodipodi:rx="30.681"
       sodipodi:ry="30.681"
       d="m 2158.8951,2377.3 c 0,16.9447 -13.7363,30.681 -30.681,30.681 -16.9446,0 -30.681,-13.7363 -30.681,-30.681 0,-16.9446 13.7364,-30.681 30.681,-30.681 16.9447,0 30.681,13.7364 30.681,30.681 z" />
    <circle
       cx="1808.0601"
       cy="2375.762"
       r="35.456001"
       transform="matrix(1.8000002,0,0,1.8000002,1.2358393,-816.90877)"
       id="circle135"
       style="fill:#ffb000"
       sodipodi:cx="1808.0601"
       sodipodi:cy="2375.762"
       sodipodi:rx="35.456001"
       sodipodi:ry="35.456001"
       d="m 1843.5161,2375.762 c 0,19.5818 -15.8742,35.456 -35.456,35.456 -19.5819,0 -35.456,-15.8742 -35.456,-35.456 0,-19.5818 15.8741,-35.456 35.456,-35.456 19.5818,0 35.456,15.8742 35.456,35.456 z" />
    <circle
       cx="2265.1831"
       cy="2509.1189"
       r="30.681"
       transform="matrix(1.8000002,0,0,1.8000002,610.51982,-752.87677)"
       id="circle137"
       style="fill:#ffffff;stroke:#ffb000;stroke-width:10"
       sodipodi:cx="2265.1831"
       sodipodi:cy="2509.1189"
       sodipodi:rx="30.681"
       sodipodi:ry="30.681"
       d="m 2295.8641,2509.1189 c 0,16.9446 -13.7363,30.681 -30.681,30.681 -16.9446,0 -30.681,-13.7364 -30.681,-30.681 0,-16.9447 13.7364,-30.681 30.681,-30.681 16.9447,0 30.681,13.7363 30.681,30.681 z" />
    <circle
       cx="2264.8501"
       cy="2744.877"
       r="30.681"
       transform="matrix(1.8000002,0,0,1.8000002,615.85582,-763.54877)"
       id="circle139"
       style="fill:#ffffff;stroke:#ffb000;stroke-width:10"
       sodipodi:cx="2264.8501"
       sodipodi:cy="2744.877"
       sodipodi:rx="30.681"
       sodipodi:ry="30.681"
       d="m 2295.5311,2744.877 c 0,16.9446 -13.7364,30.681 -30.681,30.681 -16.9447,0 -30.681,-13.7364 -30.681,-30.681 0,-16.9447 13.7363,-30.681 30.681,-30.681 16.9446,0 30.681,13.7363 30.681,30.681 z" />
    <circle
       cx="2264.8501"
       cy="2967.48"
       r="30.681"
       transform="matrix(1.8000002,0,0,1.8000002,613.18782,-776.88877)"
       id="circle141"
       style="fill:#ffffff;stroke:#ffb000;stroke-width:10"
       sodipodi:cx="2264.8501"
       sodipodi:cy="2967.48"
       sodipodi:rx="30.681"
       sodipodi:ry="30.681"
       d="m 2295.5311,2967.48 c 0,16.9446 -13.7364,30.681 -30.681,30.681 -16.9447,0 -30.681,-13.7364 -30.681,-30.681 0,-16.9447 13.7363,-30.681 30.681,-30.681 16.9446,0 30.681,13.7363 30.681,30.681 z" />
    <circle
       cx="960.34998"
       cy="2308.5291"
       r="35.456001"
       transform="matrix(1.8000002,0,0,1.8000002,1.2358393,-816.90877)"
       id="circle143"
       style="fill:#ffb000"
       sodipodi:cx="960.34998"
       sodipodi:cy="2308.5291"
       sodipodi:rx="35.456001"
       sodipodi:ry="35.456001"
       d="m 995.80598,2308.5291 c 0,19.5818 -15.8742,35.456 -35.456,35.456 -19.58181,0 -35.45601,-15.8742 -35.45601,-35.456 0,-19.5819 15.8742,-35.456 35.45601,-35.456 19.5818,0 35.456,15.8741 35.456,35.456 z" />
    <circle
       cx="1334.541"
       cy="2362.781"
       r="35.456001"
       transform="matrix(1.8000002,0,0,1.8000002,1.2358393,-816.90877)"
       id="circle145"
       style="fill:#ffb000"
       sodipodi:cx="1334.541"
       sodipodi:cy="2362.781"
       sodipodi:rx="35.456001"
       sodipodi:ry="35.456001"
       d="m 1369.997,2362.781 c 0,19.5818 -15.8742,35.456 -35.456,35.456 -19.5818,0 -35.456,-15.8742 -35.456,-35.456 0,-19.5818 15.8742,-35.456 35.456,-35.456 19.5818,0 35.456,15.8742 35.456,35.456 z" />
    <circle
       cx="1572.537"
       cy="2597.8611"
       r="30.681"
       transform="matrix(1.8000002,0,0,1.8000002,1.2358393,-816.90877)"
       id="circle147"
       style="fill:#ffffff;stroke:#ffb000;stroke-width:10"
       sodipodi:cx="1572.537"
       sodipodi:cy="2597.8611"
       sodipodi:rx="30.681"
       sodipodi:ry="30.681"
       d="m 1603.218,2597.8611 c 0,16.9446 -13.7364,30.681 -30.681,30.681 -16.9447,0 -30.681,-13.7364 -30.681,-30.681 0,-16.9447 13.7363,-30.681 30.681,-30.681 16.9446,0 30.681,13.7363 30.681,30.681 z" />
    <circle
       cx="1552.74"
       cy="1857.198"
       r="30.681"
       transform="matrix(1.8000002,0,0,1.8000002,1.2358393,-816.90877)"
       id="circle149"
       style="fill:#ffffff;stroke:#de0000;stroke-width:10"
       sodipodi:cx="1552.74"
       sodipodi:cy="1857.198"
       sodipodi:rx="30.681"
       sodipodi:ry="30.681"
       d="m 1583.421,1857.198 c 0,16.9446 -13.7364,30.681 -30.681,30.681 -16.9447,0 -30.681,-13.7364 -30.681,-30.681 0,-16.9447 13.7363,-30.681 30.681,-30.681 16.9446,0 30.681,13.7363 30.681,30.681 z" />
    <circle
       cx="1552.74"
       cy="2032.39"
       r="35.456001"
       transform="matrix(1.8000002,0,0,1.8000002,1.2358393,-816.90877)"
       id="circle151"
       style="fill:#de0000"
       sodipodi:cx="1552.74"
       sodipodi:cy="2032.39"
       sodipodi:rx="35.456001"
       sodipodi:ry="35.456001"
       d="m 1588.196,2032.39 c 0,19.5818 -15.8742,35.456 -35.456,35.456 -19.5818,0 -35.456,-15.8742 -35.456,-35.456 0,-19.5818 15.8742,-35.456 35.456,-35.456 19.5818,0 35.456,15.8742 35.456,35.456 z" />
    <circle
       cx="1275.967"
       cy="2311.2561"
       r="35.456001"
       transform="matrix(1.8000002,0,0,1.8000002,1.2358393,-816.90877)"
       id="circle153"
       style="fill:#de0000"
       sodipodi:cx="1275.967"
       sodipodi:cy="2311.2561"
       sodipodi:rx="35.456001"
       sodipodi:ry="35.456001"
       d="m 1311.423,2311.2561 c 0,19.5818 -15.8742,35.456 -35.456,35.456 -19.5818,0 -35.456,-15.8742 -35.456,-35.456 0,-19.5818 15.8742,-35.456 35.456,-35.456 19.5818,0 35.456,15.8742 35.456,35.456 z" />
    <circle
       cx="1119.092"
       cy="2467.375"
       r="35.456001"
       transform="matrix(1.8000002,0,0,1.8000002,1.2358393,-816.90877)"
       id="circle155"
       style="fill:#de0000"
       sodipodi:cx="1119.092"
       sodipodi:cy="2467.375"
       sodipodi:rx="35.456001"
       sodipodi:ry="35.456001"
       d="m 1154.548,2467.375 c 0,19.5818 -15.8742,35.456 -35.456,35.456 -19.5818,0 -35.456,-15.8742 -35.456,-35.456 0,-19.5818 15.8742,-35.456 35.456,-35.456 19.5818,0 35.456,15.8742 35.456,35.456 z" />
    <circle
       cx="901.83002"
       cy="2689.259"
       r="35.456001"
       transform="matrix(1.8000002,0,0,1.8000002,1.2358393,-816.90877)"
       id="circle157"
       style="fill:#de0000"
       sodipodi:cx="901.83002"
       sodipodi:cy="2689.259"
       sodipodi:rx="35.456001"
       sodipodi:ry="35.456001"
       d="m 937.28602,2689.259 c 0,19.5818 -15.87419,35.456 -35.456,35.456 -19.58181,0 -35.456,-15.8742 -35.456,-35.456 0,-19.5818 15.87419,-35.456 35.456,-35.456 19.58181,0 35.456,15.8742 35.456,35.456 z" />
    <circle
       cx="1553.387"
       cy="1539.285"
       r="30.681"
       transform="matrix(1.8000002,0,0,1.8000002,1.2358393,-816.90877)"
       id="circle159"
       style="fill:#ffffff;stroke:#de0000;stroke-width:10"
       sodipodi:cx="1553.387"
       sodipodi:cy="1539.285"
       sodipodi:rx="30.681"
       sodipodi:ry="30.681"
       d="m 1584.068,1539.285 c 0,16.9447 -13.7364,30.681 -30.681,30.681 -16.9447,0 -30.681,-13.7363 -30.681,-30.681 0,-16.9446 13.7363,-30.681 30.681,-30.681 16.9446,0 30.681,13.7364 30.681,30.681 z" />
    <circle
       cx="1553.387"
       cy="1393.306"
       r="30.681"
       transform="matrix(1.8000002,0,0,1.8000002,1.2358393,-816.90877)"
       id="circle161"
       style="fill:#ffffff;stroke:#de0000;stroke-width:10"
       sodipodi:cx="1553.387"
       sodipodi:cy="1393.306"
       sodipodi:rx="30.681"
       sodipodi:ry="30.681"
       d="m 1584.068,1393.306 c 0,16.9447 -13.7364,30.681 -30.681,30.681 -16.9447,0 -30.681,-13.7363 -30.681,-30.681 0,-16.9446 13.7363,-30.681 30.681,-30.681 16.9446,0 30.681,13.7364 30.681,30.681 z" />
    <circle
       cx="1552.74"
       cy="1248.895"
       r="30.681"
       transform="matrix(1.8000002,0,0,1.8000002,1.2358393,-816.90877)"
       id="circle163"
       style="fill:#ffffff;stroke:#de0000;stroke-width:10"
       sodipodi:cx="1552.74"
       sodipodi:cy="1248.895"
       sodipodi:rx="30.681"
       sodipodi:ry="30.681"
       d="m 1583.421,1248.895 c 0,16.9447 -13.7364,30.681 -30.681,30.681 -16.9447,0 -30.681,-13.7363 -30.681,-30.681 0,-16.9446 13.7363,-30.681 30.681,-30.681 16.9446,0 30.681,13.7364 30.681,30.681 z" />
    <circle
       cx="1949.58"
       cy="498.37399"
       r="30.681"
       transform="matrix(1.8000002,0,0,1.8000002,1.2358393,-816.90877)"
       id="circle165"
       style="fill:#ffffff;stroke:#de0000;stroke-width:10"
       sodipodi:cx="1949.58"
       sodipodi:cy="498.37399"
       sodipodi:rx="30.681"
       sodipodi:ry="30.681"
       d="m 1980.261,498.37399 c 0,16.94465 -13.7364,30.681 -30.681,30.681 -16.9447,0 -30.681,-13.73635 -30.681,-30.681 0,-16.94465 13.7363,-30.681 30.681,-30.681 16.9446,0 30.681,13.73635 30.681,30.681 z" />
    <circle
       cx="1695.2629"
       cy="1103.115"
       r="30.681"
       transform="matrix(1.8000002,0,0,1.8000002,1.2358393,-816.90877)"
       id="circle167"
       style="fill:#ffffff;stroke:#de0000;stroke-width:10"
       sodipodi:cx="1695.2629"
       sodipodi:cy="1103.115"
       sodipodi:rx="30.681"
       sodipodi:ry="30.681"
       d="m 1725.9439,1103.115 c 0,16.9446 -13.7363,30.681 -30.681,30.681 -16.9446,0 -30.681,-13.7364 -30.681,-30.681 0,-16.9447 13.7364,-30.681 30.681,-30.681 16.9447,0 30.681,13.7363 30.681,30.681 z" />
    <circle
       cx="1695.431"
       cy="950.79602"
       r="30.681"
       transform="matrix(1.8000002,0,0,1.8000002,1.2358393,-816.90877)"
       id="circle169"
       style="fill:#ffffff;stroke:#de0000;stroke-width:10"
       sodipodi:cx="1695.431"
       sodipodi:cy="950.79602"
       sodipodi:rx="30.681"
       sodipodi:ry="30.681"
       d="m 1726.112,950.79602 c 0,16.94465 -13.7363,30.681 -30.681,30.681 -16.9446,0 -30.681,-13.73635 -30.681,-30.681 0,-16.94465 13.7364,-30.681 30.681,-30.681 16.9447,0 30.681,13.73635 30.681,30.681 z" />
    <circle
       cx="1825.825"
       cy="818.92603"
       r="30.681"
       transform="matrix(1.8000002,0,0,1.8000002,1.2358393,-816.90877)"
       id="circle171"
       style="fill:#ffffff;stroke:#de0000;stroke-width:10"
       sodipodi:cx="1825.825"
       sodipodi:cy="818.92603"
       sodipodi:rx="30.681"
       sodipodi:ry="30.681"
       d="m 1856.506,818.92603 c 0,16.94464 -13.7364,30.681 -30.681,30.681 -16.9447,0 -30.681,-13.73636 -30.681,-30.681 0,-16.94465 13.7363,-30.681 30.681,-30.681 16.9446,0 30.681,13.73635 30.681,30.681 z" />
    <circle
       cx="1949.771"
       cy="695.47699"
       r="30.681"
       transform="matrix(1.8000002,0,0,1.8000002,1.2358393,-816.90877)"
       id="circle173"
       style="fill:#ffffff;stroke:#de0000;stroke-width:10"
       sodipodi:cx="1949.771"
       sodipodi:cy="695.47699"
       sodipodi:rx="30.681"
       sodipodi:ry="30.681"
       d="m 1980.452,695.47699 c 0,16.94465 -13.7364,30.681 -30.681,30.681 -16.9447,0 -30.681,-13.73635 -30.681,-30.681 0,-16.94465 13.7363,-30.681 30.681,-30.681 16.9446,0 30.681,13.73635 30.681,30.681 z" />
    <circle
       cx="493.56"
       cy="3485.1021"
       r="30.681"
       transform="matrix(1.8000002,0,0,1.8000002,0.30384212,-1021.129)"
       id="circle177"
       style="fill:#ffffff;stroke:#de0000;stroke-width:10"
       sodipodi:cx="493.56"
       sodipodi:cy="3485.1021"
       sodipodi:rx="30.681"
       sodipodi:ry="30.681"
       d="m 524.241,3485.1021 c 0,16.9446 -13.73635,30.681 -30.681,30.681 -16.94465,0 -30.681,-13.7364 -30.681,-30.681 0,-16.9447 13.73635,-30.681 30.681,-30.681 16.94465,0 30.681,13.7363 30.681,30.681 z" />
    <circle
       cx="494.194"
       cy="3287.6599"
       r="30.681"
       transform="matrix(1.8000002,0,0,1.8000002,-3.9777481,-928.45297)"
       id="circle179"
       style="fill:#ffffff;stroke:#de0000;stroke-width:10"
       sodipodi:cx="494.194"
       sodipodi:cy="3287.6599"
       sodipodi:rx="30.681"
       sodipodi:ry="30.681"
       d="m 524.875,3287.6599 c 0,16.9447 -13.73635,30.681 -30.681,30.681 -16.94465,0 -30.681,-13.7363 -30.681,-30.681 0,-16.9446 13.73635,-30.681 30.681,-30.681 16.94465,0 30.681,13.7364 30.681,30.681 z" />
    <circle
       cx="753.12903"
       cy="2833.4319"
       r="30.681"
       transform="matrix(1.8000002,0,0,1.8000002,1.2358393,-816.90877)"
       id="circle181"
       style="fill:#ffffff;stroke:#de0000;stroke-width:10"
       sodipodi:cx="753.12903"
       sodipodi:cy="2833.4319"
       sodipodi:rx="30.681"
       sodipodi:ry="30.681"
       d="m 783.81003,2833.4319 c 0,16.9446 -13.73635,30.681 -30.681,30.681 -16.94465,0 -30.681,-13.7364 -30.681,-30.681 0,-16.9447 13.73635,-30.681 30.681,-30.681 16.94465,0 30.681,13.7363 30.681,30.681 z" />
    <circle
       cx="494.194"
       cy="3091.4919"
       r="30.681"
       transform="matrix(1.8000002,0,0,1.8000002,1.2358393,-816.90877)"
       id="circle183"
       style="fill:#ffffff;stroke:#de0000;stroke-width:10"
       sodipodi:cx="494.194"
       sodipodi:cy="3091.4919"
       sodipodi:rx="30.681"
       sodipodi:ry="30.681"
       d="m 524.875,3091.4919 c 0,16.9447 -13.73635,30.681 -30.681,30.681 -16.94465,0 -30.681,-13.7363 -30.681,-30.681 0,-16.9446 13.73635,-30.681 30.681,-30.681 16.94465,0 30.681,13.7364 30.681,30.681 z" />
    <circle
       cx="623.12"
       cy="2963.4409"
       r="30.681"
       transform="matrix(1.8000002,0,0,1.8000002,1.2358393,-816.90877)"
       id="circle185"
       style="fill:#ffffff;stroke:#de0000;stroke-width:10"
       sodipodi:cx="623.12"
       sodipodi:cy="2963.4409"
       sodipodi:rx="30.681"
       sodipodi:ry="30.681"
       d="m 653.80099,2963.4409 c 0,16.9447 -13.73635,30.681 -30.68099,30.681 -16.94465,0 -30.681,-13.7363 -30.681,-30.681 0,-16.9446 13.73635,-30.681 30.681,-30.681 16.94464,0 30.68099,13.7364 30.68099,30.681 z" />
    <circle
       cx="898.15198"
       cy="1636.501"
       r="30.681"
       transform="matrix(1.8000002,0,0,1.8000002,1.2358393,-816.90877)"
       id="circle187"
       style="fill:#ffffff;stroke:#2778c9;stroke-width:10"
       sodipodi:cx="898.15198"
       sodipodi:cy="1636.501"
       sodipodi:rx="30.681"
       sodipodi:ry="30.681"
       d="m 928.83298,1636.501 c 0,16.9446 -13.73635,30.681 -30.681,30.681 -16.94465,0 -30.681,-13.7364 -30.681,-30.681 0,-16.9447 13.73635,-30.681 30.681,-30.681 16.94465,0 30.681,13.7363 30.681,30.681 z" />
    <circle
       cx="898.15198"
       cy="1951.2791"
       r="35.456001"
       transform="matrix(1.8000002,0,0,1.8000002,1.2358393,-816.90877)"
       id="circle189"
       style="fill:#2778c9"
       sodipodi:cx="898.15198"
       sodipodi:cy="1951.2791"
       sodipodi:rx="35.456001"
       sodipodi:ry="35.456001"
       d="m 933.60798,1951.2791 c 0,19.5818 -15.87419,35.456 -35.456,35.456 -19.58181,0 -35.456,-15.8742 -35.456,-35.456 0,-19.5819 15.87419,-35.456 35.456,-35.456 19.58181,0 35.456,15.8741 35.456,35.456 z" />
    <circle
       cx="838.82098"
       cy="2307.2271"
       r="35.456001"
       transform="matrix(1.8000002,0,0,1.8000002,1.2358393,-816.90877)"
       id="circle191"
       style="fill:#2778c9"
       sodipodi:cx="838.82098"
       sodipodi:cy="2307.2271"
       sodipodi:rx="35.456001"
       sodipodi:ry="35.456001"
       d="m 874.27699,2307.2271 c 0,19.5818 -15.8742,35.456 -35.45601,35.456 -19.5818,0 -35.456,-15.8742 -35.456,-35.456 0,-19.5819 15.8742,-35.4561 35.456,-35.4561 19.58181,0 35.45601,15.8742 35.45601,35.4561 z" />
    <circle
       cx="839.15198"
       cy="2627.1479"
       r="35.456001"
       transform="matrix(1.8000002,0,0,1.8000002,1.2358393,-816.90877)"
       id="circle193"
       style="fill:#2778c9"
       sodipodi:cx="839.15198"
       sodipodi:cy="2627.1479"
       sodipodi:rx="35.456001"
       sodipodi:ry="35.456001"
       d="m 874.60798,2627.1479 c 0,19.5819 -15.87419,35.4561 -35.456,35.4561 -19.58181,0 -35.456,-15.8742 -35.456,-35.4561 0,-19.5818 15.87419,-35.456 35.456,-35.456 19.58181,0 35.456,15.8742 35.456,35.456 z" />
    <circle
       cx="758.27802"
       cy="1494.063"
       r="30.681"
       transform="matrix(1.8000002,0,0,1.8000002,1.2358393,-816.90877)"
       id="circle195"
       style="fill:#ffffff;stroke:#2778c9;stroke-width:10"
       sodipodi:cx="758.27802"
       sodipodi:cy="1494.063"
       sodipodi:rx="30.681"
       sodipodi:ry="30.681"
       d="m 788.95901,1494.063 c 0,16.9446 -13.73635,30.681 -30.68099,30.681 -16.94465,0 -30.681,-13.7364 -30.681,-30.681 0,-16.9447 13.73635,-30.681 30.681,-30.681 16.94464,0 30.68099,13.7363 30.68099,30.681 z" />
    <circle
       cx="758.27802"
       cy="1161.157"
       r="30.681"
       transform="matrix(1.8000002,0,0,1.8000002,1.2358393,-816.90877)"
       id="circle197"
       style="fill:#ffffff;stroke:#2778c9;stroke-width:10"
       sodipodi:cx="758.27802"
       sodipodi:cy="1161.157"
       sodipodi:rx="30.681"
       sodipodi:ry="30.681"
       d="m 788.95901,1161.157 c 0,16.9446 -13.73635,30.681 -30.68099,30.681 -16.94465,0 -30.681,-13.7364 -30.681,-30.681 0,-16.9447 13.73635,-30.681 30.681,-30.681 16.94464,0 30.68099,13.7363 30.68099,30.681 z" />
    <circle
       cx="758.27802"
       cy="1001.14"
       r="30.681"
       transform="matrix(1.8000002,0,0,1.8000002,1.2358393,-816.90877)"
       id="circle199"
       style="fill:#ffffff;stroke:#2778c9;stroke-width:10"
       sodipodi:cx="758.27802"
       sodipodi:cy="1001.14"
       sodipodi:rx="30.681"
       sodipodi:ry="30.681"
       d="m 788.95901,1001.14 c 0,16.9447 -13.73635,30.681 -30.68099,30.681 -16.94465,0 -30.681,-13.7363 -30.681,-30.681 0,-16.94463 13.73635,-30.68099 30.681,-30.68099 16.94464,0 30.68099,13.73636 30.68099,30.68099 z" />
    <circle
       cx="901.98297"
       cy="857.474"
       r="30.681"
       transform="matrix(1.8000002,0,0,1.8000002,1.2358393,-816.90877)"
       id="circle201"
       style="fill:#ffffff;stroke:#2778c9;stroke-width:10"
       sodipodi:cx="901.98297"
       sodipodi:cy="857.474"
       sodipodi:rx="30.681"
       sodipodi:ry="30.681"
       d="m 932.66397,857.474 c 0,16.94465 -13.73635,30.681 -30.681,30.681 -16.94465,0 -30.681,-13.73635 -30.681,-30.681 0,-16.94465 13.73635,-30.681 30.681,-30.681 16.94465,0 30.681,13.73635 30.681,30.681 z" />
    <circle
       cx="901.98297"
       cy="736.64398"
       r="30.681"
       transform="matrix(1.8000002,0,0,1.8000002,1.2358393,-816.90877)"
       id="circle203"
       style="fill:#ffffff;stroke:#2778c9;stroke-width:10"
       sodipodi:cx="901.98297"
       sodipodi:cy="736.64398"
       sodipodi:rx="30.681"
       sodipodi:ry="30.681"
       d="m 932.66397,736.64398 c 0,16.94465 -13.73635,30.681 -30.681,30.681 -16.94465,0 -30.681,-13.73635 -30.681,-30.681 0,-16.94465 13.73635,-30.681 30.681,-30.681 16.94465,0 30.681,13.73635 30.681,30.681 z" />
    <circle
       cx="1025.384"
       cy="612.76703"
       r="30.681"
       transform="matrix(1.8000002,0,0,1.8000002,1.2358393,-816.90877)"
       id="circle205"
       style="fill:#ffffff;stroke:#2778c9;stroke-width:10"
       sodipodi:cx="1025.384"
       sodipodi:cy="612.76703"
       sodipodi:rx="30.681"
       sodipodi:ry="30.681"
       d="m 1056.065,612.76703 c 0,16.94465 -13.7363,30.681 -30.681,30.681 -16.9446,0 -30.68097,-13.73635 -30.68097,-30.681 0,-16.94465 13.73637,-30.681 30.68097,-30.681 16.9447,0 30.681,13.73635 30.681,30.681 z" />
    <circle
       cx="1148.541"
       cy="489.26401"
       r="30.681"
       transform="matrix(1.8000002,0,0,1.8000002,1.2358393,-816.90877)"
       id="circle207"
       style="fill:#ffffff;stroke:#2778c9;stroke-width:10"
       sodipodi:cx="1148.541"
       sodipodi:cy="489.26401"
       sodipodi:rx="30.681"
       sodipodi:ry="30.681"
       d="m 1179.222,489.26401 c 0,16.94465 -13.7363,30.681 -30.681,30.681 -16.9446,0 -30.681,-13.73635 -30.681,-30.681 0,-16.94465 13.7364,-30.681 30.681,-30.681 16.9447,0 30.681,13.73635 30.681,30.681 z" />
    <circle
       cx="905.83002"
       cy="2867.6479"
       r="30.681"
       transform="matrix(1.8000002,0,0,1.8000002,1.2358393,-816.90877)"
       id="circle209"
       style="fill:#ffffff;stroke:#2778c9;stroke-width:10"
       sodipodi:cx="905.83002"
       sodipodi:cy="2867.6479"
       sodipodi:rx="30.681"
       sodipodi:ry="30.681"
       d="m 936.51102,2867.6479 c 0,16.9447 -13.73635,30.681 -30.681,30.681 -16.94465,0 -30.681,-13.7363 -30.681,-30.681 0,-16.9446 13.73635,-30.681 30.681,-30.681 16.94465,0 30.681,13.7364 30.681,30.681 z" />
    <circle
       cx="905.83002"
       cy="3012.021"
       r="30.681"
       transform="matrix(1.8000002,0,0,1.8000002,1.2358393,-816.90877)"
       id="circle211"
       style="fill:#ffffff;stroke:#2778c9;stroke-width:10"
       sodipodi:cx="905.83002"
       sodipodi:cy="3012.021"
       sodipodi:rx="30.681"
       sodipodi:ry="30.681"
       d="m 936.51102,3012.021 c 0,16.9446 -13.73635,30.681 -30.681,30.681 -16.94465,0 -30.681,-13.7364 -30.681,-30.681 0,-16.9447 13.73635,-30.681 30.681,-30.681 16.94465,0 30.681,13.7363 30.681,30.681 z" />
    <circle
       cx="906.68103"
       cy="3157.3049"
       r="30.681"
       transform="matrix(1.8000002,0,0,1.8000002,1.2358393,-816.90877)"
       id="circle213"
       style="fill:#ffffff;stroke:#2778c9;stroke-width:10"
       sodipodi:cx="906.68103"
       sodipodi:cy="3157.3049"
       sodipodi:rx="30.681"
       sodipodi:ry="30.681"
       d="m 937.36203,3157.3049 c 0,16.9447 -13.73635,30.681 -30.681,30.681 -16.94465,0 -30.681,-13.7363 -30.681,-30.681 0,-16.9446 13.73635,-30.681 30.681,-30.681 16.94465,0 30.681,13.7364 30.681,30.681 z" />
    <circle
       cx="905.68103"
       cy="3299.5081"
       r="30.681"
       transform="matrix(1.8000002,0,0,1.8000002,1.2358393,-816.90877)"
       id="circle215"
       style="fill:#ffffff;stroke:#2778c9;stroke-width:10"
       sodipodi:cx="905.68103"
       sodipodi:cy="3299.5081"
       sodipodi:rx="30.681"
       sodipodi:ry="30.681"
       d="m 936.36203,3299.5081 c 0,16.9446 -13.73635,30.681 -30.681,30.681 -16.94465,0 -30.681,-13.7364 -30.681,-30.681 0,-16.9447 13.73635,-30.681 30.681,-30.681 16.94465,0 30.681,13.7363 30.681,30.681 z" />
    <circle
       cx="905.68103"
       cy="3459.4221"
       r="30.681"
       transform="matrix(1.8000002,0,0,1.8000002,1.2358393,-816.90877)"
       id="circle217"
       style="fill:#ffffff;stroke:#2778c9;stroke-width:10"
       sodipodi:cx="905.68103"
       sodipodi:cy="3459.4221"
       sodipodi:rx="30.681"
       sodipodi:ry="30.681"
       d="m 936.36203,3459.4221 c 0,16.9447 -13.73635,30.681 -30.681,30.681 -16.94465,0 -30.681,-13.7363 -30.681,-30.681 0,-16.9446 13.73635,-30.681 30.681,-30.681 16.94465,0 30.681,13.7364 30.681,30.681 z" />
    <circle
       cx="1016.822"
       cy="3570.9751"
       r="30.681"
       transform="matrix(1.8000002,0,0,1.8000002,1.2358393,-816.90877)"
       id="circle219"
       style="fill:#ffffff;stroke:#2778c9;stroke-width:10"
       sodipodi:cx="1016.822"
       sodipodi:cy="3570.9751"
       sodipodi:rx="30.681"
       sodipodi:ry="30.681"
       d="m 1047.503,3570.9751 c 0,16.9446 -13.7363,30.681 -30.681,30.681 -16.94463,0 -30.68098,-13.7364 -30.68098,-30.681 0,-16.9447 13.73635,-30.681 30.68098,-30.681 16.9447,0 30.681,13.7363 30.681,30.681 z" />
    <circle
       cx="1141.351"
       cy="3695.8401"
       r="30.681"
       transform="matrix(1.8000002,0,0,1.8000002,1.2358393,-816.90877)"
       id="circle221"
       style="fill:#ffffff;stroke:#2778c9;stroke-width:10"
       sodipodi:cx="1141.351"
       sodipodi:cy="3695.8401"
       sodipodi:rx="30.681"
       sodipodi:ry="30.681"
       d="m 1172.032,3695.8401 c 0,16.9446 -13.7364,30.681 -30.681,30.681 -16.9447,0 -30.681,-13.7364 -30.681,-30.681 0,-16.9447 13.7363,-30.681 30.681,-30.681 16.9446,0 30.681,13.7363 30.681,30.681 z" />
    <circle
       cx="455.15799"
       cy="1802.0291"
       r="30.681"
       transform="matrix(1.8000002,0,0,1.8000002,1.2358393,-816.90877)"
       id="circle223"
       style="fill:#ffffff;stroke:#b840c9;stroke-width:10"
       sodipodi:cx="455.15799"
       sodipodi:cy="1802.0291"
       sodipodi:rx="30.681"
       sodipodi:ry="30.681"
       d="m 485.83899,1802.0291 c 0,16.9446 -13.73635,30.681 -30.681,30.681 -16.94465,0 -30.681,-13.7364 -30.681,-30.681 0,-16.9447 13.73635,-30.681 30.681,-30.681 16.94465,0 30.681,13.7363 30.681,30.681 z" />
    <circle
       cx="897.83002"
       cy="2245.5271"
       r="35.456001"
       transform="matrix(1.8000002,0,0,1.8000002,1.2358393,-816.90877)"
       id="circle225"
       style="fill:#b840c9"
       sodipodi:cx="897.83002"
       sodipodi:cy="2245.5271"
       sodipodi:rx="35.456001"
       sodipodi:ry="35.456001"
       d="m 933.28602,2245.5271 c 0,19.5818 -15.87419,35.456 -35.456,35.456 -19.58181,0 -35.456,-15.8742 -35.456,-35.456 0,-19.5818 15.87419,-35.456 35.456,-35.456 19.58181,0 35.456,15.8742 35.456,35.456 z" />
    <circle
       cx="1172.766"
       cy="2520.5879"
       r="35.456001"
       transform="matrix(1.8000002,0,0,1.8000002,1.2358393,-816.90877)"
       id="circle227"
       style="fill:#b840c9"
       sodipodi:cx="1172.766"
       sodipodi:cy="2520.5879"
       sodipodi:rx="35.456001"
       sodipodi:ry="35.456001"
       d="m 1208.222,2520.5879 c 0,19.5818 -15.8742,35.456 -35.456,35.456 -19.5818,0 -35.456,-15.8742 -35.456,-35.456 0,-19.5818 15.8742,-35.456 35.456,-35.456 19.5818,0 35.456,15.8742 35.456,35.456 z" />
    <circle
       cx="1424.05"
       cy="2771.7529"
       r="30.681"
       transform="matrix(1.8000002,0,0,1.8000002,1.2358393,-816.90877)"
       id="circle229"
       style="fill:#ffffff;stroke:#b840c9;stroke-width:10"
       sodipodi:cx="1424.05"
       sodipodi:cy="2771.7529"
       sodipodi:rx="30.681"
       sodipodi:ry="30.681"
       d="m 1454.731,2771.7529 c 0,16.9447 -13.7363,30.681 -30.681,30.681 -16.9446,0 -30.681,-13.7363 -30.681,-30.681 0,-16.9446 13.7364,-30.681 30.681,-30.681 16.9447,0 30.681,13.7364 30.681,30.681 z" />
    <circle
       cx="1424.627"
       cy="2998.9709"
       r="30.68"
       transform="matrix(1.8000002,0,0,1.8000002,1.2358393,-816.90877)"
       id="circle231"
       style="fill:#ffffff;stroke:#b840c9;stroke-width:10"
       sodipodi:cx="1424.627"
       sodipodi:cy="2998.9709"
       sodipodi:rx="30.68"
       sodipodi:ry="30.68"
       d="m 1455.307,2998.9709 c 0,16.9441 -13.736,30.68 -30.68,30.68 -16.9441,0 -30.68,-13.7359 -30.68,-30.68 0,-16.944 13.7359,-30.68 30.68,-30.68 16.944,0 30.68,13.736 30.68,30.68 z" />
    <circle
       cx="455.29501"
       cy="1613.6121"
       r="30.68"
       transform="matrix(1.8000002,0,0,1.8000002,1.2358393,-816.90877)"
       id="circle233"
       style="fill:#ffffff;stroke:#b840c9;stroke-width:10"
       sodipodi:cx="455.29501"
       sodipodi:cy="1613.6121"
       sodipodi:rx="30.68"
       sodipodi:ry="30.68"
       d="m 485.97501,1613.6121 c 0,16.9441 -13.7359,30.68 -30.68,30.68 -16.94409,0 -30.68,-13.7359 -30.68,-30.68 0,-16.9441 13.73591,-30.68 30.68,-30.68 16.9441,0 30.68,13.7359 30.68,30.68 z" />
    <circle
       cx="271.655"
       cy="1429.683"
       r="30.68"
       transform="matrix(1.8000002,0,0,1.8000002,1.2358393,-816.90877)"
       id="circle235"
       style="fill:#ffffff;stroke:#b840c9;stroke-width:10"
       sodipodi:cx="271.655"
       sodipodi:cy="1429.683"
       sodipodi:rx="30.68"
       sodipodi:ry="30.68"
       d="m 302.335,1429.683 c 0,16.9441 -13.7359,30.68 -30.68,30.68 -16.9441,0 -30.68,-13.7359 -30.68,-30.68 0,-16.9441 13.7359,-30.68 30.68,-30.68 16.9441,0 30.68,13.7359 30.68,30.68 z" />
    <circle
       cx="271.655"
       cy="1131.995"
       r="30.68"
       transform="matrix(1.8000002,0,0,1.8000002,1.2358393,-816.90877)"
       id="circle237"
       style="fill:#ffffff;stroke:#b840c9;stroke-width:10"
       sodipodi:cx="271.655"
       sodipodi:cy="1131.995"
       sodipodi:rx="30.68"
       sodipodi:ry="30.68"
       d="m 302.335,1131.995 c 0,16.9441 -13.7359,30.68 -30.68,30.68 -16.9441,0 -30.68,-13.7359 -30.68,-30.68 0,-16.9441 13.7359,-30.68 30.68,-30.68 16.9441,0 30.68,13.7359 30.68,30.68 z" />
    <circle
       cx="272.11801"
       cy="958.55701"
       r="30.68"
       transform="matrix(1.8000002,0,0,1.8000002,1.2358393,-816.90877)"
       id="circle239"
       style="fill:#ffffff;stroke:#b840c9;stroke-width:10"
       sodipodi:cx="272.11801"
       sodipodi:cy="958.55701"
       sodipodi:rx="30.68"
       sodipodi:ry="30.68"
       d="m 302.79801,958.55701 c 0,16.94409 -13.7359,30.68 -30.68,30.68 -16.94409,0 -30.68,-13.73591 -30.68,-30.68 0,-16.9441 13.73591,-30.68 30.68,-30.68 16.9441,0 30.68,13.7359 30.68,30.68 z" />
    <circle
       cx="324.85101"
       cy="2031.1689"
       r="30.681"
       transform="matrix(1.8000002,0,0,1.8000002,1.2358393,-816.90877)"
       id="circle241"
       style="fill:#ffffff;stroke:#029302;stroke-width:10"
       sodipodi:cx="324.85101"
       sodipodi:cy="2031.1689"
       sodipodi:rx="30.681"
       sodipodi:ry="30.681"
       d="m 355.53201,2031.1689 c 0,16.9447 -13.73635,30.681 -30.681,30.681 -16.94465,0 -30.681,-13.7363 -30.681,-30.681 0,-16.9446 13.73635,-30.681 30.681,-30.681 16.94465,0 30.681,13.7364 30.681,30.681 z" />
    <circle
       cx="1616.8101"
       cy="2093.7629"
       r="35.456001"
       transform="matrix(1.8000002,0,0,1.8000002,1.2358393,-816.90877)"
       id="circle243"
       style="fill:#029302"
       sodipodi:cx="1616.8101"
       sodipodi:cy="2093.7629"
       sodipodi:rx="35.456001"
       sodipodi:ry="35.456001"
       d="m 1652.2661,2093.7629 c 0,19.5818 -15.8742,35.456 -35.456,35.456 -19.5819,0 -35.456,-15.8742 -35.456,-35.456 0,-19.5818 15.8741,-35.456 35.456,-35.456 19.5818,0 35.456,15.8742 35.456,35.456 z" />
    <circle
       cx="1806.588"
       cy="2284.384"
       r="35.456001"
       transform="matrix(1.8000002,0,0,1.8000002,1.2358393,-816.90877)"
       id="circle245"
       style="fill:#029302"
       sodipodi:cx="1806.588"
       sodipodi:cy="2284.384"
       sodipodi:rx="35.456001"
       sodipodi:ry="35.456001"
       d="m 1842.044,2284.384 c 0,19.5818 -15.8742,35.456 -35.456,35.456 -19.5818,0 -35.456,-15.8742 -35.456,-35.456 0,-19.5818 15.8742,-35.456 35.456,-35.456 19.5818,0 35.456,15.8742 35.456,35.456 z" />
    <circle
       cx="897.83002"
       cy="2031.1689"
       r="35.456001"
       transform="matrix(1.8000002,0,0,1.8000002,1.2358393,-816.90877)"
       id="circle247"
       style="fill:#029302"
       sodipodi:cx="897.83002"
       sodipodi:cy="2031.1689"
       sodipodi:rx="35.456001"
       sodipodi:ry="35.456001"
       d="m 933.28602,2031.1689 c 0,19.5819 -15.87419,35.456 -35.456,35.456 -19.58181,0 -35.456,-15.8741 -35.456,-35.456 0,-19.5818 15.87419,-35.456 35.456,-35.456 19.58181,0 35.456,15.8742 35.456,35.456 z" />
    <circle
       cx="228.83099"
       cy="1935.736"
       r="30.681"
       transform="matrix(1.8000002,0,0,1.8000002,1.2358393,-816.90877)"
       id="circle249"
       style="fill:#ffffff;stroke:#029302;stroke-width:10"
       sodipodi:cx="228.83099"
       sodipodi:cy="1935.736"
       sodipodi:rx="30.681"
       sodipodi:ry="30.681"
       d="m 259.51199,1935.736 c 0,16.9446 -13.73635,30.681 -30.681,30.681 -16.94464,0 -30.681,-13.7364 -30.681,-30.681 0,-16.9447 13.73636,-30.681 30.681,-30.681 16.94465,0 30.681,13.7363 30.681,30.681 z" />
    <circle
       cx="1807.0601"
       cy="2607.178"
       r="30.681"
       transform="matrix(1.8000002,0,0,1.8000002,1.2358393,-699.51677)"
       id="circle251"
       style="fill:#ffffff;stroke:#029302;stroke-width:10"
       sodipodi:cx="1807.0601"
       sodipodi:cy="2607.178"
       sodipodi:rx="30.681"
       sodipodi:ry="30.681"
       d="m 1837.7411,2607.178 c 0,16.9446 -13.7364,30.681 -30.681,30.681 -16.9447,0 -30.681,-13.7364 -30.681,-30.681 0,-16.9447 13.7363,-30.681 30.681,-30.681 16.9446,0 30.681,13.7363 30.681,30.681 z" />
    <circle
       cx="1807.0601"
       cy="2803.1809"
       r="30.681"
       transform="matrix(1.8000002,0,0,1.8000002,1.2358393,-678.17247)"
       id="circle253"
       style="fill:#ffffff;stroke:#029302;stroke-width:10"
       sodipodi:cx="1807.0601"
       sodipodi:cy="2803.1809"
       sodipodi:rx="30.681"
       sodipodi:ry="30.681"
       d="m 1837.7411,2803.1809 c 0,16.9447 -13.7364,30.681 -30.681,30.681 -16.9447,0 -30.681,-13.7363 -30.681,-30.681 0,-16.9446 13.7363,-30.681 30.681,-30.681 16.9446,0 30.681,13.7364 30.681,30.681 z" />
    <circle
       cx="1969.0861"
       cy="3159.356"
       r="30.681"
       transform="matrix(1.8000002,0,0,1.8000002,-20.108182,-616.80847)"
       id="circle255"
       style="fill:#ffffff;stroke:#029302;stroke-width:10"
       sodipodi:cx="1969.0861"
       sodipodi:cy="3159.356"
       sodipodi:rx="30.681"
       sodipodi:ry="30.681"
       d="m 1999.7671,3159.356 c 0,16.9446 -13.7364,30.681 -30.681,30.681 -16.9447,0 -30.681,-13.7364 -30.681,-30.681 0,-16.9447 13.7363,-30.681 30.681,-30.681 16.9446,0 30.681,13.7363 30.681,30.681 z" />
    <circle
       cx="1969.0861"
       cy="3346.0681"
       r="30.681"
       transform="matrix(1.8000002,0,0,1.8000002,-22.776185,-608.80447)"
       id="circle257"
       style="fill:#ffffff;stroke:#029302;stroke-width:10"
       sodipodi:cx="1969.0861"
       sodipodi:cy="3346.0681"
       sodipodi:rx="30.681"
       sodipodi:ry="30.681"
       d="m 1999.7671,3346.0681 c 0,16.9447 -13.7364,30.681 -30.681,30.681 -16.9447,0 -30.681,-13.7363 -30.681,-30.681 0,-16.9446 13.7363,-30.681 30.681,-30.681 16.9446,0 30.681,13.7364 30.681,30.681 z" />
    <circle
       cx="1807.0601"
       cy="2998.4819"
       r="30.681"
       transform="matrix(1.8000002,0,0,1.8000002,1.2358393,-590.12847)"
       id="circle259"
       style="fill:#ffffff;stroke:#029302;stroke-width:10"
       sodipodi:cx="1807.0601"
       sodipodi:cy="2998.4819"
       sodipodi:rx="30.681"
       sodipodi:ry="30.681"
       d="m 1837.7411,2998.4819 c 0,16.9447 -13.7364,30.681 -30.681,30.681 -16.9447,0 -30.681,-13.7363 -30.681,-30.681 0,-16.9446 13.7363,-30.681 30.681,-30.681 16.9446,0 30.681,13.7364 30.681,30.681 z" />
    <circle
       cx="493.56"
       cy="3485.1021"
       r="30.681"
       transform="matrix(1.8000002,0,0,1.8000002,3.0406694,-766.53227)"
       id="circle177-1"
       style="fill:#ffffff;stroke:#de0000;stroke-width:10"
       sodipodi:cx="493.56"
       sodipodi:cy="3485.1021"
       sodipodi:rx="30.681"
       sodipodi:ry="30.681"
       d="m 524.241,3485.1021 c 0,16.9446 -13.73635,30.681 -30.681,30.681 -16.94465,0 -30.681,-13.7364 -30.681,-30.681 0,-16.9447 13.73635,-30.681 30.681,-30.681 16.94465,0 30.681,13.7363 30.681,30.681 z" />
  </g>
</svg>
