<?xml version="1.0" encoding="UTF-8" standalone="no"?>
<!-- Created with Inkscape (http://www.inkscape.org/) -->

<svg
   xmlns:dc="http://purl.org/dc/elements/1.1/"
   xmlns:cc="http://creativecommons.org/ns#"
   xmlns:rdf="http://www.w3.org/1999/02/22-rdf-syntax-ns#"
   xmlns:svg="http://www.w3.org/2000/svg"
   xmlns="http://www.w3.org/2000/svg"
   xmlns:sodipodi="http://sodipodi.sourceforge.net/DTD/sodipodi-0.dtd"
   xmlns:inkscape="http://www.inkscape.org/namespaces/inkscape"
   version="1.1"
   width="1080"
   height="1341"
   id="svg4324"
   inkscape:version="0.48.1 "
   sodipodi:docname="spb3.svg">
  <sodipodi:namedview
     pagecolor="#ffffff"
     bordercolor="#666666"
     borderopacity="1"
     objecttolerance="10"
     gridtolerance="10"
     guidetolerance="10"
     inkscape:pageopacity="0"
     inkscape:pageshadow="2"
     inkscape:window-width="1280"
     inkscape:window-height="738"
     id="namedview126"
     showgrid="false"
     inkscape:zoom="0.89535413"
     inkscape:cx="479.30498"
     inkscape:cy="463.29939"
     inkscape:window-x="-8"
     inkscape:window-y="-8"
     inkscape:window-maximized="1"
     inkscape:current-layer="layer1" />
  <defs
     id="defs4326" />
  <metadata
     id="metadata4329">
    <rdf:RDF>
      <cc:Work
         rdf:about="">
        <dc:format>image/svg+xml</dc:format>
        <dc:type
           rdf:resource="http://purl.org/dc/dcmitype/StillImage" />
        <dc:title></dc:title>
      </cc:Work>
    </rdf:RDF>
  </metadata>
  <g
     id="layer1"
     transform="matrix(0.18837855,0,0,0.18837855,-0.06326492,-0.25262164)">
    <circle
       cx="897.83099"
       cy="1995.713"
       r="93.308998"
       transform="matrix(2.1600002,0,0,2.1600002,1.4158393,-983.74369)"
       id="circle11"
       style="fill:none;stroke:#7f7f7f;stroke-width:5"
       sodipodi:cx="897.83099"
       sodipodi:cy="1995.713"
       sodipodi:rx="93.308998"
       sodipodi:ry="93.308998"
       d="m 991.13999,1995.713 c 0,51.5331 -41.77586,93.309 -93.309,93.309 -51.53313,0 -93.30899,-41.7759 -93.30899,-93.309 0,-51.5331 41.77586,-93.309 93.30899,-93.309 51.53314,0 93.309,41.7759 93.309,93.309 z" />
    <circle
       cx="1585.009"
       cy="2063.3069"
       r="93.308998"
       transform="matrix(2.1600002,0,0,2.1600002,1.4158393,-983.74369)"
       id="circle13"
       style="fill:none;stroke:#7f7f7f;stroke-width:5"
       sodipodi:cx="1585.009"
       sodipodi:cy="2063.3069"
       sodipodi:rx="93.308998"
       sodipodi:ry="93.308998"
       d="m 1678.318,2063.3069 c 0,51.5331 -41.7758,93.309 -93.309,93.309 -51.5331,0 -93.309,-41.7759 -93.309,-93.309 0,-51.5332 41.7759,-93.309 93.309,-93.309 51.5332,0 93.309,41.7758 93.309,93.309 z" />
    <circle
       cx="898.58801"
       cy="2287.127"
       r="110.141"
       transform="matrix(2.1600002,0,0,2.1600002,1.4158393,-983.74369)"
       id="circle15"
       style="fill:none;stroke:#7f7f7f;stroke-width:5"
       sodipodi:cx="898.58801"
       sodipodi:cy="2287.127"
       sodipodi:rx="110.141"
       sodipodi:ry="110.141"
       d="m 1008.729,2287.127 c 0,60.8291 -49.31179,110.141 -110.14099,110.141 -60.82919,0 -110.141,-49.3119 -110.141,-110.141 0,-60.8292 49.31181,-110.141 110.141,-110.141 60.8292,0 110.14099,49.3118 110.14099,110.141 z" />
    <circle
       cx="869.883"
       cy="2660.2339"
       r="93.308998"
       transform="matrix(2.1600002,0,0,2.1600002,1.4158393,-983.74369)"
       id="circle17"
       style="fill:none;stroke:#7f7f7f;stroke-width:5"
       sodipodi:cx="869.883"
       sodipodi:cy="2660.2339"
       sodipodi:rx="93.308998"
       sodipodi:ry="93.308998"
       d="m 963.19199,2660.2339 c 0,51.5331 -41.77586,93.309 -93.30899,93.309 -51.53314,0 -93.309,-41.7759 -93.309,-93.309 0,-51.5331 41.77586,-93.309 93.309,-93.309 51.53313,0 93.30899,41.7759 93.30899,93.309 z" />
    <circle
       cx="1305.1331"
       cy="2335.333"
       r="93.308998"
       transform="matrix(2.1600002,0,0,2.1600002,1.4158393,-983.74369)"
       id="circle19"
       style="fill:none;stroke:#7f7f7f;stroke-width:5"
       sodipodi:cx="1305.1331"
       sodipodi:cy="2335.333"
       sodipodi:rx="93.308998"
       sodipodi:ry="93.308998"
       d="m 1398.4421,2335.333 c 0,51.5331 -41.7759,93.309 -93.309,93.309 -51.5332,0 -93.309,-41.7759 -93.309,-93.309 0,-51.5331 41.7758,-93.309 93.309,-93.309 51.5331,0 93.309,41.7759 93.309,93.309 z" />
    <circle
       cx="1146.634"
       cy="2494.4351"
       r="93.308998"
       transform="matrix(2.1600002,0,0,2.1600002,1.4158393,-983.74369)"
       id="circle21"
       style="fill:none;stroke:#7f7f7f;stroke-width:5"
       sodipodi:cx="1146.634"
       sodipodi:cy="2494.4351"
       sodipodi:rx="93.308998"
       sodipodi:ry="93.308998"
       d="m 1239.943,2494.4351 c 0,51.5331 -41.7758,93.309 -93.309,93.309 -51.5331,0 -93.309,-41.7759 -93.309,-93.309 0,-51.5332 41.7759,-93.309 93.309,-93.309 51.5332,0 93.309,41.7758 93.309,93.309 z" />
    <circle
       cx="1807.0601"
       cy="2327.325"
       r="93.309998"
       transform="matrix(2.1600002,0,0,2.1600002,1.4158393,-983.74369)"
       id="circle23"
       style="fill:none;stroke:#7f7f7f;stroke-width:5"
       sodipodi:cx="1807.0601"
       sodipodi:cy="2327.325"
       sodipodi:rx="93.309998"
       sodipodi:ry="93.309998"
       d="m 1900.3701,2327.325 c 0,51.5336 -41.7764,93.3099 -93.31,93.3099 -51.5337,0 -93.31,-41.7763 -93.31,-93.3099 0,-51.5337 41.7763,-93.31 93.31,-93.31 51.5336,0 93.31,41.7763 93.31,93.31 z" />
    <path
       d="m 1.4158393,1950.1047 66.0204037,21.8138 62.499607,18.6582 61.27272,12.541 52.12729,7.979 60.74571,2.6502 76.41431,-6.9702 72.7164,-18.6236 84.51432,-25.719 64.16928,-15.0574 61.3116,-7.7738 47.7684,-0.8662 47.7468,4.4862 39.7332,6.3138 40.0745,11.0052 37.68552,10.5948 27.00003,8.64 18.36,8.64 10.8,9.72 3.24,18.36 -1.08,18.36 -6.01344,10.4112 -19.90656,19.8288 -23.57859,17.4916 -37.59912,32.2704 -38.10026,32.588 -29.24208,23.4898 -21.6,29.16 -21.6,21.6002 -42.12,24.84 -59.4,17.28 -61.93584,10.6662 -84.79728,11.9254 -72.50688,11.9684 -73.23912,8.5278 -79.0409,9.8322 -68.86297,2.9742 -59.65704,-2.9742 -58.263842,-9.167 -41.184729,-4.2424 -34.4714397,-6.7326 0,72.52 65.7676837,10.2122 103.081687,12.096 111.08665,0.8038 107.99138,-7.2448 145.84104,-16.9256 75.5352,-13.6276 62.4564,-16.092 47.52,-21.6 25.92,-21.6 17.28,-30.24 54,-51.84 88.56005,-73.44 46.48752,-31.2078 78.79245,-37.9122 66.6339,-38.8238 58.6461,-36.7762 54.9763,-48.9284 59.5038,-46.1116 66.3876,-38.4396 67.5324,-19.8804 65.4457,-7.9014 67.0054,-3.3954 78.1488,3.7344 89.2945,17.8288 74.0965,31.0134 104.6068,61.8794 79.7861,65.5776 73.6602,97.1526 39.3336,81.27 55.9353,143.2794 39.4223,105.5982 28.1448,56.283 21.909,37.744 53.9263,57.8726 47.5308,32.9032 68.7767,30.0866 34.6572,5.5534 17.28,10.8 -10.8,15.12 -41.04,8.64 -46.9283,0.635 -141.8881,15.265 -131.084,18.4656 -134.6133,42.3878 -130.6822,73.507 -119.3271,81.566 -81.8381,69.9948 -43.5908,56.3762 -36.8994,46.4658 -50.8918,25.0992 -57.2378,10.5454 -107.0884,-0.196 -123.5737,-10.029 -94.6771,-17.524 -95.59077,-30.3242 -72.8892,-38.7958 -75.85059,-51.082 -145.2665,-98.82 -169.57296,-100.494 -168.82128,-96.1546 -120.88874,-68.1696 -158.153052,-62.5362 -83.7669687,-23.0192 0,146.8628 120.6900107,36.8344 178.41388,74.8074 269.40167,153.738 240.0948,154.3492 c 0,0 106.91789,68.8674 133.21157,83.8902 34.94232,19.9692 104.03203,46.3084 104.03203,46.3084 l 91.3918,23.585 71.5586,10.3116 c 0,0 23.6542,4.0998 33.5923,8.2342 l 24.7516,15.7418 c 0,0 14.04,17.7664 16.3339,28.9096 l -5.4561,40.8132 -20.5742,32.5382 -130.3495,119.6122 -122.4871,107.3694 -133.67376,118.9382 -122.26466,116.9704 -63.47592,74.6906 -57.672,89.383 -29.00016,60.2468 -28.49256,80.676 -34.2792,113.875 -42.444,72.8784 -54.40824,61.3614 -144.4673,67.9339 -108.67177,7.2557 -91.266482,-6.0588 -94.4892087,-23.7624 0.12096,279.4068 124.3209707,-28.4514 125.59537,-19.6001 111.62666,-32.5554 131.98032,-64.4197 97.65144,-71.0189 84.00672,-135.7513 38.31624,-148.6728 57.56832,-129.1942 61.90345,-84.0062 80.203,-88.6356 238.65191,-204.12 135.8403,-121.6794 126.98,-147.04 136.6868,-167.549 95.0767,-108.1986 134.2355,-129.004 110.3845,-77.6758 66.0679,-31.5384 117.4307,-39.9384 172.8,-41.593 159.1834,-26.8014 176.418,-28.691 150.7508,-14.0724 82.2612,-7.7848 93.1932,-10.3356 132.0256,-9.098 129.6,-6.48 129.6,-8.64 133.92,-21.6 118.4416,-31.05 127.7984,-25.1098 112.32,-17.28 120.96,-12.96 123.9258,15.9624 92.0741,31.5576 82.08,56.16 54,66.96 36.72,92.88 25.92,138.2402 12.96,99.36 -4.32,108 -38.88,254.88 -49.68,198.72 -26.9112,167.6464 -9.8088,143.3936 17.28,142.56 34.56,198.7199 63.3617,232.5611 44.6383,173.5189 35.5668,195.4632 14.3123,195.5856 10.4713,297.2484 15.9084,276.8862 11.8542,67.716 28.527,94.6211 51.84,77.76 75.4812,48.4272 132.2657,40.0983 94.6531,45.3945 62.6856,67.0398 64.0355,109.0974 76.2067,157.9044 54.6804,113.8818 96.5262,185.5028 111.8316,166.063 72.2177,64.787 122.5129,62.4286 227.5604,88.9854 0,-185.4016 -178.7594,-72.9884 -89.7415,-47.7402 -77.3345,-89.8432 -63.7308,-104.9286 -68.1762,-127.293 -78.0558,-159.0752 -87.264,-198.0528 -49.773,-82.6155 -65.0935,-70.7097 -75.8808,-45.2889 -119.3663,-38.9772 -64.4455,-20.7555 -58.9985,-50.4228 -14.5537,-46.4489 -17.0837,-109.0627 -8.8926,-163.5702 -17.7768,-199.0163 -29.8104,-369.8995 -17.28,-129.6005 -21.6,-120.96 -21.6,-103.68 -25.92,-82.08 -30.24,-103.68 -38.88,-177.12 -30.24,-203.0399 15.12,-172.8 32.4,-164.16 53.7281,-171.8474 35.2555,-148.2064 23.3364,-116.2662 12.96,-159.84 -22.9542,-156.8378 -33.2058,-128.2824 -57.5142,-113.6376 -85.0458,-102.3624 -100.7142,-70.4376 -110.9658,-46.2024 -113.6741,-22.9176 -154.1658,-7.3224 -168.48,25.92 -108,30.24 -108,43.2 -125.28,30.24 -125.28,17.28 -125.28,12.96 -130.669,10.9038 -121.161,5.2098 -89.2856,1.4128 -84.5685,-5.1042 -82.4665,-10.234 -78.1314,-12.2948 -50.328,-12.4048 -47.9069,-23.1746 -37.0459,-26.4384 -32.724,-30.5382 -41.1072,-49.8268 -30.8576,-47.8464 -57.6009,-122.6402 -36.2965,-96.876 -37.0958,-91.9923 -104.2114,-162.6828 -91.6812,-79.827 -117.6402,-63.5451 -108.6761,-33.7911 -88.8428,-15.0141 -78.2634,-3.7755 -75.8246,-2.3307 -55.201,0.5442 -62.2273,-3.9807 -55.3759,-5.1624 -58.0912,-14.2713 -68.7139,-18.6711 -81.0454,-21.6474 -94.0615,-17.386 -72.32541,-5.3156 -68.20851,4.4798 -100.26074,18.2197 -72.53064,-2.2119 -66.54312,-11.5734 -59.28768,-21.7878 -125.17632,-36.3766 -237.28034,-32.711 -157.206977,-5.4066 -58.7995237,1.9788 0,398.8179 z M 868.2023,1774.5419 l -10.3464,24.8748 -24.84001,28.08 -31.32001,22.68 -39.96,16.5606 -29.5164,2.389 -36.3636,-2.7496 -42.12,0 -47.47896,7.8754 -88.60104,15.8846 -101.52,10.8 -128.8721,-7.5492 -100.08793,-27.0108 -60.81696,-38.6726 -48.885122,-30.847 -46.440009,-39.96 -11.879999,-21.6 2.159999,-23.76 14.04,-21.6 29.600644,-12.4286 43.381447,-9.8518 56.95704,-8.6142 96.79393,-9.2274 86.00906,3.8016 89.154,14.0658 85.806,18.3342 79.93296,28.2462 63.70704,19.2738 55.3284,9.9792 51.5916,-0.258 46.44,-5.4 21.60002,0 11.58408,1.4124 7.92936,3.3396 5.8428,5.8428 2.72376,8.8452 -1.5336,17.2452 z m 363.5971,72.0924 -17.5435,14.3424 -31.32,17.28 -21.6,24.84 -34.56,25.92 -58.32,20.52 -58.32,5.4 -51.11637,-6.197 -39.35736,-23.704 -26.50323,-30.8642 -6.14304,-24.5548 0.92016,-27.0564 5.55984,-28.0236 10.24491,-27.1038 28.63512,-30.1362 35.25336,-16.0208 44.26701,-6.5166 47.7209,3.5618 38.9318,5.806 37.9448,7.7718 46.44,14.04 38.8799,19.44 12.96,9.72 6.48,14.04 -1.08,20.52 -8.3743,16.9754 z"
       id="path25"
       style="fill:#eefbff;stroke:#7f7f7f;stroke-width:2.16000009"
       inkscape:connector-curvature="0" />
    <g
       transform="matrix(3,0,0,3,1.8358393,-1381.9655)"
       id="g29">
      <line
         style="fill:none;stroke:#de0000;stroke-width:14.40000057"
         x1="1403.5576"
         y1="488.68625"
         x2="1403.5576"
         y2="632.35217"
         id="line31" />
      <line
         style="fill:none;stroke:#de0000;stroke-width:14.40000057"
         x1="1404.4008"
         y1="632.35217"
         x2="1220.4493"
         y2="817.28564"
         id="line33" />
      <line
         style="fill:none;stroke:#de0000;stroke-width:14.40000057"
         x1="1220.4493"
         y1="817.28564"
         x2="1220.4493"
         y2="928.29163"
         id="line35" />
      <line
         style="fill:none;stroke:#de0000;stroke-width:14.40000057"
         x1="1220.4493"
         y1="928.29163"
         x2="1118.588"
         y2="1030.153"
         id="line37" />
      <line
         style="fill:none;stroke:#de0000;stroke-width:14.40000057"
         x1="1118.588"
         y1="1030.153"
         x2="1118.588"
         y2="1596.4258"
         id="line39" />
      <line
         style="fill:none;stroke:#de0000;stroke-width:14.40000057"
         x1="1118.588"
         y1="1596.4258"
         x2="355.67969"
         y2="2359.3347"
         id="line41" />
      <line
         style="fill:none;stroke:#de0000;stroke-width:14.68669033"
         x1="355.67969"
         y1="2359.3347"
         x2="355.67969"
         y2="2653.3818"
         id="line43" />
    </g>
    <g
       transform="matrix(2.1600002,0,0,2.1600002,1.4158393,-983.74369)"
       id="g47">
      <line
         style="fill:none;stroke:#2778c9;stroke-width:20"
         x1="1146.9871"
         y1="492.26401"
         x2="901.98297"
         y2="737.26898"
         id="line49" />
      <line
         style="fill:none;stroke:#2778c9;stroke-width:20"
         x1="901.98297"
         y1="737.26898"
         x2="901.98297"
         y2="857.15198"
         id="line51" />
      <line
         style="fill:none;stroke:#2778c9;stroke-width:20"
         x1="901.98297"
         y1="857.15198"
         x2="758.27802"
         y2="1000.858"
         id="line53" />
      <line
         style="fill:none;stroke:#2778c9;stroke-width:20"
         x1="758.27802"
         y1="1000.858"
         x2="758.27802"
         y2="1482.063"
         id="line55" />
      <line
         style="fill:none;stroke:#2778c9;stroke-width:20"
         x1="745.37299"
         y1="1482.063"
         x2="898.15198"
         y2="1634.843"
         id="line57" />
      <line
         style="fill:none;stroke:#2778c9;stroke-width:20"
         x1="898.15198"
         y1="1634.843"
         x2="898.15198"
         y2="2248.271"
         id="line59" />
      <line
         style="fill:none;stroke:#2778c9;stroke-width:20"
         x1="898.15198"
         y1="2248.271"
         x2="838.82098"
         y2="2307.6021"
         id="line61" />
      <line
         style="fill:none;stroke:#2778c9;stroke-width:20"
         x1="838.82098"
         y1="2307.6021"
         x2="838.82098"
         y2="2627.1479"
         id="line63" />
      <line
         style="fill:none;stroke:#2778c9;stroke-width:20"
         x1="838.82098"
         y1="2627.1479"
         x2="896.94501"
         y2="2685.272"
         id="line65" />
      <line
         style="fill:none;stroke:#2778c9;stroke-width:20"
         x1="906.68103"
         y1="2699.2439"
         x2="906.68103"
         y2="3460.2129"
         id="line67" />
      <line
         style="fill:none;stroke:#2778c9;stroke-width:20"
         x1="906.68103"
         y1="3460.2129"
         x2="1141.87"
         y2="3695.4021"
         id="line69" />
    </g>
    <g
       transform="matrix(2.1600002,0,0,2.1600002,1.4158393,-983.74369)"
       id="g71">
      <line
         style="fill:none;stroke:#b840c9;stroke-width:20"
         x1="272.26801"
         y1="966.15997"
         x2="272.26801"
         y2="1429.917"
         id="line73" />
      <line
         style="fill:none;stroke:#b840c9;stroke-width:20"
         x1="272.26801"
         y1="1429.917"
         x2="455.30801"
         y2="1612.895"
         id="line75" />
      <line
         style="fill:none;stroke:#b840c9;stroke-width:20"
         x1="455.30801"
         y1="1612.895"
         x2="455.30801"
         y2="1803.0341"
         id="line77" />
      <line
         style="fill:none;stroke:#b840c9;stroke-width:20"
         x1="455.30801"
         y1="1803.0341"
         x2="1424.449"
         y2="2772.176"
         id="line79" />
      <line
         style="fill:none;stroke:#b840c9;stroke-width:20"
         x1="1424.449"
         y1="2772.176"
         x2="1424.449"
         y2="3009.8359"
         id="line81" />
    </g>
    <g
       transform="matrix(2.1600002,0,0,2.1600002,1.4158393,-983.74369)"
       id="g83">
      <line
         style="fill:none;stroke:#029302;stroke-width:20"
         x1="228.67999"
         y1="1934.293"
         x2="325.556"
         y2="2031.1689"
         id="line85" />
      <line
         style="fill:none;stroke:#029302;stroke-width:20"
         x1="325.556"
         y1="2031.1689"
         x2="1553.7889"
         y2="2031.1689"
         id="line87" />
      <line
         style="fill:none;stroke:#029302;stroke-width:20"
         x1="1553.7889"
         y1="2031.1689"
         x2="1807.588"
         y2="2284.968"
         id="line89" />
      <line
         style="fill:none;stroke:#029302;stroke-width:21.46278954"
         x1="1807.588"
         y1="2284.968"
         x2="1807.588"
         y2="3106.3406"
         id="line91" />
      <line
         style="fill:none;stroke:#029302;stroke-width:20"
         x1="1794.248"
         y1="3109.3618"
         x2="1955.7461"
         y2="3270.8599"
         id="line93" />
      <line
         style="fill:none;stroke:#029302;stroke-width:20"
         x1="1957.2283"
         y1="3270.8599"
         x2="1957.2283"
         y2="3458.9968"
         id="line95" />
    </g>
    <g
       transform="matrix(2.1600002,0,0,2.1600002,-19.967071,-983.74369)"
       id="g97">
      <line
         style="fill:none;stroke:#ffb000;stroke-width:20"
         x1="961.20203"
         y1="2309.5291"
         x2="1276.967"
         y2="2309.5291"
         id="line99" />
      <line
         style="fill:none;stroke:#ffb000;stroke-width:20"
         x1="1276.967"
         y1="2305.5291"
         x2="1572.74"
         y2="2601.303"
         id="line101" />
      <line
         style="fill:none;stroke:#ffb000;stroke-width:20"
         x1="1572.74"
         y1="2608.303"
         x2="1803.743"
         y2="2377.3"
         id="line103" />
      <line
         style="fill:none;stroke:#ffb000;stroke-width:18.68108368"
         x1="1803.743"
         y1="2378.041"
         x2="2450.7898"
         y2="2378.041"
         id="line105" />
      <line
         style="fill:none;stroke:#ffb000;stroke-width:18.23719597"
         x1="2616.8782"
         y1="2539.3289"
         x2="2616.8782"
         y2="2989.1289"
         id="line109" />
      <line
         style="fill:none;stroke:#ffb000;stroke-width:14.68067074"
         x1="2619.1787"
         y1="2550.7095"
         x2="2454.0029"
         y2="2376.6404"
         id="line103-1" />
    </g>
    <circle
       cx="2128.2141"
       cy="2377.3"
       r="30.681"
       transform="matrix(2.1600002,0,0,2.1600002,683.79804,-983.74369)"
       id="circle133"
       style="fill:#ffffff;stroke:#ffb000;stroke-width:10"
       sodipodi:cx="2128.2141"
       sodipodi:cy="2377.3"
       sodipodi:rx="30.681"
       sodipodi:ry="30.681"
       d="m 2158.8951,2377.3 c 0,16.9447 -13.7363,30.681 -30.681,30.681 -16.9446,0 -30.681,-13.7363 -30.681,-30.681 0,-16.9446 13.7364,-30.681 30.681,-30.681 16.9447,0 30.681,13.7364 30.681,30.681 z" />
    <circle
       cx="1808.0601"
       cy="2375.762"
       r="35.456001"
       transform="matrix(2.1600002,0,0,2.1600002,1.4158393,-983.74369)"
       id="circle135"
       style="fill:#ffb000"
       sodipodi:cx="1808.0601"
       sodipodi:cy="2375.762"
       sodipodi:rx="35.456001"
       sodipodi:ry="35.456001"
       d="m 1843.5161,2375.762 c 0,19.5818 -15.8742,35.456 -35.456,35.456 -19.5819,0 -35.456,-15.8742 -35.456,-35.456 0,-19.5818 15.8741,-35.456 35.456,-35.456 19.5818,0 35.456,15.8742 35.456,35.456 z" />
    <circle
       cx="2265.1831"
       cy="2509.1189"
       r="30.681"
       transform="matrix(2.1600002,0,0,2.1600002,732.55661,-906.90529)"
       id="circle137"
       style="fill:#ffffff;stroke:#ffb000;stroke-width:10"
       sodipodi:cx="2265.1831"
       sodipodi:cy="2509.1189"
       sodipodi:rx="30.681"
       sodipodi:ry="30.681"
       d="m 2295.8641,2509.1189 c 0,16.9446 -13.7363,30.681 -30.681,30.681 -16.9446,0 -30.681,-13.7364 -30.681,-30.681 0,-16.9447 13.7364,-30.681 30.681,-30.681 16.9447,0 30.681,13.7363 30.681,30.681 z" />
    <circle
       cx="2264.8501"
       cy="2744.877"
       r="30.681"
       transform="matrix(2.1600002,0,0,2.1600002,738.95981,-919.71169)"
       id="circle139"
       style="fill:#ffffff;stroke:#ffb000;stroke-width:10"
       sodipodi:cx="2264.8501"
       sodipodi:cy="2744.877"
       sodipodi:rx="30.681"
       sodipodi:ry="30.681"
       d="m 2295.5311,2744.877 c 0,16.9446 -13.7364,30.681 -30.681,30.681 -16.9447,0 -30.681,-13.7364 -30.681,-30.681 0,-16.9447 13.7363,-30.681 30.681,-30.681 16.9446,0 30.681,13.7363 30.681,30.681 z" />
    <circle
       cx="2264.8501"
       cy="2967.48"
       r="30.681"
       transform="matrix(2.1600002,0,0,2.1600002,735.75821,-935.71969)"
       id="circle141"
       style="fill:#ffffff;stroke:#ffb000;stroke-width:10"
       sodipodi:cx="2264.8501"
       sodipodi:cy="2967.48"
       sodipodi:rx="30.681"
       sodipodi:ry="30.681"
       d="m 2295.5311,2967.48 c 0,16.9446 -13.7364,30.681 -30.681,30.681 -16.9447,0 -30.681,-13.7364 -30.681,-30.681 0,-16.9447 13.7363,-30.681 30.681,-30.681 16.9446,0 30.681,13.7363 30.681,30.681 z" />
    <circle
       cx="960.34998"
       cy="2308.5291"
       r="35.456001"
       transform="matrix(2.1600002,0,0,2.1600002,1.4158393,-983.74369)"
       id="circle143"
       style="fill:#ffb000"
       sodipodi:cx="960.34998"
       sodipodi:cy="2308.5291"
       sodipodi:rx="35.456001"
       sodipodi:ry="35.456001"
       d="m 995.80598,2308.5291 c 0,19.5818 -15.8742,35.456 -35.456,35.456 -19.58181,0 -35.45601,-15.8742 -35.45601,-35.456 0,-19.5819 15.8742,-35.456 35.45601,-35.456 19.5818,0 35.456,15.8741 35.456,35.456 z" />
    <circle
       cx="1334.541"
       cy="2362.781"
       r="35.456001"
       transform="matrix(2.1600002,0,0,2.1600002,1.4158393,-983.74369)"
       id="circle145"
       style="fill:#ffb000"
       sodipodi:cx="1334.541"
       sodipodi:cy="2362.781"
       sodipodi:rx="35.456001"
       sodipodi:ry="35.456001"
       d="m 1369.997,2362.781 c 0,19.5818 -15.8742,35.456 -35.456,35.456 -19.5818,0 -35.456,-15.8742 -35.456,-35.456 0,-19.5818 15.8742,-35.456 35.456,-35.456 19.5818,0 35.456,15.8742 35.456,35.456 z" />
    <circle
       cx="1572.537"
       cy="2597.8611"
       r="30.681"
       transform="matrix(2.1600002,0,0,2.1600002,1.4158393,-983.74369)"
       id="circle147"
       style="fill:#ffffff;stroke:#ffb000;stroke-width:10"
       sodipodi:cx="1572.537"
       sodipodi:cy="2597.8611"
       sodipodi:rx="30.681"
       sodipodi:ry="30.681"
       d="m 1603.218,2597.8611 c 0,16.9446 -13.7364,30.681 -30.681,30.681 -16.9447,0 -30.681,-13.7364 -30.681,-30.681 0,-16.9447 13.7363,-30.681 30.681,-30.681 16.9446,0 30.681,13.7363 30.681,30.681 z" />
    <circle
       cx="1552.74"
       cy="1857.198"
       r="30.681"
       transform="matrix(2.1600002,0,0,2.1600002,1.4158393,-983.74369)"
       id="circle149"
       style="fill:#ffffff;stroke:#de0000;stroke-width:10"
       sodipodi:cx="1552.74"
       sodipodi:cy="1857.198"
       sodipodi:rx="30.681"
       sodipodi:ry="30.681"
       d="m 1583.421,1857.198 c 0,16.9446 -13.7364,30.681 -30.681,30.681 -16.9447,0 -30.681,-13.7364 -30.681,-30.681 0,-16.9447 13.7363,-30.681 30.681,-30.681 16.9446,0 30.681,13.7363 30.681,30.681 z" />
    <circle
       cx="1552.74"
       cy="2032.39"
       r="35.456001"
       transform="matrix(2.1600002,0,0,2.1600002,1.4158393,-983.74369)"
       id="circle151"
       style="fill:#de0000"
       sodipodi:cx="1552.74"
       sodipodi:cy="2032.39"
       sodipodi:rx="35.456001"
       sodipodi:ry="35.456001"
       d="m 1588.196,2032.39 c 0,19.5818 -15.8742,35.456 -35.456,35.456 -19.5818,0 -35.456,-15.8742 -35.456,-35.456 0,-19.5818 15.8742,-35.456 35.456,-35.456 19.5818,0 35.456,15.8742 35.456,35.456 z" />
    <circle
       cx="1275.967"
       cy="2311.2561"
       r="35.456001"
       transform="matrix(2.1600002,0,0,2.1600002,1.4158393,-983.74369)"
       id="circle153"
       style="fill:#de0000"
       sodipodi:cx="1275.967"
       sodipodi:cy="2311.2561"
       sodipodi:rx="35.456001"
       sodipodi:ry="35.456001"
       d="m 1311.423,2311.2561 c 0,19.5818 -15.8742,35.456 -35.456,35.456 -19.5818,0 -35.456,-15.8742 -35.456,-35.456 0,-19.5818 15.8742,-35.456 35.456,-35.456 19.5818,0 35.456,15.8742 35.456,35.456 z" />
    <circle
       cx="1119.092"
       cy="2467.375"
       r="35.456001"
       transform="matrix(2.1600002,0,0,2.1600002,1.4158393,-983.74369)"
       id="circle155"
       style="fill:#de0000"
       sodipodi:cx="1119.092"
       sodipodi:cy="2467.375"
       sodipodi:rx="35.456001"
       sodipodi:ry="35.456001"
       d="m 1154.548,2467.375 c 0,19.5818 -15.8742,35.456 -35.456,35.456 -19.5818,0 -35.456,-15.8742 -35.456,-35.456 0,-19.5818 15.8742,-35.456 35.456,-35.456 19.5818,0 35.456,15.8742 35.456,35.456 z" />
    <circle
       cx="901.83002"
       cy="2689.259"
       r="35.456001"
       transform="matrix(2.1600002,0,0,2.1600002,1.4158393,-983.74369)"
       id="circle157"
       style="fill:#de0000"
       sodipodi:cx="901.83002"
       sodipodi:cy="2689.259"
       sodipodi:rx="35.456001"
       sodipodi:ry="35.456001"
       d="m 937.28602,2689.259 c 0,19.5818 -15.87419,35.456 -35.456,35.456 -19.58181,0 -35.456,-15.8742 -35.456,-35.456 0,-19.5818 15.87419,-35.456 35.456,-35.456 19.58181,0 35.456,15.8742 35.456,35.456 z" />
    <circle
       cx="1553.387"
       cy="1539.285"
       r="30.681"
       transform="matrix(2.1600002,0,0,2.1600002,1.4158393,-983.74369)"
       id="circle159"
       style="fill:#ffffff;stroke:#de0000;stroke-width:10"
       sodipodi:cx="1553.387"
       sodipodi:cy="1539.285"
       sodipodi:rx="30.681"
       sodipodi:ry="30.681"
       d="m 1584.068,1539.285 c 0,16.9447 -13.7364,30.681 -30.681,30.681 -16.9447,0 -30.681,-13.7363 -30.681,-30.681 0,-16.9446 13.7363,-30.681 30.681,-30.681 16.9446,0 30.681,13.7364 30.681,30.681 z" />
    <circle
       cx="1553.387"
       cy="1393.306"
       r="30.681"
       transform="matrix(2.1600002,0,0,2.1600002,1.4158393,-983.74369)"
       id="circle161"
       style="fill:#ffffff;stroke:#de0000;stroke-width:10"
       sodipodi:cx="1553.387"
       sodipodi:cy="1393.306"
       sodipodi:rx="30.681"
       sodipodi:ry="30.681"
       d="m 1584.068,1393.306 c 0,16.9447 -13.7364,30.681 -30.681,30.681 -16.9447,0 -30.681,-13.7363 -30.681,-30.681 0,-16.9446 13.7363,-30.681 30.681,-30.681 16.9446,0 30.681,13.7364 30.681,30.681 z" />
    <circle
       cx="1552.74"
       cy="1248.895"
       r="30.681"
       transform="matrix(2.1600002,0,0,2.1600002,1.4158393,-983.74369)"
       id="circle163"
       style="fill:#ffffff;stroke:#de0000;stroke-width:10"
       sodipodi:cx="1552.74"
       sodipodi:cy="1248.895"
       sodipodi:rx="30.681"
       sodipodi:ry="30.681"
       d="m 1583.421,1248.895 c 0,16.9447 -13.7364,30.681 -30.681,30.681 -16.9447,0 -30.681,-13.7363 -30.681,-30.681 0,-16.9446 13.7363,-30.681 30.681,-30.681 16.9446,0 30.681,13.7364 30.681,30.681 z" />
    <circle
       cx="1949.58"
       cy="498.37399"
       r="30.681"
       transform="matrix(2.1600002,0,0,2.1600002,1.4158393,-983.74369)"
       id="circle165"
       style="fill:#ffffff;stroke:#de0000;stroke-width:10"
       sodipodi:cx="1949.58"
       sodipodi:cy="498.37399"
       sodipodi:rx="30.681"
       sodipodi:ry="30.681"
       d="m 1980.261,498.37399 c 0,16.94465 -13.7364,30.681 -30.681,30.681 -16.9447,0 -30.681,-13.73635 -30.681,-30.681 0,-16.94465 13.7363,-30.681 30.681,-30.681 16.9446,0 30.681,13.73635 30.681,30.681 z" />
    <circle
       cx="1695.2629"
       cy="1103.115"
       r="30.681"
       transform="matrix(2.1600002,0,0,2.1600002,1.4158393,-983.74369)"
       id="circle167"
       style="fill:#ffffff;stroke:#de0000;stroke-width:10"
       sodipodi:cx="1695.2629"
       sodipodi:cy="1103.115"
       sodipodi:rx="30.681"
       sodipodi:ry="30.681"
       d="m 1725.9439,1103.115 c 0,16.9446 -13.7363,30.681 -30.681,30.681 -16.9446,0 -30.681,-13.7364 -30.681,-30.681 0,-16.9447 13.7364,-30.681 30.681,-30.681 16.9447,0 30.681,13.7363 30.681,30.681 z" />
    <circle
       cx="1695.431"
       cy="950.79602"
       r="30.681"
       transform="matrix(2.1600002,0,0,2.1600002,1.4158393,-983.74369)"
       id="circle169"
       style="fill:#ffffff;stroke:#de0000;stroke-width:10"
       sodipodi:cx="1695.431"
       sodipodi:cy="950.79602"
       sodipodi:rx="30.681"
       sodipodi:ry="30.681"
       d="m 1726.112,950.79602 c 0,16.94465 -13.7363,30.681 -30.681,30.681 -16.9446,0 -30.681,-13.73635 -30.681,-30.681 0,-16.94465 13.7364,-30.681 30.681,-30.681 16.9447,0 30.681,13.73635 30.681,30.681 z" />
    <circle
       cx="1825.825"
       cy="818.92603"
       r="30.681"
       transform="matrix(2.1600002,0,0,2.1600002,1.4158393,-983.74369)"
       id="circle171"
       style="fill:#ffffff;stroke:#de0000;stroke-width:10"
       sodipodi:cx="1825.825"
       sodipodi:cy="818.92603"
       sodipodi:rx="30.681"
       sodipodi:ry="30.681"
       d="m 1856.506,818.92603 c 0,16.94464 -13.7364,30.681 -30.681,30.681 -16.9447,0 -30.681,-13.73636 -30.681,-30.681 0,-16.94465 13.7363,-30.681 30.681,-30.681 16.9446,0 30.681,13.73635 30.681,30.681 z" />
    <circle
       cx="1949.771"
       cy="695.47699"
       r="30.681"
       transform="matrix(2.1600002,0,0,2.1600002,1.4158393,-983.74369)"
       id="circle173"
       style="fill:#ffffff;stroke:#de0000;stroke-width:10"
       sodipodi:cx="1949.771"
       sodipodi:cy="695.47699"
       sodipodi:rx="30.681"
       sodipodi:ry="30.681"
       d="m 1980.452,695.47699 c 0,16.94465 -13.7364,30.681 -30.681,30.681 -16.9447,0 -30.681,-13.73635 -30.681,-30.681 0,-16.94465 13.7363,-30.681 30.681,-30.681 16.9446,0 30.681,13.73635 30.681,30.681 z" />
    <circle
       cx="493.56"
       cy="3485.1021"
       r="30.681"
       transform="matrix(2.1600002,0,0,2.1600002,0.29744269,-1228.808)"
       id="circle177"
       style="fill:#ffffff;stroke:#de0000;stroke-width:10"
       sodipodi:cx="493.56"
       sodipodi:cy="3485.1021"
       sodipodi:rx="30.681"
       sodipodi:ry="30.681"
       d="m 524.241,3485.1021 c 0,16.9446 -13.73635,30.681 -30.681,30.681 -16.94465,0 -30.681,-13.7364 -30.681,-30.681 0,-16.9447 13.73635,-30.681 30.681,-30.681 16.94465,0 30.681,13.7363 30.681,30.681 z" />
    <circle
       cx="494.194"
       cy="3287.6599"
       r="30.681"
       transform="matrix(2.1600002,0,0,2.1600002,-4.8404655,-1117.5967)"
       id="circle179"
       style="fill:#ffffff;stroke:#de0000;stroke-width:10"
       sodipodi:cx="494.194"
       sodipodi:cy="3287.6599"
       sodipodi:rx="30.681"
       sodipodi:ry="30.681"
       d="m 524.875,3287.6599 c 0,16.9447 -13.73635,30.681 -30.681,30.681 -16.94465,0 -30.681,-13.7363 -30.681,-30.681 0,-16.9446 13.73635,-30.681 30.681,-30.681 16.94465,0 30.681,13.7364 30.681,30.681 z" />
    <circle
       cx="753.12903"
       cy="2833.4319"
       r="30.681"
       transform="matrix(2.1600002,0,0,2.1600002,1.4158393,-983.74369)"
       id="circle181"
       style="fill:#ffffff;stroke:#de0000;stroke-width:10"
       sodipodi:cx="753.12903"
       sodipodi:cy="2833.4319"
       sodipodi:rx="30.681"
       sodipodi:ry="30.681"
       d="m 783.81003,2833.4319 c 0,16.9446 -13.73635,30.681 -30.681,30.681 -16.94465,0 -30.681,-13.7364 -30.681,-30.681 0,-16.9447 13.73635,-30.681 30.681,-30.681 16.94465,0 30.681,13.7363 30.681,30.681 z" />
    <circle
       cx="494.194"
       cy="3091.4919"
       r="30.681"
       transform="matrix(2.1600002,0,0,2.1600002,1.4158393,-983.74369)"
       id="circle183"
       style="fill:#ffffff;stroke:#de0000;stroke-width:10"
       sodipodi:cx="494.194"
       sodipodi:cy="3091.4919"
       sodipodi:rx="30.681"
       sodipodi:ry="30.681"
       d="m 524.875,3091.4919 c 0,16.9447 -13.73635,30.681 -30.681,30.681 -16.94465,0 -30.681,-13.7363 -30.681,-30.681 0,-16.9446 13.73635,-30.681 30.681,-30.681 16.94465,0 30.681,13.7364 30.681,30.681 z" />
    <circle
       cx="623.12"
       cy="2963.4409"
       r="30.681"
       transform="matrix(2.1600002,0,0,2.1600002,1.4158393,-983.74369)"
       id="circle185"
       style="fill:#ffffff;stroke:#de0000;stroke-width:10"
       sodipodi:cx="623.12"
       sodipodi:cy="2963.4409"
       sodipodi:rx="30.681"
       sodipodi:ry="30.681"
       d="m 653.80099,2963.4409 c 0,16.9447 -13.73635,30.681 -30.68099,30.681 -16.94465,0 -30.681,-13.7363 -30.681,-30.681 0,-16.9446 13.73635,-30.681 30.681,-30.681 16.94464,0 30.68099,13.7364 30.68099,30.681 z" />
    <circle
       cx="898.15198"
       cy="1636.501"
       r="30.681"
       transform="matrix(2.1600002,0,0,2.1600002,1.4158393,-983.74369)"
       id="circle187"
       style="fill:#ffffff;stroke:#2778c9;stroke-width:10"
       sodipodi:cx="898.15198"
       sodipodi:cy="1636.501"
       sodipodi:rx="30.681"
       sodipodi:ry="30.681"
       d="m 928.83298,1636.501 c 0,16.9446 -13.73635,30.681 -30.681,30.681 -16.94465,0 -30.681,-13.7364 -30.681,-30.681 0,-16.9447 13.73635,-30.681 30.681,-30.681 16.94465,0 30.681,13.7363 30.681,30.681 z" />
    <circle
       cx="898.15198"
       cy="1951.2791"
       r="35.456001"
       transform="matrix(2.1600002,0,0,2.1600002,1.4158393,-983.74369)"
       id="circle189"
       style="fill:#2778c9"
       sodipodi:cx="898.15198"
       sodipodi:cy="1951.2791"
       sodipodi:rx="35.456001"
       sodipodi:ry="35.456001"
       d="m 933.60798,1951.2791 c 0,19.5818 -15.87419,35.456 -35.456,35.456 -19.58181,0 -35.456,-15.8742 -35.456,-35.456 0,-19.5819 15.87419,-35.456 35.456,-35.456 19.58181,0 35.456,15.8741 35.456,35.456 z" />
    <circle
       cx="838.82098"
       cy="2307.2271"
       r="35.456001"
       transform="matrix(2.1600002,0,0,2.1600002,1.4158393,-983.74369)"
       id="circle191"
       style="fill:#2778c9"
       sodipodi:cx="838.82098"
       sodipodi:cy="2307.2271"
       sodipodi:rx="35.456001"
       sodipodi:ry="35.456001"
       d="m 874.27699,2307.2271 c 0,19.5818 -15.8742,35.456 -35.45601,35.456 -19.5818,0 -35.456,-15.8742 -35.456,-35.456 0,-19.5819 15.8742,-35.4561 35.456,-35.4561 19.58181,0 35.45601,15.8742 35.45601,35.4561 z" />
    <circle
       cx="839.15198"
       cy="2627.1479"
       r="35.456001"
       transform="matrix(2.1600002,0,0,2.1600002,1.4158393,-983.74369)"
       id="circle193"
       style="fill:#2778c9"
       sodipodi:cx="839.15198"
       sodipodi:cy="2627.1479"
       sodipodi:rx="35.456001"
       sodipodi:ry="35.456001"
       d="m 874.60798,2627.1479 c 0,19.5819 -15.87419,35.4561 -35.456,35.4561 -19.58181,0 -35.456,-15.8742 -35.456,-35.4561 0,-19.5818 15.87419,-35.456 35.456,-35.456 19.58181,0 35.456,15.8742 35.456,35.456 z" />
    <circle
       cx="758.27802"
       cy="1494.063"
       r="30.681"
       transform="matrix(2.1600002,0,0,2.1600002,1.4158393,-983.74369)"
       id="circle195"
       style="fill:#ffffff;stroke:#2778c9;stroke-width:10"
       sodipodi:cx="758.27802"
       sodipodi:cy="1494.063"
       sodipodi:rx="30.681"
       sodipodi:ry="30.681"
       d="m 788.95901,1494.063 c 0,16.9446 -13.73635,30.681 -30.68099,30.681 -16.94465,0 -30.681,-13.7364 -30.681,-30.681 0,-16.9447 13.73635,-30.681 30.681,-30.681 16.94464,0 30.68099,13.7363 30.68099,30.681 z" />
    <circle
       cx="758.27802"
       cy="1161.157"
       r="30.681"
       transform="matrix(2.1600002,0,0,2.1600002,1.4158393,-983.74369)"
       id="circle197"
       style="fill:#ffffff;stroke:#2778c9;stroke-width:10"
       sodipodi:cx="758.27802"
       sodipodi:cy="1161.157"
       sodipodi:rx="30.681"
       sodipodi:ry="30.681"
       d="m 788.95901,1161.157 c 0,16.9446 -13.73635,30.681 -30.68099,30.681 -16.94465,0 -30.681,-13.7364 -30.681,-30.681 0,-16.9447 13.73635,-30.681 30.681,-30.681 16.94464,0 30.68099,13.7363 30.68099,30.681 z" />
    <circle
       cx="758.27802"
       cy="1001.14"
       r="30.681"
       transform="matrix(2.1600002,0,0,2.1600002,1.4158393,-983.74369)"
       id="circle199"
       style="fill:#ffffff;stroke:#2778c9;stroke-width:10"
       sodipodi:cx="758.27802"
       sodipodi:cy="1001.14"
       sodipodi:rx="30.681"
       sodipodi:ry="30.681"
       d="m 788.95901,1001.14 c 0,16.9447 -13.73635,30.681 -30.68099,30.681 -16.94465,0 -30.681,-13.7363 -30.681,-30.681 0,-16.94463 13.73635,-30.68099 30.681,-30.68099 16.94464,0 30.68099,13.73636 30.68099,30.68099 z" />
    <circle
       cx="901.98297"
       cy="857.474"
       r="30.681"
       transform="matrix(2.1600002,0,0,2.1600002,1.4158393,-983.74369)"
       id="circle201"
       style="fill:#ffffff;stroke:#2778c9;stroke-width:10"
       sodipodi:cx="901.98297"
       sodipodi:cy="857.474"
       sodipodi:rx="30.681"
       sodipodi:ry="30.681"
       d="m 932.66397,857.474 c 0,16.94465 -13.73635,30.681 -30.681,30.681 -16.94465,0 -30.681,-13.73635 -30.681,-30.681 0,-16.94465 13.73635,-30.681 30.681,-30.681 16.94465,0 30.681,13.73635 30.681,30.681 z" />
    <circle
       cx="901.98297"
       cy="736.64398"
       r="30.681"
       transform="matrix(2.1600002,0,0,2.1600002,1.4158393,-983.74369)"
       id="circle203"
       style="fill:#ffffff;stroke:#2778c9;stroke-width:10"
       sodipodi:cx="901.98297"
       sodipodi:cy="736.64398"
       sodipodi:rx="30.681"
       sodipodi:ry="30.681"
       d="m 932.66397,736.64398 c 0,16.94465 -13.73635,30.681 -30.681,30.681 -16.94465,0 -30.681,-13.73635 -30.681,-30.681 0,-16.94465 13.73635,-30.681 30.681,-30.681 16.94465,0 30.681,13.73635 30.681,30.681 z" />
    <circle
       cx="1025.384"
       cy="612.76703"
       r="30.681"
       transform="matrix(2.1600002,0,0,2.1600002,1.4158393,-983.74369)"
       id="circle205"
       style="fill:#ffffff;stroke:#2778c9;stroke-width:10"
       sodipodi:cx="1025.384"
       sodipodi:cy="612.76703"
       sodipodi:rx="30.681"
       sodipodi:ry="30.681"
       d="m 1056.065,612.76703 c 0,16.94465 -13.7363,30.681 -30.681,30.681 -16.9446,0 -30.68097,-13.73635 -30.68097,-30.681 0,-16.94465 13.73637,-30.681 30.68097,-30.681 16.9447,0 30.681,13.73635 30.681,30.681 z" />
    <circle
       cx="1148.541"
       cy="489.26401"
       r="30.681"
       transform="matrix(2.1600002,0,0,2.1600002,1.4158393,-983.74369)"
       id="circle207"
       style="fill:#ffffff;stroke:#2778c9;stroke-width:10"
       sodipodi:cx="1148.541"
       sodipodi:cy="489.26401"
       sodipodi:rx="30.681"
       sodipodi:ry="30.681"
       d="m 1179.222,489.26401 c 0,16.94465 -13.7363,30.681 -30.681,30.681 -16.9446,0 -30.681,-13.73635 -30.681,-30.681 0,-16.94465 13.7364,-30.681 30.681,-30.681 16.9447,0 30.681,13.73635 30.681,30.681 z" />
    <circle
       cx="905.83002"
       cy="2867.6479"
       r="30.681"
       transform="matrix(2.1600002,0,0,2.1600002,1.4158393,-983.74369)"
       id="circle209"
       style="fill:#ffffff;stroke:#2778c9;stroke-width:10"
       sodipodi:cx="905.83002"
       sodipodi:cy="2867.6479"
       sodipodi:rx="30.681"
       sodipodi:ry="30.681"
       d="m 936.51102,2867.6479 c 0,16.9447 -13.73635,30.681 -30.681,30.681 -16.94465,0 -30.681,-13.7363 -30.681,-30.681 0,-16.9446 13.73635,-30.681 30.681,-30.681 16.94465,0 30.681,13.7364 30.681,30.681 z" />
    <circle
       cx="905.83002"
       cy="3012.021"
       r="30.681"
       transform="matrix(2.1600002,0,0,2.1600002,1.4158393,-983.74369)"
       id="circle211"
       style="fill:#ffffff;stroke:#2778c9;stroke-width:10"
       sodipodi:cx="905.83002"
       sodipodi:cy="3012.021"
       sodipodi:rx="30.681"
       sodipodi:ry="30.681"
       d="m 936.51102,3012.021 c 0,16.9446 -13.73635,30.681 -30.681,30.681 -16.94465,0 -30.681,-13.7364 -30.681,-30.681 0,-16.9447 13.73635,-30.681 30.681,-30.681 16.94465,0 30.681,13.7363 30.681,30.681 z" />
    <circle
       cx="906.68103"
       cy="3157.3049"
       r="30.681"
       transform="matrix(2.1600002,0,0,2.1600002,1.4158393,-983.74369)"
       id="circle213"
       style="fill:#ffffff;stroke:#2778c9;stroke-width:10"
       sodipodi:cx="906.68103"
       sodipodi:cy="3157.3049"
       sodipodi:rx="30.681"
       sodipodi:ry="30.681"
       d="m 937.36203,3157.3049 c 0,16.9447 -13.73635,30.681 -30.681,30.681 -16.94465,0 -30.681,-13.7363 -30.681,-30.681 0,-16.9446 13.73635,-30.681 30.681,-30.681 16.94465,0 30.681,13.7364 30.681,30.681 z" />
    <circle
       cx="905.68103"
       cy="3299.5081"
       r="30.681"
       transform="matrix(2.1600002,0,0,2.1600002,1.4158393,-983.74369)"
       id="circle215"
       style="fill:#ffffff;stroke:#2778c9;stroke-width:10"
       sodipodi:cx="905.68103"
       sodipodi:cy="3299.5081"
       sodipodi:rx="30.681"
       sodipodi:ry="30.681"
       d="m 936.36203,3299.5081 c 0,16.9446 -13.73635,30.681 -30.681,30.681 -16.94465,0 -30.681,-13.7364 -30.681,-30.681 0,-16.9447 13.73635,-30.681 30.681,-30.681 16.94465,0 30.681,13.7363 30.681,30.681 z" />
    <circle
       cx="905.68103"
       cy="3459.4221"
       r="30.681"
       transform="matrix(2.1600002,0,0,2.1600002,1.4158393,-983.74369)"
       id="circle217"
       style="fill:#ffffff;stroke:#2778c9;stroke-width:10"
       sodipodi:cx="905.68103"
       sodipodi:cy="3459.4221"
       sodipodi:rx="30.681"
       sodipodi:ry="30.681"
       d="m 936.36203,3459.4221 c 0,16.9447 -13.73635,30.681 -30.681,30.681 -16.94465,0 -30.681,-13.7363 -30.681,-30.681 0,-16.9446 13.73635,-30.681 30.681,-30.681 16.94465,0 30.681,13.7364 30.681,30.681 z" />
    <circle
       cx="1016.822"
       cy="3570.9751"
       r="30.681"
       transform="matrix(2.1600002,0,0,2.1600002,1.4158393,-983.74369)"
       id="circle219"
       style="fill:#ffffff;stroke:#2778c9;stroke-width:10"
       sodipodi:cx="1016.822"
       sodipodi:cy="3570.9751"
       sodipodi:rx="30.681"
       sodipodi:ry="30.681"
       d="m 1047.503,3570.9751 c 0,16.9446 -13.7363,30.681 -30.681,30.681 -16.94463,0 -30.68098,-13.7364 -30.68098,-30.681 0,-16.9447 13.73635,-30.681 30.68098,-30.681 16.9447,0 30.681,13.7363 30.681,30.681 z" />
    <circle
       cx="1141.351"
       cy="3695.8401"
       r="30.681"
       transform="matrix(2.1600002,0,0,2.1600002,1.4158393,-983.74369)"
       id="circle221"
       style="fill:#ffffff;stroke:#2778c9;stroke-width:10"
       sodipodi:cx="1141.351"
       sodipodi:cy="3695.8401"
       sodipodi:rx="30.681"
       sodipodi:ry="30.681"
       d="m 1172.032,3695.8401 c 0,16.9446 -13.7364,30.681 -30.681,30.681 -16.9447,0 -30.681,-13.7364 -30.681,-30.681 0,-16.9447 13.7363,-30.681 30.681,-30.681 16.9446,0 30.681,13.7363 30.681,30.681 z" />
    <circle
       cx="455.15799"
       cy="1802.0291"
       r="30.681"
       transform="matrix(2.1600002,0,0,2.1600002,1.4158393,-983.74369)"
       id="circle223"
       style="fill:#ffffff;stroke:#b840c9;stroke-width:10"
       sodipodi:cx="455.15799"
       sodipodi:cy="1802.0291"
       sodipodi:rx="30.681"
       sodipodi:ry="30.681"
       d="m 485.83899,1802.0291 c 0,16.9446 -13.73635,30.681 -30.681,30.681 -16.94465,0 -30.681,-13.7364 -30.681,-30.681 0,-16.9447 13.73635,-30.681 30.681,-30.681 16.94465,0 30.681,13.7363 30.681,30.681 z" />
    <circle
       cx="897.83002"
       cy="2245.5271"
       r="35.456001"
       transform="matrix(2.1600002,0,0,2.1600002,1.4158393,-983.74369)"
       id="circle225"
       style="fill:#b840c9"
       sodipodi:cx="897.83002"
       sodipodi:cy="2245.5271"
       sodipodi:rx="35.456001"
       sodipodi:ry="35.456001"
       d="m 933.28602,2245.5271 c 0,19.5818 -15.87419,35.456 -35.456,35.456 -19.58181,0 -35.456,-15.8742 -35.456,-35.456 0,-19.5818 15.87419,-35.456 35.456,-35.456 19.58181,0 35.456,15.8742 35.456,35.456 z" />
    <circle
       cx="1172.766"
       cy="2520.5879"
       r="35.456001"
       transform="matrix(2.1600002,0,0,2.1600002,1.4158393,-983.74369)"
       id="circle227"
       style="fill:#b840c9"
       sodipodi:cx="1172.766"
       sodipodi:cy="2520.5879"
       sodipodi:rx="35.456001"
       sodipodi:ry="35.456001"
       d="m 1208.222,2520.5879 c 0,19.5818 -15.8742,35.456 -35.456,35.456 -19.5818,0 -35.456,-15.8742 -35.456,-35.456 0,-19.5818 15.8742,-35.456 35.456,-35.456 19.5818,0 35.456,15.8742 35.456,35.456 z" />
    <circle
       cx="1424.05"
       cy="2771.7529"
       r="30.681"
       transform="matrix(2.1600002,0,0,2.1600002,1.4158393,-983.74369)"
       id="circle229"
       style="fill:#ffffff;stroke:#b840c9;stroke-width:10"
       sodipodi:cx="1424.05"
       sodipodi:cy="2771.7529"
       sodipodi:rx="30.681"
       sodipodi:ry="30.681"
       d="m 1454.731,2771.7529 c 0,16.9447 -13.7363,30.681 -30.681,30.681 -16.9446,0 -30.681,-13.7363 -30.681,-30.681 0,-16.9446 13.7364,-30.681 30.681,-30.681 16.9447,0 30.681,13.7364 30.681,30.681 z" />
    <circle
       cx="1424.627"
       cy="2998.9709"
       r="30.68"
       transform="matrix(2.1600002,0,0,2.1600002,1.4158393,-983.74369)"
       id="circle231"
       style="fill:#ffffff;stroke:#b840c9;stroke-width:10"
       sodipodi:cx="1424.627"
       sodipodi:cy="2998.9709"
       sodipodi:rx="30.68"
       sodipodi:ry="30.68"
       d="m 1455.307,2998.9709 c 0,16.9441 -13.736,30.68 -30.68,30.68 -16.9441,0 -30.68,-13.7359 -30.68,-30.68 0,-16.944 13.7359,-30.68 30.68,-30.68 16.944,0 30.68,13.736 30.68,30.68 z" />
    <circle
       cx="455.29501"
       cy="1613.6121"
       r="30.68"
       transform="matrix(2.1600002,0,0,2.1600002,1.4158393,-983.74369)"
       id="circle233"
       style="fill:#ffffff;stroke:#b840c9;stroke-width:10"
       sodipodi:cx="455.29501"
       sodipodi:cy="1613.6121"
       sodipodi:rx="30.68"
       sodipodi:ry="30.68"
       d="m 485.97501,1613.6121 c 0,16.9441 -13.7359,30.68 -30.68,30.68 -16.94409,0 -30.68,-13.7359 -30.68,-30.68 0,-16.9441 13.73591,-30.68 30.68,-30.68 16.9441,0 30.68,13.7359 30.68,30.68 z" />
    <circle
       cx="271.655"
       cy="1429.683"
       r="30.68"
       transform="matrix(2.1600002,0,0,2.1600002,1.4158393,-983.74369)"
       id="circle235"
       style="fill:#ffffff;stroke:#b840c9;stroke-width:10"
       sodipodi:cx="271.655"
       sodipodi:cy="1429.683"
       sodipodi:rx="30.68"
       sodipodi:ry="30.68"
       d="m 302.335,1429.683 c 0,16.9441 -13.7359,30.68 -30.68,30.68 -16.9441,0 -30.68,-13.7359 -30.68,-30.68 0,-16.9441 13.7359,-30.68 30.68,-30.68 16.9441,0 30.68,13.7359 30.68,30.68 z" />
    <circle
       cx="271.655"
       cy="1131.995"
       r="30.68"
       transform="matrix(2.1600002,0,0,2.1600002,1.4158393,-983.74369)"
       id="circle237"
       style="fill:#ffffff;stroke:#b840c9;stroke-width:10"
       sodipodi:cx="271.655"
       sodipodi:cy="1131.995"
       sodipodi:rx="30.68"
       sodipodi:ry="30.68"
       d="m 302.335,1131.995 c 0,16.9441 -13.7359,30.68 -30.68,30.68 -16.9441,0 -30.68,-13.7359 -30.68,-30.68 0,-16.9441 13.7359,-30.68 30.68,-30.68 16.9441,0 30.68,13.7359 30.68,30.68 z" />
    <circle
       cx="272.11801"
       cy="958.55701"
       r="30.68"
       transform="matrix(2.1600002,0,0,2.1600002,1.4158393,-983.74369)"
       id="circle239"
       style="fill:#ffffff;stroke:#b840c9;stroke-width:10"
       sodipodi:cx="272.11801"
       sodipodi:cy="958.55701"
       sodipodi:rx="30.68"
       sodipodi:ry="30.68"
       d="m 302.79801,958.55701 c 0,16.94409 -13.7359,30.68 -30.68,30.68 -16.94409,0 -30.68,-13.73591 -30.68,-30.68 0,-16.9441 13.73591,-30.68 30.68,-30.68 16.9441,0 30.68,13.7359 30.68,30.68 z" />
    <circle
       cx="324.85101"
       cy="2031.1689"
       r="30.681"
       transform="matrix(2.1600002,0,0,2.1600002,1.4158393,-983.74369)"
       id="circle241"
       style="fill:#ffffff;stroke:#029302;stroke-width:10"
       sodipodi:cx="324.85101"
       sodipodi:cy="2031.1689"
       sodipodi:rx="30.681"
       sodipodi:ry="30.681"
       d="m 355.53201,2031.1689 c 0,16.9447 -13.73635,30.681 -30.681,30.681 -16.94465,0 -30.681,-13.7363 -30.681,-30.681 0,-16.9446 13.73635,-30.681 30.681,-30.681 16.94465,0 30.681,13.7364 30.681,30.681 z" />
    <circle
       cx="1616.8101"
       cy="2093.7629"
       r="35.456001"
       transform="matrix(2.1600002,0,0,2.1600002,1.4158393,-983.74369)"
       id="circle243"
       style="fill:#029302"
       sodipodi:cx="1616.8101"
       sodipodi:cy="2093.7629"
       sodipodi:rx="35.456001"
       sodipodi:ry="35.456001"
       d="m 1652.2661,2093.7629 c 0,19.5818 -15.8742,35.456 -35.456,35.456 -19.5819,0 -35.456,-15.8742 -35.456,-35.456 0,-19.5818 15.8741,-35.456 35.456,-35.456 19.5818,0 35.456,15.8742 35.456,35.456 z" />
    <circle
       cx="1806.588"
       cy="2284.384"
       r="35.456001"
       transform="matrix(2.1600002,0,0,2.1600002,1.4158393,-983.74369)"
       id="circle245"
       style="fill:#029302"
       sodipodi:cx="1806.588"
       sodipodi:cy="2284.384"
       sodipodi:rx="35.456001"
       sodipodi:ry="35.456001"
       d="m 1842.044,2284.384 c 0,19.5818 -15.8742,35.456 -35.456,35.456 -19.5818,0 -35.456,-15.8742 -35.456,-35.456 0,-19.5818 15.8742,-35.456 35.456,-35.456 19.5818,0 35.456,15.8742 35.456,35.456 z" />
    <circle
       cx="897.83002"
       cy="2031.1689"
       r="35.456001"
       transform="matrix(2.1600002,0,0,2.1600002,1.4158393,-983.74369)"
       id="circle247"
       style="fill:#029302"
       sodipodi:cx="897.83002"
       sodipodi:cy="2031.1689"
       sodipodi:rx="35.456001"
       sodipodi:ry="35.456001"
       d="m 933.28602,2031.1689 c 0,19.5819 -15.87419,35.456 -35.456,35.456 -19.58181,0 -35.456,-15.8741 -35.456,-35.456 0,-19.5818 15.87419,-35.456 35.456,-35.456 19.58181,0 35.456,15.8742 35.456,35.456 z" />
    <circle
       cx="228.83099"
       cy="1935.736"
       r="30.681"
       transform="matrix(2.1600002,0,0,2.1600002,1.4158393,-983.74369)"
       id="circle249"
       style="fill:#ffffff;stroke:#029302;stroke-width:10"
       sodipodi:cx="228.83099"
       sodipodi:cy="1935.736"
       sodipodi:rx="30.681"
       sodipodi:ry="30.681"
       d="m 259.51199,1935.736 c 0,16.9446 -13.73635,30.681 -30.681,30.681 -16.94464,0 -30.681,-13.7364 -30.681,-30.681 0,-16.9447 13.73636,-30.681 30.681,-30.681 16.94465,0 30.681,13.7363 30.681,30.681 z" />
    <circle
       cx="1807.0601"
       cy="2607.178"
       r="30.681"
       transform="matrix(2.1600002,0,0,2.1600002,1.4158393,-842.87329)"
       id="circle251"
       style="fill:#ffffff;stroke:#029302;stroke-width:10"
       sodipodi:cx="1807.0601"
       sodipodi:cy="2607.178"
       sodipodi:rx="30.681"
       sodipodi:ry="30.681"
       d="m 1837.7411,2607.178 c 0,16.9446 -13.7364,30.681 -30.681,30.681 -16.9447,0 -30.681,-13.7364 -30.681,-30.681 0,-16.9447 13.7363,-30.681 30.681,-30.681 16.9446,0 30.681,13.7363 30.681,30.681 z" />
    <circle
       cx="1807.0601"
       cy="2803.1809"
       r="30.681"
       transform="matrix(2.1600002,0,0,2.1600002,1.4158393,-817.26009)"
       id="circle253"
       style="fill:#ffffff;stroke:#029302;stroke-width:10"
       sodipodi:cx="1807.0601"
       sodipodi:cy="2803.1809"
       sodipodi:rx="30.681"
       sodipodi:ry="30.681"
       d="m 1837.7411,2803.1809 c 0,16.9447 -13.7364,30.681 -30.681,30.681 -16.9447,0 -30.681,-13.7363 -30.681,-30.681 0,-16.9446 13.7363,-30.681 30.681,-30.681 16.9446,0 30.681,13.7364 30.681,30.681 z" />
    <circle
       cx="1969.0861"
       cy="3159.356"
       r="30.681"
       transform="matrix(2.1600002,0,0,2.1600002,-24.196986,-743.62329)"
       id="circle255"
       style="fill:#ffffff;stroke:#029302;stroke-width:10"
       sodipodi:cx="1969.0861"
       sodipodi:cy="3159.356"
       sodipodi:rx="30.681"
       sodipodi:ry="30.681"
       d="m 1999.7671,3159.356 c 0,16.9446 -13.7364,30.681 -30.681,30.681 -16.9447,0 -30.681,-13.7364 -30.681,-30.681 0,-16.9447 13.7363,-30.681 30.681,-30.681 16.9446,0 30.681,13.7363 30.681,30.681 z" />
    <circle
       cx="1969.0861"
       cy="3346.0681"
       r="30.681"
       transform="matrix(2.1600002,0,0,2.1600002,-27.39859,-734.01849)"
       id="circle257"
       style="fill:#ffffff;stroke:#029302;stroke-width:10"
       sodipodi:cx="1969.0861"
       sodipodi:cy="3346.0681"
       sodipodi:rx="30.681"
       sodipodi:ry="30.681"
       d="m 1999.7671,3346.0681 c 0,16.9447 -13.7364,30.681 -30.681,30.681 -16.9447,0 -30.681,-13.7363 -30.681,-30.681 0,-16.9446 13.7363,-30.681 30.681,-30.681 16.9446,0 30.681,13.7364 30.681,30.681 z" />
    <circle
       cx="1807.0601"
       cy="2998.4819"
       r="30.681"
       transform="matrix(2.1600002,0,0,2.1600002,1.4158393,-711.60729)"
       id="circle259"
       style="fill:#ffffff;stroke:#029302;stroke-width:10"
       sodipodi:cx="1807.0601"
       sodipodi:cy="2998.4819"
       sodipodi:rx="30.681"
       sodipodi:ry="30.681"
       d="m 1837.7411,2998.4819 c 0,16.9447 -13.7364,30.681 -30.681,30.681 -16.9447,0 -30.681,-13.7363 -30.681,-30.681 0,-16.9446 13.7363,-30.681 30.681,-30.681 16.9446,0 30.681,13.7364 30.681,30.681 z" />
    <circle
       cx="493.56"
       cy="3485.1021"
       r="30.681"
       transform="matrix(2.1600002,0,0,2.1600002,3.5816354,-923.29189)"
       id="circle177-1"
       style="fill:#ffffff;stroke:#de0000;stroke-width:10"
       sodipodi:cx="493.56"
       sodipodi:cy="3485.1021"
       sodipodi:rx="30.681"
       sodipodi:ry="30.681"
       d="m 524.241,3485.1021 c 0,16.9446 -13.73635,30.681 -30.681,30.681 -16.94465,0 -30.681,-13.7364 -30.681,-30.681 0,-16.9447 13.73635,-30.681 30.681,-30.681 16.94465,0 30.681,13.7363 30.681,30.681 z" />
  </g>
</svg>
