<?xml version="1.0" encoding="UTF-8" standalone="no"?>
<!DOCTYPE svg PUBLIC "-//W3C//DTD SVG 1.1 Tiny//EN" "http://www.w3.org/Graphics/SVG/1.1/DTD/svg11-tiny.dtd">
<svg xmlns="http://www.w3.org/2000/svg" xmlns:xlink="http://www.w3.org/1999/xlink" baseProfile="tiny" height="64pt" version="1.1" viewBox="0 0 64 64" width="64pt">
<path d=" M 0.00 0.00 L 38.12 0.00 C 35.73 1.29 33.24 2.42 30.94 3.90 C 27.83 5.92 25.66 9.00 23.03 11.56 C 22.55 11.54 21.58 11.51 21.10 11.50 C 20.74 8.58 20.36 5.65 19.94 2.74 C 18.54 3.82 17.15 4.89 15.75 5.96 C 17.21 7.77 18.63 9.61 20.11 11.41 C 20.30 11.66 20.68 12.15 20.87 12.40 C 18.63 14.49 16.66 16.85 14.78 19.26 C 13.50 17.39 12.40 15.41 11.20 13.49 C 10.35 18.66 9.71 24.03 10.89 29.19 C 11.35 31.51 13.87 32.45 15.43 33.94 C 13.39 35.38 10.90 35.67 8.50 36.02 C 10.25 36.88 12.04 37.64 13.81 38.47 C 11.35 40.83 8.00 41.41 4.74 41.73 C 7.48 45.23 11.80 43.99 15.52 43.42 C 13.31 46.04 10.31 47.72 6.86 47.96 C 8.79 48.64 10.74 49.82 12.87 49.45 C 15.83 48.85 18.15 46.79 20.57 45.13 C 19.89 46.50 19.19 47.85 18.44 49.19 C 18.04 49.91 17.64 50.64 17.26 51.37 C 14.77 52.18 12.26 52.94 9.75 53.69 C 9.60 57.29 8.40 60.68 7.11 64.00 L 0.00 64.00 L 0.00 0.00 Z" fill="#ffffff"/>
<path d=" M 38.12 0.00 L 41.09 0.00 C 39.31 1.28 37.52 2.56 35.77 3.88 C 40.45 2.62 46.46 -0.85 50.66 3.18 C 51.11 3.54 52.00 4.27 52.45 4.63 C 47.47 5.00 42.71 6.62 38.55 9.37 C 41.88 9.35 45.90 7.94 48.53 10.74 C 48.08 11.76 47.63 12.78 47.17 13.79 C 45.41 13.33 43.64 12.91 41.86 12.53 C 39.92 15.43 41.31 18.44 42.72 21.20 C 43.86 24.79 43.92 28.86 46.14 32.02 C 46.57 32.13 47.44 32.34 47.87 32.45 C 49.79 31.93 51.62 31.14 53.45 30.39 C 51.94 32.43 50.04 34.11 47.93 35.50 C 50.98 36.89 54.16 36.12 57.19 35.09 C 56.26 36.53 55.64 38.29 54.22 39.33 C 52.05 40.06 49.75 40.26 47.54 40.85 C 50.09 40.96 52.64 40.71 55.19 40.62 C 53.87 42.26 52.76 44.28 50.72 45.12 C 48.78 45.76 46.70 45.61 44.69 45.81 C 46.07 46.31 47.47 46.77 48.87 47.22 C 48.70 47.56 48.35 48.24 48.18 48.58 L 47.20 48.58 C 45.57 48.56 43.94 48.55 42.31 48.66 C 41.16 47.39 40.03 46.12 38.91 44.84 C 38.87 44.25 38.80 43.07 38.76 42.48 C 40.96 40.12 44.93 37.94 44.20 34.21 C 43.02 31.92 40.81 29.73 38.26 29.13 C 38.88 30.85 39.90 32.37 40.88 33.89 C 39.28 32.18 37.65 30.50 35.98 28.86 C 37.56 28.34 39.14 27.85 40.74 27.42 C 41.48 24.04 41.34 20.40 38.68 17.86 C 33.52 13.78 26.15 15.75 21.40 19.46 C 18.74 21.30 20.12 24.81 19.92 27.49 C 21.07 27.54 22.23 27.60 23.38 27.66 C 22.14 29.62 20.86 31.57 19.72 33.59 C 19.19 34.63 18.70 35.70 18.45 36.85 C 20.18 39.75 22.86 41.91 25.08 44.42 C 24.42 46.56 23.51 48.62 22.37 50.55 C 21.07 50.09 19.75 49.64 18.44 49.19 C 19.19 47.85 19.89 46.50 20.57 45.13 C 18.15 46.79 15.83 48.85 12.87 49.45 C 10.74 49.82 8.79 48.64 6.86 47.96 C 10.31 47.72 13.31 46.04 15.52 43.42 C 11.80 43.99 7.48 45.23 4.74 41.73 C 8.00 41.41 11.35 40.83 13.81 38.47 C 12.04 37.64 10.25 36.88 8.50 36.02 C 10.90 35.67 13.39 35.38 15.43 33.94 C 17.51 30.47 17.69 26.37 18.14 22.46 C 19.26 18.88 21.12 15.60 22.83 12.28 C 22.18 12.32 21.52 12.36 20.87 12.40 C 20.68 12.15 20.30 11.66 20.11 11.41 L 21.10 11.50 C 21.58 11.51 22.55 11.54 23.03 11.56 C 25.66 9.00 27.83 5.92 30.94 3.90 C 33.24 2.42 35.73 1.29 38.12 0.00 Z" fill="#030302"/>
<path d=" M 41.09 0.00 L 64.00 0.00 L 64.00 61.61 C 59.84 57.96 57.42 52.92 55.00 48.06 C 52.73 48.30 50.46 48.56 48.18 48.58 C 48.35 48.24 48.70 47.56 48.87 47.22 C 47.47 46.77 46.07 46.31 44.69 45.81 C 46.70 45.61 48.78 45.76 50.72 45.12 C 52.76 44.28 53.87 42.26 55.19 40.62 C 52.64 40.71 50.09 40.96 47.54 40.85 C 49.75 40.26 52.05 40.06 54.22 39.33 C 55.64 38.29 56.26 36.53 57.19 35.09 C 54.16 36.12 50.98 36.89 47.93 35.50 C 50.04 34.11 51.94 32.43 53.45 30.39 C 51.62 31.14 49.79 31.93 47.87 32.45 C 50.81 29.21 51.29 24.90 50.54 20.74 C 50.36 18.14 50.16 15.54 49.86 12.95 C 49.45 12.19 49.00 11.46 48.53 10.74 C 45.90 7.94 41.88 9.35 38.55 9.37 C 42.71 6.62 47.47 5.00 52.45 4.63 C 52.00 4.27 51.11 3.54 50.66 3.18 C 46.46 -0.85 40.45 2.62 35.77 3.88 C 37.52 2.56 39.31 1.28 41.09 0.00 Z" fill="#ffffff"/>
<path d=" M 15.75 5.96 C 17.15 4.89 18.54 3.82 19.94 2.74 C 20.36 5.65 20.74 8.58 21.10 11.50 L 20.11 11.41 C 18.63 9.61 17.21 7.77 15.75 5.96 Z" fill="#1d3f34"/>
<path d=" M 48.53 10.74 C 49.00 11.46 49.45 12.19 49.86 12.95 C 48.08 14.66 46.78 17.22 44.26 17.94 C 43.31 16.21 42.58 14.37 41.86 12.53 C 43.64 12.91 45.41 13.33 47.17 13.79 C 47.63 12.78 48.08 11.76 48.53 10.74 Z" fill="#bda2aa"/>
<path d=" M 20.87 12.40 C 21.52 12.36 22.18 12.32 22.83 12.28 C 21.12 15.60 19.26 18.88 18.14 22.46 C 16.99 21.43 15.84 20.39 14.78 19.26 C 16.66 16.85 18.63 14.49 20.87 12.40 Z" fill="#2d4139"/>
<path d=" M 42.72 21.20 C 41.31 18.44 39.92 15.43 41.86 12.53 C 42.58 14.37 43.31 16.21 44.26 17.94 C 46.78 17.22 48.08 14.66 49.86 12.95 C 50.16 15.54 50.36 18.14 50.54 20.74 C 50.26 21.91 49.96 23.08 49.65 24.24 C 49.39 22.41 49.14 20.59 48.90 18.77 C 47.89 20.26 46.89 21.74 45.88 23.23 C 46.19 21.66 46.51 20.10 46.83 18.54 C 45.46 19.43 44.09 20.32 42.72 21.20 Z" fill="#58534f"/>
<path d=" M 10.89 29.19 C 9.71 24.03 10.35 18.66 11.20 13.49 C 12.40 15.41 13.50 17.39 14.78 19.26 C 15.84 20.39 16.99 21.43 18.14 22.46 C 17.69 26.37 17.51 30.47 15.43 33.94 C 13.87 32.45 11.35 31.51 10.89 29.19 Z" fill="#7c787c"/>
<path d=" M 21.40 19.46 C 26.15 15.75 33.52 13.78 38.68 17.86 C 40.01 20.70 42.19 24.34 39.52 27.13 C 39.22 27.08 38.61 26.97 38.30 26.91 C 37.08 25.03 38.23 22.61 37.24 20.65 C 36.43 19.64 35.45 18.79 34.51 17.90 C 33.64 19.56 32.80 21.24 31.88 22.88 C 31.54 22.98 30.84 23.16 30.50 23.26 C 29.66 21.72 28.89 20.14 28.10 18.59 C 26.79 19.85 25.41 21.05 24.30 22.50 C 23.74 25.00 25.39 27.28 26.33 29.48 C 25.18 32.15 22.88 34.62 19.72 33.59 C 20.86 31.57 22.14 29.62 23.38 27.66 C 22.23 27.60 21.07 27.54 19.92 27.49 C 20.12 24.81 18.74 21.30 21.40 19.46 Z" fill="#838088"/>
<path d=" M 34.51 17.90 C 35.45 18.79 36.43 19.64 37.24 20.65 C 38.23 22.61 37.08 25.03 38.30 26.91 C 38.61 26.97 39.22 27.08 39.52 27.13 C 42.19 24.34 40.01 20.70 38.68 17.86 C 41.34 20.40 41.48 24.04 40.74 27.42 C 39.14 27.85 37.56 28.34 35.98 28.86 C 35.77 28.64 35.33 28.21 35.11 27.99 C 36.39 25.23 37.20 21.96 34.90 19.42 C 34.58 21.13 34.48 22.86 34.42 24.58 C 33.57 24.02 32.73 23.45 31.88 22.88 C 32.80 21.24 33.64 19.56 34.51 17.90 Z" fill="#ffffff"/>
<path d=" M 24.30 22.50 C 25.41 21.05 26.79 19.85 28.10 18.59 C 28.89 20.14 29.66 21.72 30.50 23.26 C 30.21 23.32 29.65 23.46 29.37 23.52 C 28.43 22.60 27.52 21.64 26.57 20.72 C 26.44 23.14 26.45 25.57 26.85 27.96 C 26.72 28.34 26.46 29.10 26.33 29.48 C 25.39 27.28 23.74 25.00 24.30 22.50 Z" fill="#ffffff"/>
<path d=" M 42.72 21.20 C 44.09 20.32 45.46 19.43 46.83 18.54 C 46.51 20.10 46.19 21.66 45.88 23.23 C 46.89 21.74 47.89 20.26 48.90 18.77 C 49.14 20.59 49.39 22.41 49.65 24.24 C 49.96 23.08 50.26 21.91 50.54 20.74 C 51.29 24.90 50.81 29.21 47.87 32.45 C 47.44 32.34 46.57 32.13 46.14 32.02 C 43.92 28.86 43.86 24.79 42.72 21.20 Z" fill="#817a82"/>
<path d=" M 26.57 20.72 C 27.52 21.64 28.43 22.60 29.37 23.52 C 29.65 23.46 30.21 23.32 30.50 23.26 C 30.84 23.16 31.54 22.98 31.88 22.88 C 32.73 23.45 33.57 24.02 34.42 24.58 C 34.48 22.86 34.58 21.13 34.90 19.42 C 37.20 21.96 36.39 25.23 35.11 27.99 C 34.09 30.60 32.67 33.02 31.12 35.34 C 29.60 32.94 28.13 30.50 26.85 27.96 C 26.45 25.57 26.44 23.14 26.57 20.72 Z" fill="#020202"/>
<path d=" M 32.99 30.28 C 30.44 29.33 30.30 24.93 33.24 24.46 C 33.28 26.40 33.20 28.35 32.99 30.28 Z" fill="#ffffff"/>
<path d=" M 26.85 27.96 C 28.13 30.50 29.60 32.94 31.12 35.34 C 32.67 33.02 34.09 30.60 35.11 27.99 C 35.33 28.21 35.77 28.64 35.98 28.86 C 37.65 30.50 39.28 32.18 40.88 33.89 C 39.90 32.37 38.88 30.85 38.26 29.13 C 40.81 29.73 43.02 31.92 44.20 34.21 C 44.93 37.94 40.96 40.12 38.76 42.48 C 36.86 42.20 34.96 41.95 33.06 41.69 C 32.10 41.54 31.13 41.39 30.17 41.23 C 29.04 42.86 27.91 44.49 26.74 46.10 C 26.18 45.55 25.63 44.99 25.08 44.42 C 22.86 41.91 20.18 39.75 18.45 36.85 C 18.70 35.70 19.19 34.63 19.72 33.59 C 22.88 34.62 25.18 32.15 26.33 29.48 C 26.46 29.10 26.72 28.34 26.85 27.96 Z" fill="#827d83"/>
<path d=" M 3.10 35.16 C 4.37 35.85 4.34 36.52 2.99 37.17 C 1.70 36.49 1.74 35.82 3.10 35.16 Z" fill="#b09d96"/>
<path d=" M 2.15 41.22 C 3.77 40.72 4.34 41.27 3.83 42.90 C 2.20 43.41 1.64 42.85 2.15 41.22 Z" fill="#cdbdbb"/>
<path d=" M 30.17 41.23 C 31.13 41.39 32.10 41.54 33.06 41.69 C 33.98 43.28 34.94 44.86 35.93 46.41 C 35.58 46.53 34.90 46.76 34.55 46.88 C 33.32 46.50 32.10 46.10 30.89 45.69 C 29.96 46.20 29.03 46.72 28.10 47.23 C 27.63 46.87 27.18 46.49 26.74 46.10 C 27.91 44.49 29.04 42.86 30.17 41.23 Z" fill="#220705"/>
<path d=" M 33.06 41.69 C 34.96 41.95 36.86 42.20 38.76 42.48 C 38.80 43.07 38.87 44.25 38.91 44.84 C 38.17 45.99 37.44 47.15 36.66 48.27 C 35.21 49.44 33.66 50.60 31.84 51.10 C 29.71 51.23 27.71 50.29 25.71 49.72 C 25.78 50.25 25.90 51.31 25.97 51.84 C 24.77 51.40 23.57 50.97 22.37 50.55 C 23.51 48.62 24.42 46.56 25.08 44.42 C 25.63 44.99 26.18 45.55 26.74 46.10 C 27.18 46.49 27.63 46.87 28.10 47.23 C 29.26 47.81 30.44 48.33 31.62 48.85 C 32.58 48.18 33.56 47.52 34.55 46.88 C 34.90 46.76 35.58 46.53 35.93 46.41 C 34.94 44.86 33.98 43.28 33.06 41.69 Z" fill="#8a8486"/>
<path d=" M 36.66 48.27 C 37.44 47.15 38.17 45.99 38.91 44.84 C 40.03 46.12 41.16 47.39 42.31 48.66 C 41.20 49.25 40.10 49.86 39.02 50.51 C 38.23 49.76 37.44 49.02 36.66 48.27 Z" fill="#e0b84b"/>
<path d=" M 28.10 47.23 C 29.03 46.72 29.96 46.20 30.89 45.69 C 32.10 46.10 33.32 46.50 34.55 46.88 C 33.56 47.52 32.58 48.18 31.62 48.85 C 30.44 48.33 29.26 47.81 28.10 47.23 Z" fill="#89261a"/>
<path d=" M 31.84 51.10 C 33.66 50.60 35.21 49.44 36.66 48.27 C 37.44 49.02 38.23 49.76 39.02 50.51 C 38.36 51.08 37.73 51.69 37.12 52.32 C 38.07 53.25 39.51 53.20 40.72 53.56 C 39.74 53.97 38.77 54.39 37.81 54.83 C 39.26 55.11 40.71 55.38 42.16 55.65 C 40.40 55.63 38.64 55.59 36.88 55.57 C 37.02 56.48 37.29 58.31 37.43 59.22 C 33.76 61.26 29.34 60.29 25.34 60.12 C 25.74 58.52 26.13 56.92 26.49 55.32 C 25.04 54.53 23.58 53.76 22.12 52.97 C 23.50 53.14 24.87 53.31 26.25 53.47 C 26.56 55.58 26.89 57.68 27.28 59.77 C 29.97 59.57 32.82 60.30 35.40 59.37 C 36.64 57.30 36.41 54.68 36.00 52.40 C 32.63 53.31 29.16 53.54 25.97 51.84 C 25.90 51.31 25.78 50.25 25.71 49.72 C 27.71 50.29 29.71 51.23 31.84 51.10 Z" fill="#58534f"/>
<path d=" M 48.18 48.58 C 50.46 48.56 52.73 48.30 55.00 48.06 C 57.42 52.92 59.84 57.96 64.00 61.61 L 64.00 64.00 L 41.83 64.00 C 41.22 62.66 40.66 61.30 40.10 59.95 C 42.06 60.61 43.98 61.39 45.92 62.12 C 46.77 57.65 47.09 53.12 47.20 48.58 L 48.18 48.58 Z" fill="#823b84"/>
<path d=" M 17.26 51.37 C 17.64 50.64 18.04 49.91 18.44 49.19 C 19.75 49.64 21.07 50.09 22.37 50.55 C 23.57 50.97 24.77 51.40 25.97 51.84 C 29.16 53.54 32.63 53.31 36.00 52.40 C 36.41 54.68 36.64 57.30 35.40 59.37 C 32.82 60.30 29.97 59.57 27.28 59.77 C 26.89 57.68 26.56 55.58 26.25 53.47 C 24.87 53.31 23.50 53.14 22.12 52.97 C 23.58 53.76 25.04 54.53 26.49 55.32 C 26.13 56.92 25.74 58.52 25.34 60.12 C 24.78 60.33 23.65 60.75 23.08 60.96 C 21.13 61.71 19.19 62.48 17.23 63.20 C 16.17 59.34 15.38 55.12 17.26 51.37 Z" fill="#fb98cd"/>
<path d=" M 42.31 48.66 C 43.94 48.55 45.57 48.56 47.20 48.58 C 47.09 53.12 46.77 57.65 45.92 62.12 C 43.98 61.39 42.06 60.61 40.10 59.95 C 39.22 59.68 38.33 59.44 37.43 59.22 C 37.29 58.31 37.02 56.48 36.88 55.57 C 38.64 55.59 40.40 55.63 42.16 55.65 C 40.71 55.38 39.26 55.11 37.81 54.83 C 38.77 54.39 39.74 53.97 40.72 53.56 C 39.51 53.20 38.07 53.25 37.12 52.32 C 37.73 51.69 38.36 51.08 39.02 50.51 C 40.10 49.86 41.20 49.25 42.31 48.66 Z" fill="#fb99d0"/>
<path d=" M 9.75 53.69 C 12.26 52.94 14.77 52.18 17.26 51.37 C 15.38 55.12 16.17 59.34 17.23 63.20 C 19.19 62.48 21.13 61.71 23.08 60.96 C 23.08 61.72 23.07 63.24 23.06 64.00 L 7.11 64.00 C 8.40 60.68 9.60 57.29 9.75 53.69 Z" fill="#813e86"/>
<path d=" M 2.24 52.24 C 2.79 52.78 2.79 52.78 2.24 52.24 Z" fill="#988f89"/>
<path d=" M 37.43 59.22 C 38.33 59.44 39.22 59.68 40.10 59.95 C 40.66 61.30 41.22 62.66 41.83 64.00 L 23.06 64.00 C 23.07 63.24 23.08 61.72 23.08 60.96 C 23.65 60.75 24.78 60.33 25.34 60.12 C 29.34 60.29 33.76 61.26 37.43 59.22 Z" fill="#ebc234"/>
</svg>
