<?xml version="1.0" encoding="utf-8"?>
<!-- Generator: Adobe Illustrator 14.0.0, SVG Export Plug-In . SVG Version: 6.00 Build 43363)  -->
<!DOCTYPE svg PUBLIC "-//W3C//DTD SVG 1.1//EN" "http://www.w3.org/Graphics/SVG/1.1/DTD/svg11.dtd">
<svg version="1.1" xmlns="http://www.w3.org/2000/svg" xmlns:xlink="http://www.w3.org/1999/xlink" x="0px" y="0px" width="96px"
	 height="96px" viewBox="0 0 96 96" enable-background="new 0 0 96 96" xml:space="preserve">
<g id="DO_NOT_EDIT_-_BOUNDING_BOX">
	<rect id="BOUNDING_BOX" fill="none" width="96" height="96"/>
</g>
<g id="DO_NOT_EDIT_-_SHADOW">
	<path id="SHADOW" opacity="0.4" d="M88.023,49c0,29.633-10.364,40-40,40c-29.635,0-40-10.367-40-40c0-29.634,10.366-40,40-40
		C77.659,9,88.023,19.365,88.023,49z"/>
</g>
<g id="BLUE_BACKGROUNDS">
	<g id="BLUE_4_2_">
		<linearGradient id="BLUE_4_3_" gradientUnits="userSpaceOnUse" x1="47.9995" y1="8.0107" x2="47.9995" y2="87.9897">
			<stop  offset="0.0364" style="stop-color:#4791D9"/>
			<stop  offset="0.2496" style="stop-color:#4288CF"/>
			<stop  offset="0.6102" style="stop-color:#366EB5"/>
			<stop  offset="1" style="stop-color:#264C91"/>
		</linearGradient>
		<path id="BLUE_4_1_" fill="url(#BLUE_4_3_)" d="M8,47.989c0,29.633,10.365,40,40,40c29.637,0,40-10.367,40-40
			c0-28.985-9.926-39.53-38.091-39.979h-3.817C17.928,8.459,8,19.004,8,47.989z"/>
		<linearGradient id="HIGHLIGHT_BLU4_2_" gradientUnits="userSpaceOnUse" x1="47.9995" y1="8.2559" x2="47.9995" y2="87.5043">
			<stop  offset="0.0364" style="stop-color:#FFFFFF"/>
			<stop  offset="0.129" style="stop-color:#F5F7FA"/>
			<stop  offset="0.2858" style="stop-color:#DBE1ED"/>
			<stop  offset="0.4876" style="stop-color:#AFBDD7"/>
			<stop  offset="0.7265" style="stop-color:#738CB8"/>
			<stop  offset="0.9942" style="stop-color:#284D92"/>
			<stop  offset="1" style="stop-color:#264C91"/>
		</linearGradient>
		<path id="HIGHLIGHT_BLU4" opacity="0.25" fill="url(#HIGHLIGHT_BLU4_2_)" d="M48,8C18.365,8,8,18.365,8,48
			c0,29.633,10.365,40,40,40c29.637,0,40-10.367,40-40C88,18.365,77.637,8,48,8z M48,87.023C18.842,87.023,9,77.176,9,48
			S18.842,8.977,48,8.977S87,18.824,87,48S77.158,87.023,48,87.023z"/>
		<linearGradient id="HIGHLIGHT_BLU4_3_" gradientUnits="userSpaceOnUse" x1="47.9995" y1="8.2559" x2="47.9995" y2="87.5043">
			<stop  offset="0.0364" style="stop-color:#FFFFFF"/>
			<stop  offset="0.129" style="stop-color:#F5F7FA"/>
			<stop  offset="0.2858" style="stop-color:#DBE1ED"/>
			<stop  offset="0.4876" style="stop-color:#AFBDD7"/>
			<stop  offset="0.7265" style="stop-color:#738CB8"/>
			<stop  offset="0.9942" style="stop-color:#284D92"/>
			<stop  offset="1" style="stop-color:#264C91"/>
		</linearGradient>
		<path id="HIGHLIGHT_BLU4_1_" opacity="0.25" fill="url(#HIGHLIGHT_BLU4_3_)" d="M48,8C18.365,8,8,18.365,8,48
			c0,29.633,10.365,40,40,40c29.637,0,40-10.367,40-40C88,18.365,77.637,8,48,8z M48,87.023C18.842,87.023,9,77.176,9,48
			S18.842,8.977,48,8.977S87,18.824,87,48S77.158,87.023,48,87.023z"/>
	</g>
</g>
<g id="PLACE_YOUR_GRAPHIC_HERE">
	<g id="Moscow_M">
		<g id="bg">
			<path opacity="0.05" fill="#231F20" d="M54.737,65.379c-0.938,0-1.702-0.764-1.702-1.702v-2.443c0-0.938,0.764-1.702,1.702-1.702
				h0.98l-1.32-3.698l-4.822,8.67c-0.296,0.534-0.86,0.87-1.471,0.876c-0.615,0-1.183-0.325-1.487-0.848l-5.084-8.779l-1.351,3.779
				h0.984c0.938,0,1.701,0.764,1.701,1.702v2.443c0,0.938-0.763,1.702-1.701,1.702H24.061c-0.938,0-1.701-0.764-1.701-1.702v-2.443
				c0-0.938,0.763-1.702,1.701-1.702h1.97l11.648-29.333c0.245-0.617,0.831-1.037,1.493-1.071c0.001,0,0.001,0,0.002,0
				c0.711,0,1.293,0.34,1.591,0.91l7.314,13.941l7.236-13.956c0.291-0.566,0.869-0.918,1.509-0.918
				c0.74,0.035,1.336,0.449,1.583,1.08l11.519,29.347h1.779c0.938,0,1.702,0.764,1.702,1.702v2.443c0,0.938-0.764,1.702-1.702,1.702
				H54.737z"/>
			<path opacity="0.1" fill="#231F20" d="M54.737,64.812c-0.625,0-1.135-0.51-1.135-1.135v-2.443c0-0.625,0.51-1.135,1.135-1.135
				h1.785l-2.012-5.636l-5.431,9.765c-0.197,0.355-0.573,0.58-0.981,0.584c-0.413,0-0.789-0.217-0.991-0.565l-5.697-9.837
				l-2.033,5.689h1.789c0.625,0,1.134,0.51,1.134,1.135v2.443c0,0.625-0.509,1.135-1.134,1.135H24.061
				c-0.625,0-1.134-0.51-1.134-1.135v-2.443c0-0.625,0.509-1.135,1.134-1.135h2.354l11.79-29.691
				c0.163-0.411,0.554-0.691,0.995-0.714c0.002,0,0.003,0,0.005,0c0.479,0,0.862,0.233,1.058,0.606l7.819,14.905l7.736-14.922
				c0.194-0.377,0.58-0.612,1.006-0.612c0.502,0.024,0.894,0.307,1.056,0.72L69.54,60.099h2.166c0.625,0,1.135,0.51,1.135,1.135
				v2.443c0,0.625-0.51,1.135-1.135,1.135H54.737z"/>
			<path opacity="0.15" fill="#231F20" d="M48.089,64.244c-0.202,0-0.389-0.108-0.491-0.283l-6.309-10.895l-2.716,7.6h2.593
				c0.313,0,0.567,0.254,0.567,0.567v2.443c0,0.313-0.254,0.567-0.567,0.567H24.061c-0.313,0-0.567-0.254-0.567-0.567v-2.443
				c0-0.313,0.254-0.567,0.567-0.567H26.8l11.932-30.049c0.082-0.206,0.276-0.345,0.497-0.356c0.01-0.001,0.02-0.001,0.03-0.001
				c0.21,0,0.404,0.116,0.502,0.304l8.325,15.869l8.236-15.888c0.098-0.189,0.292-0.306,0.503-0.306c0.01,0,0.02,0,0.029,0
				c0.223,0.012,0.417,0.152,0.498,0.359l11.801,30.068h2.553c0.313,0,0.567,0.254,0.567,0.567v2.443
				c0,0.313-0.254,0.567-0.567,0.567H54.737c-0.313,0-0.567-0.254-0.567-0.567v-2.443c0-0.313,0.254-0.567,0.567-0.567h2.59
				l-2.703-7.573l-6.04,10.859c-0.099,0.179-0.287,0.29-0.491,0.292C48.092,64.244,48.09,64.244,48.089,64.244L48.089,64.244z"/>
			<polygon opacity="0.3" fill="#231F20" points="56.825,30.805 48.089,47.657 39.259,30.826 27.185,61.233 24.061,61.233 
				24.061,63.677 41.167,63.677 41.167,61.233 37.769,61.233 41.167,51.724 48.089,63.677 54.737,51.724 58.132,61.233 
				54.737,61.233 54.737,63.677 71.706,63.677 71.706,61.233 68.767,61.233 			"/>
			<polygon fill="#FFFFFF" points="56.825,28.805 48.089,45.657 39.259,28.826 27.185,59.233 24.061,59.233 24.061,61.677 
				41.167,61.677 41.167,59.233 37.769,59.233 41.167,49.724 48.089,61.677 54.737,49.724 58.132,59.233 54.737,59.233 
				54.737,61.677 71.706,61.677 71.706,59.233 68.767,59.233 			"/>
			<path opacity="0.05" fill="#231F20" d="M20.257,72.293c-0.574,0-1.105-0.287-1.42-0.767c-0.18-0.271-4.446-6.815-4.446-16.881
				c0-18.713,15.086-33.937,33.63-33.937c18.546,0,33.636,15.224,33.636,33.937c0,9.47-4.253,16.541-4.435,16.838
				c-0.303,0.502-0.859,0.816-1.451,0.816L20.257,72.293z M72.366,64.963c0.759-1.71,2.182-5.569,2.182-10.417
				c0-14.645-11.851-26.559-26.417-26.559c-14.568,0-26.42,11.915-26.42,26.559c0,4.785,1.365,8.67,2.095,10.403L72.366,64.963z"/>
			<path opacity="0.1" fill="#231F20" d="M20.257,71.726c-0.383,0-0.737-0.191-0.947-0.511c-0.176-0.266-4.353-6.674-4.353-16.569
				c0-18.4,14.832-33.37,33.063-33.37c18.234,0,33.069,14.97,33.069,33.37c0,9.314-4.173,16.251-4.351,16.542
				c-0.202,0.335-0.573,0.545-0.968,0.545L20.257,71.726z M72.731,65.53c0.718-1.539,2.384-5.685,2.384-10.984
				c0-14.958-12.104-27.126-26.984-27.126c-14.88,0-26.987,12.168-26.987,27.126c0,5.232,1.598,9.408,2.289,10.97L72.731,65.53z"/>
			<path opacity="0.15" fill="#231F20" d="M20.257,71.158c-0.19,0-0.368-0.096-0.473-0.255c-0.174-0.263-4.26-6.554-4.26-16.258
				c0-18.088,14.578-32.803,32.496-32.803c17.921,0,32.501,14.715,32.501,32.803c0,9.118-4.092,15.96-4.267,16.246
				c-0.103,0.17-0.286,0.273-0.484,0.273L20.257,71.158z M73.088,66.098c0.573-1.161,2.595-5.675,2.595-11.552
				c0-15.27-12.359-27.693-27.552-27.693c-15.193,0-27.554,12.423-27.554,27.693c0,5.806,1.936,10.351,2.491,11.536L73.088,66.098z"
				/>
			<path opacity="0.3" fill="#231F20" d="M48.021,22.409c-17.637,0-31.929,14.428-31.929,32.236c0,9.646,4.166,15.945,4.166,15.945
				l55.514,0.007c0,0,4.184-6.888,4.184-15.952C79.955,36.837,65.658,22.409,48.021,22.409z M73.434,66.665l-50.719-0.017
				c0,0-2.704-5.123-2.704-12.103c0-15.609,12.59-28.26,28.121-28.26c15.521,0,28.119,12.65,28.119,28.26
				C76.25,61.602,73.434,66.665,73.434,66.665z"/>
			<path fill="#FFFFFF" d="M48.021,20.409c-17.637,0-31.929,14.428-31.929,32.236c0,9.646,4.166,15.945,4.166,15.945l55.514,0.007
				c0,0,4.184-6.888,4.184-15.952C79.955,34.837,65.658,20.409,48.021,20.409z M73.434,64.665l-50.719-0.017
				c0,0-2.704-5.123-2.704-12.103c0-15.609,12.59-28.26,28.121-28.26c15.521,0,28.119,12.65,28.119,28.26
				C76.25,59.602,73.434,64.665,73.434,64.665z"/>
		</g>
		<linearGradient id="SVGID_1_" gradientUnits="userSpaceOnUse" x1="24.0981" y1="28.5347" x2="70.0149" y2="75.2135">
			<stop  offset="0.0442" style="stop-color:#FFFFFF"/>
			<stop  offset="1" style="stop-color:#D9D4CA"/>
		</linearGradient>
		<path fill="url(#SVGID_1_)" d="M48.021,21.409c-17.637,0-31.93,14.428-31.93,32.236c0,9.646,4.166,15.945,4.166,15.945
			l55.514,0.007c0,0,4.184-6.888,4.184-15.952C79.955,35.837,65.658,21.409,48.021,21.409z M73.434,65.665l-50.719-0.017
			c0,0-2.704-5.123-2.704-12.103c0-15.609,12.59-28.26,28.121-28.26c15.521,0,28.119,12.65,28.119,28.26
			C76.25,60.602,73.434,65.665,73.434,65.665z"/>
		<linearGradient id="SVGID_2_" gradientUnits="userSpaceOnUse" x1="29.8545" y1="35.6333" x2="63.5446" y2="69.3234">
			<stop  offset="0.0442" style="stop-color:#FFFFFF"/>
			<stop  offset="1" style="stop-color:#D9D4CA"/>
		</linearGradient>
		<polygon fill="url(#SVGID_2_)" points="56.844,29.805 48.107,46.657 39.278,29.826 27.204,60.233 24.08,60.233 24.08,62.677 
			41.185,62.677 41.185,60.233 37.787,60.233 41.185,50.724 48.107,62.677 54.756,50.724 58.15,60.233 54.756,60.233 54.756,62.677 
			71.725,62.677 71.725,60.233 68.785,60.233 		"/>
	</g>
</g>
</svg>
