<?xml version="1.0" encoding="utf-8"?>
<!-- Generator: Adobe Illustrator 14.0.0, SVG Export Plug-In . SVG Version: 6.00 Build 43363)  -->
<!DOCTYPE svg PUBLIC "-//W3C//DTD SVG 1.1//EN" "http://www.w3.org/Graphics/SVG/1.1/DTD/svg11.dtd">
<svg version="1.1" xmlns="http://www.w3.org/2000/svg" xmlns:xlink="http://www.w3.org/1999/xlink" x="0px" y="0px"
	 width="2653.23px" height="3800px" viewBox="0 0 2653.23 3800" enable-background="new 0 0 2653.23 3800" xml:space="preserve">
<g id="river">
	<path fill="#EEFBFF" stroke="#7F7F7F" d="M0,1100.486l30.565,10.099l28.935,8.638l28.367,5.806l24.133,3.694l28.123,1.227
		l35.377-3.227l33.665-8.622l39.127-11.907l29.708-6.971l28.385-3.599l22.115-0.401l22.105,2.077l18.395,2.923l18.553,5.095
		l17.447,4.905l12.5,4l8.5,4l5,4.5l1.5,8.5l-0.5,8.5l-2.784,4.82l-9.216,9.18l-10.916,8.098l-17.407,14.94l-17.639,15.087
		l-13.539,10.875l-10,13.5l-10,10l-19.5,11.5l-27.5,8l-28.674,4.938l-39.258,5.521L192,1261.723l-33.907,3.948l-36.593,4.552
		l-31.881,1.377L62,1270.223l-26.974-4.244l-19.067-1.964L0,1260.898v33.574l30.448,4.728l47.723,5.6l51.429,0.372l49.996-3.354
		l67.519-7.836l34.97-6.309l28.917-7.451l22-10l12-10l8-14l25-24l41-34l21.522-14.448L477,1156.223l30.849-17.974L535,1121.223
		l25.452-22.652L588,1077.223l30.735-17.796l31.265-9.204l30.299-3.658l31.021-1.572l36.18,1.729l41.34,8.254l34.304,14.358
		l48.429,28.648l36.938,30.36l34.102,44.978l18.21,37.625l25.896,66.333l18.251,48.888l13.031,26.055l10.143,17.474l24.966,26.793
		l22.005,15.233l31.841,13.929l16.045,2.571l8,5l-5,7l-19,4l-21.726,0.294l-65.689,7.067l-60.687,8.549l-62.321,19.624
		l-60.501,34.031l-55.244,37.762l-37.888,32.405l-20.181,26.1l-17.083,21.512l-23.561,11.62l-26.499,4.882l-49.578-0.09
		l-57.21-4.643L505,1635.223l-44.255-14.039L427,1603.223l-35.116-23.649l-67.253-45.75l-78.506-46.525l-78.158-44.516L112,1411.223
		l-73.219-28.952L0,1371.613v67.992l55.875,17.053l82.599,34.633l124.723,71.175l111.155,71.458c0,0,49.499,31.883,61.672,38.838
		c16.177,9.245,48.163,21.439,48.163,21.439l42.311,10.919l33.129,4.774c0,0,10.951,1.898,15.552,3.812l11.459,7.288
		c0,0,6.5,8.225,7.562,13.384l-2.526,18.895l-9.525,15.064l-60.347,55.376l-56.707,49.708l-61.886,55.064l-56.604,54.153
		l-29.387,34.579l-26.7,41.381l-13.426,27.891l-13.191,37.351l-15.87,52.72l-19.65,33.74l-25.189,28.408l-66.883,31.451
		l-50.311,3.359l-42.253-2.805L0,2259.713l0.056,129.355l57.556-13.172l58.146-9.074l51.679-15.072l61.102-29.824l45.209-32.879
		l38.892-62.848l17.739-68.83l26.652-59.813l28.659-38.891l37.131-41.036l110.487-94.5l62.889-56.333l58.787-68.074l63.281-77.569
		l44.017-50.092l62.146-59.724l51.104-35.961l30.587-14.601l54.366-18.49l80-19.256l73.696-12.408l81.675-13.283l69.792-6.515
		l38.084-3.604l43.145-4.785l61.12-4.214l60-3l60-4l62-10l54.834-14.375l59.166-11.625l52-8l56-6l57.373,7.39l42.627,14.61l38,26
		l25,31l17,43l12,64l6,46l-2,50l-18,118l-23,92l-12.459,77.614l-4.541,66.386l8,66l16,92l29.334,107.667l20.666,80.333
		l16.466,90.492l6.626,90.549l4.848,137.615l7.365,128.188l5.488,31.35l13.207,43.807l24,36l34.945,22.42l61.234,18.564
		l43.82,21.016l29.021,31.037l29.646,50.508l35.281,73.104l25.315,52.723l44.688,85.881l51.774,76.881l33.434,29.994l56.719,28.902
		l105.352,41.197v-85.834l-82.759-33.791l-41.547-22.102l-35.803-41.594l-29.505-48.578l-31.563-58.932l-36.137-73.646l-40.4-91.691
		l-23.043-38.248l-30.136-32.736l-35.13-20.967l-55.262-18.045l-29.836-9.609l-27.314-23.344l-6.738-21.504l-7.909-50.492
		l-4.117-75.727l-8.23-92.137L2114,2483.223l-8-60l-10-56l-10-48l-12-38l-14-48l-18-82l-14-94l7-80l15-76l24.874-79.559
		l16.322-68.614l10.804-53.827l6-74l-10.627-72.61l-15.373-59.39l-26.627-52.61l-39.373-47.39l-46.627-32.61l-51.373-21.39
		l-52.627-10.61l-71.373-3.39l-78,12l-50,14l-50,20l-58,14l-58,8l-58,6l-60.495,5.048l-56.093,2.412l-41.336,0.654l-39.152-2.363
		l-38.179-4.738l-36.172-5.692l-23.3-5.743l-22.179-10.729l-17.151-12.24l-15.15-14.138l-19.031-23.068l-14.286-22.151
		l-26.667-56.778l-16.804-44.85l-17.174-42.589l-48.246-75.316l-42.445-36.957l-54.463-29.419l-50.313-15.644l-41.131-6.951
		L726,996.223l-35.104-1.079l-25.556,0.252l-28.809-1.843l-25.637-2.39L584,984.556l-31.812-8.644l-37.521-10.022l-43.547-8.049
		l-33.484-2.461l-31.578,2.074l-46.417,8.435l-33.579-1.024l-30.807-5.358l-27.448-10.087l-57.952-16.841l-109.852-15.144
		l-72.781-2.503L0,915.847V1100.486z M401.29,1019.207l-4.79,11.516l-11.5,13l-14.5,10.5l-18.5,7.667l-13.665,1.106l-16.835-1.272
		H302l-21.981,3.646L239,1072.723l-47,5l-59.663-3.495L86,1061.723l-28.156-17.904l-22.632-14.281l-21.5-18.5l-5.5-10l1-11l6.5-10
		l13.704-5.754l20.083-4.562l26.369-3.988l44.812-4.272l39.819,1.76l41.275,6.512l39.725,8.488l37.006,13.077l29.494,8.923
		l25.615,4.62l23.885-0.12l21.5-2.5h10l5.363,0.654l3.671,1.546l2.705,2.705l1.261,4.095L401.29,1019.207z M569.622,1052.583
		l-8.122,6.64l-14.5,8l-10,11.5l-16,12l-27,9.5l-27,2.5l-23.665-2.869l-18.221-10.974l-12.27-14.289L410,1063.223l0.426-12.526
		l2.574-12.974l4.743-12.548L431,1011.223l16.321-7.417l20.494-3.017l22.093,1.649l18.024,2.688l17.567,3.598l21.5,6.5l18,9l6,4.5
		l3,6.5l-0.5,9.5L569.622,1052.583z"/>
</g>
<g id="LINEs">
	<g>
		<line fill="none" stroke="#2778C9" stroke-width="50" x1="1145.987" y1="234.487" x2="900.983" y2="479.491"/>
		<line fill="none" stroke="#2778C9" stroke-width="50" x1="900.983" y1="479.491" x2="900.983" y2="599.375"/>
		<line fill="none" stroke="#2778C9" stroke-width="50" x1="900.983" y1="599.375" x2="757.278" y2="743.081"/>
		<line fill="none" stroke="#2778C9" stroke-width="50" x1="757.278" y1="743.081" x2="757.278" y2="1224.286"/>
		<line fill="none" stroke="#2778C9" stroke-width="50" x1="744.373" y1="1224.286" x2="897.152" y2="1377.065"/>
		<line fill="none" stroke="#2778C9" stroke-width="50" x1="897.152" y1="1377.065" x2="897.152" y2="1990.494"/>
		<path fill="none" stroke="#2778C9" stroke-width="50" d="M897.152,1990.494"/>
		<path fill="none" stroke="#2778C9" stroke-width="50" d="M897.821,2369.371"/>
		<path fill="none" stroke="#2778C9" stroke-width="50" d="M897.821,2049.824"/>
		<path fill="none" stroke="#2778C9" stroke-width="50" d="M895.945,2427.495"/>
		<line fill="none" stroke="#2778C9" stroke-width="50" x1="905.681" y1="1981.467" x2="905.681" y2="3202.436"/>
		<line fill="none" stroke="#2778C9" stroke-width="50" x1="905.681" y1="3202.436" x2="1140.87" y2="3437.625"/>
	</g>
	<g>
		<line fill="none" stroke="#B840C9" stroke-width="50" x1="272.268" y1="708.383" x2="272.268" y2="1172.14"/>
		<line fill="none" stroke="#B840C9" stroke-width="50" x1="272.268" y1="1172.14" x2="455.308" y2="1355.118"/>
		<line fill="none" stroke="#B840C9" stroke-width="50" x1="455.308" y1="1355.118" x2="455.308" y2="1545.256"/>
		<line fill="none" stroke="#B840C9" stroke-width="50" x1="455.308" y1="1545.256" x2="1424.449" y2="2514.398"/>
		<line fill="none" stroke="#B840C9" stroke-width="50" x1="1424.449" y1="2514.398" x2="1424.449" y2="2752.059"/>
	</g>
	<g>
		<line fill="none" stroke="#029302" stroke-width="50" x1="228.68" y1="1676.516" x2="325.556" y2="1773.392"/>
		<line fill="none" stroke="#029302" stroke-width="50" x1="325.556" y1="1773.392" x2="1553.789" y2="1773.392"/>
		<line fill="none" stroke="#029302" stroke-width="50" x1="1553.789" y1="1773.392" x2="1807.588" y2="2027.191"/>
		<line fill="none" stroke="#029302" stroke-width="50" x1="1807.588" y1="2027.191" x2="1807.588" y2="2740.418"/>
		<line fill="none" stroke="#029302" stroke-width="50" x1="1807.588" y1="2740.418" x2="1969.086" y2="2901.916"/>
		<line fill="none" stroke="#029302" stroke-width="50" x1="1969.086" y1="2901.916" x2="1969.086" y2="3090.053"/>
	</g>
	<g>
		<line fill="none" stroke="#DE0000" stroke-width="50" x1="1949.58" y1="236.592" x2="1949.58" y2="436.128"/>
		<line fill="none" stroke="#DE0000" stroke-width="50" x1="1950.751" y1="436.128" x2="1695.263" y2="692.979"/>
		<line fill="none" stroke="#DE0000" stroke-width="50" x1="1695.263" y1="692.979" x2="1695.263" y2="847.154"/>
		<line fill="none" stroke="#DE0000" stroke-width="50" x1="1695.263" y1="847.154" x2="1553.789" y2="988.629"/>
		<line fill="none" stroke="#DE0000" stroke-width="50" x1="1553.789" y1="988.629" x2="1553.789" y2="1775.119"/>
		<line fill="none" stroke="#DE0000" stroke-width="50" x1="1553.789" y1="1775.119" x2="494.194" y2="2834.715"/>
		<line fill="none" stroke="#DE0000" stroke-width="50" x1="494.194" y1="2834.715" x2="494.194" y2="3227.324"/>
		<line fill="none" stroke="#DE0000" stroke-width="50" x1="494.194" y1="3227.324" x2="379.524" y2="3341.994"/>
	</g>
	<g>
		<polyline fill="none" stroke="#FFB000" stroke-width="50" points="911.202,1909.752 1138.467,1909.752 1332.74,2103.525 		"/>
		<line fill="none" stroke="#FFB000" stroke-width="50" x1="1332.74" y1="2119.525" x2="1803.743" y2="2119.522"/>
		<line fill="none" stroke="#FFB000" stroke-width="50" x1="1803.743" y1="2119.522" x2="2133.029" y2="2119.522"/>
		<line fill="none" stroke="#FFB000" stroke-width="50" x1="2133.029" y1="2119.522" x2="2264.85" y2="2251.342"/>
		<line fill="none" stroke="#FFB000" stroke-width="50" x1="2264.85" y1="2251.342" x2="2264.85" y2="2710.264"/>
	</g>
</g>
<g id="пересадки">
	<path fill="#FFFFFF" stroke="#000000" stroke-width="10" d="M952.576,2340.665c0-24.822-21.4-44.983-47.746-44.984
		c-26.344-0.001-47.742,20.161-47.744,44.983c0,52.48,0,39.238,0,91.719c0,24.823,21.4,44.986,47.746,44.985
		c26.344,0,47.742-20.163,47.744-44.983C952.576,2379.902,952.576,2393.146,952.576,2340.665z"/>
	<path fill="#FFFFFF" stroke="#000000" stroke-width="10" d="M1150.077,2172.549c-17.552-17.552-46.94-16.676-65.57,1.953
		c-18.629,18.627-19.503,48.015-1.952,65.568c37.109,37.109,27.746,27.745,64.855,64.854c17.553,17.553,46.942,16.678,65.571-1.952
		c18.627-18.628,19.501-48.016,1.951-65.568C1177.821,2200.294,1187.186,2209.658,1150.077,2172.549z"/>
	<path fill="#FFFFFF" stroke="#000000" stroke-width="10" d="M1307.74,2012.573c-17.552-17.552-46.94-16.676-65.57,1.953
		c-18.629,18.627-19.503,48.015-1.952,65.568c37.109,37.109,27.746,27.745,64.855,64.854c17.553,17.553,46.942,16.678,65.571-1.952
		c18.627-18.628,19.501-48.016,1.951-65.568C1335.484,2040.318,1344.849,2049.683,1307.74,2012.573z"/>
	<path fill="#FFFFFF" stroke="#000000" stroke-width="10" d="M1583.959,1738.35c-17.552-17.552-46.939-16.676-65.57,1.953
		c-18.629,18.627-19.502,48.015-1.951,65.568c37.108,37.109,27.745,27.745,64.854,64.854c17.553,17.553,46.942,16.678,65.571-1.952
		c18.627-18.628,19.501-48.016,1.951-65.568C1611.704,1766.095,1621.068,1775.459,1583.959,1738.35z"/>
	<path fill="#FFFFFF" stroke="#000000" stroke-width="10" d="M945.575,1687.835c0-24.822-21.4-44.983-47.746-44.984
		c-26.344-0.001-47.742,20.161-47.744,44.984c-0.001,52.479,0,39.237,0,91.718c0,24.823,21.4,44.986,47.746,44.985
		c26.343,0,47.742-20.163,47.744-44.984C945.575,1727.072,945.575,1740.315,945.575,1687.835z"/>
	<path fill="#FFFFFF" stroke="#000000" stroke-width="10" d="M1855.805,2021.688c0-24.822-21.399-44.983-47.746-44.984
		c-26.345-0.001-47.742,20.161-47.744,44.984c0,52.48,0,39.238,0,91.719c0,24.822,21.4,44.986,47.747,44.984
		c26.343,0,47.741-20.162,47.743-44.984C1855.805,2060.926,1855.805,2074.168,1855.805,2021.688z"/>
	<path fill="#FFFFFF" stroke="#000000" stroke-width="10" d="M857.408,2078.757c0,24.822,21.399,44.983,47.745,44.983
		c26.344,0.001,47.743-20.161,47.744-44.982c0-52.481,0-122.133,0-174.613c0-24.823-21.4-44.985-47.745-44.985
		s-47.743,20.163-47.744,44.983C857.408,1956.625,857.408,2026.275,857.408,2078.757z"/>
</g>
<g id="станции">
	<circle fill="#FFFFFF" stroke="#FFB000" stroke-width="10" cx="2128.214" cy="2119.522" r="30.681"/>
	<circle fill="#FFFFFF" stroke="#FFB000" stroke-width="10" cx="1808.06" cy="2107.984" r="30.681"/>
	<circle fill="#FFFFFF" stroke="#FFB000" stroke-width="10" cx="2265.183" cy="2251.342" r="30.681"/>
	<circle fill="#FFFFFF" stroke="#FFB000" stroke-width="10" cx="2264.85" cy="2487.1" r="30.681"/>
	<circle fill="#FFFFFF" stroke="#FFB000" stroke-width="10" cx="2264.85" cy="2709.703" r="30.681"/>
	<circle fill="#FFFFFF" stroke="#FFB000" stroke-width="10" cx="904.83" cy="1910.292" r="30.681"/>
	<circle fill="#FFFFFF" stroke="#FFB000" stroke-width="10" cx="1335.541" cy="2108.004" r="30.681"/>
	<circle fill="#FFFFFF" stroke="#FFB000" stroke-width="10" cx="1572.537" cy="2120.084" r="30.681"/>
	<circle fill="#FFFFFF" stroke="#DE0000" stroke-width="10" cx="1552.74" cy="1599.421" r="30.681"/>
	<circle fill="#FFFFFF" stroke="#DE0000" stroke-width="10" cx="1552.74" cy="1774.612" r="30.681"/>
	<circle fill="#FFFFFF" stroke="#DE0000" stroke-width="10" cx="1277.967" cy="2050.479" r="30.681"/>
	<circle fill="#FFFFFF" stroke="#DE0000" stroke-width="10" cx="1119.092" cy="2209.598" r="30.681"/>
	<circle fill="#FFFFFF" stroke="#DE0000" stroke-width="10" cx="904.83" cy="2427.481" r="30.681"/>
	<circle fill="#FFFFFF" stroke="#DE0000" stroke-width="10" cx="1553.387" cy="1281.508" r="30.681"/>
	<circle fill="#FFFFFF" stroke="#DE0000" stroke-width="10" cx="1553.387" cy="1135.528" r="30.681"/>
	<circle fill="#FFFFFF" stroke="#DE0000" stroke-width="10" cx="1552.74" cy="991.118" r="30.681"/>
	<circle fill="#FFFFFF" stroke="#DE0000" stroke-width="10" cx="1949.58" cy="240.596" r="30.681"/>
	<circle fill="#FFFFFF" stroke="#DE0000" stroke-width="10" cx="1695.263" cy="845.338" r="30.681"/>
	<circle fill="#FFFFFF" stroke="#DE0000" stroke-width="10" cx="1695.431" cy="693.019" r="30.681"/>
	<circle fill="#FFFFFF" stroke="#DE0000" stroke-width="10" cx="1825.825" cy="561.149" r="30.681"/>
	<circle fill="#FFFFFF" stroke="#DE0000" stroke-width="10" cx="1949.771" cy="437.699" r="30.681"/>
	<circle fill="#FFFFFF" stroke="#DE0000" stroke-width="10" cx="379.524" cy="3341.994" r="30.681"/>
	<circle fill="#FFFFFF" stroke="#DE0000" stroke-width="10" cx="493.56" cy="3227.324" r="30.681"/>
	<circle fill="#FFFFFF" stroke="#DE0000" stroke-width="10" cx="494.194" cy="3029.883" r="30.681"/>
	<circle fill="#FFFFFF" stroke="#DE0000" stroke-width="10" cx="753.129" cy="2575.654" r="30.681"/>
	<circle fill="#FFFFFF" stroke="#DE0000" stroke-width="10" cx="494.194" cy="2833.715" r="30.681"/>
	<circle fill="#FFFFFF" stroke="#DE0000" stroke-width="10" cx="623.12" cy="2705.664" r="30.681"/>
	<circle fill="#FFFFFF" stroke="#2778C9" stroke-width="10" cx="898.152" cy="1378.725" r="30.681"/>
	<circle fill="#FFFFFF" stroke="#2778C9" stroke-width="10" cx="898.152" cy="1693.501" r="30.681"/>
	<circle fill="#FFFFFF" stroke="#2778C9" stroke-width="10" cx="904.821" cy="2074.449" r="30.681"/>
	<circle fill="#FFFFFF" stroke="#2778C9" stroke-width="10" cx="905.152" cy="2346.371" r="30.681"/>
	<circle fill="#FFFFFF" stroke="#2778C9" stroke-width="10" cx="758.278" cy="1236.286" r="30.681"/>
	<circle fill="#FFFFFF" stroke="#2778C9" stroke-width="10" cx="758.278" cy="903.38" r="30.681"/>
	<circle fill="#FFFFFF" stroke="#2778C9" stroke-width="10" cx="758.278" cy="743.362" r="30.681"/>
	<circle fill="#FFFFFF" stroke="#2778C9" stroke-width="10" cx="901.983" cy="599.697" r="30.681"/>
	<circle fill="#FFFFFF" stroke="#2778C9" stroke-width="10" cx="901.983" cy="478.867" r="30.681"/>
	<circle fill="#FFFFFF" stroke="#2778C9" stroke-width="10" cx="1025.384" cy="354.989" r="30.681"/>
	<circle fill="#FFFFFF" stroke="#2778C9" stroke-width="10" cx="1148.541" cy="231.487" r="30.681"/>
	<circle fill="#FFFFFF" stroke="#2778C9" stroke-width="10" cx="905.83" cy="2609.871" r="30.681"/>
	<circle fill="#FFFFFF" stroke="#2778C9" stroke-width="10" cx="905.83" cy="2754.244" r="30.681"/>
	<circle fill="#FFFFFF" stroke="#2778C9" stroke-width="10" cx="906.681" cy="2899.527" r="30.681"/>
	<circle fill="#FFFFFF" stroke="#2778C9" stroke-width="10" cx="905.681" cy="3041.73" r="30.681"/>
	<circle fill="#FFFFFF" stroke="#2778C9" stroke-width="10" cx="905.681" cy="3201.645" r="30.681"/>
	<circle fill="#FFFFFF" stroke="#2778C9" stroke-width="10" cx="1016.822" cy="3313.197" r="30.681"/>
	<circle fill="#FFFFFF" stroke="#2778C9" stroke-width="10" cx="1141.351" cy="3438.063" r="30.681"/>
	<circle fill="#FFFFFF" stroke="#B840C9" stroke-width="10" cx="455.158" cy="1544.251" r="30.681"/>
	<circle fill="#FFFFFF" stroke="#B840C9" stroke-width="10" cx="904.83" cy="1992.75" r="30.681"/>
	<circle fill="#FFFFFF" stroke="#B840C9" stroke-width="10" cx="1177.766" cy="2267.811" r="30.681"/>
	<circle fill="#FFFFFF" stroke="#B840C9" stroke-width="10" cx="1424.05" cy="2513.976" r="30.681"/>
	<circle fill="#FFFFFF" stroke="#B840C9" stroke-width="10" cx="1424.627" cy="2741.193" r="30.68"/>
	<circle fill="#FFFFFF" stroke="#B840C9" stroke-width="10" cx="455.295" cy="1355.835" r="30.68"/>
	<circle fill="#FFFFFF" stroke="#B840C9" stroke-width="10" cx="271.655" cy="1171.906" r="30.68"/>
	<circle fill="#FFFFFF" stroke="#B840C9" stroke-width="10" cx="271.655" cy="874.218" r="30.68"/>
	<circle fill="#FFFFFF" stroke="#B840C9" stroke-width="10" cx="272.118" cy="700.779" r="30.68"/>
	<circle fill="#FFFFFF" stroke="#029302" stroke-width="10" cx="324.851" cy="1773.392" r="30.681"/>
	<circle fill="#FFFFFF" stroke="#029302" stroke-width="10" cx="1610.81" cy="1831.986" r="30.681"/>
	<circle fill="#FFFFFF" stroke="#029302" stroke-width="10" cx="1808.588" cy="2026.607" r="30.681"/>
	<circle fill="#FFFFFF" stroke="#029302" stroke-width="10" cx="897.83" cy="1773.392" r="30.681"/>
	<circle fill="#FFFFFF" stroke="#029302" stroke-width="10" cx="228.831" cy="1677.959" r="30.681"/>
	<circle fill="#FFFFFF" stroke="#029302" stroke-width="10" cx="1807.06" cy="2349.4" r="30.681"/>
	<circle fill="#FFFFFF" stroke="#029302" stroke-width="10" cx="1807.06" cy="2545.403" r="30.681"/>
	<circle fill="#FFFFFF" stroke="#029302" stroke-width="10" cx="1969.086" cy="2901.579" r="30.681"/>
	<circle fill="#FFFFFF" stroke="#029302" stroke-width="10" cx="1969.086" cy="3088.291" r="30.681"/>
	<circle fill="#FFFFFF" stroke="#029302" stroke-width="10" cx="1807.06" cy="2740.705" r="30.681"/>
</g>
</svg>
