<?xml version="1.0" encoding="utf-8"?>
<!-- Generator: Adobe Illustrator 14.0.0, SVG Export Plug-In . SVG Version: 6.00 Build 43363)  -->
<!DOCTYPE svg PUBLIC "-//W3C//DTD SVG 1.1//EN" "http://www.w3.org/Graphics/SVG/1.1/DTD/svg11.dtd">
<svg version="1.1" onclick=" " xmlns="http://www.w3.org/2000/svg" xmlns:xlink="http://www.w3.org/1999/xlink" x="0px" y="0px"
	 width="5977.591px" height="6009.192px" viewBox="0 0 5977.591 6009.192" enable-background="new 0 0 5977.591 6009.192"
	 xml:space="preserve">
<g id="lines">
	<polygon fill="none" stroke="#BA5700" stroke-width="50" points="1993.427,2938.842 1901.484,2496.253 1985.91,2052.173 
		2233.851,1674.205 2607.558,1419.893 3050.143,1327.95 3494.222,1412.375 3872.191,1660.313 4126.505,2034.024 4218.449,2476.613 
		4134.022,2920.692 3886.082,3298.66 3512.375,3552.973 3069.789,3644.915 2625.701,3560.497 2247.742,3312.551 	"/>
	<line fill="#FFFFFF" stroke="#3859FF" stroke-width="10" x1="2481.318" y1="962.448" x2="3748.361" y2="962.448"/>
	<line fill="#FFFFFF" stroke="#B0B0B0" stroke-width="50" x1="2424.957" y1="375.447" x2="2424.957" y2="1221.291"/>
	<line fill="#FFFFFF" stroke="#00B000" stroke-width="50" x1="2020.895" y1="959.531" x2="2020.895" y2="1500.532"/>
	<line fill="#FFFFFF" stroke="#BD00B5" stroke-width="50" x1="1500.835" y1="1928.365" x2="1500.835" y2="1174.542"/>
	<line fill="#FFFFFF" stroke="#3859FF" stroke-width="50" x1="868.777" y1="1308.145" x2="868.777" y2="2608.796"/>
	<line fill="#FFFFFF" stroke="#A8FFA6" stroke-width="50" x1="3038.019" y1="1145.778" x2="3038.019" y2="1252.605"/>
	<line fill="none" stroke="#FF0000" stroke-width="50" x1="4088.508" y1="1097.54" x2="4088.508" y2="1530.206"/>
	<line fill="#FFFFFF" stroke="#3859FF" stroke-width="50" x1="4526.669" y1="1345.943" x2="4526.669" y2="1992.938"/>
	<line fill="#FFFFFF" stroke="#BD00B5" stroke-width="50" x1="4385.36" y1="3268.415" x2="3555.361" y2="2438.415"/>
	<line fill="#FFFFFF" stroke="#BD00B5" stroke-width="50" x1="2042.835" y1="2200.365" x2="2680.361" y2="2200.365"/>
	<polyline fill="none" stroke="#BD00B5" stroke-width="50" points="3569.68,2451.415 3319.824,2201.559 2680.361,2201.559 	"/>
	<line fill="none" stroke="#FFB000" stroke-width="50" x1="2124.361" y1="4823.315" x2="2124.361" y2="3925.729"/>
	<line fill="#FFFFFF" stroke="#CCEBFF" stroke-width="50" x1="3070.243" y1="4546.415" x2="3500.361" y2="4546.415"/>
	<line fill="#FFFFFF" stroke="#CCEBFF" stroke-width="50" x1="3500.361" y1="4546.415" x2="3816.377" y2="4230.398"/>
	<line fill="#FFFFFF" stroke="#99D7FF" stroke-width="50" x1="1770.203" y1="2311.996" x2="1770.203" y2="2514.415"/>
	<line fill="none" stroke="#99D7FF" stroke-width="50" x1="1887.76" y1="2629.575" x2="1766.6" y2="2508.415"/>
	<line fill="none" stroke="#3859FF" stroke-width="50" x1="983.753" y1="2745.113" x2="2775.767" y2="2745.113"/>
	<line fill="none" stroke="#3859FF" stroke-width="50" x1="1003.752" y1="2746.02" x2="867.115" y2="2609.382"/>
	<line fill="none" stroke="#99D7FF" stroke-width="50" x1="1245.3" y1="2659.575" x2="1071.572" y2="2485.848"/>
	<line fill="none" stroke="#99D7FF" stroke-width="50" x1="1071.572" y1="2495.058" x2="1071.572" y2="2188.935"/>
	<line fill="none" stroke="#99D7FF" stroke-width="50" x1="1071.572" y1="2188.935" x2="921.644" y2="2039.008"/>
	<polyline fill="none" stroke="#BD00B5" stroke-width="50" points="1507.458,1934.988 1771.525,2199.055 2042.835,2199.055 	"/>
	<line fill="none" stroke="#00B000" stroke-width="50" x1="3872.361" y1="4349.993" x2="4160.36" y2="4637.993"/>
	<polyline fill="none" stroke="#FFB000" stroke-width="50" points="2479.581,3775.194 3081.361,3174.915 3423.361,3174.415 	"/>
	<polyline fill="none" stroke="#FFB000" stroke-width="50" points="3417.361,3181.415 3624.732,2934.415 3624.361,2546.415 	"/>
	<polyline fill="none" stroke="#FFB000" stroke-width="50" points="3624.361,2546.415 3624.361,2106.434 3427.362,1869.238 
		3427.187,1391.969 	"/>
	<line fill="none" stroke="#BD00B5" stroke-width="50" x1="4385.36" y1="3266.415" x2="4898.36" y2="3266.415"/>
	<line fill="none" stroke="#BD00B5" stroke-width="50" x1="4892.36" y1="3261.63" x2="5098.36" y2="3468.415"/>
	<polyline fill="none" stroke="#A8FF00" stroke-width="50" points="4472.765,2742.081 3760.23,2030.342 3277.361,2030.342 
		3032.692,1785.041 	"/>
	<line fill="none" stroke="#A8FF00" stroke-width="50" x1="3038.251" y1="1780.992" x2="3038.251" y2="1145.778"/>
	<line fill="#FFFFFF" stroke="#A8FF00" stroke-width="50" x1="4463.74" y1="2656.546" x2="4463.74" y2="4561.415"/>
	<line fill="#FFFFFF" stroke="#B0B0B0" stroke-width="50" x1="3128.361" y1="3742.079" x2="3128.361" y2="4998.022"/>
	<line fill="none" stroke="#FF0000" stroke-width="50" x1="2002.866" y1="3330.099" x2="1516.818" y2="3330.099"/>
	<line fill="none" stroke="#FF0000" stroke-width="50" x1="1544.822" y1="3334.102" x2="1400.807" y2="3481.116"/>
	<line fill="#FFFFFF" stroke="#B0B0B0" stroke-width="50" x1="2424.957" y1="1234.27" x2="3042.541" y2="1858.075"/>
	<line fill="#FFFFFF" stroke="#B0B0B0" stroke-width="50" x1="3128.361" y1="3466.761" x2="3128.361" y2="3742.08"/>
	<polyline fill="none" stroke="#99D7FF" stroke-width="50" points="1245.3,2639.575 1882.76,2639.575 2040.924,2480.963 	"/>
	<line fill="#FFFFFF" stroke="#FFB000" stroke-width="50" x1="3616.621" y1="482.447" x2="3616.621" y2="1188.589"/>
	<line fill="none" stroke="#FF0000" stroke-width="50" x1="1402.807" y1="3480.116" x2="1402.807" y2="3792.147"/>
	<line fill="none" stroke="#3859FF" stroke-width="50" x1="3017.912" y1="2502.415" x2="2778.439" y2="2741.889"/>
	<line fill="none" stroke="#FFB000" stroke-width="50" x1="3616.621" y1="1210.275" x2="3420.591" y2="1406.306"/>
	<polyline fill="none" stroke="#B0B0B0" stroke-width="50" points="3044.151,1853.859 2798.136,2098.455 2797.776,2612.776 
		2724.041,2687.626 2724.325,3060.415 3128.361,3466.761 	"/>
	<line fill="none" stroke="#FF0000" stroke-width="50" x1="4093.125" y1="1528.963" x2="3058.361" y2="2563.729"/>
	<line fill="none" stroke="#FF0000" stroke-width="50" x1="2286.549" y1="3330.874" x2="1999.412" y2="3330.641"/>
	<line fill="none" stroke="#B3BEFF" stroke-width="50" x1="1138.258" y1="5113.915" x2="2122.861" y2="5113.915"/>
	<line fill="none" stroke="#B3BEFF" stroke-width="50" x1="2123.861" y1="5113.915" x2="2123.861" y2="4894.134"/>
	<line fill="none" stroke="#FFB000" stroke-width="50" x1="2479.581" y1="3775.194" x2="2270.271" y2="3775.194"/>
	<line fill="none" stroke="#FFB000" stroke-width="50" x1="2124.036" y1="3923.433" x2="2271.273" y2="3776.196"/>
	<line fill="none" stroke="#B0B0B0" stroke-width="50" x1="2175.361" y1="5166.415" x2="2961.861" y2="5166.415"/>
	<line fill="none" stroke="#B0B0B0" stroke-width="50" x1="2966.861" y1="5161.767" x2="3129.861" y2="4998.767"/>
	<polyline fill="none" stroke="#3859FF" stroke-width="50" points="4536.322,1996.195 4031.611,2500.983 3017.912,2501.06 	"/>
	<line fill="none" stroke="#BD00B5" stroke-width="50" x1="5102.36" y1="3466.415" x2="5102.36" y2="3886.415"/>
	<polyline fill="none" stroke="#00B000" stroke-width="50" points="3494.361,3160.415 3494.365,2980.859 2020.895,1510.883 	"/>
	<polyline fill="none" stroke="#00B000" stroke-width="50" points="3496.361,3172.415 3875.361,3550.415 3875.361,4352.415 	"/>
	<line fill="none" stroke="#00B000" stroke-width="50" x1="4156.36" y1="4656.415" x2="4462.36" y2="4656.415"/>
	<line fill="none" stroke="#00B000" stroke-width="50" x1="4462.36" y1="4652.415" x2="4571.36" y2="4761.415"/>
	<line fill="none" stroke="#99D7FF" stroke-width="50" x1="2521.115" y1="2490.06" x2="2028.211" y2="2490.06"/>
	<line fill="none" stroke="#99D7FF" stroke-width="50" x1="2668.536" y1="2635.989" x2="2521.345" y2="2489.83"/>
	<polyline fill="none" stroke="#FF0000" stroke-width="50" points="2313.549,3304.874 2713.605,2904.689 3071.607,2548.471 	"/>
	<polyline fill="none" stroke="#FFF489" stroke-width="50" points="3553.065,3173.157 3953.003,3172.586 4961.657,2162.415 	"/>
</g>
<g id="пересадки2">
	<path fill="#FFFFFF" stroke="#000000" stroke-width="10" d="M2796.243,2830.078c17.552,17.552,46.94,16.677,65.569-1.952
		c18.629-18.628,19.503-48.016,1.952-65.568c-37.109-37.11-127.365-127.365-164.474-164.475
		c-17.553-17.552-46.942-16.677-65.57,1.951c-18.628,18.628-19.502,48.017-1.952,65.569
		C2668.879,2702.714,2759.134,2792.969,2796.243,2830.078z"/>
	<path fill="#FFFFFF" stroke="#000000" stroke-width="10" d="M3467.209,2111.35c0,24.822,21.4,44.984,47.745,44.984
		c26.345,0.001,47.744-20.162,47.744-44.983c0.001-52.48,0-112.239,0-164.719c0-24.823-21.4-44.986-47.745-44.985
		c-26.344,0-47.743,20.163-47.744,44.983C3467.209,1999.112,3467.209,2058.869,3467.209,2111.35z"/>
	<path fill="#FFFFFF" stroke="#000000" stroke-width="10" d="M3414,3127.661c-24.822,0-44.984,21.399-44.984,47.745
		c0,26.344,20.162,47.744,44.983,47.745c52.48,0,112.239,0,164.719,0c24.823,0,44.986-21.4,44.985-47.745
		c0-26.344-20.163-47.743-44.983-47.744C3526.238,3127.661,3466.481,3127.661,3414,3127.661z"/>
	<path fill="#FFFFFF" stroke="#000000" stroke-width="10" d="M2641.185,2155.646c-24.822,0-44.984,21.399-44.984,47.745
		c0,26.344,20.162,47.744,44.983,47.744c52.48,0,112.239,0,164.719,0c24.823,0,44.986-21.4,44.985-47.745
		c0-26.344-20.163-47.743-44.983-47.744C2753.422,2155.646,2693.665,2155.646,2641.185,2155.646z"/>
	<path fill="#FFFFFF" stroke="#000000" stroke-width="10" d="M2974.048,2577.207c-17.552,17.552-16.677,46.94,1.952,65.569
		c18.628,18.629,48.016,19.504,65.568,1.952c37.109-37.108,79.365-79.364,116.474-116.473c17.552-17.553,16.677-46.942-1.952-65.57
		c-18.628-18.628-48.017-19.502-65.568-1.953C3053.411,2497.844,3011.157,2540.098,2974.048,2577.207z"/>
	<path fill="#FFFFFF" stroke="#000000" stroke-width="10" d="M1970.66,2780.079c17.552,17.552,46.94,16.677,65.569-1.952
		c18.629-18.628,19.504-48.016,1.952-65.568c-37.108-37.109-79.364-79.364-116.473-116.474
		c-17.553-17.553-46.942-16.678-65.57,1.951c-18.628,18.628-19.502,48.017-1.953,65.568
		C1891.297,2700.715,1933.551,2742.97,1970.66,2780.079z"/>
	<path fill="#FFFFFF" stroke="#000000" stroke-width="10" d="M4040.672,2878.671c-24.822,0-44.984,21.399-44.984,47.744
		c0,26.344,20.162,47.743,44.983,47.744c52.48,0,112.239,0,164.719,0c24.823,0,44.985-21.4,44.985-47.745
		c0-26.344-20.163-47.743-44.983-47.744C4152.909,2878.671,4093.152,2878.671,4040.672,2878.671z"/>
	<path fill="#FFFFFF" stroke="#000000" stroke-width="10" d="M4119.742,2445.526c0,24.822,21.399,44.984,47.744,44.984
		s47.744-20.162,47.744-44.983c0.001-52.48,0-112.239,0.001-164.719c-0.001-24.823-21.4-44.986-47.745-44.985
		c-26.345,0-47.743,20.163-47.744,44.983C4119.742,2333.289,4119.742,2393.045,4119.742,2445.526z"/>
	<path fill="#FFFFFF" stroke="#000000" stroke-width="10" d="M2635.838,3555.609c-17.552,17.552-16.676,46.94,1.952,65.569
		c18.628,18.629,48.016,19.503,65.568,1.952c37.11-37.109,22.721-22.721,59.831-59.83c17.552-17.553,16.677-46.942-1.952-65.57
		c-18.628-18.628-48.017-19.502-65.568-1.952C2658.558,3532.889,2672.947,3518.5,2635.838,3555.609z"/>
	<path fill="#FFFFFF" stroke="#000000" stroke-width="10" d="M3105.087,4507.932c-17.552-17.552-46.939-16.677-65.568,1.952
		c-18.629,18.628-19.504,48.016-1.953,65.568c37.109,37.109,22.722,22.721,59.83,59.83c17.553,17.553,46.942,16.678,65.57-1.951
		c18.629-18.628,19.503-48.017,1.953-65.568C3127.808,4530.652,3142.197,4545.041,3105.087,4507.932z"/>
	<path fill="#FFFFFF" stroke="#000000" stroke-width="10" d="M3908.718,4205.32c17.552-17.552,16.677-46.939-1.952-65.568
		c-18.628-18.629-48.016-19.504-65.568-1.953c-37.109,37.109-22.721,22.722-59.83,59.83c-17.553,17.553-16.678,46.943,1.951,65.57
		c18.627,18.629,48.016,19.504,65.568,1.953C3885.997,4228.04,3871.609,4242.429,3908.718,4205.32z"/>
	<path fill="#FFFFFF" stroke="#000000" stroke-width="10" d="M2152.386,5076.086c-17.552-17.552-46.939-16.677-65.568,1.952
		c-18.629,18.628-19.504,48.016-1.953,65.568c37.109,37.109,22.722,22.721,59.83,59.83c17.553,17.553,46.942,16.678,65.57-1.951
		c18.629-18.628,19.503-48.017,1.953-65.568C2175.107,5098.807,2189.495,5113.195,2152.386,5076.086z"/>
	<path fill="#FFFFFF" stroke="#000000" stroke-width="10" d="M2171.605,4817.827c0-24.822-21.398-44.984-47.744-44.984
		c-26.344,0-47.743,20.161-47.745,44.983c0,52.48,0,32.133,0,84.612c0,24.823,21.4,44.986,47.745,44.985
		c26.345,0.001,47.744-20.162,47.745-44.982C2171.605,4849.959,2171.605,4870.308,2171.605,4817.827z"/>
	<path fill="#FFFFFF" stroke="#000000" stroke-width="10" d="M3078.898,3715.071c0,24.822,21.4,44.983,47.745,44.984
		s47.744-20.162,47.744-44.983c0.001-52.481,0-32.133,0-84.613c0-24.823-21.4-44.985-47.745-44.985
		c-26.344,0-47.743,20.163-47.744,44.983C3078.898,3682.939,3078.898,3662.59,3078.898,3715.071z"/>
	<path fill="#FFFFFF" stroke="#000000" stroke-width="10" d="M4415.883,4659.499c0,24.822,21.399,44.983,47.744,44.984
		c26.345,0,47.744-20.162,47.744-44.984c0.001-52.48,0-32.133,0.001-84.612c-0.001-24.823-21.4-44.985-47.745-44.985
		s-47.743,20.162-47.744,44.983C4415.883,4627.367,4415.883,4607.019,4415.883,4659.499z"/>
	<path fill="#FFFFFF" stroke="#000000" stroke-width="10" d="M2265.958,3235.1c-17.552-17.552-46.94-16.675-65.569,1.953
		c-18.629,18.628-19.503,48.016-1.952,65.568c37.108,37.11,22.721,22.721,59.83,59.831c17.553,17.553,46.942,16.677,65.57-1.952
		c18.628-18.628,19.502-48.017,1.952-65.568C2288.678,3257.82,2303.068,3272.209,2265.958,3235.1z"/>
	<path fill="#FFFFFF" stroke="#000000" stroke-width="10" d="M898.618,1953.381c-17.552-17.552-46.94-16.675-65.569,1.953
		c-18.629,18.628-19.503,48.016-1.952,65.568c37.108,37.11,22.721,22.721,59.83,59.831c17.553,17.553,46.942,16.677,65.57-1.952
		c18.628-18.628,19.502-48.017,1.952-65.568C921.338,1976.102,935.728,1990.491,898.618,1953.381z"/>
	<path fill="#FFFFFF" stroke="#000000" stroke-width="10" d="M3893.363,1759.724c0,24.822,21.4,44.983,47.745,44.984
		s47.744-20.162,47.744-44.983c0.001-52.481,0-32.133,0-84.613c0-24.823-21.4-44.985-47.745-44.985
		c-26.344,0-47.743,20.163-47.744,44.983C3893.363,1727.592,3893.363,1707.242,3893.363,1759.724z"/>
	<path fill="#FFFFFF" stroke="#000000" stroke-width="10" d="M2988.506,1858.836c0,24.822,21.4,44.983,47.745,44.984
		s47.744-20.162,47.744-44.983c0.001-52.481,0-32.133,0-84.613c0-24.823-21.4-44.985-47.745-44.985
		c-26.344,0-47.743,20.163-47.744,44.983C2988.506,1826.704,2988.506,1806.355,2988.506,1858.836z"/>
	<path fill="#FFFFFF" stroke="#000000" stroke-width="10" d="M2137.95,1743.403c0,24.822,21.4,44.983,47.745,44.984
		c26.345,0,47.744-20.162,47.744-44.983c0.001-52.481,0-32.133,0-84.613c0-24.823-21.4-44.986-47.745-44.986
		c-26.344,0-47.743,20.163-47.744,44.984C2137.95,1711.271,2137.95,1690.922,2137.95,1743.403z"/>
	<path fill="#FFFFFF" stroke="#000000" stroke-width="10" d="M2583.303,1460.554c17.552,17.552,46.94,16.676,65.569-1.952
		s19.503-48.016,1.952-65.569c-37.109-37.11-22.721-22.721-59.83-59.83c-17.553-17.552-46.941-16.677-65.57,1.952
		c-18.628,18.628-19.502,48.017-1.952,65.567C2560.583,1437.833,2546.194,1423.444,2583.303,1460.554z"/>
	<path fill="#FFFFFF" stroke="#000000" stroke-width="10" d="M1950.736,2153.379c-24.822,0-44.983,21.4-44.984,47.745
		s20.162,47.744,44.983,47.744c52.481,0.001,32.133,0,84.613,0c24.823,0,44.985-21.4,44.985-47.745
		c0-26.344-20.163-47.743-44.983-47.744C1982.867,2153.379,2003.217,2153.379,1950.736,2153.379z"/>
	<path fill="#FFFFFF" stroke="#000000" stroke-width="10" d="M3503.637,1449.614c24.822,0,44.983-21.4,44.984-47.745
		s-20.162-47.744-44.983-47.744c-52.481-0.001-32.133,0-84.613,0c-24.823,0-44.985,21.4-44.985,47.745
		c0,26.344,20.163,47.743,44.983,47.744C3471.505,1449.614,3451.156,1449.614,3503.637,1449.614z"/>
	<path fill="#FFFFFF" stroke="#000000" stroke-width="10" d="M4382.874,3218.102c-24.822,0-44.983,21.399-44.983,47.744
		c-0.001,26.345,20.161,47.744,44.983,47.744c52.48,0.001,32.133,0,84.612,0.001c24.823-0.001,44.985-21.4,44.985-47.745
		s-20.162-47.743-44.983-47.744C4415.006,3218.102,4435.355,3218.102,4382.874,3218.102z"/>
	<path fill="#FFFFFF" stroke="#000000" stroke-width="10" d="M3732.16,3450.764c0,24.822,21.4,44.984,47.745,44.984
		s47.744-20.162,47.745-44.983c0-52.481,0-32.133,0-84.613c0-24.823-21.4-44.985-47.745-44.985
		c-26.344,0-47.743,20.163-47.744,44.983C3732.16,3418.632,3732.16,3398.283,3732.16,3450.764z"/>
	<path fill="#FFFFFF" stroke="#000000" stroke-width="10" d="M4415.339,2737.054c0,24.822,21.399,44.983,47.744,44.984
		s47.744-20.162,47.745-44.983c0-52.481,0-32.133,0-84.613c0-24.823-21.4-44.986-47.745-44.986
		c-26.344,0-47.743,20.163-47.744,44.983C4415.339,2704.921,4415.339,2684.573,4415.339,2737.054z"/>
	<path fill="#FFFFFF" stroke="#000000" stroke-width="10" d="M3591.642,2539.772c17.552,17.552,46.94,16.676,65.569-1.952
		c18.629-18.628,19.503-48.017,1.952-65.569c-37.109-37.11-22.721-22.722-59.83-59.831c-17.553-17.552-46.942-16.677-65.57,1.952
		c-18.628,18.628-19.502,48.017-1.952,65.567C3568.922,2517.051,3554.532,2502.663,3591.642,2539.772z"/>
	<path fill="#FFFFFF" stroke="#000000" stroke-width="10" d="M3339.671,2289.801c17.552,17.552,46.94,16.676,65.569-1.952
		s19.503-48.017,1.952-65.568c-37.109-37.11-22.721-22.722-59.83-59.831c-17.553-17.552-46.942-16.677-65.57,1.952
		c-18.628,18.628-19.502,48.017-1.952,65.567C3316.95,2267.08,3302.561,2252.691,3339.671,2289.801z"/>
</g>
<g id="станции">
	<circle fill="#FFFFFF" stroke="#B0B0B0" stroke-width="12" cx="2424.958" cy="375.447" r="30.681"/>
	<circle fill="#FFFFFF" stroke="#B0B0B0" stroke-width="12" cx="2424.958" cy="483.783" r="30.681"/>
	<circle fill="#FFFFFF" stroke="#B0B0B0" stroke-width="12" cx="2424.958" cy="589.777" r="30.681"/>
	<circle fill="#FFFFFF" stroke="#B0B0B0" stroke-width="12" cx="2424.958" cy="698.113" r="30.681"/>
	<circle fill="#FFFFFF" stroke="#B0B0B0" stroke-width="12" cx="2424.958" cy="808.113" r="30.681"/>
	<circle fill="#FFFFFF" stroke="#B0B0B0" stroke-width="12" cx="2424.958" cy="916.448" r="30.681"/>
	<circle fill="#FFFFFF" stroke="#B0B0B0" stroke-width="12" cx="2424.958" cy="1112.443" r="30.681"/>
	<circle fill="#FFFFFF" stroke="#B0B0B0" stroke-width="12" cx="2424.958" cy="1229.27" r="30.68"/>
	<circle fill="#FFFFFF" stroke="#A8FF00" stroke-width="12" cx="3038.02" cy="1145.777" r="30.681"/>
	<circle fill="#FFFFFF" stroke="#A8FF00" stroke-width="12" cx="3038.02" cy="1252.604" r="30.68"/>
	<circle fill="#FFFFFF" stroke="#00B000" stroke-width="12" cx="2020.896" cy="959.531" r="30.681"/>
	<circle fill="#FFFFFF" stroke="#00B000" stroke-width="12" cx="2020.896" cy="1067.867" r="30.681"/>
	<circle fill="#FFFFFF" stroke="#00B000" stroke-width="12" cx="2020.896" cy="1173.861" r="30.681"/>
	<circle fill="#FFFFFF" stroke="#00B000" stroke-width="12" cx="2020.896" cy="1282.197" r="30.681"/>
	<circle fill="#FFFFFF" stroke="#00B000" stroke-width="12" cx="2020.896" cy="1392.197" r="30.681"/>
	<circle fill="#FFFFFF" stroke="#00B000" stroke-width="12" cx="2020.896" cy="1500.532" r="30.681"/>
	<circle fill="#FFFFFF" stroke="#BD00B5" stroke-width="12" cx="1500.836" cy="1174.542" r="30.681"/>
	<circle fill="#FFFFFF" stroke="#BD00B5" stroke-width="12" cx="1500.836" cy="1282.877" r="30.681"/>
	<circle fill="#FFFFFF" stroke="#BD00B5" stroke-width="12" cx="1500.836" cy="1388.872" r="30.681"/>
	<circle fill="#FFFFFF" stroke="#BD00B5" stroke-width="12" cx="1500.836" cy="1497.208" r="30.681"/>
	<circle fill="#FFFFFF" stroke="#BD00B5" stroke-width="12" cx="1500.836" cy="1607.208" r="30.681"/>
	<circle fill="#FFFFFF" stroke="#BD00B5" stroke-width="12" cx="1500.836" cy="1715.543" r="30.681"/>
	<circle fill="#FFFFFF" stroke="#BD00B5" stroke-width="12" cx="1500.836" cy="1821.538" r="30.681"/>
	<circle fill="#FFFFFF" stroke="#BD00B5" stroke-width="12" cx="1500.836" cy="1928.365" r="30.681"/>
	<circle fill="#FFFFFF" stroke="#3859FF" stroke-width="12" cx="868.778" cy="1304.752" r="30.681"/>
	<circle fill="#FFFFFF" stroke="#3859FF" stroke-width="12" cx="868.778" cy="1413.088" r="30.681"/>
	<circle fill="#FFFFFF" stroke="#3859FF" stroke-width="12" cx="868.778" cy="1523.088" r="30.681"/>
	<circle fill="#FFFFFF" stroke="#3859FF" stroke-width="12" cx="868.778" cy="1631.423" r="30.681"/>
	<circle fill="#FFFFFF" stroke="#3859FF" stroke-width="12" cx="868.778" cy="1737.418" r="30.681"/>
	<circle fill="#FFFFFF" stroke="#3859FF" stroke-width="12" cx="868.778" cy="1844.245" r="30.681"/>
	<circle fill="#FFFFFF" stroke="#FF0000" stroke-width="12" cx="4088.509" cy="1097.54" r="30.681"/>
	<circle fill="#FFFFFF" stroke="#FF0000" stroke-width="12" cx="4088.509" cy="1205.875" r="30.681"/>
	<circle fill="#FFFFFF" stroke="#FF0000" stroke-width="12" cx="4088.509" cy="1311.87" r="30.681"/>
	<circle fill="#FFFFFF" stroke="#FF0000" stroke-width="12" cx="4088.509" cy="1420.206" r="30.681"/>
	<circle fill="#FFFFFF" stroke="#FF0000" stroke-width="12" cx="4088.509" cy="1530.206" r="30.681"/>
	<circle fill="#FFFFFF" stroke="#3859FF" stroke-width="12" cx="4526.323" cy="1339.199" r="30.68"/>
	<circle fill="#FFFFFF" stroke="#3859FF" stroke-width="12" cx="4526.323" cy="1447.535" r="30.681"/>
	<circle fill="#FFFFFF" stroke="#3859FF" stroke-width="12" cx="4526.323" cy="1553.53" r="30.681"/>
	<circle fill="#FFFFFF" stroke="#3859FF" stroke-width="12" cx="4526.323" cy="1661.865" r="30.681"/>
	<circle fill="#FFFFFF" stroke="#3859FF" stroke-width="12" cx="4526.323" cy="1771.865" r="30.681"/>
	<circle fill="#FFFFFF" stroke="#3859FF" stroke-width="12" cx="4526.323" cy="1880.201" r="30.681"/>
	<circle fill="#FFFFFF" stroke="#3859FF" stroke-width="12" cx="4526.323" cy="2006.195" r="30.681"/>
	<circle fill="#FFFFFF" stroke="#3859FF" stroke-width="12" cx="4167.39" cy="2364.452" r="30.681"/>
	<circle fill="#FFFFFF" stroke="#3859FF" stroke-width="10" cx="2481.319" cy="962.448" r="21.26"/>
	<circle fill="#FFFFFF" stroke="#3859FF" stroke-width="10" cx="2833.131" cy="962.448" r="21.26"/>
	<circle fill="#FFFFFF" stroke="#3859FF" stroke-width="10" cx="3038.019" cy="962.448" r="21.26"/>
	<circle fill="#FFFFFF" stroke="#3859FF" stroke-width="10" cx="3332.319" cy="962.448" r="21.26"/>
	<circle fill="#FFFFFF" stroke="#3859FF" stroke-width="10" cx="3560.26" cy="961.945" r="21.26"/>
	<circle fill="#FFFFFF" stroke="#3859FF" stroke-width="10" cx="3748.361" cy="961.945" r="21.26"/>
	<circle fill="#FFFFFF" stroke="#FFB000" stroke-width="12" cx="3623.362" cy="2504.415" r="30.681"/>
	<circle fill="#FFFFFF" stroke="#FFB000" stroke-width="12" cx="3422.362" cy="3175.415" r="30.681"/>
	<circle fill="#FFFFFF" stroke="#FFB000" stroke-width="12" cx="2725.801" cy="3533.326" r="30.681"/>
	<circle fill="#FFFFFF" stroke="#FFB000" stroke-width="12" cx="2476.33" cy="3779.295" r="30.681"/>
	<circle fill="#FFFFFF" stroke="#FFB000" stroke-width="12" cx="2268.175" cy="3779.295" r="30.681"/>
	<circle fill="#FFFFFF" stroke="#FFB000" stroke-width="12" cx="2124.037" cy="3923.433" r="30.681"/>
	<circle fill="#FFFFFF" stroke="#FFB000" stroke-width="12" cx="2124.362" cy="4039.315" r="30.681"/>
	<circle fill="#FFFFFF" stroke="#FFB000" stroke-width="12" cx="2124.362" cy="4151.315" r="30.681"/>
	<circle fill="#FFFFFF" stroke="#FFB000" stroke-width="12" cx="2124.362" cy="4267.314" r="30.681"/>
	<circle fill="#FFFFFF" stroke="#FFB000" stroke-width="12" cx="2124.362" cy="4379.314" r="30.681"/>
	<circle fill="#FFFFFF" stroke="#FFB000" stroke-width="12" cx="2124.362" cy="4499.314" r="30.681"/>
	<circle fill="#FFFFFF" stroke="#FFB000" stroke-width="12" cx="2124.362" cy="4607.314" r="30.681"/>
	<circle fill="#FFFFFF" stroke="#FFB000" stroke-width="12" cx="2124.362" cy="4715.314" r="30.681"/>
	<circle fill="#FFFFFF" stroke="#FFB000" stroke-width="12" cx="2124.362" cy="4823.314" r="30.681"/>
	<circle fill="#FFFFFF" stroke="#A8FF00" stroke-width="12" cx="3037.319" cy="1780.415" r="30.681"/>
	<circle fill="#FFFFFF" stroke="#A8FF00" stroke-width="12" cx="3514.954" cy="2030.415" r="30.681"/>
	<circle fill="#FFFFFF" stroke="#A8FF00" stroke-width="12" cx="4167.39" cy="2438.247" r="30.681"/>
	<circle fill="#FFFFFF" stroke="#A8FF00" stroke-width="12" cx="4464.361" cy="3266.415" r="30.681"/>
	<circle fill="#FFFFFF" stroke="#A8FF00" stroke-width="12" cx="4463.741" cy="3425.532" r="30.681"/>
	<circle fill="#FFFFFF" stroke="#A8FF00" stroke-width="12" cx="4463.741" cy="3553.868" r="30.681"/>
	<circle fill="#FFFFFF" stroke="#A8FF00" stroke-width="12" cx="4463.741" cy="3679.862" r="30.681"/>
	<circle fill="#FFFFFF" stroke="#A8FF00" stroke-width="12" cx="4463.741" cy="3808.198" r="30.681"/>
	<circle fill="#FFFFFF" stroke="#A8FF00" stroke-width="12" cx="4463.741" cy="3938.198" r="30.681"/>
	<circle fill="#FFFFFF" stroke="#A8FF00" stroke-width="12" cx="4463.741" cy="4066.533" r="30.681"/>
	<circle fill="#FFFFFF" stroke="#A8FF00" stroke-width="12" cx="4463.741" cy="4192.527" r="30.68"/>
	<circle fill="#FFFFFF" stroke="#A8FF00" stroke-width="12" cx="4463.741" cy="4319.355" r="30.681"/>
	<circle fill="#FFFFFF" stroke="#A8FF00" stroke-width="12" cx="4463.741" cy="4449.355" r="30.681"/>
	<circle fill="#FFFFFF" stroke="#A8FF00" stroke-width="12" cx="4463.741" cy="4580.184" r="30.681"/>
	<circle fill="#FFFFFF" stroke="#00B000" stroke-width="12" cx="2186.362" cy="1664.045" r="30.681"/>
	<circle fill="#FFFFFF" stroke="#00B000" stroke-width="12" cx="2438.046" cy="1924.73" r="30.681"/>
	<circle fill="#FFFFFF" stroke="#00B000" stroke-width="12" cx="2722.706" cy="2203.391" r="30.681"/>
	<circle fill="#FFFFFF" stroke="#00B000" stroke-width="12" cx="3066.046" cy="2552.73" r="30.681"/>
	<circle fill="#FFFFFF" stroke="#00B000" stroke-width="12" cx="3495.362" cy="3175.415" r="30.681"/>
	<circle fill="#FFFFFF" stroke="#00B000" stroke-width="12" cx="3780.362" cy="3446.415" r="30.681"/>
	<circle fill="#FFFFFF" stroke="#00B000" stroke-width="12" cx="3876.362" cy="3708.415" r="30.681"/>
	<circle fill="#FFFFFF" stroke="#00B000" stroke-width="12" cx="3876.362" cy="4004.415" r="30.681"/>
	<circle fill="#FFFFFF" stroke="#00B000" stroke-width="12" cx="3876.362" cy="3864.415" r="30.681"/>
	<circle fill="#FFFFFF" stroke="#00B000" stroke-width="12" cx="3874.362" cy="4174.47" r="30.681"/>
	<circle fill="#FFFFFF" stroke="#00B000" stroke-width="12" cx="3875.724" cy="4351.355" r="30.681"/>
	<circle fill="#FFFFFF" stroke="#00B000" stroke-width="12" cx="3979.724" cy="4455.355" r="30.681"/>
	<circle fill="#FFFFFF" stroke="#00B000" stroke-width="12" cx="4077.724" cy="4553.355" r="30.681"/>
	<circle fill="#FFFFFF" stroke="#00B000" stroke-width="12" cx="4181.724" cy="4657.355" r="30.681"/>
	<circle fill="#FFFFFF" stroke="#00B000" stroke-width="12" cx="4464.361" cy="4654.355" r="30.681"/>
	<circle fill="#FFFFFF" stroke="#00B000" stroke-width="12" cx="4567.361" cy="4754.355" r="30.681"/>
	<circle fill="#FFFFFF" stroke="#B0B0B0" stroke-width="12" cx="2561.3" cy="1369.543" r="30.681"/>
	<circle fill="#FFFFFF" stroke="#ED1C24" stroke-width="12" cx="3941.859" cy="1681.548" r="30.681"/>
	<circle fill="#FFFFFF" stroke="#FF0000" stroke-width="12" cx="3760.119" cy="1863.288" r="30.681"/>
	<circle fill="#FFFFFF" stroke="#ED1C24" stroke-width="12" cx="3515.362" cy="2104.415" r="30.681"/>
	<circle fill="#FFFFFF" stroke="#ED1C24" stroke-width="12" cx="3369.747" cy="2252.472" r="30.681"/>
	<circle fill="#FFFFFF" stroke="#ED1C24" stroke-width="12" cx="3012.362" cy="2605.415" r="30.681"/>
	<circle fill="#FFFFFF" stroke="#ED1C24" stroke-width="12" cx="2826.218" cy="2792.486" r="30.681"/>
	<circle fill="#FFFFFF" stroke="#FF0000" stroke-width="12" cx="2518.77" cy="3097.888" r="30.681"/>
	<circle fill="#FFFFFF" stroke="#ED1C24" stroke-width="12" cx="2289.571" cy="3326.236" r="30.681"/>
	<circle fill="#FFFFFF" stroke="#FF0000" stroke-width="12" cx="1999.865" cy="3328.776" r="30.681"/>
	<circle fill="#FFFFFF" stroke="#FF0000" stroke-width="12" cx="1763.318" cy="3334.349" r="30.681"/>
	<circle fill="#FFFFFF" stroke="#FF0000" stroke-width="12" cx="1546.823" cy="3333.102" r="30.681"/>
	<circle fill="#FFFFFF" stroke="#FF0000" stroke-width="12" cx="1401.308" cy="3478.616" r="30.681"/>
	<circle fill="#FFFFFF" stroke="#FF0000" stroke-width="12" cx="1401.308" cy="3633.131" r="30.681"/>
	<circle fill="#FFFFFF" stroke="#FF0000" stroke-width="12" cx="1401.308" cy="3798.147" r="30.681"/>
	<circle fill="#FFFFFF" stroke="#3859FF" stroke-width="12" cx="2774.767" cy="2740.545" r="30.68"/>
	<circle fill="#FFFFFF" stroke="#3859FF" stroke-width="12" cx="3118.674" cy="2501.334" r="30.681"/>
	<circle fill="#FFFFFF" stroke="#3859FF" stroke-width="12" cx="2342.056" cy="2744.658" r="30.68"/>
	<circle fill="#FFFFFF" stroke="#3859FF" stroke-width="12" cx="2001.037" cy="2744.024" r="30.681"/>
	<circle fill="#FFFFFF" stroke="#3859FF" stroke-width="12" cx="1003.753" cy="2746.02" r="30.681"/>
	<circle fill="#FFFFFF" stroke="#3859FF" stroke-width="12" cx="867.115" cy="2609.381" r="30.681"/>
	<circle fill="#FFFFFF" stroke="#3859FF" stroke-width="12" cx="868.2" cy="1990.142" r="30.681"/>
	<circle fill="#FFFFFF" stroke="#BD00B5" stroke-width="12" cx="2030.361" cy="2200.365" r="30.681"/>
	<circle fill="#FFFFFF" stroke="#BD00B5" stroke-width="12" cx="2648.362" cy="2202.365" r="30.681"/>
	<circle fill="#FFFFFF" stroke="#BD00B5" stroke-width="12" cx="3567.362" cy="2448.415" r="30.681"/>
	<circle fill="#FFFFFF" stroke="#BD00B5" stroke-width="12" cx="3316.295" cy="2200.365" r="30.681"/>
	<circle fill="#FFFFFF" stroke="#BD00B5" stroke-width="12" cx="4043.362" cy="2926.415" r="30.681"/>
	<circle fill="#FFFFFF" stroke="#BD00B5" stroke-width="12" cx="4386.361" cy="3265.415" r="30.681"/>
	<circle fill="#FFFFFF" stroke="#BD00B5" stroke-width="12" cx="4893.361" cy="3265.415" r="30.681"/>
	<circle fill="#FFFFFF" stroke="#BD00B5" stroke-width="12" cx="5000.361" cy="3366.415" r="30.681"/>
	<circle fill="#FFFFFF" stroke="#BD00B5" stroke-width="12" cx="5100.361" cy="3466.415" r="30.681"/>
	<circle fill="#FFFFFF" stroke="#BD00B5" stroke-width="12" cx="5102.361" cy="3602.415" r="30.681"/>
	<circle fill="#FFFFFF" stroke="#BD00B5" stroke-width="12" cx="5102.361" cy="3742.415" r="30.681"/>
	<circle fill="#FFFFFF" stroke="#BD00B5" stroke-width="12" cx="5102.361" cy="3882.415" r="30.681"/>
	<circle fill="#FFFFFF" stroke="#B0B0B0" stroke-width="12" cx="3128.362" cy="3711.286" r="30.681"/>
	<circle fill="#FFFFFF" stroke="#B0B0B0" stroke-width="12" cx="3128.362" cy="3466.761" r="30.681"/>
	<circle fill="#FFFFFF" stroke="#B0B0B0" stroke-width="12" cx="2722.041" cy="2688.083" r="30.681"/>
	<circle fill="#FFFFFF" stroke="#B0B0B0" stroke-width="12" cx="2797.98" cy="2204.217" r="30.681"/>
	<circle fill="#FFFFFF" stroke="#B0B0B0" stroke-width="12" cx="3036.252" cy="1854.012" r="30.681"/>
	<circle fill="#FFFFFF" stroke="#B0B0B0" stroke-width="12" cx="3128.362" cy="3884.413" r="30.681"/>
	<circle fill="#FFFFFF" stroke="#B0B0B0" stroke-width="12" cx="3128.362" cy="4049.475" r="30.681"/>
	<circle fill="#FFFFFF" stroke="#B0B0B0" stroke-width="12" cx="3128.362" cy="4205.611" r="30.68"/>
	<circle fill="#FFFFFF" stroke="#B0B0B0" stroke-width="12" cx="3128.362" cy="4357.391" r="30.681"/>
	<circle fill="#FFFFFF" stroke="#B0B0B0" stroke-width="12" cx="3129.362" cy="4599.415" r="30.681"/>
	<circle fill="#FFFFFF" stroke="#B0B0B0" stroke-width="12" cx="3128.362" cy="4775.776" r="30.681"/>
	<circle fill="#FFFFFF" stroke="#B0B0B0" stroke-width="12" cx="3128.362" cy="4994.415" r="30.681"/>
	<circle fill="#FFFFFF" stroke="#B0B0B0" stroke-width="12" cx="2733.726" cy="5165.276" r="30.681"/>
	<circle fill="#FFFFFF" stroke="#B0B0B0" stroke-width="12" cx="2961.997" cy="5165.276" r="30.681"/>
	<circle fill="#FFFFFF" stroke="#B0B0B0" stroke-width="12" cx="2471.362" cy="5166.415" r="30.681"/>
	<circle fill="#FFFFFF" stroke="#B0B0B0" stroke-width="12" cx="2175.362" cy="5166.415" r="30.681"/>
	<circle fill="#FFFFFF" stroke="#B3BEFF" stroke-width="12" cx="2122.862" cy="5112.915" r="30.681"/>
	<circle fill="#FFFFFF" stroke="#B3BEFF" stroke-width="12" cx="1825.914" cy="5113.915" r="30.681"/>
	<circle fill="#FFFFFF" stroke="#B3BEFF" stroke-width="12" cx="1567.139" cy="5113.915" r="30.681"/>
	<circle fill="#FFFFFF" stroke="#B3BEFF" stroke-width="12" cx="1332.627" cy="5113.915" r="30.681"/>
	<circle fill="#FFFFFF" stroke="#B3BEFF" stroke-width="12" cx="1138.259" cy="5113.915" r="30.681"/>
	<circle fill="#FFFFFF" stroke="#99D7FF" stroke-width="12" cx="922.454" cy="2044.198" r="30.681"/>
	<circle fill="#FFFFFF" stroke="#99D7FF" stroke-width="12" cx="1071.434" cy="2188.935" r="30.681"/>
	<circle fill="#FFFFFF" stroke="#99D7FF" stroke-width="12" cx="1071.434" cy="2286.245" r="30.681"/>
	<circle fill="#FFFFFF" stroke="#99D7FF" stroke-width="12" cx="1071.434" cy="2391.438" r="30.681"/>
	<circle fill="#FFFFFF" stroke="#99D7FF" stroke-width="12" cx="1243.391" cy="2641.935" r="30.681"/>
	<circle fill="#FFFFFF" stroke="#99D7FF" stroke-width="12" cx="1073.973" cy="2492.517" r="30.681"/>
	<circle fill="#FFFFFF" stroke="#99D7FF" stroke-width="12" cx="1583.128" cy="2639.576" r="30.68"/>
	<circle fill="#FFFFFF" stroke="#99D7FF" stroke-width="12" cx="1890.761" cy="2632.665" r="30.681"/>
	<circle fill="#FFFFFF" stroke="#99D7FF" stroke-width="12" cx="1770.204" cy="2513.654" r="30.681"/>
	<circle fill="#FFFFFF" stroke="#99D7FF" stroke-width="12" cx="1770.204" cy="2311.654" r="30.681"/>
	<circle fill="#FFFFFF" stroke="#99D7FF" stroke-width="12" cx="2669.041" cy="2635.083" r="30.681"/>
	<circle fill="#FFFFFF" stroke="#99D7FF" stroke-width="12" cx="2521.115" cy="2489.516" r="30.681"/>
	<circle fill="#FFFFFF" stroke="#99D7FF" stroke-width="12" cx="2028.211" cy="2489.516" r="30.681"/>
	<circle fill="#FFFFFF" stroke="#CCEBFF" stroke-width="12" cx="3074.362" cy="4545.415" r="30.681"/>
	<circle fill="#FFFFFF" stroke="#CCEBFF" stroke-width="12" cx="3500.362" cy="4546.415" r="30.681"/>
	<circle fill="#FFFFFF" stroke="#CCEBFF" stroke-width="12" cx="3818.49" cy="4229.398" r="30.681"/>
	<circle fill="#FFFFFF" stroke="#FFF489" stroke-width="12" cx="4955.01" cy="2169.063" r="30.681"/>
	<circle fill="#FFFFFF" stroke="#FFF489" stroke-width="12" cx="4875.01" cy="2249.063" r="30.681"/>
	<circle fill="#FFFFFF" stroke="#FFF489" stroke-width="12" cx="4795.01" cy="2329.063" r="30.681"/>
	<circle fill="#FFFFFF" stroke="#FFF489" stroke-width="12" cx="4715.01" cy="2409.063" r="30.681"/>
	<circle fill="#FFFFFF" stroke="#FFF489" stroke-width="12" cx="4633.01" cy="2491.063" r="30.681"/>
	<circle fill="#FFFFFF" stroke="#FFF489" stroke-width="12" cx="4198.013" cy="2926.415" r="30.681"/>
	<circle fill="#FFFFFF" stroke="#FFF489" stroke-width="12" cx="3569.619" cy="3175.415" r="30.681"/>
	<circle fill="#FFFFFF" stroke="#BA5700" stroke-width="12" cx="3500.307" cy="1402.147" r="30.681"/>
	<circle fill="#FFFFFF" stroke="#BA5700" stroke-width="12" cx="3941.845" cy="1753.581" r="30.681"/>
	<circle fill="#FFFFFF" stroke="#BA5700" stroke-width="12" cx="2614.149" cy="1425.543" r="30.681"/>
	<circle fill="#FFFFFF" stroke="#BA5700" stroke-width="12" cx="2186.362" cy="1739.097" r="30.681"/>
	<circle fill="#FFFFFF" stroke="#BA5700" stroke-width="12" cx="4167.39" cy="2290.085" r="30.681"/>
	<circle fill="#FFFFFF" stroke="#BA5700" stroke-width="12" cx="4123.032" cy="2926.415" r="30.681"/>
	<circle fill="#FFFFFF" stroke="#BA5700" stroke-width="12" cx="3780.039" cy="3370.227" r="30.681"/>
	<circle fill="#FFFFFF" stroke="#BA5700" stroke-width="12" cx="3126.644" cy="3634.734" r="30.681"/>
	<circle fill="#FFFFFF" stroke="#BA5700" stroke-width="12" cx="2673.815" cy="3585.129" r="30.681"/>
	<circle fill="#FFFFFF" stroke="#BA5700" stroke-width="12" cx="2234.43" cy="3272.51" r="30.68"/>
	<circle fill="#FFFFFF" stroke="#BA5700" stroke-width="12" cx="1946.185" cy="2689.284" r="30.681"/>
	<circle fill="#FFFFFF" stroke="#B3BEFF" stroke-width="12" cx="2124.362" cy="4898.135" r="30.681"/>
	<circle fill="#FFFFFF" stroke="#FFB000" stroke-width="12" cx="3616.622" cy="483.28" r="30.681"/>
	<circle fill="#FFFFFF" stroke="#FFB000" stroke-width="12" cx="3616.622" cy="591.615" r="30.681"/>
	<circle fill="#FFFFFF" stroke="#FFB000" stroke-width="12" cx="3616.622" cy="697.61" r="30.681"/>
	<circle fill="#FFFFFF" stroke="#FFB000" stroke-width="12" cx="3616.622" cy="805.945" r="30.681"/>
	<circle fill="#FFFFFF" stroke="#FFB000" stroke-width="12" cx="3616.622" cy="915.945" r="30.681"/>
	<circle fill="#FFFFFF" stroke="#FFB000" stroke-width="12" cx="3616.622" cy="1104.281" r="30.681"/>
	<circle fill="#FFFFFF" stroke="#FFB000" stroke-width="12" cx="3616.622" cy="1210.275" r="30.681"/>
	<circle fill="#FFFFFF" stroke="#FFB000" stroke-width="12" cx="3424.551" cy="1402.347" r="30.681"/>
	<circle fill="#FFFFFF" stroke="#FFB000" stroke-width="12" cx="3427.551" cy="1653.201" r="30.681"/>
	<circle fill="#FFFFFF" stroke="#FFB000" stroke-width="12" cx="3514.954" cy="1954.721" r="30.681"/>
	<circle fill="#FFFFFF" stroke="#BA5700" stroke-width="12" cx="1957.042" cy="2201.125" r="30.681"/>
	<circle fill="#FFFFFF" stroke="#FFF489" stroke-width="12" cx="4463.084" cy="2658.333" r="30.681"/>
	<circle fill="#FFFFFF" stroke="#A8FF00" stroke-width="12" cx="4463.084" cy="2732.763" r="30.681"/>
</g>
</svg>
